%
M48
M72
T01C0.02362
T02C0.03543
T03C0.03800
T04C0.03937
T05C0.04724
T06C0.12598
T07C0.13000
%
T01
X39398Y26230
X59477Y33316
X57115Y50049
X40580Y55364
X22863Y67568
X39005Y89615
X39005Y101230
X23060Y95718
X38808Y118552
X24044Y124852
X40776Y136663
X39005Y151820
X39989Y163434
X23454Y152214
X56131Y175442
X38217Y181348
X39202Y200639
X39202Y215600
X59477Y221899
X56918Y240206
X37627Y245127
X62824Y275442
X89202Y269734
X89005Y239222
X102981Y238631
X119123Y238828
X127587Y242962
X152587Y233907
X162627Y263041
X139202Y262844
X89005Y206545
X123454Y183316
X102587Y175639
X88808Y177017
X59674Y158513
X88217Y143356
X119320Y147489
X123454Y149655
X118335Y132923
X126209Y130757
X142548Y113434
X130540Y103198
X142548Y83907
X142745Y72686
X129359Y64222
X115580Y73867
X89989Y80560
X59871Y96112
X56131Y112844
X87824Y113631
X102391Y112253
X150422Y156741
X145698Y170127
X157115Y169930
X173572Y154773
X178572Y154773
X198847Y150245
X198847Y168159
X179950Y182923
X166564Y192962
X157115Y192962
X145894Y192962
X187233Y128986
X195698Y114025
X193729Y104970
X193926Y97489
X214792Y109694
X164005Y108513
X102587Y51230
X87430Y52017
X120107Y44537
X209280Y20127
X302784Y52017
X302587Y64615
X310855Y73080
X331721Y73277
X343335Y83119
X317745Y39812
X319517Y154576
X310461Y163041
X310461Y173277
X310658Y190403
X331918Y190600
X342351Y196505
X251406Y289615
X218926Y275245
T02
X202666Y283001
X192666Y283001
X182666Y283001
X162666Y283001
X152666Y283001
X142666Y283001
X132666Y283001
T03
X223375Y250167
X223375Y240167
X223375Y230167
X223375Y220167
X223375Y210167
X223375Y200167
X223375Y190167
X223375Y180167
X223375Y170167
X223375Y160167
X223375Y150167
X223375Y140167
X223375Y130167
X223375Y120167
X223375Y110167
X223375Y100167
X223375Y90167
X223375Y80167
X223375Y70167
X223375Y60167
X223375Y50167
X223375Y40167
X223375Y30167
X223375Y20167
X283375Y20167
X283375Y30167
X283375Y40167
X283375Y50167
X283375Y60167
X283375Y70167
X283375Y80167
X283375Y90167
X283375Y100167
X283375Y110167
X283375Y120167
X283375Y130167
X283375Y140167
X283375Y150167
X283375Y160167
X283375Y170167
X283375Y180167
X283375Y190167
X283375Y200167
X283375Y210167
X283375Y220167
X283375Y230167
X283375Y240167
X283375Y250167
T04
X327233Y248100
X327233Y238100
X327233Y228100
X337233Y233100
X337233Y243100
X337233Y223100
X337233Y213100
X327233Y218100
X327233Y132982
X337233Y127982
X337233Y117982
X337233Y107982
X327233Y112982
X327233Y122982
X327233Y102982
X337233Y97982
T05
X189005Y26427
X175225Y26427
X161446Y26427
X147666Y26427
X15973Y61269
X15973Y75049
X15973Y88828
X15973Y102608
X15973Y116387
X15973Y130167
X15973Y143946
X15973Y157726
X15973Y171505
X15973Y185285
X15973Y199064
X15973Y212844
X15973Y226623
X15973Y240403
X15973Y254182
X15973Y267962
T06
X362233Y253100
X362233Y208100
X362233Y137982
X362233Y92982
T07
X17548Y31151
X358099Y31151
X358099Y298867
X17548Y298867
M30
