G75*
%MOIN*%
%OFA0B0*%
%FSLAX25Y25*%
%IPPOS*%
%LPD*%
%AMOC8*
5,1,8,0,0,1.08239X$1,22.5*
%
%ADD10C,0.00000*%
%ADD11C,0.05906*%
%ADD12C,0.03562*%
%ADD13C,0.07087*%
%ADD14C,0.05700*%
%ADD15C,0.05315*%
%ADD16C,0.03543*%
%ADD17C,0.01000*%
%ADD18C,0.01600*%
D10*
X0001800Y0015403D02*
X0375816Y0015403D01*
X0375816Y0314615D01*
X0001800Y0314615D01*
X0001800Y0015403D01*
X0011048Y0031151D02*
X0011050Y0031312D01*
X0011056Y0031472D01*
X0011066Y0031633D01*
X0011080Y0031793D01*
X0011098Y0031953D01*
X0011119Y0032112D01*
X0011145Y0032271D01*
X0011175Y0032429D01*
X0011208Y0032586D01*
X0011246Y0032743D01*
X0011287Y0032898D01*
X0011332Y0033052D01*
X0011381Y0033205D01*
X0011434Y0033357D01*
X0011490Y0033508D01*
X0011551Y0033657D01*
X0011614Y0033805D01*
X0011682Y0033951D01*
X0011753Y0034095D01*
X0011827Y0034237D01*
X0011905Y0034378D01*
X0011987Y0034516D01*
X0012072Y0034653D01*
X0012160Y0034787D01*
X0012252Y0034919D01*
X0012347Y0035049D01*
X0012445Y0035177D01*
X0012546Y0035302D01*
X0012650Y0035424D01*
X0012757Y0035544D01*
X0012867Y0035661D01*
X0012980Y0035776D01*
X0013096Y0035887D01*
X0013215Y0035996D01*
X0013336Y0036101D01*
X0013460Y0036204D01*
X0013586Y0036304D01*
X0013714Y0036400D01*
X0013845Y0036493D01*
X0013979Y0036583D01*
X0014114Y0036670D01*
X0014252Y0036753D01*
X0014391Y0036833D01*
X0014533Y0036909D01*
X0014676Y0036982D01*
X0014821Y0037051D01*
X0014968Y0037117D01*
X0015116Y0037179D01*
X0015266Y0037237D01*
X0015417Y0037292D01*
X0015570Y0037343D01*
X0015724Y0037390D01*
X0015879Y0037433D01*
X0016035Y0037472D01*
X0016191Y0037508D01*
X0016349Y0037539D01*
X0016507Y0037567D01*
X0016666Y0037591D01*
X0016826Y0037611D01*
X0016986Y0037627D01*
X0017146Y0037639D01*
X0017307Y0037647D01*
X0017468Y0037651D01*
X0017628Y0037651D01*
X0017789Y0037647D01*
X0017950Y0037639D01*
X0018110Y0037627D01*
X0018270Y0037611D01*
X0018430Y0037591D01*
X0018589Y0037567D01*
X0018747Y0037539D01*
X0018905Y0037508D01*
X0019061Y0037472D01*
X0019217Y0037433D01*
X0019372Y0037390D01*
X0019526Y0037343D01*
X0019679Y0037292D01*
X0019830Y0037237D01*
X0019980Y0037179D01*
X0020128Y0037117D01*
X0020275Y0037051D01*
X0020420Y0036982D01*
X0020563Y0036909D01*
X0020705Y0036833D01*
X0020844Y0036753D01*
X0020982Y0036670D01*
X0021117Y0036583D01*
X0021251Y0036493D01*
X0021382Y0036400D01*
X0021510Y0036304D01*
X0021636Y0036204D01*
X0021760Y0036101D01*
X0021881Y0035996D01*
X0022000Y0035887D01*
X0022116Y0035776D01*
X0022229Y0035661D01*
X0022339Y0035544D01*
X0022446Y0035424D01*
X0022550Y0035302D01*
X0022651Y0035177D01*
X0022749Y0035049D01*
X0022844Y0034919D01*
X0022936Y0034787D01*
X0023024Y0034653D01*
X0023109Y0034516D01*
X0023191Y0034378D01*
X0023269Y0034237D01*
X0023343Y0034095D01*
X0023414Y0033951D01*
X0023482Y0033805D01*
X0023545Y0033657D01*
X0023606Y0033508D01*
X0023662Y0033357D01*
X0023715Y0033205D01*
X0023764Y0033052D01*
X0023809Y0032898D01*
X0023850Y0032743D01*
X0023888Y0032586D01*
X0023921Y0032429D01*
X0023951Y0032271D01*
X0023977Y0032112D01*
X0023998Y0031953D01*
X0024016Y0031793D01*
X0024030Y0031633D01*
X0024040Y0031472D01*
X0024046Y0031312D01*
X0024048Y0031151D01*
X0024046Y0030990D01*
X0024040Y0030830D01*
X0024030Y0030669D01*
X0024016Y0030509D01*
X0023998Y0030349D01*
X0023977Y0030190D01*
X0023951Y0030031D01*
X0023921Y0029873D01*
X0023888Y0029716D01*
X0023850Y0029559D01*
X0023809Y0029404D01*
X0023764Y0029250D01*
X0023715Y0029097D01*
X0023662Y0028945D01*
X0023606Y0028794D01*
X0023545Y0028645D01*
X0023482Y0028497D01*
X0023414Y0028351D01*
X0023343Y0028207D01*
X0023269Y0028065D01*
X0023191Y0027924D01*
X0023109Y0027786D01*
X0023024Y0027649D01*
X0022936Y0027515D01*
X0022844Y0027383D01*
X0022749Y0027253D01*
X0022651Y0027125D01*
X0022550Y0027000D01*
X0022446Y0026878D01*
X0022339Y0026758D01*
X0022229Y0026641D01*
X0022116Y0026526D01*
X0022000Y0026415D01*
X0021881Y0026306D01*
X0021760Y0026201D01*
X0021636Y0026098D01*
X0021510Y0025998D01*
X0021382Y0025902D01*
X0021251Y0025809D01*
X0021117Y0025719D01*
X0020982Y0025632D01*
X0020844Y0025549D01*
X0020705Y0025469D01*
X0020563Y0025393D01*
X0020420Y0025320D01*
X0020275Y0025251D01*
X0020128Y0025185D01*
X0019980Y0025123D01*
X0019830Y0025065D01*
X0019679Y0025010D01*
X0019526Y0024959D01*
X0019372Y0024912D01*
X0019217Y0024869D01*
X0019061Y0024830D01*
X0018905Y0024794D01*
X0018747Y0024763D01*
X0018589Y0024735D01*
X0018430Y0024711D01*
X0018270Y0024691D01*
X0018110Y0024675D01*
X0017950Y0024663D01*
X0017789Y0024655D01*
X0017628Y0024651D01*
X0017468Y0024651D01*
X0017307Y0024655D01*
X0017146Y0024663D01*
X0016986Y0024675D01*
X0016826Y0024691D01*
X0016666Y0024711D01*
X0016507Y0024735D01*
X0016349Y0024763D01*
X0016191Y0024794D01*
X0016035Y0024830D01*
X0015879Y0024869D01*
X0015724Y0024912D01*
X0015570Y0024959D01*
X0015417Y0025010D01*
X0015266Y0025065D01*
X0015116Y0025123D01*
X0014968Y0025185D01*
X0014821Y0025251D01*
X0014676Y0025320D01*
X0014533Y0025393D01*
X0014391Y0025469D01*
X0014252Y0025549D01*
X0014114Y0025632D01*
X0013979Y0025719D01*
X0013845Y0025809D01*
X0013714Y0025902D01*
X0013586Y0025998D01*
X0013460Y0026098D01*
X0013336Y0026201D01*
X0013215Y0026306D01*
X0013096Y0026415D01*
X0012980Y0026526D01*
X0012867Y0026641D01*
X0012757Y0026758D01*
X0012650Y0026878D01*
X0012546Y0027000D01*
X0012445Y0027125D01*
X0012347Y0027253D01*
X0012252Y0027383D01*
X0012160Y0027515D01*
X0012072Y0027649D01*
X0011987Y0027786D01*
X0011905Y0027924D01*
X0011827Y0028065D01*
X0011753Y0028207D01*
X0011682Y0028351D01*
X0011614Y0028497D01*
X0011551Y0028645D01*
X0011490Y0028794D01*
X0011434Y0028945D01*
X0011381Y0029097D01*
X0011332Y0029250D01*
X0011287Y0029404D01*
X0011246Y0029559D01*
X0011208Y0029716D01*
X0011175Y0029873D01*
X0011145Y0030031D01*
X0011119Y0030190D01*
X0011098Y0030349D01*
X0011080Y0030509D01*
X0011066Y0030669D01*
X0011056Y0030830D01*
X0011050Y0030990D01*
X0011048Y0031151D01*
X0011048Y0298867D02*
X0011050Y0299028D01*
X0011056Y0299188D01*
X0011066Y0299349D01*
X0011080Y0299509D01*
X0011098Y0299669D01*
X0011119Y0299828D01*
X0011145Y0299987D01*
X0011175Y0300145D01*
X0011208Y0300302D01*
X0011246Y0300459D01*
X0011287Y0300614D01*
X0011332Y0300768D01*
X0011381Y0300921D01*
X0011434Y0301073D01*
X0011490Y0301224D01*
X0011551Y0301373D01*
X0011614Y0301521D01*
X0011682Y0301667D01*
X0011753Y0301811D01*
X0011827Y0301953D01*
X0011905Y0302094D01*
X0011987Y0302232D01*
X0012072Y0302369D01*
X0012160Y0302503D01*
X0012252Y0302635D01*
X0012347Y0302765D01*
X0012445Y0302893D01*
X0012546Y0303018D01*
X0012650Y0303140D01*
X0012757Y0303260D01*
X0012867Y0303377D01*
X0012980Y0303492D01*
X0013096Y0303603D01*
X0013215Y0303712D01*
X0013336Y0303817D01*
X0013460Y0303920D01*
X0013586Y0304020D01*
X0013714Y0304116D01*
X0013845Y0304209D01*
X0013979Y0304299D01*
X0014114Y0304386D01*
X0014252Y0304469D01*
X0014391Y0304549D01*
X0014533Y0304625D01*
X0014676Y0304698D01*
X0014821Y0304767D01*
X0014968Y0304833D01*
X0015116Y0304895D01*
X0015266Y0304953D01*
X0015417Y0305008D01*
X0015570Y0305059D01*
X0015724Y0305106D01*
X0015879Y0305149D01*
X0016035Y0305188D01*
X0016191Y0305224D01*
X0016349Y0305255D01*
X0016507Y0305283D01*
X0016666Y0305307D01*
X0016826Y0305327D01*
X0016986Y0305343D01*
X0017146Y0305355D01*
X0017307Y0305363D01*
X0017468Y0305367D01*
X0017628Y0305367D01*
X0017789Y0305363D01*
X0017950Y0305355D01*
X0018110Y0305343D01*
X0018270Y0305327D01*
X0018430Y0305307D01*
X0018589Y0305283D01*
X0018747Y0305255D01*
X0018905Y0305224D01*
X0019061Y0305188D01*
X0019217Y0305149D01*
X0019372Y0305106D01*
X0019526Y0305059D01*
X0019679Y0305008D01*
X0019830Y0304953D01*
X0019980Y0304895D01*
X0020128Y0304833D01*
X0020275Y0304767D01*
X0020420Y0304698D01*
X0020563Y0304625D01*
X0020705Y0304549D01*
X0020844Y0304469D01*
X0020982Y0304386D01*
X0021117Y0304299D01*
X0021251Y0304209D01*
X0021382Y0304116D01*
X0021510Y0304020D01*
X0021636Y0303920D01*
X0021760Y0303817D01*
X0021881Y0303712D01*
X0022000Y0303603D01*
X0022116Y0303492D01*
X0022229Y0303377D01*
X0022339Y0303260D01*
X0022446Y0303140D01*
X0022550Y0303018D01*
X0022651Y0302893D01*
X0022749Y0302765D01*
X0022844Y0302635D01*
X0022936Y0302503D01*
X0023024Y0302369D01*
X0023109Y0302232D01*
X0023191Y0302094D01*
X0023269Y0301953D01*
X0023343Y0301811D01*
X0023414Y0301667D01*
X0023482Y0301521D01*
X0023545Y0301373D01*
X0023606Y0301224D01*
X0023662Y0301073D01*
X0023715Y0300921D01*
X0023764Y0300768D01*
X0023809Y0300614D01*
X0023850Y0300459D01*
X0023888Y0300302D01*
X0023921Y0300145D01*
X0023951Y0299987D01*
X0023977Y0299828D01*
X0023998Y0299669D01*
X0024016Y0299509D01*
X0024030Y0299349D01*
X0024040Y0299188D01*
X0024046Y0299028D01*
X0024048Y0298867D01*
X0024046Y0298706D01*
X0024040Y0298546D01*
X0024030Y0298385D01*
X0024016Y0298225D01*
X0023998Y0298065D01*
X0023977Y0297906D01*
X0023951Y0297747D01*
X0023921Y0297589D01*
X0023888Y0297432D01*
X0023850Y0297275D01*
X0023809Y0297120D01*
X0023764Y0296966D01*
X0023715Y0296813D01*
X0023662Y0296661D01*
X0023606Y0296510D01*
X0023545Y0296361D01*
X0023482Y0296213D01*
X0023414Y0296067D01*
X0023343Y0295923D01*
X0023269Y0295781D01*
X0023191Y0295640D01*
X0023109Y0295502D01*
X0023024Y0295365D01*
X0022936Y0295231D01*
X0022844Y0295099D01*
X0022749Y0294969D01*
X0022651Y0294841D01*
X0022550Y0294716D01*
X0022446Y0294594D01*
X0022339Y0294474D01*
X0022229Y0294357D01*
X0022116Y0294242D01*
X0022000Y0294131D01*
X0021881Y0294022D01*
X0021760Y0293917D01*
X0021636Y0293814D01*
X0021510Y0293714D01*
X0021382Y0293618D01*
X0021251Y0293525D01*
X0021117Y0293435D01*
X0020982Y0293348D01*
X0020844Y0293265D01*
X0020705Y0293185D01*
X0020563Y0293109D01*
X0020420Y0293036D01*
X0020275Y0292967D01*
X0020128Y0292901D01*
X0019980Y0292839D01*
X0019830Y0292781D01*
X0019679Y0292726D01*
X0019526Y0292675D01*
X0019372Y0292628D01*
X0019217Y0292585D01*
X0019061Y0292546D01*
X0018905Y0292510D01*
X0018747Y0292479D01*
X0018589Y0292451D01*
X0018430Y0292427D01*
X0018270Y0292407D01*
X0018110Y0292391D01*
X0017950Y0292379D01*
X0017789Y0292371D01*
X0017628Y0292367D01*
X0017468Y0292367D01*
X0017307Y0292371D01*
X0017146Y0292379D01*
X0016986Y0292391D01*
X0016826Y0292407D01*
X0016666Y0292427D01*
X0016507Y0292451D01*
X0016349Y0292479D01*
X0016191Y0292510D01*
X0016035Y0292546D01*
X0015879Y0292585D01*
X0015724Y0292628D01*
X0015570Y0292675D01*
X0015417Y0292726D01*
X0015266Y0292781D01*
X0015116Y0292839D01*
X0014968Y0292901D01*
X0014821Y0292967D01*
X0014676Y0293036D01*
X0014533Y0293109D01*
X0014391Y0293185D01*
X0014252Y0293265D01*
X0014114Y0293348D01*
X0013979Y0293435D01*
X0013845Y0293525D01*
X0013714Y0293618D01*
X0013586Y0293714D01*
X0013460Y0293814D01*
X0013336Y0293917D01*
X0013215Y0294022D01*
X0013096Y0294131D01*
X0012980Y0294242D01*
X0012867Y0294357D01*
X0012757Y0294474D01*
X0012650Y0294594D01*
X0012546Y0294716D01*
X0012445Y0294841D01*
X0012347Y0294969D01*
X0012252Y0295099D01*
X0012160Y0295231D01*
X0012072Y0295365D01*
X0011987Y0295502D01*
X0011905Y0295640D01*
X0011827Y0295781D01*
X0011753Y0295923D01*
X0011682Y0296067D01*
X0011614Y0296213D01*
X0011551Y0296361D01*
X0011490Y0296510D01*
X0011434Y0296661D01*
X0011381Y0296813D01*
X0011332Y0296966D01*
X0011287Y0297120D01*
X0011246Y0297275D01*
X0011208Y0297432D01*
X0011175Y0297589D01*
X0011145Y0297747D01*
X0011119Y0297906D01*
X0011098Y0298065D01*
X0011080Y0298225D01*
X0011066Y0298385D01*
X0011056Y0298546D01*
X0011050Y0298706D01*
X0011048Y0298867D01*
X0351599Y0298867D02*
X0351601Y0299028D01*
X0351607Y0299188D01*
X0351617Y0299349D01*
X0351631Y0299509D01*
X0351649Y0299669D01*
X0351670Y0299828D01*
X0351696Y0299987D01*
X0351726Y0300145D01*
X0351759Y0300302D01*
X0351797Y0300459D01*
X0351838Y0300614D01*
X0351883Y0300768D01*
X0351932Y0300921D01*
X0351985Y0301073D01*
X0352041Y0301224D01*
X0352102Y0301373D01*
X0352165Y0301521D01*
X0352233Y0301667D01*
X0352304Y0301811D01*
X0352378Y0301953D01*
X0352456Y0302094D01*
X0352538Y0302232D01*
X0352623Y0302369D01*
X0352711Y0302503D01*
X0352803Y0302635D01*
X0352898Y0302765D01*
X0352996Y0302893D01*
X0353097Y0303018D01*
X0353201Y0303140D01*
X0353308Y0303260D01*
X0353418Y0303377D01*
X0353531Y0303492D01*
X0353647Y0303603D01*
X0353766Y0303712D01*
X0353887Y0303817D01*
X0354011Y0303920D01*
X0354137Y0304020D01*
X0354265Y0304116D01*
X0354396Y0304209D01*
X0354530Y0304299D01*
X0354665Y0304386D01*
X0354803Y0304469D01*
X0354942Y0304549D01*
X0355084Y0304625D01*
X0355227Y0304698D01*
X0355372Y0304767D01*
X0355519Y0304833D01*
X0355667Y0304895D01*
X0355817Y0304953D01*
X0355968Y0305008D01*
X0356121Y0305059D01*
X0356275Y0305106D01*
X0356430Y0305149D01*
X0356586Y0305188D01*
X0356742Y0305224D01*
X0356900Y0305255D01*
X0357058Y0305283D01*
X0357217Y0305307D01*
X0357377Y0305327D01*
X0357537Y0305343D01*
X0357697Y0305355D01*
X0357858Y0305363D01*
X0358019Y0305367D01*
X0358179Y0305367D01*
X0358340Y0305363D01*
X0358501Y0305355D01*
X0358661Y0305343D01*
X0358821Y0305327D01*
X0358981Y0305307D01*
X0359140Y0305283D01*
X0359298Y0305255D01*
X0359456Y0305224D01*
X0359612Y0305188D01*
X0359768Y0305149D01*
X0359923Y0305106D01*
X0360077Y0305059D01*
X0360230Y0305008D01*
X0360381Y0304953D01*
X0360531Y0304895D01*
X0360679Y0304833D01*
X0360826Y0304767D01*
X0360971Y0304698D01*
X0361114Y0304625D01*
X0361256Y0304549D01*
X0361395Y0304469D01*
X0361533Y0304386D01*
X0361668Y0304299D01*
X0361802Y0304209D01*
X0361933Y0304116D01*
X0362061Y0304020D01*
X0362187Y0303920D01*
X0362311Y0303817D01*
X0362432Y0303712D01*
X0362551Y0303603D01*
X0362667Y0303492D01*
X0362780Y0303377D01*
X0362890Y0303260D01*
X0362997Y0303140D01*
X0363101Y0303018D01*
X0363202Y0302893D01*
X0363300Y0302765D01*
X0363395Y0302635D01*
X0363487Y0302503D01*
X0363575Y0302369D01*
X0363660Y0302232D01*
X0363742Y0302094D01*
X0363820Y0301953D01*
X0363894Y0301811D01*
X0363965Y0301667D01*
X0364033Y0301521D01*
X0364096Y0301373D01*
X0364157Y0301224D01*
X0364213Y0301073D01*
X0364266Y0300921D01*
X0364315Y0300768D01*
X0364360Y0300614D01*
X0364401Y0300459D01*
X0364439Y0300302D01*
X0364472Y0300145D01*
X0364502Y0299987D01*
X0364528Y0299828D01*
X0364549Y0299669D01*
X0364567Y0299509D01*
X0364581Y0299349D01*
X0364591Y0299188D01*
X0364597Y0299028D01*
X0364599Y0298867D01*
X0364597Y0298706D01*
X0364591Y0298546D01*
X0364581Y0298385D01*
X0364567Y0298225D01*
X0364549Y0298065D01*
X0364528Y0297906D01*
X0364502Y0297747D01*
X0364472Y0297589D01*
X0364439Y0297432D01*
X0364401Y0297275D01*
X0364360Y0297120D01*
X0364315Y0296966D01*
X0364266Y0296813D01*
X0364213Y0296661D01*
X0364157Y0296510D01*
X0364096Y0296361D01*
X0364033Y0296213D01*
X0363965Y0296067D01*
X0363894Y0295923D01*
X0363820Y0295781D01*
X0363742Y0295640D01*
X0363660Y0295502D01*
X0363575Y0295365D01*
X0363487Y0295231D01*
X0363395Y0295099D01*
X0363300Y0294969D01*
X0363202Y0294841D01*
X0363101Y0294716D01*
X0362997Y0294594D01*
X0362890Y0294474D01*
X0362780Y0294357D01*
X0362667Y0294242D01*
X0362551Y0294131D01*
X0362432Y0294022D01*
X0362311Y0293917D01*
X0362187Y0293814D01*
X0362061Y0293714D01*
X0361933Y0293618D01*
X0361802Y0293525D01*
X0361668Y0293435D01*
X0361533Y0293348D01*
X0361395Y0293265D01*
X0361256Y0293185D01*
X0361114Y0293109D01*
X0360971Y0293036D01*
X0360826Y0292967D01*
X0360679Y0292901D01*
X0360531Y0292839D01*
X0360381Y0292781D01*
X0360230Y0292726D01*
X0360077Y0292675D01*
X0359923Y0292628D01*
X0359768Y0292585D01*
X0359612Y0292546D01*
X0359456Y0292510D01*
X0359298Y0292479D01*
X0359140Y0292451D01*
X0358981Y0292427D01*
X0358821Y0292407D01*
X0358661Y0292391D01*
X0358501Y0292379D01*
X0358340Y0292371D01*
X0358179Y0292367D01*
X0358019Y0292367D01*
X0357858Y0292371D01*
X0357697Y0292379D01*
X0357537Y0292391D01*
X0357377Y0292407D01*
X0357217Y0292427D01*
X0357058Y0292451D01*
X0356900Y0292479D01*
X0356742Y0292510D01*
X0356586Y0292546D01*
X0356430Y0292585D01*
X0356275Y0292628D01*
X0356121Y0292675D01*
X0355968Y0292726D01*
X0355817Y0292781D01*
X0355667Y0292839D01*
X0355519Y0292901D01*
X0355372Y0292967D01*
X0355227Y0293036D01*
X0355084Y0293109D01*
X0354942Y0293185D01*
X0354803Y0293265D01*
X0354665Y0293348D01*
X0354530Y0293435D01*
X0354396Y0293525D01*
X0354265Y0293618D01*
X0354137Y0293714D01*
X0354011Y0293814D01*
X0353887Y0293917D01*
X0353766Y0294022D01*
X0353647Y0294131D01*
X0353531Y0294242D01*
X0353418Y0294357D01*
X0353308Y0294474D01*
X0353201Y0294594D01*
X0353097Y0294716D01*
X0352996Y0294841D01*
X0352898Y0294969D01*
X0352803Y0295099D01*
X0352711Y0295231D01*
X0352623Y0295365D01*
X0352538Y0295502D01*
X0352456Y0295640D01*
X0352378Y0295781D01*
X0352304Y0295923D01*
X0352233Y0296067D01*
X0352165Y0296213D01*
X0352102Y0296361D01*
X0352041Y0296510D01*
X0351985Y0296661D01*
X0351932Y0296813D01*
X0351883Y0296966D01*
X0351838Y0297120D01*
X0351797Y0297275D01*
X0351759Y0297432D01*
X0351726Y0297589D01*
X0351696Y0297747D01*
X0351670Y0297906D01*
X0351649Y0298065D01*
X0351631Y0298225D01*
X0351617Y0298385D01*
X0351607Y0298546D01*
X0351601Y0298706D01*
X0351599Y0298867D01*
X0355934Y0253100D02*
X0355936Y0253258D01*
X0355942Y0253416D01*
X0355952Y0253574D01*
X0355966Y0253732D01*
X0355984Y0253889D01*
X0356005Y0254046D01*
X0356031Y0254202D01*
X0356061Y0254358D01*
X0356094Y0254513D01*
X0356132Y0254666D01*
X0356173Y0254819D01*
X0356218Y0254971D01*
X0356267Y0255122D01*
X0356320Y0255271D01*
X0356376Y0255419D01*
X0356436Y0255565D01*
X0356500Y0255710D01*
X0356568Y0255853D01*
X0356639Y0255995D01*
X0356713Y0256135D01*
X0356791Y0256272D01*
X0356873Y0256408D01*
X0356957Y0256542D01*
X0357046Y0256673D01*
X0357137Y0256802D01*
X0357232Y0256929D01*
X0357329Y0257054D01*
X0357430Y0257176D01*
X0357534Y0257295D01*
X0357641Y0257412D01*
X0357751Y0257526D01*
X0357864Y0257637D01*
X0357979Y0257746D01*
X0358097Y0257851D01*
X0358218Y0257953D01*
X0358341Y0258053D01*
X0358467Y0258149D01*
X0358595Y0258242D01*
X0358725Y0258332D01*
X0358858Y0258418D01*
X0358993Y0258502D01*
X0359129Y0258581D01*
X0359268Y0258658D01*
X0359409Y0258730D01*
X0359551Y0258800D01*
X0359695Y0258865D01*
X0359841Y0258927D01*
X0359988Y0258985D01*
X0360137Y0259040D01*
X0360287Y0259091D01*
X0360438Y0259138D01*
X0360590Y0259181D01*
X0360743Y0259220D01*
X0360898Y0259256D01*
X0361053Y0259287D01*
X0361209Y0259315D01*
X0361365Y0259339D01*
X0361522Y0259359D01*
X0361680Y0259375D01*
X0361837Y0259387D01*
X0361996Y0259395D01*
X0362154Y0259399D01*
X0362312Y0259399D01*
X0362470Y0259395D01*
X0362629Y0259387D01*
X0362786Y0259375D01*
X0362944Y0259359D01*
X0363101Y0259339D01*
X0363257Y0259315D01*
X0363413Y0259287D01*
X0363568Y0259256D01*
X0363723Y0259220D01*
X0363876Y0259181D01*
X0364028Y0259138D01*
X0364179Y0259091D01*
X0364329Y0259040D01*
X0364478Y0258985D01*
X0364625Y0258927D01*
X0364771Y0258865D01*
X0364915Y0258800D01*
X0365057Y0258730D01*
X0365198Y0258658D01*
X0365337Y0258581D01*
X0365473Y0258502D01*
X0365608Y0258418D01*
X0365741Y0258332D01*
X0365871Y0258242D01*
X0365999Y0258149D01*
X0366125Y0258053D01*
X0366248Y0257953D01*
X0366369Y0257851D01*
X0366487Y0257746D01*
X0366602Y0257637D01*
X0366715Y0257526D01*
X0366825Y0257412D01*
X0366932Y0257295D01*
X0367036Y0257176D01*
X0367137Y0257054D01*
X0367234Y0256929D01*
X0367329Y0256802D01*
X0367420Y0256673D01*
X0367509Y0256542D01*
X0367593Y0256408D01*
X0367675Y0256272D01*
X0367753Y0256135D01*
X0367827Y0255995D01*
X0367898Y0255853D01*
X0367966Y0255710D01*
X0368030Y0255565D01*
X0368090Y0255419D01*
X0368146Y0255271D01*
X0368199Y0255122D01*
X0368248Y0254971D01*
X0368293Y0254819D01*
X0368334Y0254666D01*
X0368372Y0254513D01*
X0368405Y0254358D01*
X0368435Y0254202D01*
X0368461Y0254046D01*
X0368482Y0253889D01*
X0368500Y0253732D01*
X0368514Y0253574D01*
X0368524Y0253416D01*
X0368530Y0253258D01*
X0368532Y0253100D01*
X0368530Y0252942D01*
X0368524Y0252784D01*
X0368514Y0252626D01*
X0368500Y0252468D01*
X0368482Y0252311D01*
X0368461Y0252154D01*
X0368435Y0251998D01*
X0368405Y0251842D01*
X0368372Y0251687D01*
X0368334Y0251534D01*
X0368293Y0251381D01*
X0368248Y0251229D01*
X0368199Y0251078D01*
X0368146Y0250929D01*
X0368090Y0250781D01*
X0368030Y0250635D01*
X0367966Y0250490D01*
X0367898Y0250347D01*
X0367827Y0250205D01*
X0367753Y0250065D01*
X0367675Y0249928D01*
X0367593Y0249792D01*
X0367509Y0249658D01*
X0367420Y0249527D01*
X0367329Y0249398D01*
X0367234Y0249271D01*
X0367137Y0249146D01*
X0367036Y0249024D01*
X0366932Y0248905D01*
X0366825Y0248788D01*
X0366715Y0248674D01*
X0366602Y0248563D01*
X0366487Y0248454D01*
X0366369Y0248349D01*
X0366248Y0248247D01*
X0366125Y0248147D01*
X0365999Y0248051D01*
X0365871Y0247958D01*
X0365741Y0247868D01*
X0365608Y0247782D01*
X0365473Y0247698D01*
X0365337Y0247619D01*
X0365198Y0247542D01*
X0365057Y0247470D01*
X0364915Y0247400D01*
X0364771Y0247335D01*
X0364625Y0247273D01*
X0364478Y0247215D01*
X0364329Y0247160D01*
X0364179Y0247109D01*
X0364028Y0247062D01*
X0363876Y0247019D01*
X0363723Y0246980D01*
X0363568Y0246944D01*
X0363413Y0246913D01*
X0363257Y0246885D01*
X0363101Y0246861D01*
X0362944Y0246841D01*
X0362786Y0246825D01*
X0362629Y0246813D01*
X0362470Y0246805D01*
X0362312Y0246801D01*
X0362154Y0246801D01*
X0361996Y0246805D01*
X0361837Y0246813D01*
X0361680Y0246825D01*
X0361522Y0246841D01*
X0361365Y0246861D01*
X0361209Y0246885D01*
X0361053Y0246913D01*
X0360898Y0246944D01*
X0360743Y0246980D01*
X0360590Y0247019D01*
X0360438Y0247062D01*
X0360287Y0247109D01*
X0360137Y0247160D01*
X0359988Y0247215D01*
X0359841Y0247273D01*
X0359695Y0247335D01*
X0359551Y0247400D01*
X0359409Y0247470D01*
X0359268Y0247542D01*
X0359129Y0247619D01*
X0358993Y0247698D01*
X0358858Y0247782D01*
X0358725Y0247868D01*
X0358595Y0247958D01*
X0358467Y0248051D01*
X0358341Y0248147D01*
X0358218Y0248247D01*
X0358097Y0248349D01*
X0357979Y0248454D01*
X0357864Y0248563D01*
X0357751Y0248674D01*
X0357641Y0248788D01*
X0357534Y0248905D01*
X0357430Y0249024D01*
X0357329Y0249146D01*
X0357232Y0249271D01*
X0357137Y0249398D01*
X0357046Y0249527D01*
X0356957Y0249658D01*
X0356873Y0249792D01*
X0356791Y0249928D01*
X0356713Y0250065D01*
X0356639Y0250205D01*
X0356568Y0250347D01*
X0356500Y0250490D01*
X0356436Y0250635D01*
X0356376Y0250781D01*
X0356320Y0250929D01*
X0356267Y0251078D01*
X0356218Y0251229D01*
X0356173Y0251381D01*
X0356132Y0251534D01*
X0356094Y0251687D01*
X0356061Y0251842D01*
X0356031Y0251998D01*
X0356005Y0252154D01*
X0355984Y0252311D01*
X0355966Y0252468D01*
X0355952Y0252626D01*
X0355942Y0252784D01*
X0355936Y0252942D01*
X0355934Y0253100D01*
X0355934Y0208100D02*
X0355936Y0208258D01*
X0355942Y0208416D01*
X0355952Y0208574D01*
X0355966Y0208732D01*
X0355984Y0208889D01*
X0356005Y0209046D01*
X0356031Y0209202D01*
X0356061Y0209358D01*
X0356094Y0209513D01*
X0356132Y0209666D01*
X0356173Y0209819D01*
X0356218Y0209971D01*
X0356267Y0210122D01*
X0356320Y0210271D01*
X0356376Y0210419D01*
X0356436Y0210565D01*
X0356500Y0210710D01*
X0356568Y0210853D01*
X0356639Y0210995D01*
X0356713Y0211135D01*
X0356791Y0211272D01*
X0356873Y0211408D01*
X0356957Y0211542D01*
X0357046Y0211673D01*
X0357137Y0211802D01*
X0357232Y0211929D01*
X0357329Y0212054D01*
X0357430Y0212176D01*
X0357534Y0212295D01*
X0357641Y0212412D01*
X0357751Y0212526D01*
X0357864Y0212637D01*
X0357979Y0212746D01*
X0358097Y0212851D01*
X0358218Y0212953D01*
X0358341Y0213053D01*
X0358467Y0213149D01*
X0358595Y0213242D01*
X0358725Y0213332D01*
X0358858Y0213418D01*
X0358993Y0213502D01*
X0359129Y0213581D01*
X0359268Y0213658D01*
X0359409Y0213730D01*
X0359551Y0213800D01*
X0359695Y0213865D01*
X0359841Y0213927D01*
X0359988Y0213985D01*
X0360137Y0214040D01*
X0360287Y0214091D01*
X0360438Y0214138D01*
X0360590Y0214181D01*
X0360743Y0214220D01*
X0360898Y0214256D01*
X0361053Y0214287D01*
X0361209Y0214315D01*
X0361365Y0214339D01*
X0361522Y0214359D01*
X0361680Y0214375D01*
X0361837Y0214387D01*
X0361996Y0214395D01*
X0362154Y0214399D01*
X0362312Y0214399D01*
X0362470Y0214395D01*
X0362629Y0214387D01*
X0362786Y0214375D01*
X0362944Y0214359D01*
X0363101Y0214339D01*
X0363257Y0214315D01*
X0363413Y0214287D01*
X0363568Y0214256D01*
X0363723Y0214220D01*
X0363876Y0214181D01*
X0364028Y0214138D01*
X0364179Y0214091D01*
X0364329Y0214040D01*
X0364478Y0213985D01*
X0364625Y0213927D01*
X0364771Y0213865D01*
X0364915Y0213800D01*
X0365057Y0213730D01*
X0365198Y0213658D01*
X0365337Y0213581D01*
X0365473Y0213502D01*
X0365608Y0213418D01*
X0365741Y0213332D01*
X0365871Y0213242D01*
X0365999Y0213149D01*
X0366125Y0213053D01*
X0366248Y0212953D01*
X0366369Y0212851D01*
X0366487Y0212746D01*
X0366602Y0212637D01*
X0366715Y0212526D01*
X0366825Y0212412D01*
X0366932Y0212295D01*
X0367036Y0212176D01*
X0367137Y0212054D01*
X0367234Y0211929D01*
X0367329Y0211802D01*
X0367420Y0211673D01*
X0367509Y0211542D01*
X0367593Y0211408D01*
X0367675Y0211272D01*
X0367753Y0211135D01*
X0367827Y0210995D01*
X0367898Y0210853D01*
X0367966Y0210710D01*
X0368030Y0210565D01*
X0368090Y0210419D01*
X0368146Y0210271D01*
X0368199Y0210122D01*
X0368248Y0209971D01*
X0368293Y0209819D01*
X0368334Y0209666D01*
X0368372Y0209513D01*
X0368405Y0209358D01*
X0368435Y0209202D01*
X0368461Y0209046D01*
X0368482Y0208889D01*
X0368500Y0208732D01*
X0368514Y0208574D01*
X0368524Y0208416D01*
X0368530Y0208258D01*
X0368532Y0208100D01*
X0368530Y0207942D01*
X0368524Y0207784D01*
X0368514Y0207626D01*
X0368500Y0207468D01*
X0368482Y0207311D01*
X0368461Y0207154D01*
X0368435Y0206998D01*
X0368405Y0206842D01*
X0368372Y0206687D01*
X0368334Y0206534D01*
X0368293Y0206381D01*
X0368248Y0206229D01*
X0368199Y0206078D01*
X0368146Y0205929D01*
X0368090Y0205781D01*
X0368030Y0205635D01*
X0367966Y0205490D01*
X0367898Y0205347D01*
X0367827Y0205205D01*
X0367753Y0205065D01*
X0367675Y0204928D01*
X0367593Y0204792D01*
X0367509Y0204658D01*
X0367420Y0204527D01*
X0367329Y0204398D01*
X0367234Y0204271D01*
X0367137Y0204146D01*
X0367036Y0204024D01*
X0366932Y0203905D01*
X0366825Y0203788D01*
X0366715Y0203674D01*
X0366602Y0203563D01*
X0366487Y0203454D01*
X0366369Y0203349D01*
X0366248Y0203247D01*
X0366125Y0203147D01*
X0365999Y0203051D01*
X0365871Y0202958D01*
X0365741Y0202868D01*
X0365608Y0202782D01*
X0365473Y0202698D01*
X0365337Y0202619D01*
X0365198Y0202542D01*
X0365057Y0202470D01*
X0364915Y0202400D01*
X0364771Y0202335D01*
X0364625Y0202273D01*
X0364478Y0202215D01*
X0364329Y0202160D01*
X0364179Y0202109D01*
X0364028Y0202062D01*
X0363876Y0202019D01*
X0363723Y0201980D01*
X0363568Y0201944D01*
X0363413Y0201913D01*
X0363257Y0201885D01*
X0363101Y0201861D01*
X0362944Y0201841D01*
X0362786Y0201825D01*
X0362629Y0201813D01*
X0362470Y0201805D01*
X0362312Y0201801D01*
X0362154Y0201801D01*
X0361996Y0201805D01*
X0361837Y0201813D01*
X0361680Y0201825D01*
X0361522Y0201841D01*
X0361365Y0201861D01*
X0361209Y0201885D01*
X0361053Y0201913D01*
X0360898Y0201944D01*
X0360743Y0201980D01*
X0360590Y0202019D01*
X0360438Y0202062D01*
X0360287Y0202109D01*
X0360137Y0202160D01*
X0359988Y0202215D01*
X0359841Y0202273D01*
X0359695Y0202335D01*
X0359551Y0202400D01*
X0359409Y0202470D01*
X0359268Y0202542D01*
X0359129Y0202619D01*
X0358993Y0202698D01*
X0358858Y0202782D01*
X0358725Y0202868D01*
X0358595Y0202958D01*
X0358467Y0203051D01*
X0358341Y0203147D01*
X0358218Y0203247D01*
X0358097Y0203349D01*
X0357979Y0203454D01*
X0357864Y0203563D01*
X0357751Y0203674D01*
X0357641Y0203788D01*
X0357534Y0203905D01*
X0357430Y0204024D01*
X0357329Y0204146D01*
X0357232Y0204271D01*
X0357137Y0204398D01*
X0357046Y0204527D01*
X0356957Y0204658D01*
X0356873Y0204792D01*
X0356791Y0204928D01*
X0356713Y0205065D01*
X0356639Y0205205D01*
X0356568Y0205347D01*
X0356500Y0205490D01*
X0356436Y0205635D01*
X0356376Y0205781D01*
X0356320Y0205929D01*
X0356267Y0206078D01*
X0356218Y0206229D01*
X0356173Y0206381D01*
X0356132Y0206534D01*
X0356094Y0206687D01*
X0356061Y0206842D01*
X0356031Y0206998D01*
X0356005Y0207154D01*
X0355984Y0207311D01*
X0355966Y0207468D01*
X0355952Y0207626D01*
X0355942Y0207784D01*
X0355936Y0207942D01*
X0355934Y0208100D01*
X0355934Y0137982D02*
X0355936Y0138140D01*
X0355942Y0138298D01*
X0355952Y0138456D01*
X0355966Y0138614D01*
X0355984Y0138771D01*
X0356005Y0138928D01*
X0356031Y0139084D01*
X0356061Y0139240D01*
X0356094Y0139395D01*
X0356132Y0139548D01*
X0356173Y0139701D01*
X0356218Y0139853D01*
X0356267Y0140004D01*
X0356320Y0140153D01*
X0356376Y0140301D01*
X0356436Y0140447D01*
X0356500Y0140592D01*
X0356568Y0140735D01*
X0356639Y0140877D01*
X0356713Y0141017D01*
X0356791Y0141154D01*
X0356873Y0141290D01*
X0356957Y0141424D01*
X0357046Y0141555D01*
X0357137Y0141684D01*
X0357232Y0141811D01*
X0357329Y0141936D01*
X0357430Y0142058D01*
X0357534Y0142177D01*
X0357641Y0142294D01*
X0357751Y0142408D01*
X0357864Y0142519D01*
X0357979Y0142628D01*
X0358097Y0142733D01*
X0358218Y0142835D01*
X0358341Y0142935D01*
X0358467Y0143031D01*
X0358595Y0143124D01*
X0358725Y0143214D01*
X0358858Y0143300D01*
X0358993Y0143384D01*
X0359129Y0143463D01*
X0359268Y0143540D01*
X0359409Y0143612D01*
X0359551Y0143682D01*
X0359695Y0143747D01*
X0359841Y0143809D01*
X0359988Y0143867D01*
X0360137Y0143922D01*
X0360287Y0143973D01*
X0360438Y0144020D01*
X0360590Y0144063D01*
X0360743Y0144102D01*
X0360898Y0144138D01*
X0361053Y0144169D01*
X0361209Y0144197D01*
X0361365Y0144221D01*
X0361522Y0144241D01*
X0361680Y0144257D01*
X0361837Y0144269D01*
X0361996Y0144277D01*
X0362154Y0144281D01*
X0362312Y0144281D01*
X0362470Y0144277D01*
X0362629Y0144269D01*
X0362786Y0144257D01*
X0362944Y0144241D01*
X0363101Y0144221D01*
X0363257Y0144197D01*
X0363413Y0144169D01*
X0363568Y0144138D01*
X0363723Y0144102D01*
X0363876Y0144063D01*
X0364028Y0144020D01*
X0364179Y0143973D01*
X0364329Y0143922D01*
X0364478Y0143867D01*
X0364625Y0143809D01*
X0364771Y0143747D01*
X0364915Y0143682D01*
X0365057Y0143612D01*
X0365198Y0143540D01*
X0365337Y0143463D01*
X0365473Y0143384D01*
X0365608Y0143300D01*
X0365741Y0143214D01*
X0365871Y0143124D01*
X0365999Y0143031D01*
X0366125Y0142935D01*
X0366248Y0142835D01*
X0366369Y0142733D01*
X0366487Y0142628D01*
X0366602Y0142519D01*
X0366715Y0142408D01*
X0366825Y0142294D01*
X0366932Y0142177D01*
X0367036Y0142058D01*
X0367137Y0141936D01*
X0367234Y0141811D01*
X0367329Y0141684D01*
X0367420Y0141555D01*
X0367509Y0141424D01*
X0367593Y0141290D01*
X0367675Y0141154D01*
X0367753Y0141017D01*
X0367827Y0140877D01*
X0367898Y0140735D01*
X0367966Y0140592D01*
X0368030Y0140447D01*
X0368090Y0140301D01*
X0368146Y0140153D01*
X0368199Y0140004D01*
X0368248Y0139853D01*
X0368293Y0139701D01*
X0368334Y0139548D01*
X0368372Y0139395D01*
X0368405Y0139240D01*
X0368435Y0139084D01*
X0368461Y0138928D01*
X0368482Y0138771D01*
X0368500Y0138614D01*
X0368514Y0138456D01*
X0368524Y0138298D01*
X0368530Y0138140D01*
X0368532Y0137982D01*
X0368530Y0137824D01*
X0368524Y0137666D01*
X0368514Y0137508D01*
X0368500Y0137350D01*
X0368482Y0137193D01*
X0368461Y0137036D01*
X0368435Y0136880D01*
X0368405Y0136724D01*
X0368372Y0136569D01*
X0368334Y0136416D01*
X0368293Y0136263D01*
X0368248Y0136111D01*
X0368199Y0135960D01*
X0368146Y0135811D01*
X0368090Y0135663D01*
X0368030Y0135517D01*
X0367966Y0135372D01*
X0367898Y0135229D01*
X0367827Y0135087D01*
X0367753Y0134947D01*
X0367675Y0134810D01*
X0367593Y0134674D01*
X0367509Y0134540D01*
X0367420Y0134409D01*
X0367329Y0134280D01*
X0367234Y0134153D01*
X0367137Y0134028D01*
X0367036Y0133906D01*
X0366932Y0133787D01*
X0366825Y0133670D01*
X0366715Y0133556D01*
X0366602Y0133445D01*
X0366487Y0133336D01*
X0366369Y0133231D01*
X0366248Y0133129D01*
X0366125Y0133029D01*
X0365999Y0132933D01*
X0365871Y0132840D01*
X0365741Y0132750D01*
X0365608Y0132664D01*
X0365473Y0132580D01*
X0365337Y0132501D01*
X0365198Y0132424D01*
X0365057Y0132352D01*
X0364915Y0132282D01*
X0364771Y0132217D01*
X0364625Y0132155D01*
X0364478Y0132097D01*
X0364329Y0132042D01*
X0364179Y0131991D01*
X0364028Y0131944D01*
X0363876Y0131901D01*
X0363723Y0131862D01*
X0363568Y0131826D01*
X0363413Y0131795D01*
X0363257Y0131767D01*
X0363101Y0131743D01*
X0362944Y0131723D01*
X0362786Y0131707D01*
X0362629Y0131695D01*
X0362470Y0131687D01*
X0362312Y0131683D01*
X0362154Y0131683D01*
X0361996Y0131687D01*
X0361837Y0131695D01*
X0361680Y0131707D01*
X0361522Y0131723D01*
X0361365Y0131743D01*
X0361209Y0131767D01*
X0361053Y0131795D01*
X0360898Y0131826D01*
X0360743Y0131862D01*
X0360590Y0131901D01*
X0360438Y0131944D01*
X0360287Y0131991D01*
X0360137Y0132042D01*
X0359988Y0132097D01*
X0359841Y0132155D01*
X0359695Y0132217D01*
X0359551Y0132282D01*
X0359409Y0132352D01*
X0359268Y0132424D01*
X0359129Y0132501D01*
X0358993Y0132580D01*
X0358858Y0132664D01*
X0358725Y0132750D01*
X0358595Y0132840D01*
X0358467Y0132933D01*
X0358341Y0133029D01*
X0358218Y0133129D01*
X0358097Y0133231D01*
X0357979Y0133336D01*
X0357864Y0133445D01*
X0357751Y0133556D01*
X0357641Y0133670D01*
X0357534Y0133787D01*
X0357430Y0133906D01*
X0357329Y0134028D01*
X0357232Y0134153D01*
X0357137Y0134280D01*
X0357046Y0134409D01*
X0356957Y0134540D01*
X0356873Y0134674D01*
X0356791Y0134810D01*
X0356713Y0134947D01*
X0356639Y0135087D01*
X0356568Y0135229D01*
X0356500Y0135372D01*
X0356436Y0135517D01*
X0356376Y0135663D01*
X0356320Y0135811D01*
X0356267Y0135960D01*
X0356218Y0136111D01*
X0356173Y0136263D01*
X0356132Y0136416D01*
X0356094Y0136569D01*
X0356061Y0136724D01*
X0356031Y0136880D01*
X0356005Y0137036D01*
X0355984Y0137193D01*
X0355966Y0137350D01*
X0355952Y0137508D01*
X0355942Y0137666D01*
X0355936Y0137824D01*
X0355934Y0137982D01*
X0355934Y0092982D02*
X0355936Y0093140D01*
X0355942Y0093298D01*
X0355952Y0093456D01*
X0355966Y0093614D01*
X0355984Y0093771D01*
X0356005Y0093928D01*
X0356031Y0094084D01*
X0356061Y0094240D01*
X0356094Y0094395D01*
X0356132Y0094548D01*
X0356173Y0094701D01*
X0356218Y0094853D01*
X0356267Y0095004D01*
X0356320Y0095153D01*
X0356376Y0095301D01*
X0356436Y0095447D01*
X0356500Y0095592D01*
X0356568Y0095735D01*
X0356639Y0095877D01*
X0356713Y0096017D01*
X0356791Y0096154D01*
X0356873Y0096290D01*
X0356957Y0096424D01*
X0357046Y0096555D01*
X0357137Y0096684D01*
X0357232Y0096811D01*
X0357329Y0096936D01*
X0357430Y0097058D01*
X0357534Y0097177D01*
X0357641Y0097294D01*
X0357751Y0097408D01*
X0357864Y0097519D01*
X0357979Y0097628D01*
X0358097Y0097733D01*
X0358218Y0097835D01*
X0358341Y0097935D01*
X0358467Y0098031D01*
X0358595Y0098124D01*
X0358725Y0098214D01*
X0358858Y0098300D01*
X0358993Y0098384D01*
X0359129Y0098463D01*
X0359268Y0098540D01*
X0359409Y0098612D01*
X0359551Y0098682D01*
X0359695Y0098747D01*
X0359841Y0098809D01*
X0359988Y0098867D01*
X0360137Y0098922D01*
X0360287Y0098973D01*
X0360438Y0099020D01*
X0360590Y0099063D01*
X0360743Y0099102D01*
X0360898Y0099138D01*
X0361053Y0099169D01*
X0361209Y0099197D01*
X0361365Y0099221D01*
X0361522Y0099241D01*
X0361680Y0099257D01*
X0361837Y0099269D01*
X0361996Y0099277D01*
X0362154Y0099281D01*
X0362312Y0099281D01*
X0362470Y0099277D01*
X0362629Y0099269D01*
X0362786Y0099257D01*
X0362944Y0099241D01*
X0363101Y0099221D01*
X0363257Y0099197D01*
X0363413Y0099169D01*
X0363568Y0099138D01*
X0363723Y0099102D01*
X0363876Y0099063D01*
X0364028Y0099020D01*
X0364179Y0098973D01*
X0364329Y0098922D01*
X0364478Y0098867D01*
X0364625Y0098809D01*
X0364771Y0098747D01*
X0364915Y0098682D01*
X0365057Y0098612D01*
X0365198Y0098540D01*
X0365337Y0098463D01*
X0365473Y0098384D01*
X0365608Y0098300D01*
X0365741Y0098214D01*
X0365871Y0098124D01*
X0365999Y0098031D01*
X0366125Y0097935D01*
X0366248Y0097835D01*
X0366369Y0097733D01*
X0366487Y0097628D01*
X0366602Y0097519D01*
X0366715Y0097408D01*
X0366825Y0097294D01*
X0366932Y0097177D01*
X0367036Y0097058D01*
X0367137Y0096936D01*
X0367234Y0096811D01*
X0367329Y0096684D01*
X0367420Y0096555D01*
X0367509Y0096424D01*
X0367593Y0096290D01*
X0367675Y0096154D01*
X0367753Y0096017D01*
X0367827Y0095877D01*
X0367898Y0095735D01*
X0367966Y0095592D01*
X0368030Y0095447D01*
X0368090Y0095301D01*
X0368146Y0095153D01*
X0368199Y0095004D01*
X0368248Y0094853D01*
X0368293Y0094701D01*
X0368334Y0094548D01*
X0368372Y0094395D01*
X0368405Y0094240D01*
X0368435Y0094084D01*
X0368461Y0093928D01*
X0368482Y0093771D01*
X0368500Y0093614D01*
X0368514Y0093456D01*
X0368524Y0093298D01*
X0368530Y0093140D01*
X0368532Y0092982D01*
X0368530Y0092824D01*
X0368524Y0092666D01*
X0368514Y0092508D01*
X0368500Y0092350D01*
X0368482Y0092193D01*
X0368461Y0092036D01*
X0368435Y0091880D01*
X0368405Y0091724D01*
X0368372Y0091569D01*
X0368334Y0091416D01*
X0368293Y0091263D01*
X0368248Y0091111D01*
X0368199Y0090960D01*
X0368146Y0090811D01*
X0368090Y0090663D01*
X0368030Y0090517D01*
X0367966Y0090372D01*
X0367898Y0090229D01*
X0367827Y0090087D01*
X0367753Y0089947D01*
X0367675Y0089810D01*
X0367593Y0089674D01*
X0367509Y0089540D01*
X0367420Y0089409D01*
X0367329Y0089280D01*
X0367234Y0089153D01*
X0367137Y0089028D01*
X0367036Y0088906D01*
X0366932Y0088787D01*
X0366825Y0088670D01*
X0366715Y0088556D01*
X0366602Y0088445D01*
X0366487Y0088336D01*
X0366369Y0088231D01*
X0366248Y0088129D01*
X0366125Y0088029D01*
X0365999Y0087933D01*
X0365871Y0087840D01*
X0365741Y0087750D01*
X0365608Y0087664D01*
X0365473Y0087580D01*
X0365337Y0087501D01*
X0365198Y0087424D01*
X0365057Y0087352D01*
X0364915Y0087282D01*
X0364771Y0087217D01*
X0364625Y0087155D01*
X0364478Y0087097D01*
X0364329Y0087042D01*
X0364179Y0086991D01*
X0364028Y0086944D01*
X0363876Y0086901D01*
X0363723Y0086862D01*
X0363568Y0086826D01*
X0363413Y0086795D01*
X0363257Y0086767D01*
X0363101Y0086743D01*
X0362944Y0086723D01*
X0362786Y0086707D01*
X0362629Y0086695D01*
X0362470Y0086687D01*
X0362312Y0086683D01*
X0362154Y0086683D01*
X0361996Y0086687D01*
X0361837Y0086695D01*
X0361680Y0086707D01*
X0361522Y0086723D01*
X0361365Y0086743D01*
X0361209Y0086767D01*
X0361053Y0086795D01*
X0360898Y0086826D01*
X0360743Y0086862D01*
X0360590Y0086901D01*
X0360438Y0086944D01*
X0360287Y0086991D01*
X0360137Y0087042D01*
X0359988Y0087097D01*
X0359841Y0087155D01*
X0359695Y0087217D01*
X0359551Y0087282D01*
X0359409Y0087352D01*
X0359268Y0087424D01*
X0359129Y0087501D01*
X0358993Y0087580D01*
X0358858Y0087664D01*
X0358725Y0087750D01*
X0358595Y0087840D01*
X0358467Y0087933D01*
X0358341Y0088029D01*
X0358218Y0088129D01*
X0358097Y0088231D01*
X0357979Y0088336D01*
X0357864Y0088445D01*
X0357751Y0088556D01*
X0357641Y0088670D01*
X0357534Y0088787D01*
X0357430Y0088906D01*
X0357329Y0089028D01*
X0357232Y0089153D01*
X0357137Y0089280D01*
X0357046Y0089409D01*
X0356957Y0089540D01*
X0356873Y0089674D01*
X0356791Y0089810D01*
X0356713Y0089947D01*
X0356639Y0090087D01*
X0356568Y0090229D01*
X0356500Y0090372D01*
X0356436Y0090517D01*
X0356376Y0090663D01*
X0356320Y0090811D01*
X0356267Y0090960D01*
X0356218Y0091111D01*
X0356173Y0091263D01*
X0356132Y0091416D01*
X0356094Y0091569D01*
X0356061Y0091724D01*
X0356031Y0091880D01*
X0356005Y0092036D01*
X0355984Y0092193D01*
X0355966Y0092350D01*
X0355952Y0092508D01*
X0355942Y0092666D01*
X0355936Y0092824D01*
X0355934Y0092982D01*
X0351599Y0031151D02*
X0351601Y0031312D01*
X0351607Y0031472D01*
X0351617Y0031633D01*
X0351631Y0031793D01*
X0351649Y0031953D01*
X0351670Y0032112D01*
X0351696Y0032271D01*
X0351726Y0032429D01*
X0351759Y0032586D01*
X0351797Y0032743D01*
X0351838Y0032898D01*
X0351883Y0033052D01*
X0351932Y0033205D01*
X0351985Y0033357D01*
X0352041Y0033508D01*
X0352102Y0033657D01*
X0352165Y0033805D01*
X0352233Y0033951D01*
X0352304Y0034095D01*
X0352378Y0034237D01*
X0352456Y0034378D01*
X0352538Y0034516D01*
X0352623Y0034653D01*
X0352711Y0034787D01*
X0352803Y0034919D01*
X0352898Y0035049D01*
X0352996Y0035177D01*
X0353097Y0035302D01*
X0353201Y0035424D01*
X0353308Y0035544D01*
X0353418Y0035661D01*
X0353531Y0035776D01*
X0353647Y0035887D01*
X0353766Y0035996D01*
X0353887Y0036101D01*
X0354011Y0036204D01*
X0354137Y0036304D01*
X0354265Y0036400D01*
X0354396Y0036493D01*
X0354530Y0036583D01*
X0354665Y0036670D01*
X0354803Y0036753D01*
X0354942Y0036833D01*
X0355084Y0036909D01*
X0355227Y0036982D01*
X0355372Y0037051D01*
X0355519Y0037117D01*
X0355667Y0037179D01*
X0355817Y0037237D01*
X0355968Y0037292D01*
X0356121Y0037343D01*
X0356275Y0037390D01*
X0356430Y0037433D01*
X0356586Y0037472D01*
X0356742Y0037508D01*
X0356900Y0037539D01*
X0357058Y0037567D01*
X0357217Y0037591D01*
X0357377Y0037611D01*
X0357537Y0037627D01*
X0357697Y0037639D01*
X0357858Y0037647D01*
X0358019Y0037651D01*
X0358179Y0037651D01*
X0358340Y0037647D01*
X0358501Y0037639D01*
X0358661Y0037627D01*
X0358821Y0037611D01*
X0358981Y0037591D01*
X0359140Y0037567D01*
X0359298Y0037539D01*
X0359456Y0037508D01*
X0359612Y0037472D01*
X0359768Y0037433D01*
X0359923Y0037390D01*
X0360077Y0037343D01*
X0360230Y0037292D01*
X0360381Y0037237D01*
X0360531Y0037179D01*
X0360679Y0037117D01*
X0360826Y0037051D01*
X0360971Y0036982D01*
X0361114Y0036909D01*
X0361256Y0036833D01*
X0361395Y0036753D01*
X0361533Y0036670D01*
X0361668Y0036583D01*
X0361802Y0036493D01*
X0361933Y0036400D01*
X0362061Y0036304D01*
X0362187Y0036204D01*
X0362311Y0036101D01*
X0362432Y0035996D01*
X0362551Y0035887D01*
X0362667Y0035776D01*
X0362780Y0035661D01*
X0362890Y0035544D01*
X0362997Y0035424D01*
X0363101Y0035302D01*
X0363202Y0035177D01*
X0363300Y0035049D01*
X0363395Y0034919D01*
X0363487Y0034787D01*
X0363575Y0034653D01*
X0363660Y0034516D01*
X0363742Y0034378D01*
X0363820Y0034237D01*
X0363894Y0034095D01*
X0363965Y0033951D01*
X0364033Y0033805D01*
X0364096Y0033657D01*
X0364157Y0033508D01*
X0364213Y0033357D01*
X0364266Y0033205D01*
X0364315Y0033052D01*
X0364360Y0032898D01*
X0364401Y0032743D01*
X0364439Y0032586D01*
X0364472Y0032429D01*
X0364502Y0032271D01*
X0364528Y0032112D01*
X0364549Y0031953D01*
X0364567Y0031793D01*
X0364581Y0031633D01*
X0364591Y0031472D01*
X0364597Y0031312D01*
X0364599Y0031151D01*
X0364597Y0030990D01*
X0364591Y0030830D01*
X0364581Y0030669D01*
X0364567Y0030509D01*
X0364549Y0030349D01*
X0364528Y0030190D01*
X0364502Y0030031D01*
X0364472Y0029873D01*
X0364439Y0029716D01*
X0364401Y0029559D01*
X0364360Y0029404D01*
X0364315Y0029250D01*
X0364266Y0029097D01*
X0364213Y0028945D01*
X0364157Y0028794D01*
X0364096Y0028645D01*
X0364033Y0028497D01*
X0363965Y0028351D01*
X0363894Y0028207D01*
X0363820Y0028065D01*
X0363742Y0027924D01*
X0363660Y0027786D01*
X0363575Y0027649D01*
X0363487Y0027515D01*
X0363395Y0027383D01*
X0363300Y0027253D01*
X0363202Y0027125D01*
X0363101Y0027000D01*
X0362997Y0026878D01*
X0362890Y0026758D01*
X0362780Y0026641D01*
X0362667Y0026526D01*
X0362551Y0026415D01*
X0362432Y0026306D01*
X0362311Y0026201D01*
X0362187Y0026098D01*
X0362061Y0025998D01*
X0361933Y0025902D01*
X0361802Y0025809D01*
X0361668Y0025719D01*
X0361533Y0025632D01*
X0361395Y0025549D01*
X0361256Y0025469D01*
X0361114Y0025393D01*
X0360971Y0025320D01*
X0360826Y0025251D01*
X0360679Y0025185D01*
X0360531Y0025123D01*
X0360381Y0025065D01*
X0360230Y0025010D01*
X0360077Y0024959D01*
X0359923Y0024912D01*
X0359768Y0024869D01*
X0359612Y0024830D01*
X0359456Y0024794D01*
X0359298Y0024763D01*
X0359140Y0024735D01*
X0358981Y0024711D01*
X0358821Y0024691D01*
X0358661Y0024675D01*
X0358501Y0024663D01*
X0358340Y0024655D01*
X0358179Y0024651D01*
X0358019Y0024651D01*
X0357858Y0024655D01*
X0357697Y0024663D01*
X0357537Y0024675D01*
X0357377Y0024691D01*
X0357217Y0024711D01*
X0357058Y0024735D01*
X0356900Y0024763D01*
X0356742Y0024794D01*
X0356586Y0024830D01*
X0356430Y0024869D01*
X0356275Y0024912D01*
X0356121Y0024959D01*
X0355968Y0025010D01*
X0355817Y0025065D01*
X0355667Y0025123D01*
X0355519Y0025185D01*
X0355372Y0025251D01*
X0355227Y0025320D01*
X0355084Y0025393D01*
X0354942Y0025469D01*
X0354803Y0025549D01*
X0354665Y0025632D01*
X0354530Y0025719D01*
X0354396Y0025809D01*
X0354265Y0025902D01*
X0354137Y0025998D01*
X0354011Y0026098D01*
X0353887Y0026201D01*
X0353766Y0026306D01*
X0353647Y0026415D01*
X0353531Y0026526D01*
X0353418Y0026641D01*
X0353308Y0026758D01*
X0353201Y0026878D01*
X0353097Y0027000D01*
X0352996Y0027125D01*
X0352898Y0027253D01*
X0352803Y0027383D01*
X0352711Y0027515D01*
X0352623Y0027649D01*
X0352538Y0027786D01*
X0352456Y0027924D01*
X0352378Y0028065D01*
X0352304Y0028207D01*
X0352233Y0028351D01*
X0352165Y0028497D01*
X0352102Y0028645D01*
X0352041Y0028794D01*
X0351985Y0028945D01*
X0351932Y0029097D01*
X0351883Y0029250D01*
X0351838Y0029404D01*
X0351797Y0029559D01*
X0351759Y0029716D01*
X0351726Y0029873D01*
X0351696Y0030031D01*
X0351670Y0030190D01*
X0351649Y0030349D01*
X0351631Y0030509D01*
X0351617Y0030669D01*
X0351607Y0030830D01*
X0351601Y0030990D01*
X0351599Y0031151D01*
D11*
X0337233Y0097982D03*
X0327233Y0102982D03*
X0327233Y0112982D03*
X0327233Y0122982D03*
X0337233Y0127982D03*
X0337233Y0117982D03*
X0337233Y0107982D03*
X0327233Y0132982D03*
X0337233Y0213100D03*
X0337233Y0223100D03*
X0337233Y0233100D03*
X0337233Y0243100D03*
X0327233Y0248100D03*
X0327233Y0238100D03*
X0327233Y0228100D03*
X0327233Y0218100D03*
D12*
X0178572Y0154773D03*
X0173572Y0154773D03*
D13*
X0015973Y0157726D03*
X0015973Y0143946D03*
X0015973Y0130167D03*
X0015973Y0116387D03*
X0015973Y0102608D03*
X0015973Y0088828D03*
X0015973Y0075049D03*
X0015973Y0061269D03*
X0147666Y0026427D03*
X0161446Y0026427D03*
X0175225Y0026427D03*
X0189005Y0026427D03*
X0015973Y0171505D03*
X0015973Y0185285D03*
X0015973Y0199064D03*
X0015973Y0212844D03*
X0015973Y0226623D03*
X0015973Y0240403D03*
X0015973Y0254182D03*
X0015973Y0267962D03*
D14*
X0223375Y0250167D03*
X0223375Y0240167D03*
X0223375Y0230167D03*
X0223375Y0220167D03*
X0223375Y0210167D03*
X0223375Y0200167D03*
X0223375Y0190167D03*
X0223375Y0180167D03*
X0223375Y0170167D03*
X0223375Y0160167D03*
X0223375Y0150167D03*
X0223375Y0140167D03*
X0223375Y0130167D03*
X0223375Y0120167D03*
X0223375Y0110167D03*
X0223375Y0100167D03*
X0223375Y0090167D03*
X0223375Y0080167D03*
X0223375Y0070167D03*
X0223375Y0060167D03*
X0223375Y0050167D03*
X0223375Y0040167D03*
X0223375Y0030167D03*
X0223375Y0020167D03*
X0283375Y0020167D03*
X0283375Y0030167D03*
X0283375Y0040167D03*
X0283375Y0050167D03*
X0283375Y0060167D03*
X0283375Y0070167D03*
X0283375Y0080167D03*
X0283375Y0090167D03*
X0283375Y0100167D03*
X0283375Y0110167D03*
X0283375Y0120167D03*
X0283375Y0130167D03*
X0283375Y0140167D03*
X0283375Y0150167D03*
X0283375Y0160167D03*
X0283375Y0170167D03*
X0283375Y0180167D03*
X0283375Y0190167D03*
X0283375Y0200167D03*
X0283375Y0210167D03*
X0283375Y0220167D03*
X0283375Y0230167D03*
X0283375Y0240167D03*
X0283375Y0250167D03*
D15*
X0202666Y0283001D03*
X0192666Y0283001D03*
X0182666Y0283001D03*
X0162666Y0283001D03*
X0152666Y0283001D03*
X0142666Y0283001D03*
X0132666Y0283001D03*
D16*
X0139202Y0262844D03*
X0162627Y0263041D03*
X0127587Y0242962D03*
X0119123Y0238828D03*
X0102981Y0238631D03*
X0089005Y0239222D03*
X0056918Y0240206D03*
X0059477Y0221899D03*
X0039202Y0215600D03*
X0039202Y0200639D03*
X0038217Y0181348D03*
X0056131Y0175442D03*
X0039989Y0163434D03*
X0039005Y0151820D03*
X0040776Y0136663D03*
X0024044Y0124852D03*
X0038808Y0118552D03*
X0056131Y0112844D03*
X0039005Y0101230D03*
X0039005Y0089615D03*
X0023060Y0095718D03*
X0022863Y0067568D03*
X0040580Y0055364D03*
X0057115Y0050049D03*
X0059477Y0033316D03*
X0039398Y0026230D03*
X0087430Y0052017D03*
X0102587Y0051230D03*
X0120107Y0044537D03*
X0129359Y0064222D03*
X0115580Y0073867D03*
X0089989Y0080560D03*
X0059871Y0096112D03*
X0087824Y0113631D03*
X0102391Y0112253D03*
X0126209Y0130757D03*
X0118335Y0132923D03*
X0119320Y0147489D03*
X0123454Y0149655D03*
X0145698Y0170127D03*
X0157115Y0169930D03*
X0150422Y0156741D03*
X0123454Y0183316D03*
X0102587Y0175639D03*
X0088808Y0177017D03*
X0059674Y0158513D03*
X0088217Y0143356D03*
X0130540Y0103198D03*
X0142548Y0113434D03*
X0164005Y0108513D03*
X0187233Y0128986D03*
X0195698Y0114025D03*
X0193729Y0104970D03*
X0193926Y0097489D03*
X0214792Y0109694D03*
X0198847Y0150245D03*
X0198847Y0168159D03*
X0179950Y0182923D03*
X0166564Y0192962D03*
X0157115Y0192962D03*
X0145894Y0192962D03*
X0152587Y0233907D03*
X0089005Y0206545D03*
X0037627Y0245127D03*
X0062824Y0275442D03*
X0089202Y0269734D03*
X0218926Y0275245D03*
X0251406Y0289615D03*
X0342351Y0196505D03*
X0331918Y0190600D03*
X0310658Y0190403D03*
X0310461Y0173277D03*
X0310461Y0163041D03*
X0319517Y0154576D03*
X0343335Y0083119D03*
X0331721Y0073277D03*
X0310855Y0073080D03*
X0302587Y0064615D03*
X0302784Y0052017D03*
X0317745Y0039812D03*
X0209280Y0020127D03*
X0142745Y0072686D03*
X0142548Y0083907D03*
X0023454Y0152214D03*
D17*
X0072666Y0152199D02*
X0121654Y0152199D01*
X0121714Y0152259D02*
X0120850Y0151395D01*
X0120420Y0150358D01*
X0119931Y0150561D01*
X0118709Y0150561D01*
X0117580Y0150094D01*
X0116716Y0149229D01*
X0116248Y0148100D01*
X0116248Y0146878D01*
X0116716Y0145750D01*
X0117580Y0144885D01*
X0118709Y0144418D01*
X0119931Y0144418D01*
X0121060Y0144885D01*
X0121924Y0145750D01*
X0122353Y0146786D01*
X0122843Y0146583D01*
X0124065Y0146583D01*
X0125193Y0147051D01*
X0126058Y0147915D01*
X0126525Y0149044D01*
X0126525Y0150266D01*
X0126058Y0151395D01*
X0125193Y0152259D01*
X0124065Y0152726D01*
X0122843Y0152726D01*
X0121714Y0152259D01*
X0120769Y0151200D02*
X0072666Y0151200D01*
X0072666Y0150202D02*
X0117841Y0150202D01*
X0116705Y0149203D02*
X0072666Y0149203D01*
X0072666Y0148205D02*
X0116291Y0148205D01*
X0116248Y0147206D02*
X0072666Y0147206D01*
X0072666Y0146208D02*
X0087077Y0146208D01*
X0087606Y0146427D02*
X0086477Y0145960D01*
X0085613Y0145096D01*
X0085146Y0143967D01*
X0085146Y0142745D01*
X0085613Y0141616D01*
X0086477Y0140752D01*
X0087606Y0140284D01*
X0088828Y0140284D01*
X0089957Y0140752D01*
X0090821Y0141616D01*
X0091289Y0142745D01*
X0091289Y0143967D01*
X0090821Y0145096D01*
X0089957Y0145960D01*
X0088828Y0146427D01*
X0087606Y0146427D01*
X0089358Y0146208D02*
X0116526Y0146208D01*
X0117256Y0145209D02*
X0090708Y0145209D01*
X0091188Y0144211D02*
X0135658Y0144211D01*
X0135658Y0145209D02*
X0121384Y0145209D01*
X0122114Y0146208D02*
X0135658Y0146208D01*
X0135658Y0147206D02*
X0125349Y0147206D01*
X0126178Y0148205D02*
X0135658Y0148205D01*
X0135658Y0149203D02*
X0126525Y0149203D01*
X0126525Y0150202D02*
X0135658Y0150202D01*
X0135658Y0151200D02*
X0126138Y0151200D01*
X0125253Y0152199D02*
X0135658Y0152199D01*
X0135658Y0153197D02*
X0072666Y0153197D01*
X0072666Y0154196D02*
X0135658Y0154196D01*
X0135658Y0155194D02*
X0072666Y0155194D01*
X0072666Y0156193D02*
X0135658Y0156193D01*
X0135658Y0157191D02*
X0072666Y0157191D01*
X0072666Y0158190D02*
X0135658Y0158190D01*
X0135658Y0159189D02*
X0072666Y0159189D01*
X0072666Y0160187D02*
X0135658Y0160187D01*
X0135658Y0161186D02*
X0072666Y0161186D01*
X0072666Y0162184D02*
X0135658Y0162184D01*
X0135658Y0163183D02*
X0072666Y0163183D01*
X0072666Y0164181D02*
X0135658Y0164181D01*
X0135658Y0165180D02*
X0072666Y0165180D01*
X0072666Y0166178D02*
X0135658Y0166178D01*
X0135658Y0167177D02*
X0072666Y0167177D01*
X0072666Y0168175D02*
X0135658Y0168175D01*
X0135658Y0169174D02*
X0072666Y0169174D01*
X0072666Y0170172D02*
X0135658Y0170172D01*
X0135658Y0171171D02*
X0072666Y0171171D01*
X0072666Y0172169D02*
X0135658Y0172169D01*
X0135658Y0173168D02*
X0104460Y0173168D01*
X0104327Y0173035D02*
X0105191Y0173899D01*
X0105659Y0175028D01*
X0105659Y0176250D01*
X0105191Y0177379D01*
X0104327Y0178243D01*
X0103198Y0178711D01*
X0101976Y0178711D01*
X0100847Y0178243D01*
X0099983Y0177379D01*
X0099516Y0176250D01*
X0099516Y0175028D01*
X0099983Y0173899D01*
X0100847Y0173035D01*
X0101976Y0172567D01*
X0103198Y0172567D01*
X0104327Y0173035D01*
X0105302Y0174166D02*
X0135658Y0174166D01*
X0135658Y0175165D02*
X0105659Y0175165D01*
X0105659Y0176163D02*
X0135658Y0176163D01*
X0135658Y0177162D02*
X0105281Y0177162D01*
X0104410Y0178160D02*
X0135658Y0178160D01*
X0135658Y0179159D02*
X0072666Y0179159D01*
X0072666Y0180157D02*
X0135658Y0180157D01*
X0135658Y0181156D02*
X0125637Y0181156D01*
X0126058Y0181576D02*
X0125193Y0180712D01*
X0124065Y0180245D01*
X0122843Y0180245D01*
X0121714Y0180712D01*
X0120850Y0181576D01*
X0120382Y0182705D01*
X0120382Y0183927D01*
X0120850Y0185056D01*
X0121714Y0185920D01*
X0122843Y0186388D01*
X0124065Y0186388D01*
X0125193Y0185920D01*
X0126058Y0185056D01*
X0126525Y0183927D01*
X0126525Y0182705D01*
X0126058Y0181576D01*
X0126297Y0182154D02*
X0135658Y0182154D01*
X0135658Y0183153D02*
X0126525Y0183153D01*
X0126432Y0184151D02*
X0135658Y0184151D01*
X0135658Y0185150D02*
X0125964Y0185150D01*
X0124643Y0186148D02*
X0135658Y0186148D01*
X0135658Y0187147D02*
X0072666Y0187147D01*
X0072666Y0188145D02*
X0135658Y0188145D01*
X0135658Y0189144D02*
X0072666Y0189144D01*
X0072666Y0190142D02*
X0135658Y0190142D01*
X0135658Y0191141D02*
X0072666Y0191141D01*
X0072666Y0192139D02*
X0135658Y0192139D01*
X0135658Y0193138D02*
X0072666Y0193138D01*
X0072666Y0194136D02*
X0135658Y0194136D01*
X0135658Y0195135D02*
X0072666Y0195135D01*
X0072666Y0196133D02*
X0135658Y0196133D01*
X0135658Y0197132D02*
X0072666Y0197132D01*
X0072666Y0198130D02*
X0135658Y0198130D01*
X0135658Y0199129D02*
X0072666Y0199129D01*
X0072666Y0200127D02*
X0135658Y0200127D01*
X0135658Y0201126D02*
X0072666Y0201126D01*
X0072666Y0202124D02*
X0135658Y0202124D01*
X0135658Y0203123D02*
X0072666Y0203123D01*
X0072666Y0204122D02*
X0087084Y0204122D01*
X0087265Y0203941D02*
X0088394Y0203473D01*
X0089616Y0203473D01*
X0090745Y0203941D01*
X0091609Y0204805D01*
X0092076Y0205934D01*
X0092076Y0207156D01*
X0091609Y0208285D01*
X0090745Y0209149D01*
X0089616Y0209616D01*
X0088394Y0209616D01*
X0087265Y0209149D01*
X0086401Y0208285D01*
X0085933Y0207156D01*
X0085933Y0205934D01*
X0086401Y0204805D01*
X0087265Y0203941D01*
X0086270Y0205120D02*
X0072666Y0205120D01*
X0072666Y0206119D02*
X0085933Y0206119D01*
X0085933Y0207117D02*
X0072666Y0207117D01*
X0072666Y0208116D02*
X0086331Y0208116D01*
X0087230Y0209114D02*
X0072666Y0209114D01*
X0072666Y0210113D02*
X0135658Y0210113D01*
X0135658Y0211111D02*
X0072666Y0211111D01*
X0072666Y0212110D02*
X0135658Y0212110D01*
X0135658Y0213108D02*
X0072666Y0213108D01*
X0072666Y0214107D02*
X0135658Y0214107D01*
X0135658Y0215105D02*
X0072666Y0215105D01*
X0072666Y0216104D02*
X0135658Y0216104D01*
X0135658Y0217102D02*
X0072666Y0217102D01*
X0072666Y0218101D02*
X0135658Y0218101D01*
X0135658Y0219099D02*
X0072666Y0219099D01*
X0072666Y0220098D02*
X0135658Y0220098D01*
X0135658Y0221096D02*
X0072666Y0221096D01*
X0072666Y0222095D02*
X0135658Y0222095D01*
X0135658Y0223093D02*
X0072666Y0223093D01*
X0072666Y0224092D02*
X0135658Y0224092D01*
X0135658Y0225090D02*
X0072666Y0225090D01*
X0072666Y0226089D02*
X0135658Y0226089D01*
X0135658Y0227087D02*
X0072666Y0227087D01*
X0072666Y0228086D02*
X0135658Y0228086D01*
X0135658Y0229084D02*
X0072666Y0229084D01*
X0072666Y0230083D02*
X0135658Y0230083D01*
X0135658Y0231081D02*
X0072666Y0231081D01*
X0072666Y0232080D02*
X0135658Y0232080D01*
X0135658Y0233078D02*
X0072666Y0233078D01*
X0072666Y0234077D02*
X0135658Y0234077D01*
X0135658Y0235075D02*
X0072666Y0235075D01*
X0072666Y0236074D02*
X0101194Y0236074D01*
X0101241Y0236027D02*
X0102370Y0235560D01*
X0103592Y0235560D01*
X0104721Y0236027D01*
X0105585Y0236891D01*
X0106053Y0238020D01*
X0106053Y0239242D01*
X0105585Y0240371D01*
X0104721Y0241235D01*
X0103592Y0241703D01*
X0102370Y0241703D01*
X0101241Y0241235D01*
X0100377Y0240371D01*
X0099909Y0239242D01*
X0099909Y0238020D01*
X0100377Y0236891D01*
X0101241Y0236027D01*
X0100302Y0237072D02*
X0072666Y0237072D01*
X0072666Y0238071D02*
X0099909Y0238071D01*
X0099909Y0239069D02*
X0072666Y0239069D01*
X0072666Y0240068D02*
X0100251Y0240068D01*
X0101072Y0241066D02*
X0072666Y0241066D01*
X0072666Y0242065D02*
X0135658Y0242065D01*
X0135658Y0243063D02*
X0072666Y0243063D01*
X0072666Y0244062D02*
X0135658Y0244062D01*
X0135658Y0245060D02*
X0072666Y0245060D01*
X0072666Y0246059D02*
X0135658Y0246059D01*
X0135658Y0247058D02*
X0072666Y0247058D01*
X0072666Y0248056D02*
X0135658Y0248056D01*
X0135658Y0249055D02*
X0072666Y0249055D01*
X0072666Y0250053D02*
X0135658Y0250053D01*
X0135658Y0251052D02*
X0072666Y0251052D01*
X0072666Y0252050D02*
X0135658Y0252050D01*
X0135658Y0253049D02*
X0072666Y0253049D01*
X0072666Y0254047D02*
X0135658Y0254047D01*
X0135658Y0255046D02*
X0072666Y0255046D01*
X0072666Y0256044D02*
X0135658Y0256044D01*
X0135658Y0257043D02*
X0072666Y0257043D01*
X0072666Y0258041D02*
X0135658Y0258041D01*
X0135658Y0259040D02*
X0072666Y0259040D01*
X0072666Y0260038D02*
X0135658Y0260038D01*
X0135658Y0261037D02*
X0072666Y0261037D01*
X0072666Y0262035D02*
X0135658Y0262035D01*
X0135658Y0263034D02*
X0072666Y0263034D01*
X0072666Y0264032D02*
X0135658Y0264032D01*
X0135658Y0265031D02*
X0072666Y0265031D01*
X0072666Y0266029D02*
X0135658Y0266029D01*
X0135658Y0267028D02*
X0090696Y0267028D01*
X0090942Y0267130D02*
X0091806Y0267994D01*
X0092273Y0269123D01*
X0092273Y0270345D01*
X0091806Y0271474D01*
X0090942Y0272338D01*
X0089813Y0272805D01*
X0088591Y0272805D01*
X0087462Y0272338D01*
X0086598Y0271474D01*
X0086130Y0270345D01*
X0086130Y0269123D01*
X0086598Y0267994D01*
X0087462Y0267130D01*
X0088591Y0266662D01*
X0089813Y0266662D01*
X0090942Y0267130D01*
X0091819Y0268026D02*
X0135658Y0268026D01*
X0135658Y0269025D02*
X0092233Y0269025D01*
X0092273Y0270023D02*
X0135658Y0270023D01*
X0135658Y0271022D02*
X0091993Y0271022D01*
X0091259Y0272020D02*
X0135658Y0272020D01*
X0135658Y0273019D02*
X0072666Y0273019D01*
X0072666Y0274017D02*
X0135658Y0274017D01*
X0135658Y0275016D02*
X0072666Y0275016D01*
X0072666Y0276014D02*
X0135658Y0276014D01*
X0135658Y0277013D02*
X0072666Y0277013D01*
X0072666Y0278011D02*
X0135658Y0278011D01*
X0135658Y0279010D02*
X0072666Y0279010D01*
X0072666Y0280008D02*
X0130062Y0280008D01*
X0130424Y0279646D02*
X0131879Y0279044D01*
X0133453Y0279044D01*
X0134908Y0279646D01*
X0135658Y0280397D01*
X0135658Y0016903D01*
X0072666Y0016903D01*
X0072666Y0283710D01*
X0128749Y0283885D01*
X0128709Y0283788D01*
X0128709Y0282214D01*
X0129311Y0280760D01*
X0130424Y0279646D01*
X0129209Y0281007D02*
X0072666Y0281007D01*
X0072666Y0282005D02*
X0128795Y0282005D01*
X0128709Y0283004D02*
X0072666Y0283004D01*
X0072666Y0272020D02*
X0087144Y0272020D01*
X0086410Y0271022D02*
X0072666Y0271022D01*
X0072666Y0270023D02*
X0086130Y0270023D01*
X0086170Y0269025D02*
X0072666Y0269025D01*
X0072666Y0268026D02*
X0086584Y0268026D01*
X0087707Y0267028D02*
X0072666Y0267028D01*
X0104890Y0241066D02*
X0117017Y0241066D01*
X0117383Y0241432D02*
X0116519Y0240568D01*
X0116051Y0239439D01*
X0116051Y0238217D01*
X0116519Y0237088D01*
X0117383Y0236224D01*
X0118512Y0235756D01*
X0119734Y0235756D01*
X0120863Y0236224D01*
X0121727Y0237088D01*
X0122194Y0238217D01*
X0122194Y0239439D01*
X0121727Y0240568D01*
X0120863Y0241432D01*
X0119734Y0241900D01*
X0118512Y0241900D01*
X0117383Y0241432D01*
X0116312Y0240068D02*
X0105711Y0240068D01*
X0106053Y0239069D02*
X0116051Y0239069D01*
X0116112Y0238071D02*
X0106053Y0238071D01*
X0105660Y0237072D02*
X0116535Y0237072D01*
X0117745Y0236074D02*
X0104768Y0236074D01*
X0120500Y0236074D02*
X0135658Y0236074D01*
X0135658Y0237072D02*
X0121711Y0237072D01*
X0122134Y0238071D02*
X0135658Y0238071D01*
X0135658Y0239069D02*
X0122194Y0239069D01*
X0121934Y0240068D02*
X0135658Y0240068D01*
X0135658Y0241066D02*
X0121228Y0241066D01*
X0135658Y0209114D02*
X0090779Y0209114D01*
X0091679Y0208116D02*
X0135658Y0208116D01*
X0135658Y0207117D02*
X0092076Y0207117D01*
X0092076Y0206119D02*
X0135658Y0206119D01*
X0135658Y0205120D02*
X0091739Y0205120D01*
X0090926Y0204122D02*
X0135658Y0204122D01*
X0122264Y0186148D02*
X0072666Y0186148D01*
X0072666Y0185150D02*
X0120943Y0185150D01*
X0120475Y0184151D02*
X0072666Y0184151D01*
X0072666Y0183153D02*
X0120382Y0183153D01*
X0120610Y0182154D02*
X0072666Y0182154D01*
X0072666Y0181156D02*
X0121270Y0181156D01*
X0100765Y0178160D02*
X0072666Y0178160D01*
X0072666Y0177162D02*
X0099893Y0177162D01*
X0099516Y0176163D02*
X0072666Y0176163D01*
X0072666Y0175165D02*
X0099516Y0175165D01*
X0099873Y0174166D02*
X0072666Y0174166D01*
X0072666Y0173168D02*
X0100715Y0173168D01*
X0091289Y0143212D02*
X0135658Y0143212D01*
X0135658Y0142214D02*
X0091069Y0142214D01*
X0090421Y0141215D02*
X0135658Y0141215D01*
X0135658Y0140217D02*
X0072666Y0140217D01*
X0072666Y0141215D02*
X0086014Y0141215D01*
X0085366Y0142214D02*
X0072666Y0142214D01*
X0072666Y0143212D02*
X0085146Y0143212D01*
X0085247Y0144211D02*
X0072666Y0144211D01*
X0072666Y0145209D02*
X0085727Y0145209D01*
X0072666Y0139218D02*
X0135658Y0139218D01*
X0135658Y0138220D02*
X0072666Y0138220D01*
X0072666Y0137221D02*
X0135658Y0137221D01*
X0135658Y0136223D02*
X0072666Y0136223D01*
X0072666Y0135224D02*
X0116293Y0135224D01*
X0116595Y0135527D02*
X0115731Y0134663D01*
X0115264Y0133534D01*
X0115264Y0132312D01*
X0115731Y0131183D01*
X0116595Y0130319D01*
X0117724Y0129851D01*
X0118946Y0129851D01*
X0120075Y0130319D01*
X0120939Y0131183D01*
X0121407Y0132312D01*
X0121407Y0133534D01*
X0120939Y0134663D01*
X0120075Y0135527D01*
X0118946Y0135994D01*
X0117724Y0135994D01*
X0116595Y0135527D01*
X0115550Y0134226D02*
X0072666Y0134226D01*
X0072666Y0133227D02*
X0115264Y0133227D01*
X0115298Y0132229D02*
X0072666Y0132229D01*
X0072666Y0131230D02*
X0115712Y0131230D01*
X0116805Y0130232D02*
X0072666Y0130232D01*
X0072666Y0129233D02*
X0123516Y0129233D01*
X0123605Y0129017D02*
X0124469Y0128153D01*
X0125598Y0127686D01*
X0126820Y0127686D01*
X0127949Y0128153D01*
X0128813Y0129017D01*
X0129281Y0130146D01*
X0129281Y0131368D01*
X0128813Y0132497D01*
X0127949Y0133361D01*
X0126820Y0133829D01*
X0125598Y0133829D01*
X0124469Y0133361D01*
X0123605Y0132497D01*
X0123138Y0131368D01*
X0123138Y0130146D01*
X0123605Y0129017D01*
X0124388Y0128235D02*
X0072666Y0128235D01*
X0072666Y0127236D02*
X0135658Y0127236D01*
X0135658Y0126238D02*
X0072666Y0126238D01*
X0072666Y0125239D02*
X0135658Y0125239D01*
X0135658Y0124241D02*
X0072666Y0124241D01*
X0072666Y0123242D02*
X0135658Y0123242D01*
X0135658Y0122244D02*
X0072666Y0122244D01*
X0072666Y0121245D02*
X0135658Y0121245D01*
X0135658Y0120247D02*
X0072666Y0120247D01*
X0072666Y0119248D02*
X0135658Y0119248D01*
X0135658Y0118250D02*
X0072666Y0118250D01*
X0072666Y0117251D02*
X0135658Y0117251D01*
X0135658Y0116253D02*
X0072666Y0116253D01*
X0072666Y0115254D02*
X0101608Y0115254D01*
X0101780Y0115325D02*
X0100651Y0114857D01*
X0099787Y0113993D01*
X0099319Y0112864D01*
X0099319Y0111642D01*
X0099787Y0110513D01*
X0100651Y0109649D01*
X0101780Y0109182D01*
X0103002Y0109182D01*
X0104130Y0109649D01*
X0104995Y0110513D01*
X0105462Y0111642D01*
X0105462Y0112864D01*
X0104995Y0113993D01*
X0104130Y0114857D01*
X0103002Y0115325D01*
X0101780Y0115325D01*
X0103173Y0115254D02*
X0135658Y0115254D01*
X0135658Y0114255D02*
X0104732Y0114255D01*
X0105300Y0113257D02*
X0135658Y0113257D01*
X0135658Y0112258D02*
X0105462Y0112258D01*
X0105304Y0111260D02*
X0135658Y0111260D01*
X0135658Y0110261D02*
X0104743Y0110261D01*
X0103198Y0109263D02*
X0135658Y0109263D01*
X0135658Y0108264D02*
X0072666Y0108264D01*
X0072666Y0107266D02*
X0135658Y0107266D01*
X0135658Y0106267D02*
X0072666Y0106267D01*
X0072666Y0105269D02*
X0135658Y0105269D01*
X0135658Y0104270D02*
X0072666Y0104270D01*
X0072666Y0103272D02*
X0135658Y0103272D01*
X0135658Y0102273D02*
X0072666Y0102273D01*
X0072666Y0101275D02*
X0135658Y0101275D01*
X0135658Y0100276D02*
X0072666Y0100276D01*
X0072666Y0099278D02*
X0135658Y0099278D01*
X0135658Y0098279D02*
X0072666Y0098279D01*
X0072666Y0097281D02*
X0135658Y0097281D01*
X0135658Y0096282D02*
X0072666Y0096282D01*
X0072666Y0095284D02*
X0135658Y0095284D01*
X0135658Y0094285D02*
X0072666Y0094285D01*
X0072666Y0093287D02*
X0135658Y0093287D01*
X0135658Y0092288D02*
X0072666Y0092288D01*
X0072666Y0091290D02*
X0135658Y0091290D01*
X0135658Y0090291D02*
X0072666Y0090291D01*
X0072666Y0089293D02*
X0135658Y0089293D01*
X0135658Y0088294D02*
X0072666Y0088294D01*
X0072666Y0087296D02*
X0135658Y0087296D01*
X0135658Y0086297D02*
X0072666Y0086297D01*
X0072666Y0085299D02*
X0135658Y0085299D01*
X0135658Y0084300D02*
X0072666Y0084300D01*
X0072666Y0083302D02*
X0088580Y0083302D01*
X0088249Y0083164D02*
X0087385Y0082300D01*
X0086917Y0081171D01*
X0086917Y0079949D01*
X0087385Y0078820D01*
X0088249Y0077956D01*
X0089378Y0077489D01*
X0090600Y0077489D01*
X0091729Y0077956D01*
X0092593Y0078820D01*
X0093061Y0079949D01*
X0093061Y0081171D01*
X0092593Y0082300D01*
X0091729Y0083164D01*
X0090600Y0083632D01*
X0089378Y0083632D01*
X0088249Y0083164D01*
X0087388Y0082303D02*
X0072666Y0082303D01*
X0072666Y0081305D02*
X0086973Y0081305D01*
X0086917Y0080306D02*
X0072666Y0080306D01*
X0072666Y0079308D02*
X0087183Y0079308D01*
X0087896Y0078309D02*
X0072666Y0078309D01*
X0072666Y0077311D02*
X0135658Y0077311D01*
X0135658Y0078309D02*
X0092082Y0078309D01*
X0092795Y0079308D02*
X0135658Y0079308D01*
X0135658Y0080306D02*
X0093061Y0080306D01*
X0093005Y0081305D02*
X0135658Y0081305D01*
X0135658Y0082303D02*
X0092590Y0082303D01*
X0091398Y0083302D02*
X0135658Y0083302D01*
X0135658Y0076312D02*
X0117479Y0076312D01*
X0117319Y0076471D02*
X0116191Y0076939D01*
X0114969Y0076939D01*
X0113840Y0076471D01*
X0112976Y0075607D01*
X0112508Y0074478D01*
X0112508Y0073256D01*
X0112976Y0072127D01*
X0113840Y0071263D01*
X0114969Y0070796D01*
X0116191Y0070796D01*
X0117319Y0071263D01*
X0118184Y0072127D01*
X0118651Y0073256D01*
X0118651Y0074478D01*
X0118184Y0075607D01*
X0117319Y0076471D01*
X0118305Y0075314D02*
X0135658Y0075314D01*
X0135658Y0074315D02*
X0118651Y0074315D01*
X0118651Y0073317D02*
X0135658Y0073317D01*
X0135658Y0072318D02*
X0118262Y0072318D01*
X0117376Y0071320D02*
X0135658Y0071320D01*
X0135658Y0070321D02*
X0072666Y0070321D01*
X0072666Y0071320D02*
X0113783Y0071320D01*
X0112897Y0072318D02*
X0072666Y0072318D01*
X0072666Y0073317D02*
X0112508Y0073317D01*
X0112508Y0074315D02*
X0072666Y0074315D01*
X0072666Y0075314D02*
X0112854Y0075314D01*
X0113680Y0076312D02*
X0072666Y0076312D01*
X0072666Y0069322D02*
X0135658Y0069322D01*
X0135658Y0068324D02*
X0072666Y0068324D01*
X0072666Y0067325D02*
X0135658Y0067325D01*
X0135658Y0066327D02*
X0072666Y0066327D01*
X0072666Y0065328D02*
X0135658Y0065328D01*
X0135658Y0064330D02*
X0072666Y0064330D01*
X0072666Y0063331D02*
X0135658Y0063331D01*
X0135658Y0062333D02*
X0072666Y0062333D01*
X0072666Y0061334D02*
X0135658Y0061334D01*
X0135658Y0060336D02*
X0072666Y0060336D01*
X0072666Y0059337D02*
X0135658Y0059337D01*
X0135658Y0058339D02*
X0072666Y0058339D01*
X0072666Y0057340D02*
X0135658Y0057340D01*
X0135658Y0056342D02*
X0072666Y0056342D01*
X0072666Y0055343D02*
X0135658Y0055343D01*
X0135658Y0054345D02*
X0072666Y0054345D01*
X0072666Y0053346D02*
X0100360Y0053346D01*
X0099983Y0052970D02*
X0099516Y0051841D01*
X0099516Y0050619D01*
X0099983Y0049490D01*
X0100847Y0048626D01*
X0101976Y0048158D01*
X0103198Y0048158D01*
X0104327Y0048626D01*
X0105191Y0049490D01*
X0105659Y0050619D01*
X0105659Y0051841D01*
X0105191Y0052970D01*
X0104327Y0053834D01*
X0103198Y0054301D01*
X0101976Y0054301D01*
X0100847Y0053834D01*
X0099983Y0052970D01*
X0099726Y0052348D02*
X0072666Y0052348D01*
X0072666Y0051349D02*
X0099516Y0051349D01*
X0099627Y0050351D02*
X0072666Y0050351D01*
X0072666Y0049352D02*
X0100121Y0049352D01*
X0101504Y0048354D02*
X0072666Y0048354D01*
X0072666Y0047355D02*
X0118885Y0047355D01*
X0118367Y0047141D02*
X0117503Y0046277D01*
X0117035Y0045148D01*
X0117035Y0043926D01*
X0117503Y0042797D01*
X0118367Y0041933D01*
X0119496Y0041465D01*
X0120718Y0041465D01*
X0121847Y0041933D01*
X0122711Y0042797D01*
X0123179Y0043926D01*
X0123179Y0045148D01*
X0122711Y0046277D01*
X0121847Y0047141D01*
X0120718Y0047608D01*
X0119496Y0047608D01*
X0118367Y0047141D01*
X0117583Y0046357D02*
X0072666Y0046357D01*
X0072666Y0045358D02*
X0117123Y0045358D01*
X0117035Y0044360D02*
X0072666Y0044360D01*
X0072666Y0043361D02*
X0117269Y0043361D01*
X0117937Y0042363D02*
X0072666Y0042363D01*
X0072666Y0041364D02*
X0135658Y0041364D01*
X0135658Y0040366D02*
X0072666Y0040366D01*
X0072666Y0039367D02*
X0135658Y0039367D01*
X0135658Y0038369D02*
X0072666Y0038369D01*
X0072666Y0037370D02*
X0135658Y0037370D01*
X0135658Y0036372D02*
X0072666Y0036372D01*
X0072666Y0035373D02*
X0135658Y0035373D01*
X0135658Y0034375D02*
X0072666Y0034375D01*
X0072666Y0033376D02*
X0135658Y0033376D01*
X0135658Y0032378D02*
X0072666Y0032378D01*
X0072666Y0031379D02*
X0135658Y0031379D01*
X0135658Y0030381D02*
X0072666Y0030381D01*
X0072666Y0029382D02*
X0135658Y0029382D01*
X0135658Y0028384D02*
X0072666Y0028384D01*
X0072666Y0027385D02*
X0135658Y0027385D01*
X0135658Y0026387D02*
X0072666Y0026387D01*
X0072666Y0025388D02*
X0135658Y0025388D01*
X0135658Y0024389D02*
X0072666Y0024389D01*
X0072666Y0023391D02*
X0135658Y0023391D01*
X0135658Y0022392D02*
X0072666Y0022392D01*
X0072666Y0021394D02*
X0135658Y0021394D01*
X0135658Y0020395D02*
X0072666Y0020395D01*
X0072666Y0019397D02*
X0135658Y0019397D01*
X0135658Y0018398D02*
X0072666Y0018398D01*
X0072666Y0017400D02*
X0135658Y0017400D01*
X0135658Y0042363D02*
X0122277Y0042363D01*
X0122945Y0043361D02*
X0135658Y0043361D01*
X0135658Y0044360D02*
X0123179Y0044360D01*
X0123092Y0045358D02*
X0135658Y0045358D01*
X0135658Y0046357D02*
X0122631Y0046357D01*
X0121329Y0047355D02*
X0135658Y0047355D01*
X0135658Y0048354D02*
X0103671Y0048354D01*
X0105054Y0049352D02*
X0135658Y0049352D01*
X0135658Y0050351D02*
X0105548Y0050351D01*
X0105659Y0051349D02*
X0135658Y0051349D01*
X0135658Y0052348D02*
X0105449Y0052348D01*
X0104815Y0053346D02*
X0135658Y0053346D01*
X0101583Y0109263D02*
X0072666Y0109263D01*
X0072666Y0110261D02*
X0100038Y0110261D01*
X0099477Y0111260D02*
X0072666Y0111260D01*
X0072666Y0112258D02*
X0099319Y0112258D01*
X0099482Y0113257D02*
X0072666Y0113257D01*
X0072666Y0114255D02*
X0100049Y0114255D01*
X0119866Y0130232D02*
X0123138Y0130232D01*
X0123138Y0131230D02*
X0120959Y0131230D01*
X0121373Y0132229D02*
X0123494Y0132229D01*
X0124335Y0133227D02*
X0121407Y0133227D01*
X0121120Y0134226D02*
X0135658Y0134226D01*
X0135658Y0135224D02*
X0120378Y0135224D01*
X0128083Y0133227D02*
X0135658Y0133227D01*
X0135658Y0132229D02*
X0128925Y0132229D01*
X0129281Y0131230D02*
X0135658Y0131230D01*
X0135658Y0130232D02*
X0129281Y0130232D01*
X0128903Y0129233D02*
X0135658Y0129233D01*
X0135658Y0128235D02*
X0128031Y0128235D01*
X0210461Y0128235D02*
X0219683Y0128235D01*
X0219857Y0127816D02*
X0221024Y0126648D01*
X0222549Y0126017D01*
X0224200Y0126017D01*
X0225726Y0126648D01*
X0226893Y0127816D01*
X0227525Y0129341D01*
X0227525Y0130992D01*
X0226893Y0132517D01*
X0225726Y0133685D01*
X0224200Y0134317D01*
X0222549Y0134317D01*
X0221024Y0133685D01*
X0219857Y0132517D01*
X0219225Y0130992D01*
X0219225Y0129341D01*
X0219857Y0127816D01*
X0220436Y0127236D02*
X0210461Y0127236D01*
X0210461Y0126238D02*
X0222016Y0126238D01*
X0222549Y0124317D02*
X0221024Y0123685D01*
X0219857Y0122517D01*
X0219225Y0120992D01*
X0219225Y0119341D01*
X0219857Y0117816D01*
X0221024Y0116648D01*
X0222549Y0116017D01*
X0224200Y0116017D01*
X0225726Y0116648D01*
X0226893Y0117816D01*
X0227525Y0119341D01*
X0227525Y0120992D01*
X0226893Y0122517D01*
X0225726Y0123685D01*
X0224200Y0124317D01*
X0222549Y0124317D01*
X0222366Y0124241D02*
X0210461Y0124241D01*
X0210461Y0125239D02*
X0323565Y0125239D01*
X0323628Y0125391D02*
X0322980Y0123828D01*
X0322980Y0122136D01*
X0323628Y0120573D01*
X0324824Y0119376D01*
X0326387Y0118729D01*
X0328079Y0118729D01*
X0329642Y0119376D01*
X0330838Y0120573D01*
X0331486Y0122136D01*
X0331486Y0123828D01*
X0330838Y0125391D01*
X0329642Y0126587D01*
X0328079Y0127234D01*
X0326387Y0127234D01*
X0324824Y0126587D01*
X0323628Y0125391D01*
X0324475Y0126238D02*
X0284734Y0126238D01*
X0284200Y0126017D02*
X0285726Y0126648D01*
X0286893Y0127816D01*
X0287525Y0129341D01*
X0287525Y0130992D01*
X0286893Y0132517D01*
X0285726Y0133685D01*
X0284200Y0134317D01*
X0282549Y0134317D01*
X0281024Y0133685D01*
X0279857Y0132517D01*
X0279225Y0130992D01*
X0279225Y0129341D01*
X0279857Y0127816D01*
X0281024Y0126648D01*
X0282549Y0126017D01*
X0284200Y0126017D01*
X0284200Y0124317D02*
X0282549Y0124317D01*
X0281024Y0123685D01*
X0279857Y0122517D01*
X0279225Y0120992D01*
X0279225Y0119341D01*
X0279857Y0117816D01*
X0281024Y0116648D01*
X0282549Y0116017D01*
X0284200Y0116017D01*
X0285726Y0116648D01*
X0286893Y0117816D01*
X0287525Y0119341D01*
X0287525Y0120992D01*
X0286893Y0122517D01*
X0285726Y0123685D01*
X0284200Y0124317D01*
X0284384Y0124241D02*
X0323151Y0124241D01*
X0322980Y0123242D02*
X0286168Y0123242D01*
X0287006Y0122244D02*
X0322980Y0122244D01*
X0323349Y0121245D02*
X0287420Y0121245D01*
X0287525Y0120247D02*
X0323954Y0120247D01*
X0325134Y0119248D02*
X0287486Y0119248D01*
X0287073Y0118250D02*
X0332980Y0118250D01*
X0332980Y0118828D02*
X0332980Y0117136D01*
X0333628Y0115573D01*
X0334824Y0114376D01*
X0336387Y0113729D01*
X0338079Y0113729D01*
X0339642Y0114376D01*
X0340838Y0115573D01*
X0341486Y0117136D01*
X0341486Y0118828D01*
X0340838Y0120391D01*
X0339642Y0121587D01*
X0338079Y0122234D01*
X0336387Y0122234D01*
X0334824Y0121587D01*
X0333628Y0120391D01*
X0332980Y0118828D01*
X0333155Y0119248D02*
X0329332Y0119248D01*
X0330512Y0120247D02*
X0333568Y0120247D01*
X0334482Y0121245D02*
X0331117Y0121245D01*
X0331486Y0122244D02*
X0344320Y0122244D01*
X0344320Y0123242D02*
X0331486Y0123242D01*
X0331315Y0124241D02*
X0335152Y0124241D01*
X0334824Y0124376D02*
X0336387Y0123729D01*
X0338079Y0123729D01*
X0339642Y0124376D01*
X0340838Y0125573D01*
X0341486Y0127136D01*
X0341486Y0128828D01*
X0340838Y0130391D01*
X0339642Y0131587D01*
X0338079Y0132234D01*
X0336387Y0132234D01*
X0334824Y0131587D01*
X0333628Y0130391D01*
X0332980Y0128828D01*
X0332980Y0127136D01*
X0333628Y0125573D01*
X0334824Y0124376D01*
X0333961Y0125239D02*
X0330901Y0125239D01*
X0329991Y0126238D02*
X0333352Y0126238D01*
X0332980Y0127236D02*
X0286313Y0127236D01*
X0287066Y0128235D02*
X0332980Y0128235D01*
X0333148Y0129233D02*
X0329296Y0129233D01*
X0329642Y0129376D02*
X0330838Y0130573D01*
X0331486Y0132136D01*
X0331486Y0133828D01*
X0330838Y0135391D01*
X0329642Y0136587D01*
X0328079Y0137234D01*
X0326387Y0137234D01*
X0324824Y0136587D01*
X0323628Y0135391D01*
X0322980Y0133828D01*
X0322980Y0132136D01*
X0323628Y0130573D01*
X0324824Y0129376D01*
X0326387Y0128729D01*
X0328079Y0128729D01*
X0329642Y0129376D01*
X0330497Y0130232D02*
X0333562Y0130232D01*
X0334467Y0131230D02*
X0331111Y0131230D01*
X0331486Y0132229D02*
X0336373Y0132229D01*
X0338093Y0132229D02*
X0344320Y0132229D01*
X0344320Y0133227D02*
X0331486Y0133227D01*
X0331321Y0134226D02*
X0344320Y0134226D01*
X0344320Y0135224D02*
X0330907Y0135224D01*
X0330006Y0136223D02*
X0344320Y0136223D01*
X0344320Y0137221D02*
X0328111Y0137221D01*
X0326355Y0137221D02*
X0286298Y0137221D01*
X0285726Y0136648D02*
X0286893Y0137816D01*
X0287525Y0139341D01*
X0287525Y0140992D01*
X0286893Y0142517D01*
X0285726Y0143685D01*
X0284200Y0144317D01*
X0282549Y0144317D01*
X0281024Y0143685D01*
X0279857Y0142517D01*
X0279225Y0140992D01*
X0279225Y0139341D01*
X0279857Y0137816D01*
X0281024Y0136648D01*
X0282549Y0136017D01*
X0284200Y0136017D01*
X0285726Y0136648D01*
X0284698Y0136223D02*
X0324460Y0136223D01*
X0323559Y0135224D02*
X0210461Y0135224D01*
X0210461Y0134226D02*
X0222330Y0134226D01*
X0222549Y0136017D02*
X0224200Y0136017D01*
X0225726Y0136648D01*
X0226893Y0137816D01*
X0227525Y0139341D01*
X0227525Y0140992D01*
X0226893Y0142517D01*
X0225726Y0143685D01*
X0224200Y0144317D01*
X0222549Y0144317D01*
X0221024Y0143685D01*
X0219857Y0142517D01*
X0219225Y0140992D01*
X0219225Y0139341D01*
X0219857Y0137816D01*
X0221024Y0136648D01*
X0222549Y0136017D01*
X0222052Y0136223D02*
X0210461Y0136223D01*
X0210461Y0137221D02*
X0220451Y0137221D01*
X0219689Y0138220D02*
X0210461Y0138220D01*
X0210461Y0139218D02*
X0219276Y0139218D01*
X0219225Y0140217D02*
X0210461Y0140217D01*
X0210461Y0141215D02*
X0219317Y0141215D01*
X0219731Y0142214D02*
X0210461Y0142214D01*
X0210461Y0143212D02*
X0220552Y0143212D01*
X0222294Y0144211D02*
X0210461Y0144211D01*
X0210461Y0145209D02*
X0344320Y0145209D01*
X0344320Y0144211D02*
X0284456Y0144211D01*
X0284200Y0146017D02*
X0285726Y0146648D01*
X0286893Y0147816D01*
X0287525Y0149341D01*
X0287525Y0150992D01*
X0286893Y0152517D01*
X0285726Y0153685D01*
X0284200Y0154317D01*
X0282549Y0154317D01*
X0281024Y0153685D01*
X0279857Y0152517D01*
X0279225Y0150992D01*
X0279225Y0149341D01*
X0279857Y0147816D01*
X0281024Y0146648D01*
X0282549Y0146017D01*
X0284200Y0146017D01*
X0284662Y0146208D02*
X0344320Y0146208D01*
X0344320Y0147206D02*
X0286283Y0147206D01*
X0287054Y0148205D02*
X0344320Y0148205D01*
X0344320Y0149203D02*
X0287468Y0149203D01*
X0287525Y0150202D02*
X0344320Y0150202D01*
X0344320Y0151200D02*
X0287439Y0151200D01*
X0287025Y0152199D02*
X0317550Y0152199D01*
X0317777Y0151972D02*
X0318906Y0151504D01*
X0320128Y0151504D01*
X0321256Y0151972D01*
X0322121Y0152836D01*
X0322588Y0153965D01*
X0322588Y0155187D01*
X0322121Y0156316D01*
X0321256Y0157180D01*
X0320128Y0157648D01*
X0318906Y0157648D01*
X0317777Y0157180D01*
X0316913Y0156316D01*
X0316445Y0155187D01*
X0316445Y0153965D01*
X0316913Y0152836D01*
X0317777Y0151972D01*
X0316763Y0153197D02*
X0286213Y0153197D01*
X0284492Y0154196D02*
X0316445Y0154196D01*
X0316448Y0155194D02*
X0210461Y0155194D01*
X0210461Y0154196D02*
X0222258Y0154196D01*
X0222549Y0154317D02*
X0221024Y0153685D01*
X0219857Y0152517D01*
X0219225Y0150992D01*
X0219225Y0149341D01*
X0219857Y0147816D01*
X0221024Y0146648D01*
X0222549Y0146017D01*
X0224200Y0146017D01*
X0225726Y0146648D01*
X0226893Y0147816D01*
X0227525Y0149341D01*
X0227525Y0150992D01*
X0226893Y0152517D01*
X0225726Y0153685D01*
X0224200Y0154317D01*
X0222549Y0154317D01*
X0222549Y0156017D02*
X0224200Y0156017D01*
X0225726Y0156648D01*
X0226893Y0157816D01*
X0227525Y0159341D01*
X0227525Y0160992D01*
X0226893Y0162517D01*
X0225726Y0163685D01*
X0224200Y0164317D01*
X0222549Y0164317D01*
X0221024Y0163685D01*
X0219857Y0162517D01*
X0219225Y0160992D01*
X0219225Y0159341D01*
X0219857Y0157816D01*
X0221024Y0156648D01*
X0222549Y0156017D01*
X0222124Y0156193D02*
X0210461Y0156193D01*
X0210461Y0157191D02*
X0220481Y0157191D01*
X0219702Y0158190D02*
X0210461Y0158190D01*
X0210461Y0159189D02*
X0219288Y0159189D01*
X0219225Y0160187D02*
X0210461Y0160187D01*
X0210461Y0161186D02*
X0219305Y0161186D01*
X0219719Y0162184D02*
X0210461Y0162184D01*
X0210461Y0163183D02*
X0220522Y0163183D01*
X0222222Y0164181D02*
X0210461Y0164181D01*
X0210461Y0165180D02*
X0308256Y0165180D01*
X0307857Y0164781D02*
X0307390Y0163652D01*
X0307390Y0162430D01*
X0307857Y0161301D01*
X0308721Y0160437D01*
X0309850Y0159969D01*
X0311072Y0159969D01*
X0312201Y0160437D01*
X0313065Y0161301D01*
X0313533Y0162430D01*
X0313533Y0163652D01*
X0313065Y0164781D01*
X0312201Y0165645D01*
X0311072Y0166112D01*
X0309850Y0166112D01*
X0308721Y0165645D01*
X0307857Y0164781D01*
X0307609Y0164181D02*
X0285078Y0164181D01*
X0285045Y0164198D02*
X0284393Y0164410D01*
X0283825Y0164500D01*
X0283825Y0160617D01*
X0282925Y0160617D01*
X0282925Y0164500D01*
X0282356Y0164410D01*
X0281705Y0164198D01*
X0281095Y0163887D01*
X0280541Y0163485D01*
X0280057Y0163000D01*
X0279654Y0162447D01*
X0279344Y0161836D01*
X0279132Y0161185D01*
X0279042Y0160617D01*
X0282925Y0160617D01*
X0282925Y0159717D01*
X0279042Y0159717D01*
X0279132Y0159148D01*
X0279344Y0158497D01*
X0279654Y0157887D01*
X0280057Y0157333D01*
X0280541Y0156849D01*
X0281095Y0156446D01*
X0281705Y0156135D01*
X0282356Y0155924D01*
X0282925Y0155834D01*
X0282925Y0159717D01*
X0283825Y0159717D01*
X0283825Y0160617D01*
X0287708Y0160617D01*
X0287618Y0161185D01*
X0287406Y0161836D01*
X0287095Y0162447D01*
X0286693Y0163000D01*
X0286209Y0163485D01*
X0285655Y0163887D01*
X0285045Y0164198D01*
X0283825Y0164181D02*
X0282925Y0164181D01*
X0282925Y0163183D02*
X0283825Y0163183D01*
X0283825Y0162184D02*
X0282925Y0162184D01*
X0282925Y0161186D02*
X0283825Y0161186D01*
X0283825Y0160187D02*
X0309324Y0160187D01*
X0307973Y0161186D02*
X0287618Y0161186D01*
X0287229Y0162184D02*
X0307491Y0162184D01*
X0307390Y0163183D02*
X0286511Y0163183D01*
X0285726Y0166648D02*
X0284200Y0166017D01*
X0282549Y0166017D01*
X0281024Y0166648D01*
X0279857Y0167816D01*
X0279225Y0169341D01*
X0279225Y0170992D01*
X0279857Y0172517D01*
X0281024Y0173685D01*
X0282549Y0174317D01*
X0284200Y0174317D01*
X0285726Y0173685D01*
X0286893Y0172517D01*
X0287525Y0170992D01*
X0287525Y0169341D01*
X0286893Y0167816D01*
X0285726Y0166648D01*
X0286254Y0167177D02*
X0344320Y0167177D01*
X0344320Y0168175D02*
X0287042Y0168175D01*
X0287455Y0169174D02*
X0344320Y0169174D01*
X0344320Y0170172D02*
X0287525Y0170172D01*
X0287451Y0171171D02*
X0308224Y0171171D01*
X0307857Y0171537D02*
X0308721Y0170673D01*
X0309850Y0170205D01*
X0311072Y0170205D01*
X0312201Y0170673D01*
X0313065Y0171537D01*
X0313533Y0172666D01*
X0313533Y0173888D01*
X0313065Y0175017D01*
X0312201Y0175881D01*
X0311072Y0176349D01*
X0309850Y0176349D01*
X0308721Y0175881D01*
X0307857Y0175017D01*
X0307390Y0173888D01*
X0307390Y0172666D01*
X0307857Y0171537D01*
X0307596Y0172169D02*
X0287037Y0172169D01*
X0286243Y0173168D02*
X0307390Y0173168D01*
X0307505Y0174166D02*
X0284564Y0174166D01*
X0284200Y0176017D02*
X0285726Y0176648D01*
X0286893Y0177816D01*
X0287525Y0179341D01*
X0287525Y0180992D01*
X0286893Y0182517D01*
X0285726Y0183685D01*
X0284200Y0184317D01*
X0282549Y0184317D01*
X0281024Y0183685D01*
X0279857Y0182517D01*
X0279225Y0180992D01*
X0279225Y0179341D01*
X0279857Y0177816D01*
X0281024Y0176648D01*
X0282549Y0176017D01*
X0284200Y0176017D01*
X0284554Y0176163D02*
X0309403Y0176163D01*
X0308005Y0175165D02*
X0210461Y0175165D01*
X0210461Y0176163D02*
X0222196Y0176163D01*
X0222549Y0176017D02*
X0224200Y0176017D01*
X0225726Y0176648D01*
X0226893Y0177816D01*
X0227525Y0179341D01*
X0227525Y0180992D01*
X0226893Y0182517D01*
X0225726Y0183685D01*
X0224200Y0184317D01*
X0222549Y0184317D01*
X0221024Y0183685D01*
X0219857Y0182517D01*
X0219225Y0180992D01*
X0219225Y0179341D01*
X0219857Y0177816D01*
X0221024Y0176648D01*
X0222549Y0176017D01*
X0222549Y0174317D02*
X0221024Y0173685D01*
X0219857Y0172517D01*
X0219225Y0170992D01*
X0219225Y0169341D01*
X0219857Y0167816D01*
X0221024Y0166648D01*
X0222549Y0166017D01*
X0224200Y0166017D01*
X0225726Y0166648D01*
X0226893Y0167816D01*
X0227525Y0169341D01*
X0227525Y0170992D01*
X0226893Y0172517D01*
X0225726Y0173685D01*
X0224200Y0174317D01*
X0222549Y0174317D01*
X0222186Y0174166D02*
X0210461Y0174166D01*
X0210461Y0173168D02*
X0220507Y0173168D01*
X0219712Y0172169D02*
X0210461Y0172169D01*
X0210461Y0171171D02*
X0219299Y0171171D01*
X0219225Y0170172D02*
X0210461Y0170172D01*
X0210461Y0169174D02*
X0219294Y0169174D01*
X0219708Y0168175D02*
X0210461Y0168175D01*
X0210461Y0167177D02*
X0220496Y0167177D01*
X0222160Y0166178D02*
X0210461Y0166178D01*
X0210461Y0177162D02*
X0220511Y0177162D01*
X0219714Y0178160D02*
X0210461Y0178160D01*
X0210461Y0179159D02*
X0219300Y0179159D01*
X0219225Y0180157D02*
X0210461Y0180157D01*
X0210461Y0181156D02*
X0219293Y0181156D01*
X0219706Y0182154D02*
X0210461Y0182154D01*
X0210461Y0183153D02*
X0220492Y0183153D01*
X0222150Y0184151D02*
X0210461Y0184151D01*
X0210461Y0185150D02*
X0344320Y0185150D01*
X0344320Y0186148D02*
X0284518Y0186148D01*
X0284200Y0186017D02*
X0285726Y0186648D01*
X0286893Y0187816D01*
X0287525Y0189341D01*
X0287525Y0190992D01*
X0286893Y0192517D01*
X0285726Y0193685D01*
X0284200Y0194317D01*
X0282549Y0194317D01*
X0281024Y0193685D01*
X0279857Y0192517D01*
X0279225Y0190992D01*
X0279225Y0189341D01*
X0279857Y0187816D01*
X0281024Y0186648D01*
X0282549Y0186017D01*
X0284200Y0186017D01*
X0284599Y0184151D02*
X0344320Y0184151D01*
X0344320Y0183153D02*
X0286258Y0183153D01*
X0287043Y0182154D02*
X0344320Y0182154D01*
X0344320Y0181156D02*
X0287457Y0181156D01*
X0287525Y0180157D02*
X0344320Y0180157D01*
X0344320Y0179159D02*
X0287449Y0179159D01*
X0287036Y0178160D02*
X0344320Y0178160D01*
X0344320Y0177162D02*
X0286239Y0177162D01*
X0282196Y0176163D02*
X0224554Y0176163D01*
X0226239Y0177162D02*
X0280511Y0177162D01*
X0279714Y0178160D02*
X0227036Y0178160D01*
X0227449Y0179159D02*
X0279300Y0179159D01*
X0279225Y0180157D02*
X0227525Y0180157D01*
X0227457Y0181156D02*
X0279293Y0181156D01*
X0279706Y0182154D02*
X0227043Y0182154D01*
X0226258Y0183153D02*
X0280492Y0183153D01*
X0282150Y0184151D02*
X0224599Y0184151D01*
X0224200Y0186017D02*
X0225726Y0186648D01*
X0226893Y0187816D01*
X0227525Y0189341D01*
X0227525Y0190992D01*
X0226893Y0192517D01*
X0225726Y0193685D01*
X0224200Y0194317D01*
X0222549Y0194317D01*
X0221024Y0193685D01*
X0219857Y0192517D01*
X0219225Y0190992D01*
X0219225Y0189341D01*
X0219857Y0187816D01*
X0221024Y0186648D01*
X0222549Y0186017D01*
X0224200Y0186017D01*
X0224518Y0186148D02*
X0282231Y0186148D01*
X0280526Y0187147D02*
X0226224Y0187147D01*
X0227029Y0188145D02*
X0279720Y0188145D01*
X0279307Y0189144D02*
X0227443Y0189144D01*
X0227525Y0190142D02*
X0279225Y0190142D01*
X0279286Y0191141D02*
X0227463Y0191141D01*
X0227050Y0192139D02*
X0279700Y0192139D01*
X0280477Y0193138D02*
X0226273Y0193138D01*
X0224635Y0194136D02*
X0282114Y0194136D01*
X0282549Y0196017D02*
X0284200Y0196017D01*
X0285726Y0196648D01*
X0286893Y0197816D01*
X0287525Y0199341D01*
X0287525Y0200992D01*
X0286893Y0202517D01*
X0285726Y0203685D01*
X0284200Y0204317D01*
X0282549Y0204317D01*
X0281024Y0203685D01*
X0279857Y0202517D01*
X0279225Y0200992D01*
X0279225Y0199341D01*
X0279857Y0197816D01*
X0281024Y0196648D01*
X0282549Y0196017D01*
X0282267Y0196133D02*
X0224482Y0196133D01*
X0224200Y0196017D02*
X0225726Y0196648D01*
X0226893Y0197816D01*
X0227525Y0199341D01*
X0227525Y0200992D01*
X0226893Y0202517D01*
X0225726Y0203685D01*
X0224200Y0204317D01*
X0222549Y0204317D01*
X0221024Y0203685D01*
X0219857Y0202517D01*
X0219225Y0200992D01*
X0219225Y0199341D01*
X0219857Y0197816D01*
X0221024Y0196648D01*
X0222549Y0196017D01*
X0224200Y0196017D01*
X0222267Y0196133D02*
X0210461Y0196133D01*
X0210461Y0195135D02*
X0339594Y0195135D01*
X0339747Y0194765D02*
X0340611Y0193901D01*
X0341740Y0193434D01*
X0342962Y0193434D01*
X0344091Y0193901D01*
X0344320Y0194130D01*
X0344320Y0086036D01*
X0343946Y0086191D01*
X0342724Y0086191D01*
X0341595Y0085723D01*
X0340731Y0084859D01*
X0340264Y0083730D01*
X0340264Y0082508D01*
X0340731Y0081379D01*
X0341595Y0080515D01*
X0342724Y0080048D01*
X0343946Y0080048D01*
X0344320Y0080202D01*
X0344320Y0039025D01*
X0320743Y0039025D01*
X0320817Y0039201D01*
X0320817Y0040423D01*
X0320349Y0041552D01*
X0319485Y0042416D01*
X0318356Y0042884D01*
X0317134Y0042884D01*
X0316005Y0042416D01*
X0315141Y0041552D01*
X0314673Y0040423D01*
X0314673Y0039201D01*
X0314746Y0039025D01*
X0287394Y0039025D01*
X0287525Y0039341D01*
X0287525Y0040992D01*
X0286893Y0042517D01*
X0285726Y0043685D01*
X0284200Y0044317D01*
X0282549Y0044317D01*
X0281024Y0043685D01*
X0279857Y0042517D01*
X0279225Y0040992D01*
X0279225Y0039341D01*
X0279356Y0039025D01*
X0227578Y0039025D01*
X0227618Y0039148D01*
X0227708Y0039717D01*
X0223825Y0039717D01*
X0223825Y0040617D01*
X0222925Y0040617D01*
X0222925Y0044500D01*
X0222356Y0044410D01*
X0221705Y0044198D01*
X0221095Y0043887D01*
X0220541Y0043485D01*
X0220057Y0043000D01*
X0219654Y0042447D01*
X0219344Y0041836D01*
X0219132Y0041185D01*
X0219042Y0040617D01*
X0222925Y0040617D01*
X0222925Y0039717D01*
X0219042Y0039717D01*
X0219132Y0039148D01*
X0219172Y0039025D01*
X0210461Y0039025D01*
X0210461Y0263434D01*
X0344320Y0263434D01*
X0344320Y0198881D01*
X0344091Y0199109D01*
X0342962Y0199577D01*
X0341740Y0199577D01*
X0340611Y0199109D01*
X0339747Y0198245D01*
X0339280Y0197116D01*
X0339280Y0195894D01*
X0339747Y0194765D01*
X0340376Y0194136D02*
X0284635Y0194136D01*
X0286273Y0193138D02*
X0330112Y0193138D01*
X0330178Y0193204D02*
X0329314Y0192340D01*
X0328846Y0191211D01*
X0328846Y0189989D01*
X0329314Y0188860D01*
X0330178Y0187996D01*
X0331307Y0187528D01*
X0332529Y0187528D01*
X0333658Y0187996D01*
X0334522Y0188860D01*
X0334990Y0189989D01*
X0334990Y0191211D01*
X0334522Y0192340D01*
X0333658Y0193204D01*
X0332529Y0193671D01*
X0331307Y0193671D01*
X0330178Y0193204D01*
X0329231Y0192139D02*
X0287050Y0192139D01*
X0287463Y0191141D02*
X0328846Y0191141D01*
X0328846Y0190142D02*
X0287525Y0190142D01*
X0287443Y0189144D02*
X0329196Y0189144D01*
X0330029Y0188145D02*
X0287029Y0188145D01*
X0286224Y0187147D02*
X0344320Y0187147D01*
X0344320Y0188145D02*
X0333808Y0188145D01*
X0334640Y0189144D02*
X0344320Y0189144D01*
X0344320Y0190142D02*
X0334990Y0190142D01*
X0334990Y0191141D02*
X0344320Y0191141D01*
X0344320Y0192139D02*
X0334605Y0192139D01*
X0333724Y0193138D02*
X0344320Y0193138D01*
X0339280Y0196133D02*
X0284482Y0196133D01*
X0286209Y0197132D02*
X0339286Y0197132D01*
X0339700Y0198130D02*
X0287023Y0198130D01*
X0287437Y0199129D02*
X0340659Y0199129D01*
X0344044Y0199129D02*
X0344320Y0199129D01*
X0344320Y0200127D02*
X0287525Y0200127D01*
X0287469Y0201126D02*
X0344320Y0201126D01*
X0344320Y0202124D02*
X0287056Y0202124D01*
X0286287Y0203123D02*
X0344320Y0203123D01*
X0344320Y0204122D02*
X0284671Y0204122D01*
X0284200Y0206017D02*
X0285726Y0206648D01*
X0286893Y0207816D01*
X0287525Y0209341D01*
X0287525Y0210992D01*
X0286893Y0212517D01*
X0285726Y0213685D01*
X0284200Y0214317D01*
X0282549Y0214317D01*
X0281024Y0213685D01*
X0279857Y0212517D01*
X0279225Y0210992D01*
X0279225Y0209341D01*
X0279857Y0207816D01*
X0281024Y0206648D01*
X0282549Y0206017D01*
X0284200Y0206017D01*
X0284446Y0206119D02*
X0344320Y0206119D01*
X0344320Y0207117D02*
X0286194Y0207117D01*
X0287017Y0208116D02*
X0344320Y0208116D01*
X0344320Y0209114D02*
X0338724Y0209114D01*
X0338079Y0208847D02*
X0339642Y0209494D01*
X0340838Y0210691D01*
X0341486Y0212254D01*
X0341486Y0213946D01*
X0340838Y0215509D01*
X0339642Y0216705D01*
X0338079Y0217352D01*
X0336387Y0217352D01*
X0334824Y0216705D01*
X0333628Y0215509D01*
X0332980Y0213946D01*
X0332980Y0212254D01*
X0333628Y0210691D01*
X0334824Y0209494D01*
X0336387Y0208847D01*
X0338079Y0208847D01*
X0335742Y0209114D02*
X0287431Y0209114D01*
X0287525Y0210113D02*
X0334206Y0210113D01*
X0333454Y0211111D02*
X0287476Y0211111D01*
X0287062Y0212110D02*
X0333040Y0212110D01*
X0332980Y0213108D02*
X0286302Y0213108D01*
X0284707Y0214107D02*
X0325760Y0214107D01*
X0326387Y0213847D02*
X0328079Y0213847D01*
X0329642Y0214494D01*
X0330838Y0215691D01*
X0331486Y0217254D01*
X0331486Y0218946D01*
X0330838Y0220509D01*
X0329642Y0221705D01*
X0328079Y0222352D01*
X0326387Y0222352D01*
X0324824Y0221705D01*
X0323628Y0220509D01*
X0322980Y0218946D01*
X0322980Y0217254D01*
X0323628Y0215691D01*
X0324824Y0214494D01*
X0326387Y0213847D01*
X0328706Y0214107D02*
X0333047Y0214107D01*
X0333461Y0215105D02*
X0330253Y0215105D01*
X0331009Y0216104D02*
X0334223Y0216104D01*
X0335783Y0217102D02*
X0331423Y0217102D01*
X0331486Y0218101D02*
X0344320Y0218101D01*
X0344320Y0219099D02*
X0338688Y0219099D01*
X0338079Y0218847D02*
X0339642Y0219494D01*
X0340838Y0220691D01*
X0341486Y0222254D01*
X0341486Y0223946D01*
X0340838Y0225509D01*
X0339642Y0226705D01*
X0338079Y0227352D01*
X0336387Y0227352D01*
X0334824Y0226705D01*
X0333628Y0225509D01*
X0332980Y0223946D01*
X0332980Y0222254D01*
X0333628Y0220691D01*
X0334824Y0219494D01*
X0336387Y0218847D01*
X0338079Y0218847D01*
X0338683Y0217102D02*
X0344320Y0217102D01*
X0344320Y0216104D02*
X0340243Y0216104D01*
X0341006Y0215105D02*
X0344320Y0215105D01*
X0344320Y0214107D02*
X0341419Y0214107D01*
X0341486Y0213108D02*
X0344320Y0213108D01*
X0344320Y0212110D02*
X0341426Y0212110D01*
X0341012Y0211111D02*
X0344320Y0211111D01*
X0344320Y0210113D02*
X0340260Y0210113D01*
X0344320Y0205120D02*
X0210461Y0205120D01*
X0210461Y0204122D02*
X0222078Y0204122D01*
X0220462Y0203123D02*
X0210461Y0203123D01*
X0210461Y0202124D02*
X0219694Y0202124D01*
X0219280Y0201126D02*
X0210461Y0201126D01*
X0210461Y0200127D02*
X0219225Y0200127D01*
X0219313Y0199129D02*
X0210461Y0199129D01*
X0210461Y0198130D02*
X0219726Y0198130D01*
X0220541Y0197132D02*
X0210461Y0197132D01*
X0210461Y0194136D02*
X0222114Y0194136D01*
X0220477Y0193138D02*
X0210461Y0193138D01*
X0210461Y0192139D02*
X0219700Y0192139D01*
X0219286Y0191141D02*
X0210461Y0191141D01*
X0210461Y0190142D02*
X0219225Y0190142D01*
X0219307Y0189144D02*
X0210461Y0189144D01*
X0210461Y0188145D02*
X0219720Y0188145D01*
X0220526Y0187147D02*
X0210461Y0187147D01*
X0210461Y0186148D02*
X0222231Y0186148D01*
X0224564Y0174166D02*
X0282186Y0174166D01*
X0280507Y0173168D02*
X0226243Y0173168D01*
X0227037Y0172169D02*
X0279712Y0172169D01*
X0279299Y0171171D02*
X0227451Y0171171D01*
X0227525Y0170172D02*
X0279225Y0170172D01*
X0279294Y0169174D02*
X0227455Y0169174D01*
X0227042Y0168175D02*
X0279708Y0168175D01*
X0280496Y0167177D02*
X0226254Y0167177D01*
X0224590Y0166178D02*
X0282160Y0166178D01*
X0281672Y0164181D02*
X0224528Y0164181D01*
X0226228Y0163183D02*
X0280239Y0163183D01*
X0279521Y0162184D02*
X0227031Y0162184D01*
X0227445Y0161186D02*
X0279132Y0161186D01*
X0279125Y0159189D02*
X0227462Y0159189D01*
X0227525Y0160187D02*
X0282925Y0160187D01*
X0282925Y0159189D02*
X0283825Y0159189D01*
X0283825Y0159717D02*
X0283825Y0155834D01*
X0284393Y0155924D01*
X0285045Y0156135D01*
X0285655Y0156446D01*
X0286209Y0156849D01*
X0286693Y0157333D01*
X0287095Y0157887D01*
X0287406Y0158497D01*
X0287618Y0159148D01*
X0287708Y0159717D01*
X0283825Y0159717D01*
X0283825Y0158190D02*
X0282925Y0158190D01*
X0282925Y0157191D02*
X0283825Y0157191D01*
X0283825Y0156193D02*
X0282925Y0156193D01*
X0281592Y0156193D02*
X0224626Y0156193D01*
X0226269Y0157191D02*
X0280198Y0157191D01*
X0279500Y0158190D02*
X0227048Y0158190D01*
X0224492Y0154196D02*
X0282258Y0154196D01*
X0280537Y0153197D02*
X0226213Y0153197D01*
X0227025Y0152199D02*
X0279725Y0152199D01*
X0279311Y0151200D02*
X0227439Y0151200D01*
X0227525Y0150202D02*
X0279225Y0150202D01*
X0279282Y0149203D02*
X0227468Y0149203D01*
X0227054Y0148205D02*
X0279695Y0148205D01*
X0280466Y0147206D02*
X0226283Y0147206D01*
X0224662Y0146208D02*
X0282088Y0146208D01*
X0282294Y0144211D02*
X0224456Y0144211D01*
X0226198Y0143212D02*
X0280552Y0143212D01*
X0279731Y0142214D02*
X0227019Y0142214D01*
X0227432Y0141215D02*
X0279317Y0141215D01*
X0279225Y0140217D02*
X0227525Y0140217D01*
X0227474Y0139218D02*
X0279276Y0139218D01*
X0279689Y0138220D02*
X0227060Y0138220D01*
X0226298Y0137221D02*
X0280451Y0137221D01*
X0282052Y0136223D02*
X0224698Y0136223D01*
X0224420Y0134226D02*
X0282330Y0134226D01*
X0280566Y0133227D02*
X0226183Y0133227D01*
X0227013Y0132229D02*
X0279737Y0132229D01*
X0279323Y0131230D02*
X0227426Y0131230D01*
X0227525Y0130232D02*
X0279225Y0130232D01*
X0279270Y0129233D02*
X0227480Y0129233D01*
X0227066Y0128235D02*
X0279683Y0128235D01*
X0280436Y0127236D02*
X0226313Y0127236D01*
X0224734Y0126238D02*
X0282016Y0126238D01*
X0282366Y0124241D02*
X0224384Y0124241D01*
X0226168Y0123242D02*
X0280581Y0123242D01*
X0279743Y0122244D02*
X0227006Y0122244D01*
X0227420Y0121245D02*
X0279330Y0121245D01*
X0279225Y0120247D02*
X0227525Y0120247D01*
X0227486Y0119248D02*
X0279263Y0119248D01*
X0279677Y0118250D02*
X0227073Y0118250D01*
X0226328Y0117251D02*
X0280421Y0117251D01*
X0281980Y0116253D02*
X0224770Y0116253D01*
X0224200Y0114317D02*
X0222549Y0114317D01*
X0221024Y0113685D01*
X0219857Y0112517D01*
X0219225Y0110992D01*
X0219225Y0109341D01*
X0219857Y0107816D01*
X0221024Y0106648D01*
X0222549Y0106017D01*
X0224200Y0106017D01*
X0225726Y0106648D01*
X0226893Y0107816D01*
X0227525Y0109341D01*
X0227525Y0110992D01*
X0226893Y0112517D01*
X0225726Y0113685D01*
X0224200Y0114317D01*
X0224348Y0114255D02*
X0282402Y0114255D01*
X0282549Y0114317D02*
X0281024Y0113685D01*
X0279857Y0112517D01*
X0279225Y0110992D01*
X0279225Y0109341D01*
X0279857Y0107816D01*
X0281024Y0106648D01*
X0282549Y0106017D01*
X0284200Y0106017D01*
X0285726Y0106648D01*
X0286893Y0107816D01*
X0287525Y0109341D01*
X0287525Y0110992D01*
X0286893Y0112517D01*
X0285726Y0113685D01*
X0284200Y0114317D01*
X0282549Y0114317D01*
X0284348Y0114255D02*
X0323158Y0114255D01*
X0322980Y0113828D02*
X0323628Y0115391D01*
X0324824Y0116587D01*
X0326387Y0117234D01*
X0328079Y0117234D01*
X0329642Y0116587D01*
X0330838Y0115391D01*
X0331486Y0113828D01*
X0331486Y0112136D01*
X0330838Y0110573D01*
X0329642Y0109376D01*
X0328079Y0108729D01*
X0326387Y0108729D01*
X0324824Y0109376D01*
X0323628Y0110573D01*
X0322980Y0112136D01*
X0322980Y0113828D01*
X0322980Y0113257D02*
X0286153Y0113257D01*
X0287000Y0112258D02*
X0322980Y0112258D01*
X0323343Y0111260D02*
X0287414Y0111260D01*
X0287525Y0110261D02*
X0323939Y0110261D01*
X0325098Y0109263D02*
X0287492Y0109263D01*
X0287079Y0108264D02*
X0332980Y0108264D01*
X0332980Y0108828D02*
X0332980Y0107136D01*
X0333628Y0105573D01*
X0334824Y0104376D01*
X0336387Y0103729D01*
X0338079Y0103729D01*
X0339642Y0104376D01*
X0340838Y0105573D01*
X0341486Y0107136D01*
X0341486Y0108828D01*
X0340838Y0110391D01*
X0339642Y0111587D01*
X0338079Y0112234D01*
X0336387Y0112234D01*
X0334824Y0111587D01*
X0333628Y0110391D01*
X0332980Y0108828D01*
X0333161Y0109263D02*
X0329368Y0109263D01*
X0330527Y0110261D02*
X0333574Y0110261D01*
X0334497Y0111260D02*
X0331123Y0111260D01*
X0331486Y0112258D02*
X0344320Y0112258D01*
X0344320Y0111260D02*
X0339969Y0111260D01*
X0340892Y0110261D02*
X0344320Y0110261D01*
X0344320Y0109263D02*
X0341305Y0109263D01*
X0341486Y0108264D02*
X0344320Y0108264D01*
X0344320Y0107266D02*
X0341486Y0107266D01*
X0341126Y0106267D02*
X0344320Y0106267D01*
X0344320Y0105269D02*
X0340535Y0105269D01*
X0339386Y0104270D02*
X0344320Y0104270D01*
X0344320Y0103272D02*
X0331486Y0103272D01*
X0331486Y0103828D02*
X0330838Y0105391D01*
X0329642Y0106587D01*
X0328079Y0107234D01*
X0326387Y0107234D01*
X0324824Y0106587D01*
X0323628Y0105391D01*
X0322980Y0103828D01*
X0322980Y0102136D01*
X0323628Y0100573D01*
X0324824Y0099376D01*
X0326387Y0098729D01*
X0328079Y0098729D01*
X0329642Y0099376D01*
X0330838Y0100573D01*
X0331486Y0102136D01*
X0331486Y0103828D01*
X0331302Y0104270D02*
X0335080Y0104270D01*
X0333931Y0105269D02*
X0330889Y0105269D01*
X0329962Y0106267D02*
X0333340Y0106267D01*
X0332980Y0107266D02*
X0286343Y0107266D01*
X0284806Y0106267D02*
X0324505Y0106267D01*
X0323577Y0105269D02*
X0210461Y0105269D01*
X0210461Y0106267D02*
X0221944Y0106267D01*
X0220407Y0107266D02*
X0210461Y0107266D01*
X0210461Y0108264D02*
X0219671Y0108264D01*
X0219257Y0109263D02*
X0210461Y0109263D01*
X0210461Y0110261D02*
X0219225Y0110261D01*
X0219336Y0111260D02*
X0210461Y0111260D01*
X0210461Y0112258D02*
X0219749Y0112258D01*
X0220596Y0113257D02*
X0210461Y0113257D01*
X0210461Y0114255D02*
X0222402Y0114255D01*
X0221980Y0116253D02*
X0210461Y0116253D01*
X0210461Y0117251D02*
X0220421Y0117251D01*
X0219677Y0118250D02*
X0210461Y0118250D01*
X0210461Y0119248D02*
X0219263Y0119248D01*
X0219225Y0120247D02*
X0210461Y0120247D01*
X0210461Y0121245D02*
X0219330Y0121245D01*
X0219743Y0122244D02*
X0210461Y0122244D01*
X0210461Y0123242D02*
X0220581Y0123242D01*
X0219270Y0129233D02*
X0210461Y0129233D01*
X0210461Y0130232D02*
X0219225Y0130232D01*
X0219323Y0131230D02*
X0210461Y0131230D01*
X0210461Y0132229D02*
X0219737Y0132229D01*
X0220566Y0133227D02*
X0210461Y0133227D01*
X0210461Y0146208D02*
X0222088Y0146208D01*
X0220466Y0147206D02*
X0210461Y0147206D01*
X0210461Y0148205D02*
X0219695Y0148205D01*
X0219282Y0149203D02*
X0210461Y0149203D01*
X0210461Y0150202D02*
X0219225Y0150202D01*
X0219311Y0151200D02*
X0210461Y0151200D01*
X0210461Y0152199D02*
X0219725Y0152199D01*
X0220537Y0153197D02*
X0210461Y0153197D01*
X0210461Y0115254D02*
X0323571Y0115254D01*
X0324490Y0116253D02*
X0284770Y0116253D01*
X0286328Y0117251D02*
X0332980Y0117251D01*
X0333346Y0116253D02*
X0329976Y0116253D01*
X0330895Y0115254D02*
X0333946Y0115254D01*
X0335116Y0114255D02*
X0331309Y0114255D01*
X0331486Y0113257D02*
X0344320Y0113257D01*
X0344320Y0114255D02*
X0339350Y0114255D01*
X0340520Y0115254D02*
X0344320Y0115254D01*
X0344320Y0116253D02*
X0341120Y0116253D01*
X0341486Y0117251D02*
X0344320Y0117251D01*
X0344320Y0118250D02*
X0341486Y0118250D01*
X0341312Y0119248D02*
X0344320Y0119248D01*
X0344320Y0120247D02*
X0340898Y0120247D01*
X0339984Y0121245D02*
X0344320Y0121245D01*
X0344320Y0124241D02*
X0339314Y0124241D01*
X0340505Y0125239D02*
X0344320Y0125239D01*
X0344320Y0126238D02*
X0341114Y0126238D01*
X0341486Y0127236D02*
X0344320Y0127236D01*
X0344320Y0128235D02*
X0341486Y0128235D01*
X0341318Y0129233D02*
X0344320Y0129233D01*
X0344320Y0130232D02*
X0340904Y0130232D01*
X0339999Y0131230D02*
X0344320Y0131230D01*
X0344320Y0138220D02*
X0287060Y0138220D01*
X0287474Y0139218D02*
X0344320Y0139218D01*
X0344320Y0140217D02*
X0287525Y0140217D01*
X0287432Y0141215D02*
X0344320Y0141215D01*
X0344320Y0142214D02*
X0287019Y0142214D01*
X0286198Y0143212D02*
X0344320Y0143212D01*
X0344320Y0152199D02*
X0321483Y0152199D01*
X0322270Y0153197D02*
X0344320Y0153197D01*
X0344320Y0154196D02*
X0322588Y0154196D01*
X0322585Y0155194D02*
X0344320Y0155194D01*
X0344320Y0156193D02*
X0322172Y0156193D01*
X0321229Y0157191D02*
X0344320Y0157191D01*
X0344320Y0158190D02*
X0287250Y0158190D01*
X0287624Y0159189D02*
X0344320Y0159189D01*
X0344320Y0160187D02*
X0311599Y0160187D01*
X0312950Y0161186D02*
X0344320Y0161186D01*
X0344320Y0162184D02*
X0313431Y0162184D01*
X0313533Y0163183D02*
X0344320Y0163183D01*
X0344320Y0164181D02*
X0313314Y0164181D01*
X0312666Y0165180D02*
X0344320Y0165180D01*
X0344320Y0166178D02*
X0284590Y0166178D01*
X0286551Y0157191D02*
X0317804Y0157191D01*
X0316862Y0156193D02*
X0285158Y0156193D01*
X0312699Y0171171D02*
X0344320Y0171171D01*
X0344320Y0172169D02*
X0313327Y0172169D01*
X0313533Y0173168D02*
X0344320Y0173168D01*
X0344320Y0174166D02*
X0313418Y0174166D01*
X0312918Y0175165D02*
X0344320Y0175165D01*
X0344320Y0176163D02*
X0311520Y0176163D01*
X0280541Y0197132D02*
X0226209Y0197132D01*
X0227023Y0198130D02*
X0279726Y0198130D01*
X0279313Y0199129D02*
X0227437Y0199129D01*
X0227525Y0200127D02*
X0279225Y0200127D01*
X0279280Y0201126D02*
X0227469Y0201126D01*
X0227056Y0202124D02*
X0279694Y0202124D01*
X0280462Y0203123D02*
X0226287Y0203123D01*
X0224671Y0204122D02*
X0282078Y0204122D01*
X0282303Y0206119D02*
X0224446Y0206119D01*
X0224200Y0206017D02*
X0225726Y0206648D01*
X0226893Y0207816D01*
X0227525Y0209341D01*
X0227525Y0210992D01*
X0226893Y0212517D01*
X0225726Y0213685D01*
X0224200Y0214317D01*
X0222549Y0214317D01*
X0221024Y0213685D01*
X0219857Y0212517D01*
X0219225Y0210992D01*
X0219225Y0209341D01*
X0219857Y0207816D01*
X0221024Y0206648D01*
X0222549Y0206017D01*
X0224200Y0206017D01*
X0222303Y0206119D02*
X0210461Y0206119D01*
X0210461Y0207117D02*
X0220555Y0207117D01*
X0219732Y0208116D02*
X0210461Y0208116D01*
X0210461Y0209114D02*
X0219319Y0209114D01*
X0219225Y0210113D02*
X0210461Y0210113D01*
X0210461Y0211111D02*
X0219274Y0211111D01*
X0219688Y0212110D02*
X0210461Y0212110D01*
X0210461Y0213108D02*
X0220447Y0213108D01*
X0222042Y0214107D02*
X0210461Y0214107D01*
X0210461Y0215105D02*
X0324213Y0215105D01*
X0323457Y0216104D02*
X0284410Y0216104D01*
X0284200Y0216017D02*
X0285726Y0216648D01*
X0286893Y0217816D01*
X0287525Y0219341D01*
X0287525Y0220992D01*
X0286893Y0222517D01*
X0285726Y0223685D01*
X0284200Y0224317D01*
X0282549Y0224317D01*
X0281024Y0223685D01*
X0279857Y0222517D01*
X0279225Y0220992D01*
X0279225Y0219341D01*
X0279857Y0217816D01*
X0281024Y0216648D01*
X0282549Y0216017D01*
X0284200Y0216017D01*
X0282339Y0216104D02*
X0224410Y0216104D01*
X0224200Y0216017D02*
X0225726Y0216648D01*
X0226893Y0217816D01*
X0227525Y0219341D01*
X0227525Y0220992D01*
X0226893Y0222517D01*
X0225726Y0223685D01*
X0224200Y0224317D01*
X0222549Y0224317D01*
X0221024Y0223685D01*
X0219857Y0222517D01*
X0219225Y0220992D01*
X0219225Y0219341D01*
X0219857Y0217816D01*
X0221024Y0216648D01*
X0222549Y0216017D01*
X0224200Y0216017D01*
X0222339Y0216104D02*
X0210461Y0216104D01*
X0210461Y0217102D02*
X0220570Y0217102D01*
X0219739Y0218101D02*
X0210461Y0218101D01*
X0210461Y0219099D02*
X0219325Y0219099D01*
X0219225Y0220098D02*
X0210461Y0220098D01*
X0210461Y0221096D02*
X0219268Y0221096D01*
X0219682Y0222095D02*
X0210461Y0222095D01*
X0210461Y0223093D02*
X0220432Y0223093D01*
X0222006Y0224092D02*
X0210461Y0224092D01*
X0210461Y0225090D02*
X0324228Y0225090D01*
X0324824Y0224494D02*
X0323628Y0225691D01*
X0322980Y0227254D01*
X0322980Y0228946D01*
X0323628Y0230509D01*
X0324824Y0231705D01*
X0326387Y0232352D01*
X0328079Y0232352D01*
X0329642Y0231705D01*
X0330838Y0230509D01*
X0331486Y0228946D01*
X0331486Y0227254D01*
X0330838Y0225691D01*
X0329642Y0224494D01*
X0328079Y0223847D01*
X0326387Y0223847D01*
X0324824Y0224494D01*
X0325796Y0224092D02*
X0284743Y0224092D01*
X0286317Y0223093D02*
X0332980Y0223093D01*
X0333046Y0222095D02*
X0328701Y0222095D01*
X0330251Y0221096D02*
X0333460Y0221096D01*
X0334221Y0220098D02*
X0331009Y0220098D01*
X0331422Y0219099D02*
X0335778Y0219099D01*
X0340245Y0220098D02*
X0344320Y0220098D01*
X0344320Y0221096D02*
X0341006Y0221096D01*
X0341420Y0222095D02*
X0344320Y0222095D01*
X0344320Y0223093D02*
X0341486Y0223093D01*
X0341425Y0224092D02*
X0344320Y0224092D01*
X0344320Y0225090D02*
X0341012Y0225090D01*
X0340258Y0226089D02*
X0344320Y0226089D01*
X0344320Y0227087D02*
X0338719Y0227087D01*
X0338079Y0228847D02*
X0336387Y0228847D01*
X0334824Y0229494D01*
X0333628Y0230691D01*
X0332980Y0232254D01*
X0332980Y0233946D01*
X0333628Y0235509D01*
X0334824Y0236705D01*
X0336387Y0237352D01*
X0338079Y0237352D01*
X0339642Y0236705D01*
X0340838Y0235509D01*
X0341486Y0233946D01*
X0341486Y0232254D01*
X0340838Y0230691D01*
X0339642Y0229494D01*
X0338079Y0228847D01*
X0338652Y0229084D02*
X0344320Y0229084D01*
X0344320Y0228086D02*
X0331486Y0228086D01*
X0331428Y0229084D02*
X0335814Y0229084D01*
X0334236Y0230083D02*
X0331015Y0230083D01*
X0330266Y0231081D02*
X0333466Y0231081D01*
X0333052Y0232080D02*
X0328737Y0232080D01*
X0328079Y0233847D02*
X0329642Y0234494D01*
X0330838Y0235691D01*
X0331486Y0237254D01*
X0331486Y0238946D01*
X0330838Y0240509D01*
X0329642Y0241705D01*
X0328079Y0242352D01*
X0326387Y0242352D01*
X0324824Y0241705D01*
X0323628Y0240509D01*
X0322980Y0238946D01*
X0322980Y0237254D01*
X0323628Y0235691D01*
X0324824Y0234494D01*
X0326387Y0233847D01*
X0328079Y0233847D01*
X0328634Y0234077D02*
X0333035Y0234077D01*
X0332980Y0233078D02*
X0286332Y0233078D01*
X0286893Y0232517D02*
X0285726Y0233685D01*
X0284200Y0234317D01*
X0282549Y0234317D01*
X0281024Y0233685D01*
X0279857Y0232517D01*
X0279225Y0230992D01*
X0279225Y0229341D01*
X0279857Y0227816D01*
X0281024Y0226648D01*
X0282549Y0226017D01*
X0284200Y0226017D01*
X0285726Y0226648D01*
X0286893Y0227816D01*
X0287525Y0229341D01*
X0287525Y0230992D01*
X0286893Y0232517D01*
X0287074Y0232080D02*
X0325729Y0232080D01*
X0324200Y0231081D02*
X0287488Y0231081D01*
X0287525Y0230083D02*
X0323451Y0230083D01*
X0323038Y0229084D02*
X0287418Y0229084D01*
X0287005Y0228086D02*
X0322980Y0228086D01*
X0323049Y0227087D02*
X0286164Y0227087D01*
X0284374Y0226089D02*
X0323463Y0226089D01*
X0325765Y0222095D02*
X0287068Y0222095D01*
X0287482Y0221096D02*
X0324215Y0221096D01*
X0323458Y0220098D02*
X0287525Y0220098D01*
X0287425Y0219099D02*
X0323044Y0219099D01*
X0322980Y0218101D02*
X0287011Y0218101D01*
X0286179Y0217102D02*
X0323043Y0217102D01*
X0328670Y0224092D02*
X0333041Y0224092D01*
X0333454Y0225090D02*
X0330238Y0225090D01*
X0331003Y0226089D02*
X0334208Y0226089D01*
X0335747Y0227087D02*
X0331417Y0227087D01*
X0325832Y0234077D02*
X0284779Y0234077D01*
X0284200Y0236017D02*
X0285726Y0236648D01*
X0286893Y0237816D01*
X0287525Y0239341D01*
X0287525Y0240992D01*
X0286893Y0242517D01*
X0285726Y0243685D01*
X0284200Y0244317D01*
X0282549Y0244317D01*
X0281024Y0243685D01*
X0279857Y0242517D01*
X0279225Y0240992D01*
X0279225Y0239341D01*
X0279857Y0237816D01*
X0281024Y0236648D01*
X0282549Y0236017D01*
X0284200Y0236017D01*
X0284338Y0236074D02*
X0323469Y0236074D01*
X0323055Y0237072D02*
X0286150Y0237072D01*
X0286999Y0238071D02*
X0322980Y0238071D01*
X0323032Y0239069D02*
X0287412Y0239069D01*
X0287525Y0240068D02*
X0323445Y0240068D01*
X0324185Y0241066D02*
X0287494Y0241066D01*
X0287080Y0242065D02*
X0325693Y0242065D01*
X0326387Y0243847D02*
X0324824Y0244494D01*
X0323628Y0245691D01*
X0322980Y0247254D01*
X0322980Y0248946D01*
X0323628Y0250509D01*
X0324824Y0251705D01*
X0326387Y0252352D01*
X0328079Y0252352D01*
X0329642Y0251705D01*
X0330838Y0250509D01*
X0331486Y0248946D01*
X0331486Y0247254D01*
X0330838Y0245691D01*
X0329642Y0244494D01*
X0328079Y0243847D01*
X0326387Y0243847D01*
X0325868Y0244062D02*
X0284815Y0244062D01*
X0286347Y0243063D02*
X0332980Y0243063D01*
X0332980Y0242254D02*
X0333628Y0240691D01*
X0334824Y0239494D01*
X0336387Y0238847D01*
X0338079Y0238847D01*
X0339642Y0239494D01*
X0340838Y0240691D01*
X0341486Y0242254D01*
X0341486Y0243946D01*
X0340838Y0245509D01*
X0339642Y0246705D01*
X0338079Y0247352D01*
X0336387Y0247352D01*
X0334824Y0246705D01*
X0333628Y0245509D01*
X0332980Y0243946D01*
X0332980Y0242254D01*
X0333059Y0242065D02*
X0328773Y0242065D01*
X0330281Y0241066D02*
X0333472Y0241066D01*
X0334251Y0240068D02*
X0331021Y0240068D01*
X0331435Y0239069D02*
X0335850Y0239069D01*
X0335711Y0237072D02*
X0331411Y0237072D01*
X0331486Y0238071D02*
X0344320Y0238071D01*
X0344320Y0239069D02*
X0338616Y0239069D01*
X0340216Y0240068D02*
X0344320Y0240068D01*
X0344320Y0241066D02*
X0340994Y0241066D01*
X0341408Y0242065D02*
X0344320Y0242065D01*
X0344320Y0243063D02*
X0341486Y0243063D01*
X0341438Y0244062D02*
X0344320Y0244062D01*
X0344320Y0245060D02*
X0341024Y0245060D01*
X0340288Y0246059D02*
X0344320Y0246059D01*
X0344320Y0247058D02*
X0338791Y0247058D01*
X0335675Y0247058D02*
X0331405Y0247058D01*
X0331486Y0248056D02*
X0344320Y0248056D01*
X0344320Y0249055D02*
X0331441Y0249055D01*
X0331027Y0250053D02*
X0344320Y0250053D01*
X0344320Y0251052D02*
X0330296Y0251052D01*
X0328809Y0252050D02*
X0344320Y0252050D01*
X0344320Y0253049D02*
X0286362Y0253049D01*
X0286893Y0252517D02*
X0285726Y0253685D01*
X0284200Y0254317D01*
X0282549Y0254317D01*
X0281024Y0253685D01*
X0279857Y0252517D01*
X0279225Y0250992D01*
X0279225Y0249341D01*
X0279857Y0247816D01*
X0281024Y0246648D01*
X0282549Y0246017D01*
X0284200Y0246017D01*
X0285726Y0246648D01*
X0286893Y0247816D01*
X0287525Y0249341D01*
X0287525Y0250992D01*
X0286893Y0252517D01*
X0287087Y0252050D02*
X0325657Y0252050D01*
X0324171Y0251052D02*
X0287500Y0251052D01*
X0287525Y0250053D02*
X0323439Y0250053D01*
X0323025Y0249055D02*
X0287406Y0249055D01*
X0286992Y0248056D02*
X0322980Y0248056D01*
X0323062Y0247058D02*
X0286135Y0247058D01*
X0284302Y0246059D02*
X0323475Y0246059D01*
X0324258Y0245060D02*
X0210461Y0245060D01*
X0210461Y0244062D02*
X0221934Y0244062D01*
X0222549Y0244317D02*
X0221024Y0243685D01*
X0219857Y0242517D01*
X0219225Y0240992D01*
X0219225Y0239341D01*
X0219857Y0237816D01*
X0221024Y0236648D01*
X0222549Y0236017D01*
X0224200Y0236017D01*
X0225726Y0236648D01*
X0226893Y0237816D01*
X0227525Y0239341D01*
X0227525Y0240992D01*
X0226893Y0242517D01*
X0225726Y0243685D01*
X0224200Y0244317D01*
X0222549Y0244317D01*
X0222549Y0246017D02*
X0224200Y0246017D01*
X0225726Y0246648D01*
X0226893Y0247816D01*
X0227525Y0249341D01*
X0227525Y0250992D01*
X0226893Y0252517D01*
X0225726Y0253685D01*
X0224200Y0254317D01*
X0222549Y0254317D01*
X0221024Y0253685D01*
X0219857Y0252517D01*
X0219225Y0250992D01*
X0219225Y0249341D01*
X0219857Y0247816D01*
X0221024Y0246648D01*
X0222549Y0246017D01*
X0222447Y0246059D02*
X0210461Y0246059D01*
X0210461Y0247058D02*
X0220615Y0247058D01*
X0219757Y0248056D02*
X0210461Y0248056D01*
X0210461Y0249055D02*
X0219344Y0249055D01*
X0219225Y0250053D02*
X0210461Y0250053D01*
X0210461Y0251052D02*
X0219249Y0251052D01*
X0219663Y0252050D02*
X0210461Y0252050D01*
X0210461Y0253049D02*
X0220388Y0253049D01*
X0221899Y0254047D02*
X0210461Y0254047D01*
X0210461Y0255046D02*
X0344320Y0255046D01*
X0344320Y0256044D02*
X0210461Y0256044D01*
X0210461Y0257043D02*
X0344320Y0257043D01*
X0344320Y0258041D02*
X0210461Y0258041D01*
X0210461Y0259040D02*
X0344320Y0259040D01*
X0344320Y0260038D02*
X0210461Y0260038D01*
X0210461Y0261037D02*
X0344320Y0261037D01*
X0344320Y0262035D02*
X0210461Y0262035D01*
X0210461Y0263034D02*
X0344320Y0263034D01*
X0344320Y0254047D02*
X0284851Y0254047D01*
X0281899Y0254047D02*
X0224851Y0254047D01*
X0226362Y0253049D02*
X0280388Y0253049D01*
X0279663Y0252050D02*
X0227087Y0252050D01*
X0227500Y0251052D02*
X0279249Y0251052D01*
X0279225Y0250053D02*
X0227525Y0250053D01*
X0227406Y0249055D02*
X0279344Y0249055D01*
X0279757Y0248056D02*
X0226992Y0248056D01*
X0226135Y0247058D02*
X0280615Y0247058D01*
X0282447Y0246059D02*
X0224302Y0246059D01*
X0224815Y0244062D02*
X0281934Y0244062D01*
X0280403Y0243063D02*
X0226347Y0243063D01*
X0227080Y0242065D02*
X0279669Y0242065D01*
X0279256Y0241066D02*
X0227494Y0241066D01*
X0227525Y0240068D02*
X0279225Y0240068D01*
X0279337Y0239069D02*
X0227412Y0239069D01*
X0226999Y0238071D02*
X0279751Y0238071D01*
X0280600Y0237072D02*
X0226150Y0237072D01*
X0224338Y0236074D02*
X0282411Y0236074D01*
X0281970Y0234077D02*
X0224779Y0234077D01*
X0224200Y0234317D02*
X0225726Y0233685D01*
X0226893Y0232517D01*
X0227525Y0230992D01*
X0227525Y0229341D01*
X0226893Y0227816D01*
X0225726Y0226648D01*
X0224200Y0226017D01*
X0222549Y0226017D01*
X0221024Y0226648D01*
X0219857Y0227816D01*
X0219225Y0229341D01*
X0219225Y0230992D01*
X0219857Y0232517D01*
X0221024Y0233685D01*
X0222549Y0234317D01*
X0224200Y0234317D01*
X0221970Y0234077D02*
X0210461Y0234077D01*
X0210461Y0235075D02*
X0324243Y0235075D01*
X0330223Y0235075D02*
X0333448Y0235075D01*
X0334193Y0236074D02*
X0330997Y0236074D01*
X0338755Y0237072D02*
X0344320Y0237072D01*
X0344320Y0236074D02*
X0340273Y0236074D01*
X0341018Y0235075D02*
X0344320Y0235075D01*
X0344320Y0234077D02*
X0341431Y0234077D01*
X0341486Y0233078D02*
X0344320Y0233078D01*
X0344320Y0232080D02*
X0341414Y0232080D01*
X0341000Y0231081D02*
X0344320Y0231081D01*
X0344320Y0230083D02*
X0340230Y0230083D01*
X0333028Y0244062D02*
X0328598Y0244062D01*
X0330208Y0245060D02*
X0333442Y0245060D01*
X0334178Y0246059D02*
X0330991Y0246059D01*
X0280418Y0233078D02*
X0226332Y0233078D01*
X0227074Y0232080D02*
X0279675Y0232080D01*
X0279262Y0231081D02*
X0227488Y0231081D01*
X0227525Y0230083D02*
X0279225Y0230083D01*
X0279331Y0229084D02*
X0227418Y0229084D01*
X0227005Y0228086D02*
X0279745Y0228086D01*
X0280585Y0227087D02*
X0226164Y0227087D01*
X0224374Y0226089D02*
X0282375Y0226089D01*
X0282006Y0224092D02*
X0224743Y0224092D01*
X0226317Y0223093D02*
X0280432Y0223093D01*
X0279682Y0222095D02*
X0227068Y0222095D01*
X0227482Y0221096D02*
X0279268Y0221096D01*
X0279225Y0220098D02*
X0227525Y0220098D01*
X0227425Y0219099D02*
X0279325Y0219099D01*
X0279739Y0218101D02*
X0227011Y0218101D01*
X0226179Y0217102D02*
X0280570Y0217102D01*
X0282042Y0214107D02*
X0224707Y0214107D01*
X0226302Y0213108D02*
X0280447Y0213108D01*
X0279688Y0212110D02*
X0227062Y0212110D01*
X0227476Y0211111D02*
X0279274Y0211111D01*
X0279225Y0210113D02*
X0227525Y0210113D01*
X0227431Y0209114D02*
X0279319Y0209114D01*
X0279732Y0208116D02*
X0227017Y0208116D01*
X0226194Y0207117D02*
X0280555Y0207117D01*
X0222375Y0226089D02*
X0210461Y0226089D01*
X0210461Y0227087D02*
X0220585Y0227087D01*
X0219745Y0228086D02*
X0210461Y0228086D01*
X0210461Y0229084D02*
X0219331Y0229084D01*
X0219225Y0230083D02*
X0210461Y0230083D01*
X0210461Y0231081D02*
X0219262Y0231081D01*
X0219675Y0232080D02*
X0210461Y0232080D01*
X0210461Y0233078D02*
X0220418Y0233078D01*
X0222411Y0236074D02*
X0210461Y0236074D01*
X0210461Y0237072D02*
X0220600Y0237072D01*
X0219751Y0238071D02*
X0210461Y0238071D01*
X0210461Y0239069D02*
X0219337Y0239069D01*
X0219225Y0240068D02*
X0210461Y0240068D01*
X0210461Y0241066D02*
X0219256Y0241066D01*
X0219669Y0242065D02*
X0210461Y0242065D01*
X0210461Y0243063D02*
X0220403Y0243063D01*
X0135658Y0280008D02*
X0135270Y0280008D01*
X0284420Y0134226D02*
X0323145Y0134226D01*
X0322980Y0133227D02*
X0286183Y0133227D01*
X0287013Y0132229D02*
X0322980Y0132229D01*
X0323355Y0131230D02*
X0287426Y0131230D01*
X0287525Y0130232D02*
X0323969Y0130232D01*
X0325170Y0129233D02*
X0287480Y0129233D01*
X0280596Y0113257D02*
X0226153Y0113257D01*
X0227000Y0112258D02*
X0279749Y0112258D01*
X0279336Y0111260D02*
X0227414Y0111260D01*
X0227525Y0110261D02*
X0279225Y0110261D01*
X0279257Y0109263D02*
X0227492Y0109263D01*
X0227079Y0108264D02*
X0279671Y0108264D01*
X0280407Y0107266D02*
X0226343Y0107266D01*
X0224806Y0106267D02*
X0281944Y0106267D01*
X0282549Y0104317D02*
X0281024Y0103685D01*
X0279857Y0102517D01*
X0279225Y0100992D01*
X0279225Y0099341D01*
X0279857Y0097816D01*
X0281024Y0096648D01*
X0282549Y0096017D01*
X0284200Y0096017D01*
X0285726Y0096648D01*
X0286893Y0097816D01*
X0287525Y0099341D01*
X0287525Y0100992D01*
X0286893Y0102517D01*
X0285726Y0103685D01*
X0284200Y0104317D01*
X0282549Y0104317D01*
X0282438Y0104270D02*
X0224312Y0104270D01*
X0224200Y0104317D02*
X0222549Y0104317D01*
X0221024Y0103685D01*
X0219857Y0102517D01*
X0219225Y0100992D01*
X0219225Y0099341D01*
X0219857Y0097816D01*
X0221024Y0096648D01*
X0222549Y0096017D01*
X0224200Y0096017D01*
X0225726Y0096648D01*
X0226893Y0097816D01*
X0227525Y0099341D01*
X0227525Y0100992D01*
X0226893Y0102517D01*
X0225726Y0103685D01*
X0224200Y0104317D01*
X0222438Y0104270D02*
X0210461Y0104270D01*
X0210461Y0103272D02*
X0220611Y0103272D01*
X0219756Y0102273D02*
X0210461Y0102273D01*
X0210461Y0101275D02*
X0219342Y0101275D01*
X0219225Y0100276D02*
X0210461Y0100276D01*
X0210461Y0099278D02*
X0219251Y0099278D01*
X0219665Y0098279D02*
X0210461Y0098279D01*
X0210461Y0097281D02*
X0220392Y0097281D01*
X0221908Y0096282D02*
X0210461Y0096282D01*
X0210461Y0095284D02*
X0333917Y0095284D01*
X0333628Y0095573D02*
X0334824Y0094376D01*
X0336387Y0093729D01*
X0338079Y0093729D01*
X0339642Y0094376D01*
X0340838Y0095573D01*
X0341486Y0097136D01*
X0341486Y0098828D01*
X0340838Y0100391D01*
X0339642Y0101587D01*
X0338079Y0102234D01*
X0336387Y0102234D01*
X0334824Y0101587D01*
X0333628Y0100391D01*
X0332980Y0098828D01*
X0332980Y0097136D01*
X0333628Y0095573D01*
X0333334Y0096282D02*
X0284842Y0096282D01*
X0286358Y0097281D02*
X0332980Y0097281D01*
X0332980Y0098279D02*
X0287085Y0098279D01*
X0287499Y0099278D02*
X0325062Y0099278D01*
X0323924Y0100276D02*
X0287525Y0100276D01*
X0287408Y0101275D02*
X0323337Y0101275D01*
X0322980Y0102273D02*
X0286994Y0102273D01*
X0286139Y0103272D02*
X0322980Y0103272D01*
X0323164Y0104270D02*
X0284312Y0104270D01*
X0280611Y0103272D02*
X0226139Y0103272D01*
X0226994Y0102273D02*
X0279756Y0102273D01*
X0279342Y0101275D02*
X0227408Y0101275D01*
X0227525Y0100276D02*
X0279225Y0100276D01*
X0279251Y0099278D02*
X0227499Y0099278D01*
X0227085Y0098279D02*
X0279665Y0098279D01*
X0280392Y0097281D02*
X0226358Y0097281D01*
X0224842Y0096282D02*
X0281908Y0096282D01*
X0282549Y0094317D02*
X0281024Y0093685D01*
X0279857Y0092517D01*
X0279225Y0090992D01*
X0279225Y0089341D01*
X0279857Y0087816D01*
X0281024Y0086648D01*
X0282549Y0086017D01*
X0284200Y0086017D01*
X0285726Y0086648D01*
X0286893Y0087816D01*
X0287525Y0089341D01*
X0287525Y0090992D01*
X0286893Y0092517D01*
X0285726Y0093685D01*
X0284200Y0094317D01*
X0282549Y0094317D01*
X0282474Y0094285D02*
X0224276Y0094285D01*
X0224200Y0094317D02*
X0222549Y0094317D01*
X0221024Y0093685D01*
X0219857Y0092517D01*
X0219225Y0090992D01*
X0219225Y0089341D01*
X0219857Y0087816D01*
X0221024Y0086648D01*
X0222549Y0086017D01*
X0224200Y0086017D01*
X0225726Y0086648D01*
X0226893Y0087816D01*
X0227525Y0089341D01*
X0227525Y0090992D01*
X0226893Y0092517D01*
X0225726Y0093685D01*
X0224200Y0094317D01*
X0222474Y0094285D02*
X0210461Y0094285D01*
X0210461Y0093287D02*
X0220626Y0093287D01*
X0219762Y0092288D02*
X0210461Y0092288D01*
X0210461Y0091290D02*
X0219348Y0091290D01*
X0219225Y0090291D02*
X0210461Y0090291D01*
X0210461Y0089293D02*
X0219245Y0089293D01*
X0219658Y0088294D02*
X0210461Y0088294D01*
X0210461Y0087296D02*
X0220377Y0087296D01*
X0221872Y0086297D02*
X0210461Y0086297D01*
X0210461Y0085299D02*
X0341171Y0085299D01*
X0340500Y0084300D02*
X0284240Y0084300D01*
X0284200Y0084317D02*
X0282549Y0084317D01*
X0281024Y0083685D01*
X0279857Y0082517D01*
X0279225Y0080992D01*
X0279225Y0079341D01*
X0279857Y0077816D01*
X0281024Y0076648D01*
X0282549Y0076017D01*
X0284200Y0076017D01*
X0285726Y0076648D01*
X0286893Y0077816D01*
X0287525Y0079341D01*
X0287525Y0080992D01*
X0286893Y0082517D01*
X0285726Y0083685D01*
X0284200Y0084317D01*
X0282510Y0084300D02*
X0224240Y0084300D01*
X0224200Y0084317D02*
X0222549Y0084317D01*
X0221024Y0083685D01*
X0219857Y0082517D01*
X0219225Y0080992D01*
X0219225Y0079341D01*
X0219857Y0077816D01*
X0221024Y0076648D01*
X0222549Y0076017D01*
X0224200Y0076017D01*
X0225726Y0076648D01*
X0226893Y0077816D01*
X0227525Y0079341D01*
X0227525Y0080992D01*
X0226893Y0082517D01*
X0225726Y0083685D01*
X0224200Y0084317D01*
X0222510Y0084300D02*
X0210461Y0084300D01*
X0210461Y0083302D02*
X0220641Y0083302D01*
X0219768Y0082303D02*
X0210461Y0082303D01*
X0210461Y0081305D02*
X0219354Y0081305D01*
X0219225Y0080306D02*
X0210461Y0080306D01*
X0210461Y0079308D02*
X0219239Y0079308D01*
X0219652Y0078309D02*
X0210461Y0078309D01*
X0210461Y0077311D02*
X0220362Y0077311D01*
X0221836Y0076312D02*
X0210461Y0076312D01*
X0210461Y0075314D02*
X0329414Y0075314D01*
X0329117Y0075017D02*
X0328650Y0073888D01*
X0328650Y0072666D01*
X0329117Y0071537D01*
X0329981Y0070673D01*
X0331110Y0070205D01*
X0332332Y0070205D01*
X0333461Y0070673D01*
X0334325Y0071537D01*
X0334793Y0072666D01*
X0334793Y0073888D01*
X0334325Y0075017D01*
X0333461Y0075881D01*
X0332332Y0076349D01*
X0331110Y0076349D01*
X0329981Y0075881D01*
X0329117Y0075017D01*
X0328827Y0074315D02*
X0284204Y0074315D01*
X0284200Y0074317D02*
X0282549Y0074317D01*
X0281024Y0073685D01*
X0279857Y0072517D01*
X0279225Y0070992D01*
X0279225Y0069341D01*
X0279857Y0067816D01*
X0281024Y0066648D01*
X0282549Y0066017D01*
X0284200Y0066017D01*
X0285726Y0066648D01*
X0286893Y0067816D01*
X0287525Y0069341D01*
X0287525Y0070992D01*
X0286893Y0072517D01*
X0285726Y0073685D01*
X0284200Y0074317D01*
X0282545Y0074315D02*
X0224204Y0074315D01*
X0224200Y0074317D02*
X0222549Y0074317D01*
X0221024Y0073685D01*
X0219857Y0072517D01*
X0219225Y0070992D01*
X0219225Y0069341D01*
X0219857Y0067816D01*
X0221024Y0066648D01*
X0222549Y0066017D01*
X0224200Y0066017D01*
X0225726Y0066648D01*
X0226893Y0067816D01*
X0227525Y0069341D01*
X0227525Y0070992D01*
X0226893Y0072517D01*
X0225726Y0073685D01*
X0224200Y0074317D01*
X0222545Y0074315D02*
X0210461Y0074315D01*
X0210461Y0073317D02*
X0220656Y0073317D01*
X0219774Y0072318D02*
X0210461Y0072318D01*
X0210461Y0071320D02*
X0219360Y0071320D01*
X0219225Y0070321D02*
X0210461Y0070321D01*
X0210461Y0069322D02*
X0219233Y0069322D01*
X0219646Y0068324D02*
X0210461Y0068324D01*
X0210461Y0067325D02*
X0220347Y0067325D01*
X0221800Y0066327D02*
X0210461Y0066327D01*
X0210461Y0065328D02*
X0299558Y0065328D01*
X0299516Y0065226D02*
X0299516Y0064004D01*
X0299983Y0062876D01*
X0300847Y0062011D01*
X0301976Y0061544D01*
X0303198Y0061544D01*
X0304327Y0062011D01*
X0305191Y0062876D01*
X0305659Y0064004D01*
X0305659Y0065226D01*
X0305191Y0066355D01*
X0304327Y0067219D01*
X0303198Y0067687D01*
X0301976Y0067687D01*
X0300847Y0067219D01*
X0299983Y0066355D01*
X0299516Y0065226D01*
X0299516Y0064330D02*
X0210461Y0064330D01*
X0210461Y0063331D02*
X0220671Y0063331D01*
X0221024Y0063685D02*
X0219857Y0062517D01*
X0219225Y0060992D01*
X0219225Y0059341D01*
X0219857Y0057816D01*
X0221024Y0056648D01*
X0222549Y0056017D01*
X0224200Y0056017D01*
X0225726Y0056648D01*
X0226893Y0057816D01*
X0227525Y0059341D01*
X0227525Y0060992D01*
X0226893Y0062517D01*
X0225726Y0063685D01*
X0224200Y0064317D01*
X0222549Y0064317D01*
X0221024Y0063685D01*
X0219780Y0062333D02*
X0210461Y0062333D01*
X0210461Y0061334D02*
X0219367Y0061334D01*
X0219225Y0060336D02*
X0210461Y0060336D01*
X0210461Y0059337D02*
X0219226Y0059337D01*
X0219640Y0058339D02*
X0210461Y0058339D01*
X0210461Y0057340D02*
X0220332Y0057340D01*
X0221764Y0056342D02*
X0210461Y0056342D01*
X0210461Y0055343D02*
X0344320Y0055343D01*
X0344320Y0054345D02*
X0304800Y0054345D01*
X0304524Y0054621D02*
X0305388Y0053757D01*
X0305856Y0052628D01*
X0305856Y0051406D01*
X0305388Y0050277D01*
X0304524Y0049413D01*
X0303395Y0048945D01*
X0302173Y0048945D01*
X0301044Y0049413D01*
X0300180Y0050277D01*
X0299713Y0051406D01*
X0299713Y0052628D01*
X0300180Y0053757D01*
X0301044Y0054621D01*
X0302173Y0055089D01*
X0303395Y0055089D01*
X0304524Y0054621D01*
X0305558Y0053346D02*
X0344320Y0053346D01*
X0344320Y0052348D02*
X0305856Y0052348D01*
X0305832Y0051349D02*
X0344320Y0051349D01*
X0344320Y0050351D02*
X0305419Y0050351D01*
X0304377Y0049352D02*
X0344320Y0049352D01*
X0344320Y0048354D02*
X0287116Y0048354D01*
X0286893Y0047816D02*
X0287525Y0049341D01*
X0287525Y0050992D01*
X0286893Y0052517D01*
X0285726Y0053685D01*
X0284200Y0054317D01*
X0282549Y0054317D01*
X0281024Y0053685D01*
X0279857Y0052517D01*
X0279225Y0050992D01*
X0279225Y0049341D01*
X0279857Y0047816D01*
X0281024Y0046648D01*
X0282549Y0046017D01*
X0284200Y0046017D01*
X0285726Y0046648D01*
X0286893Y0047816D01*
X0286432Y0047355D02*
X0344320Y0047355D01*
X0344320Y0046357D02*
X0285021Y0046357D01*
X0286049Y0043361D02*
X0344320Y0043361D01*
X0344320Y0042363D02*
X0319538Y0042363D01*
X0320427Y0041364D02*
X0344320Y0041364D01*
X0344320Y0040366D02*
X0320817Y0040366D01*
X0320817Y0039367D02*
X0344320Y0039367D01*
X0344320Y0044360D02*
X0224547Y0044360D01*
X0224393Y0044410D02*
X0223825Y0044500D01*
X0223825Y0040617D01*
X0227708Y0040617D01*
X0227618Y0041185D01*
X0227406Y0041836D01*
X0227095Y0042447D01*
X0226693Y0043000D01*
X0226209Y0043485D01*
X0225655Y0043887D01*
X0225045Y0044198D01*
X0224393Y0044410D01*
X0223825Y0044360D02*
X0222925Y0044360D01*
X0222203Y0044360D02*
X0210461Y0044360D01*
X0210461Y0045358D02*
X0344320Y0045358D01*
X0344320Y0056342D02*
X0284985Y0056342D01*
X0285726Y0056648D02*
X0286893Y0057816D01*
X0287525Y0059341D01*
X0287525Y0060992D01*
X0286893Y0062517D01*
X0285726Y0063685D01*
X0284200Y0064317D01*
X0282549Y0064317D01*
X0281024Y0063685D01*
X0279857Y0062517D01*
X0279225Y0060992D01*
X0279225Y0059341D01*
X0279857Y0057816D01*
X0281024Y0056648D01*
X0282549Y0056017D01*
X0284200Y0056017D01*
X0285726Y0056648D01*
X0286417Y0057340D02*
X0344320Y0057340D01*
X0344320Y0058339D02*
X0287110Y0058339D01*
X0287523Y0059337D02*
X0344320Y0059337D01*
X0344320Y0060336D02*
X0287525Y0060336D01*
X0287383Y0061334D02*
X0344320Y0061334D01*
X0344320Y0062333D02*
X0304649Y0062333D01*
X0305380Y0063331D02*
X0344320Y0063331D01*
X0344320Y0064330D02*
X0305659Y0064330D01*
X0305617Y0065328D02*
X0344320Y0065328D01*
X0344320Y0066327D02*
X0305203Y0066327D01*
X0304071Y0067325D02*
X0344320Y0067325D01*
X0344320Y0068324D02*
X0287103Y0068324D01*
X0287517Y0069322D02*
X0344320Y0069322D01*
X0344320Y0070321D02*
X0332612Y0070321D01*
X0330831Y0070321D02*
X0287525Y0070321D01*
X0287389Y0071320D02*
X0329335Y0071320D01*
X0328794Y0072318D02*
X0286976Y0072318D01*
X0286094Y0073317D02*
X0328650Y0073317D01*
X0331022Y0076312D02*
X0284913Y0076312D01*
X0286388Y0077311D02*
X0344320Y0077311D01*
X0344320Y0078309D02*
X0287097Y0078309D01*
X0287511Y0079308D02*
X0344320Y0079308D01*
X0342101Y0080306D02*
X0287525Y0080306D01*
X0287395Y0081305D02*
X0340806Y0081305D01*
X0340349Y0082303D02*
X0286982Y0082303D01*
X0286109Y0083302D02*
X0340264Y0083302D01*
X0344320Y0086297D02*
X0284878Y0086297D01*
X0286373Y0087296D02*
X0344320Y0087296D01*
X0344320Y0088294D02*
X0287091Y0088294D01*
X0287505Y0089293D02*
X0344320Y0089293D01*
X0344320Y0090291D02*
X0287525Y0090291D01*
X0287402Y0091290D02*
X0344320Y0091290D01*
X0344320Y0092288D02*
X0286988Y0092288D01*
X0286124Y0093287D02*
X0344320Y0093287D01*
X0344320Y0094285D02*
X0339422Y0094285D01*
X0340550Y0095284D02*
X0344320Y0095284D01*
X0344320Y0096282D02*
X0341132Y0096282D01*
X0341486Y0097281D02*
X0344320Y0097281D01*
X0344320Y0098279D02*
X0341486Y0098279D01*
X0341299Y0099278D02*
X0344320Y0099278D01*
X0344320Y0100276D02*
X0340886Y0100276D01*
X0339954Y0101275D02*
X0344320Y0101275D01*
X0344320Y0102273D02*
X0331486Y0102273D01*
X0331129Y0101275D02*
X0334512Y0101275D01*
X0333580Y0100276D02*
X0330542Y0100276D01*
X0329404Y0099278D02*
X0333167Y0099278D01*
X0335044Y0094285D02*
X0284276Y0094285D01*
X0280626Y0093287D02*
X0226124Y0093287D01*
X0226988Y0092288D02*
X0279762Y0092288D01*
X0279348Y0091290D02*
X0227402Y0091290D01*
X0227525Y0090291D02*
X0279225Y0090291D01*
X0279245Y0089293D02*
X0227505Y0089293D01*
X0227091Y0088294D02*
X0279658Y0088294D01*
X0280377Y0087296D02*
X0226373Y0087296D01*
X0224878Y0086297D02*
X0281872Y0086297D01*
X0280641Y0083302D02*
X0226109Y0083302D01*
X0226982Y0082303D02*
X0279768Y0082303D01*
X0279354Y0081305D02*
X0227395Y0081305D01*
X0227525Y0080306D02*
X0279225Y0080306D01*
X0279239Y0079308D02*
X0227511Y0079308D01*
X0227097Y0078309D02*
X0279652Y0078309D01*
X0280362Y0077311D02*
X0226388Y0077311D01*
X0224913Y0076312D02*
X0281836Y0076312D01*
X0280656Y0073317D02*
X0226094Y0073317D01*
X0226976Y0072318D02*
X0279774Y0072318D01*
X0279360Y0071320D02*
X0227389Y0071320D01*
X0227525Y0070321D02*
X0279225Y0070321D01*
X0279233Y0069322D02*
X0227517Y0069322D01*
X0227103Y0068324D02*
X0279646Y0068324D01*
X0280347Y0067325D02*
X0226403Y0067325D01*
X0224949Y0066327D02*
X0281800Y0066327D01*
X0284949Y0066327D02*
X0299972Y0066327D01*
X0301103Y0067325D02*
X0286403Y0067325D01*
X0286079Y0063331D02*
X0299795Y0063331D01*
X0300526Y0062333D02*
X0286969Y0062333D01*
X0280671Y0063331D02*
X0226079Y0063331D01*
X0226969Y0062333D02*
X0279780Y0062333D01*
X0279367Y0061334D02*
X0227383Y0061334D01*
X0227525Y0060336D02*
X0279225Y0060336D01*
X0279226Y0059337D02*
X0227523Y0059337D01*
X0227110Y0058339D02*
X0279640Y0058339D01*
X0280332Y0057340D02*
X0226417Y0057340D01*
X0224985Y0056342D02*
X0281764Y0056342D01*
X0280685Y0053346D02*
X0226064Y0053346D01*
X0225726Y0053685D02*
X0224200Y0054317D01*
X0222549Y0054317D01*
X0221024Y0053685D01*
X0219857Y0052517D01*
X0219225Y0050992D01*
X0219225Y0049341D01*
X0219857Y0047816D01*
X0221024Y0046648D01*
X0222549Y0046017D01*
X0224200Y0046017D01*
X0225726Y0046648D01*
X0226893Y0047816D01*
X0227525Y0049341D01*
X0227525Y0050992D01*
X0226893Y0052517D01*
X0225726Y0053685D01*
X0226963Y0052348D02*
X0279786Y0052348D01*
X0279373Y0051349D02*
X0227377Y0051349D01*
X0227525Y0050351D02*
X0279225Y0050351D01*
X0279225Y0049352D02*
X0227525Y0049352D01*
X0227116Y0048354D02*
X0279634Y0048354D01*
X0280317Y0047355D02*
X0226432Y0047355D01*
X0225021Y0046357D02*
X0281728Y0046357D01*
X0280700Y0043361D02*
X0226332Y0043361D01*
X0227138Y0042363D02*
X0279793Y0042363D01*
X0279379Y0041364D02*
X0227560Y0041364D01*
X0227652Y0039367D02*
X0279225Y0039367D01*
X0279225Y0040366D02*
X0223825Y0040366D01*
X0222925Y0040366D02*
X0210461Y0040366D01*
X0210461Y0041364D02*
X0219190Y0041364D01*
X0219612Y0042363D02*
X0210461Y0042363D01*
X0210461Y0043361D02*
X0220418Y0043361D01*
X0222925Y0043361D02*
X0223825Y0043361D01*
X0223825Y0042363D02*
X0222925Y0042363D01*
X0222925Y0041364D02*
X0223825Y0041364D01*
X0221728Y0046357D02*
X0210461Y0046357D01*
X0210461Y0047355D02*
X0220317Y0047355D01*
X0219634Y0048354D02*
X0210461Y0048354D01*
X0210461Y0049352D02*
X0219225Y0049352D01*
X0219225Y0050351D02*
X0210461Y0050351D01*
X0210461Y0051349D02*
X0219373Y0051349D01*
X0219786Y0052348D02*
X0210461Y0052348D01*
X0210461Y0053346D02*
X0220685Y0053346D01*
X0210461Y0054345D02*
X0300768Y0054345D01*
X0300010Y0053346D02*
X0286064Y0053346D01*
X0286963Y0052348D02*
X0299713Y0052348D01*
X0299736Y0051349D02*
X0287377Y0051349D01*
X0287525Y0050351D02*
X0300150Y0050351D01*
X0301191Y0049352D02*
X0287525Y0049352D01*
X0286957Y0042363D02*
X0315951Y0042363D01*
X0315063Y0041364D02*
X0287371Y0041364D01*
X0287525Y0040366D02*
X0314673Y0040366D01*
X0314673Y0039367D02*
X0287525Y0039367D01*
X0334108Y0071320D02*
X0344320Y0071320D01*
X0344320Y0072318D02*
X0334649Y0072318D01*
X0334793Y0073317D02*
X0344320Y0073317D01*
X0344320Y0074315D02*
X0334616Y0074315D01*
X0334029Y0075314D02*
X0344320Y0075314D01*
X0344320Y0076312D02*
X0332420Y0076312D01*
X0219097Y0039367D02*
X0210461Y0039367D01*
D18*
X0202587Y0039381D02*
X0190721Y0039381D01*
X0190717Y0040979D02*
X0202587Y0040979D01*
X0202587Y0042578D02*
X0190713Y0042578D01*
X0190710Y0044176D02*
X0202587Y0044176D01*
X0202587Y0045775D02*
X0190706Y0045775D01*
X0190702Y0047373D02*
X0202587Y0047373D01*
X0202587Y0048972D02*
X0190698Y0048972D01*
X0190695Y0050570D02*
X0202587Y0050570D01*
X0202587Y0052169D02*
X0190691Y0052169D01*
X0190687Y0053767D02*
X0202587Y0053767D01*
X0202587Y0055366D02*
X0190684Y0055366D01*
X0190680Y0056964D02*
X0202587Y0056964D01*
X0202587Y0058563D02*
X0190676Y0058563D01*
X0190673Y0060161D02*
X0202587Y0060161D01*
X0202587Y0061760D02*
X0190669Y0061760D01*
X0190665Y0063358D02*
X0202587Y0063358D01*
X0202587Y0064957D02*
X0190661Y0064957D01*
X0190658Y0066555D02*
X0202587Y0066555D01*
X0202587Y0068154D02*
X0190654Y0068154D01*
X0190650Y0069752D02*
X0202587Y0069752D01*
X0202587Y0071351D02*
X0190647Y0071351D01*
X0190643Y0072949D02*
X0202587Y0072949D01*
X0202587Y0074548D02*
X0190639Y0074548D01*
X0190635Y0076146D02*
X0202587Y0076146D01*
X0202587Y0077745D02*
X0190632Y0077745D01*
X0190628Y0079343D02*
X0202587Y0079343D01*
X0202587Y0080942D02*
X0190624Y0080942D01*
X0190621Y0082540D02*
X0202587Y0082540D01*
X0202587Y0084139D02*
X0190617Y0084139D01*
X0190613Y0085737D02*
X0202587Y0085737D01*
X0202587Y0087336D02*
X0190609Y0087336D01*
X0190606Y0088934D02*
X0202587Y0088934D01*
X0202587Y0090533D02*
X0190602Y0090533D01*
X0190598Y0092131D02*
X0202587Y0092131D01*
X0202587Y0093730D02*
X0190595Y0093730D01*
X0190591Y0095328D02*
X0202587Y0095328D01*
X0202587Y0096927D02*
X0190587Y0096927D01*
X0190584Y0098525D02*
X0202587Y0098525D01*
X0202587Y0100049D02*
X0202587Y0031151D01*
X0218966Y0031151D01*
X0218925Y0031052D01*
X0218925Y0029281D01*
X0219602Y0027646D01*
X0220854Y0026394D01*
X0222490Y0025717D01*
X0224260Y0025717D01*
X0225896Y0026394D01*
X0227147Y0027646D01*
X0227825Y0029281D01*
X0227825Y0031052D01*
X0227784Y0031151D01*
X0278966Y0031151D01*
X0278925Y0031052D01*
X0278925Y0029281D01*
X0279602Y0027646D01*
X0280854Y0026394D01*
X0282490Y0025717D01*
X0284260Y0025717D01*
X0285896Y0026394D01*
X0287147Y0027646D01*
X0287825Y0029281D01*
X0287825Y0031052D01*
X0287784Y0031151D01*
X0349799Y0031151D01*
X0349799Y0029500D01*
X0351063Y0026449D01*
X0353398Y0024115D01*
X0356448Y0022851D01*
X0359750Y0022851D01*
X0362801Y0024115D01*
X0365136Y0026449D01*
X0366399Y0029500D01*
X0366399Y0032802D01*
X0365136Y0035852D01*
X0362801Y0038187D01*
X0359750Y0039451D01*
X0356448Y0039451D01*
X0353398Y0038187D01*
X0352194Y0036983D01*
X0352194Y0271308D01*
X0238020Y0271308D01*
X0238020Y0312815D01*
X0374016Y0312815D01*
X0374016Y0017203D01*
X0286704Y0017203D01*
X0287147Y0017646D01*
X0287825Y0019281D01*
X0287825Y0021052D01*
X0287147Y0022687D01*
X0285896Y0023939D01*
X0284260Y0024617D01*
X0282490Y0024617D01*
X0280854Y0023939D01*
X0279602Y0022687D01*
X0278925Y0021052D01*
X0278925Y0019281D01*
X0279602Y0017646D01*
X0280045Y0017203D01*
X0226969Y0017203D01*
X0227352Y0017730D01*
X0227684Y0018382D01*
X0227910Y0019078D01*
X0228025Y0019801D01*
X0228025Y0020017D01*
X0223525Y0020017D01*
X0223525Y0020317D01*
X0223225Y0020317D01*
X0223225Y0024817D01*
X0223009Y0024817D01*
X0222286Y0024702D01*
X0221590Y0024476D01*
X0220938Y0024144D01*
X0220346Y0023713D01*
X0219828Y0023196D01*
X0219398Y0022604D01*
X0219065Y0021952D01*
X0218839Y0021256D01*
X0218725Y0020533D01*
X0218725Y0020317D01*
X0223225Y0020317D01*
X0223225Y0020017D01*
X0218725Y0020017D01*
X0218725Y0019801D01*
X0218839Y0019078D01*
X0219065Y0018382D01*
X0219398Y0017730D01*
X0219780Y0017203D01*
X0190772Y0017203D01*
X0190762Y0021587D01*
X0191918Y0022066D01*
X0193365Y0023513D01*
X0194148Y0025403D01*
X0194148Y0027450D01*
X0193365Y0029340D01*
X0191918Y0030787D01*
X0190740Y0031275D01*
X0190580Y0100245D01*
X0202587Y0100049D01*
X0197986Y0100124D02*
X0190580Y0100124D01*
X0190724Y0037782D02*
X0202587Y0037782D01*
X0202587Y0036184D02*
X0190728Y0036184D01*
X0190732Y0034585D02*
X0202587Y0034585D01*
X0202587Y0032987D02*
X0190736Y0032987D01*
X0190739Y0031388D02*
X0202587Y0031388D01*
X0193841Y0028191D02*
X0219377Y0028191D01*
X0218925Y0029789D02*
X0192915Y0029789D01*
X0194148Y0026592D02*
X0220656Y0026592D01*
X0220027Y0023395D02*
X0193247Y0023395D01*
X0193978Y0024994D02*
X0352518Y0024994D01*
X0351004Y0026592D02*
X0286094Y0026592D01*
X0287373Y0028191D02*
X0350341Y0028191D01*
X0349799Y0029789D02*
X0287825Y0029789D01*
X0280656Y0026592D02*
X0226094Y0026592D01*
X0227373Y0028191D02*
X0279377Y0028191D01*
X0278925Y0029789D02*
X0227825Y0029789D01*
X0225160Y0024476D02*
X0224464Y0024702D01*
X0223741Y0024817D01*
X0223525Y0024817D01*
X0223525Y0020317D01*
X0228025Y0020317D01*
X0228025Y0020533D01*
X0227910Y0021256D01*
X0227684Y0021952D01*
X0227352Y0022604D01*
X0226922Y0023196D01*
X0226404Y0023713D01*
X0225812Y0024144D01*
X0225160Y0024476D01*
X0226722Y0023395D02*
X0280310Y0023395D01*
X0279233Y0021797D02*
X0227734Y0021797D01*
X0227755Y0018600D02*
X0279207Y0018600D01*
X0278925Y0020198D02*
X0223525Y0020198D01*
X0223225Y0020198D02*
X0190765Y0020198D01*
X0190769Y0018600D02*
X0218995Y0018600D01*
X0219015Y0021797D02*
X0191268Y0021797D01*
X0223225Y0021797D02*
X0223525Y0021797D01*
X0223525Y0023395D02*
X0223225Y0023395D01*
X0286439Y0023395D02*
X0355134Y0023395D01*
X0361065Y0023395D02*
X0374016Y0023395D01*
X0374016Y0021797D02*
X0287516Y0021797D01*
X0287825Y0020198D02*
X0374016Y0020198D01*
X0374016Y0018600D02*
X0287542Y0018600D01*
X0352194Y0037782D02*
X0352992Y0037782D01*
X0352194Y0039381D02*
X0356278Y0039381D01*
X0359920Y0039381D02*
X0374016Y0039381D01*
X0374016Y0040979D02*
X0352194Y0040979D01*
X0352194Y0042578D02*
X0374016Y0042578D01*
X0374016Y0044176D02*
X0352194Y0044176D01*
X0352194Y0045775D02*
X0374016Y0045775D01*
X0374016Y0047373D02*
X0352194Y0047373D01*
X0352194Y0048972D02*
X0374016Y0048972D01*
X0374016Y0050570D02*
X0352194Y0050570D01*
X0352194Y0052169D02*
X0374016Y0052169D01*
X0374016Y0053767D02*
X0352194Y0053767D01*
X0352194Y0055366D02*
X0374016Y0055366D01*
X0374016Y0056964D02*
X0352194Y0056964D01*
X0352194Y0058563D02*
X0374016Y0058563D01*
X0374016Y0060161D02*
X0352194Y0060161D01*
X0352194Y0061760D02*
X0374016Y0061760D01*
X0374016Y0063358D02*
X0352194Y0063358D01*
X0352194Y0064957D02*
X0374016Y0064957D01*
X0374016Y0066555D02*
X0352194Y0066555D01*
X0352194Y0068154D02*
X0374016Y0068154D01*
X0374016Y0069752D02*
X0352194Y0069752D01*
X0352194Y0071351D02*
X0374016Y0071351D01*
X0374016Y0072949D02*
X0352194Y0072949D01*
X0352194Y0074548D02*
X0374016Y0074548D01*
X0374016Y0076146D02*
X0352194Y0076146D01*
X0352194Y0077745D02*
X0374016Y0077745D01*
X0374016Y0079343D02*
X0352194Y0079343D01*
X0352194Y0080942D02*
X0374016Y0080942D01*
X0374016Y0082540D02*
X0352194Y0082540D01*
X0352194Y0084139D02*
X0374016Y0084139D01*
X0374016Y0085737D02*
X0365908Y0085737D01*
X0366821Y0086115D02*
X0369099Y0088394D01*
X0370332Y0091371D01*
X0370332Y0094593D01*
X0369099Y0097569D01*
X0366821Y0099848D01*
X0363844Y0101081D01*
X0360622Y0101081D01*
X0357645Y0099848D01*
X0355367Y0097569D01*
X0354134Y0094593D01*
X0354134Y0091371D01*
X0355367Y0088394D01*
X0357645Y0086115D01*
X0360622Y0084882D01*
X0363844Y0084882D01*
X0366821Y0086115D01*
X0368041Y0087336D02*
X0374016Y0087336D01*
X0374016Y0088934D02*
X0369323Y0088934D01*
X0369985Y0090533D02*
X0374016Y0090533D01*
X0374016Y0092131D02*
X0370332Y0092131D01*
X0370332Y0093730D02*
X0374016Y0093730D01*
X0374016Y0095328D02*
X0370027Y0095328D01*
X0369365Y0096927D02*
X0374016Y0096927D01*
X0374016Y0098525D02*
X0368143Y0098525D01*
X0366154Y0100124D02*
X0374016Y0100124D01*
X0374016Y0101722D02*
X0352194Y0101722D01*
X0352194Y0100124D02*
X0358312Y0100124D01*
X0356323Y0098525D02*
X0352194Y0098525D01*
X0352194Y0096927D02*
X0355101Y0096927D01*
X0354439Y0095328D02*
X0352194Y0095328D01*
X0352194Y0093730D02*
X0354134Y0093730D01*
X0354134Y0092131D02*
X0352194Y0092131D01*
X0352194Y0090533D02*
X0354481Y0090533D01*
X0355143Y0088934D02*
X0352194Y0088934D01*
X0352194Y0087336D02*
X0356425Y0087336D01*
X0358558Y0085737D02*
X0352194Y0085737D01*
X0352194Y0103321D02*
X0374016Y0103321D01*
X0374016Y0104920D02*
X0352194Y0104920D01*
X0352194Y0106518D02*
X0374016Y0106518D01*
X0374016Y0108117D02*
X0352194Y0108117D01*
X0352194Y0109715D02*
X0374016Y0109715D01*
X0374016Y0111314D02*
X0352194Y0111314D01*
X0352194Y0112912D02*
X0374016Y0112912D01*
X0374016Y0114511D02*
X0352194Y0114511D01*
X0352194Y0116109D02*
X0374016Y0116109D01*
X0374016Y0117708D02*
X0352194Y0117708D01*
X0352194Y0119306D02*
X0374016Y0119306D01*
X0374016Y0120905D02*
X0352194Y0120905D01*
X0352194Y0122503D02*
X0374016Y0122503D01*
X0374016Y0124102D02*
X0352194Y0124102D01*
X0352194Y0125700D02*
X0374016Y0125700D01*
X0374016Y0127299D02*
X0352194Y0127299D01*
X0352194Y0128897D02*
X0374016Y0128897D01*
X0374016Y0130496D02*
X0365325Y0130496D01*
X0363844Y0129882D02*
X0366821Y0131115D01*
X0369099Y0133394D01*
X0370332Y0136371D01*
X0370332Y0139593D01*
X0369099Y0142569D01*
X0366821Y0144848D01*
X0363844Y0146081D01*
X0360622Y0146081D01*
X0357645Y0144848D01*
X0355367Y0142569D01*
X0354134Y0139593D01*
X0354134Y0136371D01*
X0355367Y0133394D01*
X0357645Y0131115D01*
X0360622Y0129882D01*
X0363844Y0129882D01*
X0367800Y0132094D02*
X0374016Y0132094D01*
X0374016Y0133693D02*
X0369223Y0133693D01*
X0369885Y0135291D02*
X0374016Y0135291D01*
X0374016Y0136890D02*
X0370332Y0136890D01*
X0370332Y0138488D02*
X0374016Y0138488D01*
X0374016Y0140087D02*
X0370128Y0140087D01*
X0369465Y0141685D02*
X0374016Y0141685D01*
X0374016Y0143284D02*
X0368385Y0143284D01*
X0366738Y0144882D02*
X0374016Y0144882D01*
X0374016Y0146481D02*
X0352194Y0146481D01*
X0352194Y0148079D02*
X0374016Y0148079D01*
X0374016Y0149678D02*
X0352194Y0149678D01*
X0352194Y0151276D02*
X0374016Y0151276D01*
X0374016Y0152875D02*
X0352194Y0152875D01*
X0352194Y0154473D02*
X0374016Y0154473D01*
X0374016Y0156072D02*
X0352194Y0156072D01*
X0352194Y0157670D02*
X0374016Y0157670D01*
X0374016Y0159269D02*
X0352194Y0159269D01*
X0352194Y0160867D02*
X0374016Y0160867D01*
X0374016Y0162466D02*
X0352194Y0162466D01*
X0352194Y0164064D02*
X0374016Y0164064D01*
X0374016Y0165663D02*
X0352194Y0165663D01*
X0352194Y0167261D02*
X0374016Y0167261D01*
X0374016Y0168860D02*
X0352194Y0168860D01*
X0352194Y0170458D02*
X0374016Y0170458D01*
X0374016Y0172057D02*
X0352194Y0172057D01*
X0352194Y0173655D02*
X0374016Y0173655D01*
X0374016Y0175254D02*
X0352194Y0175254D01*
X0352194Y0176853D02*
X0374016Y0176853D01*
X0374016Y0178451D02*
X0352194Y0178451D01*
X0352194Y0180050D02*
X0374016Y0180050D01*
X0374016Y0181648D02*
X0352194Y0181648D01*
X0352194Y0183247D02*
X0374016Y0183247D01*
X0374016Y0184845D02*
X0352194Y0184845D01*
X0352194Y0186444D02*
X0374016Y0186444D01*
X0374016Y0188042D02*
X0352194Y0188042D01*
X0352194Y0189641D02*
X0374016Y0189641D01*
X0374016Y0191239D02*
X0352194Y0191239D01*
X0352194Y0192838D02*
X0374016Y0192838D01*
X0374016Y0194436D02*
X0352194Y0194436D01*
X0352194Y0196035D02*
X0374016Y0196035D01*
X0374016Y0197633D02*
X0352194Y0197633D01*
X0352194Y0199232D02*
X0374016Y0199232D01*
X0374016Y0200830D02*
X0365847Y0200830D01*
X0366821Y0201234D02*
X0369099Y0203512D01*
X0370332Y0206489D01*
X0370332Y0209711D01*
X0369099Y0212688D01*
X0366821Y0214966D01*
X0363844Y0216199D01*
X0360622Y0216199D01*
X0357645Y0214966D01*
X0355367Y0212688D01*
X0354134Y0209711D01*
X0354134Y0206489D01*
X0355367Y0203512D01*
X0357645Y0201234D01*
X0360622Y0200001D01*
X0363844Y0200001D01*
X0366821Y0201234D01*
X0368016Y0202429D02*
X0374016Y0202429D01*
X0374016Y0204027D02*
X0369313Y0204027D01*
X0369975Y0205626D02*
X0374016Y0205626D01*
X0374016Y0207224D02*
X0370332Y0207224D01*
X0370332Y0208823D02*
X0374016Y0208823D01*
X0374016Y0210421D02*
X0370038Y0210421D01*
X0369376Y0212020D02*
X0374016Y0212020D01*
X0374016Y0213618D02*
X0368169Y0213618D01*
X0366215Y0215217D02*
X0374016Y0215217D01*
X0374016Y0216815D02*
X0352194Y0216815D01*
X0352194Y0215217D02*
X0358251Y0215217D01*
X0356298Y0213618D02*
X0352194Y0213618D01*
X0352194Y0212020D02*
X0355090Y0212020D01*
X0354428Y0210421D02*
X0352194Y0210421D01*
X0352194Y0208823D02*
X0354134Y0208823D01*
X0354134Y0207224D02*
X0352194Y0207224D01*
X0352194Y0205626D02*
X0354491Y0205626D01*
X0355153Y0204027D02*
X0352194Y0204027D01*
X0352194Y0202429D02*
X0356450Y0202429D01*
X0358619Y0200830D02*
X0352194Y0200830D01*
X0352194Y0218414D02*
X0374016Y0218414D01*
X0374016Y0220012D02*
X0352194Y0220012D01*
X0352194Y0221611D02*
X0374016Y0221611D01*
X0374016Y0223209D02*
X0352194Y0223209D01*
X0352194Y0224808D02*
X0374016Y0224808D01*
X0374016Y0226406D02*
X0352194Y0226406D01*
X0352194Y0228005D02*
X0374016Y0228005D01*
X0374016Y0229603D02*
X0352194Y0229603D01*
X0352194Y0231202D02*
X0374016Y0231202D01*
X0374016Y0232800D02*
X0352194Y0232800D01*
X0352194Y0234399D02*
X0374016Y0234399D01*
X0374016Y0235997D02*
X0352194Y0235997D01*
X0352194Y0237596D02*
X0374016Y0237596D01*
X0374016Y0239194D02*
X0352194Y0239194D01*
X0352194Y0240793D02*
X0374016Y0240793D01*
X0374016Y0242391D02*
X0352194Y0242391D01*
X0352194Y0243990D02*
X0374016Y0243990D01*
X0374016Y0245589D02*
X0365264Y0245589D01*
X0363844Y0245001D02*
X0366821Y0246234D01*
X0369099Y0248512D01*
X0370332Y0251489D01*
X0370332Y0254711D01*
X0369099Y0257688D01*
X0366821Y0259966D01*
X0363844Y0261199D01*
X0360622Y0261199D01*
X0357645Y0259966D01*
X0355367Y0257688D01*
X0354134Y0254711D01*
X0354134Y0251489D01*
X0355367Y0248512D01*
X0357645Y0246234D01*
X0360622Y0245001D01*
X0363844Y0245001D01*
X0367774Y0247187D02*
X0374016Y0247187D01*
X0374016Y0248786D02*
X0369213Y0248786D01*
X0369875Y0250384D02*
X0374016Y0250384D01*
X0374016Y0251983D02*
X0370332Y0251983D01*
X0370332Y0253581D02*
X0374016Y0253581D01*
X0374016Y0255180D02*
X0370138Y0255180D01*
X0369476Y0256778D02*
X0374016Y0256778D01*
X0374016Y0258377D02*
X0368410Y0258377D01*
X0366799Y0259975D02*
X0374016Y0259975D01*
X0374016Y0261574D02*
X0352194Y0261574D01*
X0352194Y0263172D02*
X0374016Y0263172D01*
X0374016Y0264771D02*
X0352194Y0264771D01*
X0352194Y0266369D02*
X0374016Y0266369D01*
X0374016Y0267968D02*
X0352194Y0267968D01*
X0352194Y0269566D02*
X0374016Y0269566D01*
X0374016Y0271165D02*
X0352194Y0271165D01*
X0352194Y0259975D02*
X0357667Y0259975D01*
X0356056Y0258377D02*
X0352194Y0258377D01*
X0352194Y0256778D02*
X0354990Y0256778D01*
X0354328Y0255180D02*
X0352194Y0255180D01*
X0352194Y0253581D02*
X0354134Y0253581D01*
X0354134Y0251983D02*
X0352194Y0251983D01*
X0352194Y0250384D02*
X0354591Y0250384D01*
X0355254Y0248786D02*
X0352194Y0248786D01*
X0352194Y0247187D02*
X0356692Y0247187D01*
X0359202Y0245589D02*
X0352194Y0245589D01*
X0374016Y0272763D02*
X0238020Y0272763D01*
X0238020Y0274362D02*
X0374016Y0274362D01*
X0374016Y0275960D02*
X0238020Y0275960D01*
X0238020Y0277559D02*
X0374016Y0277559D01*
X0374016Y0279157D02*
X0238020Y0279157D01*
X0238020Y0280756D02*
X0374016Y0280756D01*
X0374016Y0282354D02*
X0238020Y0282354D01*
X0238020Y0283953D02*
X0374016Y0283953D01*
X0374016Y0285551D02*
X0238020Y0285551D01*
X0238020Y0287150D02*
X0374016Y0287150D01*
X0374016Y0288748D02*
X0238020Y0288748D01*
X0238020Y0290347D02*
X0374016Y0290347D01*
X0374016Y0291945D02*
X0362915Y0291945D01*
X0362801Y0291831D02*
X0365136Y0294166D01*
X0366399Y0297216D01*
X0366399Y0300518D01*
X0365136Y0303569D01*
X0362801Y0305904D01*
X0359750Y0307167D01*
X0356448Y0307167D01*
X0353398Y0305904D01*
X0351063Y0303569D01*
X0349799Y0300518D01*
X0349799Y0297216D01*
X0351063Y0294166D01*
X0353398Y0291831D01*
X0356448Y0290567D01*
X0359750Y0290567D01*
X0362801Y0291831D01*
X0364514Y0293544D02*
X0374016Y0293544D01*
X0374016Y0295142D02*
X0365540Y0295142D01*
X0366202Y0296741D02*
X0374016Y0296741D01*
X0374016Y0298339D02*
X0366399Y0298339D01*
X0366399Y0299938D02*
X0374016Y0299938D01*
X0374016Y0301536D02*
X0365978Y0301536D01*
X0365315Y0303135D02*
X0374016Y0303135D01*
X0374016Y0304733D02*
X0363971Y0304733D01*
X0361767Y0306332D02*
X0374016Y0306332D01*
X0374016Y0307930D02*
X0238020Y0307930D01*
X0238020Y0306332D02*
X0354431Y0306332D01*
X0352227Y0304733D02*
X0238020Y0304733D01*
X0238020Y0303135D02*
X0350883Y0303135D01*
X0350221Y0301536D02*
X0238020Y0301536D01*
X0238020Y0299938D02*
X0349799Y0299938D01*
X0349799Y0298339D02*
X0238020Y0298339D01*
X0238020Y0296741D02*
X0349996Y0296741D01*
X0350658Y0295142D02*
X0238020Y0295142D01*
X0238020Y0293544D02*
X0351685Y0293544D01*
X0353283Y0291945D02*
X0238020Y0291945D01*
X0238020Y0309529D02*
X0374016Y0309529D01*
X0374016Y0311127D02*
X0238020Y0311127D01*
X0238020Y0312726D02*
X0374016Y0312726D01*
X0171094Y0312726D02*
X0003600Y0312726D01*
X0003600Y0312815D02*
X0171094Y0312815D01*
X0171288Y0180560D01*
X0139595Y0180560D01*
X0139595Y0259472D01*
X0139872Y0259472D01*
X0141111Y0259985D01*
X0142060Y0260934D01*
X0142573Y0262173D01*
X0142573Y0263514D01*
X0142060Y0264754D01*
X0141111Y0265702D01*
X0139872Y0266215D01*
X0139595Y0266215D01*
X0139595Y0280051D01*
X0140254Y0279392D01*
X0141819Y0278744D01*
X0143513Y0278744D01*
X0145078Y0279392D01*
X0146275Y0280590D01*
X0146924Y0282154D01*
X0146924Y0283848D01*
X0146275Y0285413D01*
X0145078Y0286611D01*
X0143513Y0287259D01*
X0141819Y0287259D01*
X0140254Y0286611D01*
X0139595Y0285951D01*
X0139595Y0290993D01*
X0064792Y0290993D01*
X0064792Y0278242D01*
X0064734Y0278301D01*
X0063494Y0278814D01*
X0062153Y0278814D01*
X0060914Y0278301D01*
X0059965Y0277352D01*
X0059452Y0276113D01*
X0059452Y0274772D01*
X0059965Y0273532D01*
X0060914Y0272584D01*
X0062153Y0272071D01*
X0063494Y0272071D01*
X0064734Y0272584D01*
X0064792Y0272643D01*
X0064792Y0017203D01*
X0003600Y0017203D01*
X0003600Y0312815D01*
X0003600Y0311127D02*
X0171096Y0311127D01*
X0171099Y0309529D02*
X0003600Y0309529D01*
X0003600Y0307930D02*
X0171101Y0307930D01*
X0171103Y0306332D02*
X0021216Y0306332D01*
X0022250Y0305904D02*
X0019199Y0307167D01*
X0015897Y0307167D01*
X0012846Y0305904D01*
X0010512Y0303569D01*
X0009248Y0300518D01*
X0009248Y0297216D01*
X0010512Y0294166D01*
X0012846Y0291831D01*
X0015897Y0290567D01*
X0019199Y0290567D01*
X0022250Y0291831D01*
X0024584Y0294166D01*
X0025848Y0297216D01*
X0025848Y0300518D01*
X0024584Y0303569D01*
X0022250Y0305904D01*
X0023420Y0304733D02*
X0171106Y0304733D01*
X0171108Y0303135D02*
X0024764Y0303135D01*
X0025426Y0301536D02*
X0171111Y0301536D01*
X0171113Y0299938D02*
X0025848Y0299938D01*
X0025848Y0298339D02*
X0171115Y0298339D01*
X0171118Y0296741D02*
X0025651Y0296741D01*
X0024989Y0295142D02*
X0171120Y0295142D01*
X0171122Y0293544D02*
X0023962Y0293544D01*
X0022364Y0291945D02*
X0171125Y0291945D01*
X0171127Y0290347D02*
X0139595Y0290347D01*
X0139595Y0288748D02*
X0171129Y0288748D01*
X0171132Y0287150D02*
X0163776Y0287150D01*
X0163513Y0287259D02*
X0161819Y0287259D01*
X0160254Y0286611D01*
X0159057Y0285413D01*
X0158409Y0283848D01*
X0158409Y0282154D01*
X0159057Y0280590D01*
X0160254Y0279392D01*
X0161819Y0278744D01*
X0163513Y0278744D01*
X0165078Y0279392D01*
X0166275Y0280590D01*
X0166924Y0282154D01*
X0166924Y0283848D01*
X0166275Y0285413D01*
X0165078Y0286611D01*
X0163513Y0287259D01*
X0161556Y0287150D02*
X0153776Y0287150D01*
X0153513Y0287259D02*
X0151819Y0287259D01*
X0150254Y0286611D01*
X0149057Y0285413D01*
X0148409Y0283848D01*
X0148409Y0282154D01*
X0149057Y0280590D01*
X0150254Y0279392D01*
X0151819Y0278744D01*
X0153513Y0278744D01*
X0155078Y0279392D01*
X0156275Y0280590D01*
X0156924Y0282154D01*
X0156924Y0283848D01*
X0156275Y0285413D01*
X0155078Y0286611D01*
X0153513Y0287259D01*
X0151556Y0287150D02*
X0143776Y0287150D01*
X0141556Y0287150D02*
X0139595Y0287150D01*
X0146137Y0285551D02*
X0149195Y0285551D01*
X0148452Y0283953D02*
X0146880Y0283953D01*
X0146924Y0282354D02*
X0148409Y0282354D01*
X0148988Y0280756D02*
X0146344Y0280756D01*
X0144511Y0279157D02*
X0150821Y0279157D01*
X0154511Y0279157D02*
X0160821Y0279157D01*
X0158988Y0280756D02*
X0156344Y0280756D01*
X0156924Y0282354D02*
X0158409Y0282354D01*
X0158452Y0283953D02*
X0156880Y0283953D01*
X0156137Y0285551D02*
X0159195Y0285551D01*
X0166137Y0285551D02*
X0171134Y0285551D01*
X0171136Y0283953D02*
X0166880Y0283953D01*
X0166924Y0282354D02*
X0171139Y0282354D01*
X0171141Y0280756D02*
X0166344Y0280756D01*
X0164511Y0279157D02*
X0171143Y0279157D01*
X0171146Y0277559D02*
X0139595Y0277559D01*
X0139595Y0279157D02*
X0140821Y0279157D01*
X0139595Y0275960D02*
X0171148Y0275960D01*
X0171150Y0274362D02*
X0139595Y0274362D01*
X0139595Y0272763D02*
X0171153Y0272763D01*
X0171155Y0271165D02*
X0139595Y0271165D01*
X0139595Y0269566D02*
X0171157Y0269566D01*
X0171160Y0267968D02*
X0139595Y0267968D01*
X0139595Y0266369D02*
X0161852Y0266369D01*
X0161956Y0266412D02*
X0160717Y0265899D01*
X0159768Y0264951D01*
X0159255Y0263711D01*
X0159255Y0262370D01*
X0159768Y0261131D01*
X0160717Y0260182D01*
X0161956Y0259669D01*
X0163297Y0259669D01*
X0164537Y0260182D01*
X0165485Y0261131D01*
X0165998Y0262370D01*
X0165998Y0263711D01*
X0165485Y0264951D01*
X0164537Y0265899D01*
X0163297Y0266412D01*
X0161956Y0266412D01*
X0163402Y0266369D02*
X0171162Y0266369D01*
X0171165Y0264771D02*
X0165560Y0264771D01*
X0165998Y0263172D02*
X0171167Y0263172D01*
X0171169Y0261574D02*
X0165669Y0261574D01*
X0164036Y0259975D02*
X0171172Y0259975D01*
X0171174Y0258377D02*
X0139595Y0258377D01*
X0139595Y0256778D02*
X0171176Y0256778D01*
X0171179Y0255180D02*
X0139595Y0255180D01*
X0139595Y0253581D02*
X0171181Y0253581D01*
X0171183Y0251983D02*
X0139595Y0251983D01*
X0139595Y0250384D02*
X0171186Y0250384D01*
X0171188Y0248786D02*
X0139595Y0248786D01*
X0139595Y0247187D02*
X0171190Y0247187D01*
X0171193Y0245589D02*
X0139595Y0245589D01*
X0139595Y0243990D02*
X0171195Y0243990D01*
X0171197Y0242391D02*
X0139595Y0242391D01*
X0139595Y0240793D02*
X0171200Y0240793D01*
X0171202Y0239194D02*
X0139595Y0239194D01*
X0139595Y0237596D02*
X0171204Y0237596D01*
X0171207Y0235997D02*
X0139595Y0235997D01*
X0139595Y0234399D02*
X0171209Y0234399D01*
X0171211Y0232800D02*
X0139595Y0232800D01*
X0139595Y0231202D02*
X0171214Y0231202D01*
X0171216Y0229603D02*
X0139595Y0229603D01*
X0139595Y0228005D02*
X0171219Y0228005D01*
X0171221Y0226406D02*
X0139595Y0226406D01*
X0139595Y0224808D02*
X0171223Y0224808D01*
X0171226Y0223209D02*
X0139595Y0223209D01*
X0139595Y0221611D02*
X0171228Y0221611D01*
X0171230Y0220012D02*
X0139595Y0220012D01*
X0139595Y0218414D02*
X0171233Y0218414D01*
X0171235Y0216815D02*
X0139595Y0216815D01*
X0139595Y0215217D02*
X0171237Y0215217D01*
X0171240Y0213618D02*
X0139595Y0213618D01*
X0139595Y0212020D02*
X0171242Y0212020D01*
X0171244Y0210421D02*
X0139595Y0210421D01*
X0139595Y0208823D02*
X0171247Y0208823D01*
X0171249Y0207224D02*
X0139595Y0207224D01*
X0139595Y0205626D02*
X0171251Y0205626D01*
X0171254Y0204027D02*
X0139595Y0204027D01*
X0139595Y0202429D02*
X0171256Y0202429D01*
X0171258Y0200830D02*
X0139595Y0200830D01*
X0139595Y0199232D02*
X0171261Y0199232D01*
X0171263Y0197633D02*
X0139595Y0197633D01*
X0139595Y0196035D02*
X0171265Y0196035D01*
X0171268Y0194436D02*
X0139595Y0194436D01*
X0139595Y0192838D02*
X0171270Y0192838D01*
X0171273Y0191239D02*
X0139595Y0191239D01*
X0139595Y0189641D02*
X0171275Y0189641D01*
X0171277Y0188042D02*
X0139595Y0188042D01*
X0139595Y0186444D02*
X0171280Y0186444D01*
X0171282Y0184845D02*
X0139595Y0184845D01*
X0139595Y0183247D02*
X0171284Y0183247D01*
X0171287Y0181648D02*
X0139595Y0181648D01*
X0064792Y0181648D02*
X0041589Y0181648D01*
X0041589Y0182018D02*
X0041076Y0183258D01*
X0040127Y0184206D01*
X0038888Y0184719D01*
X0037547Y0184719D01*
X0036307Y0184206D01*
X0035359Y0183258D01*
X0034846Y0182018D01*
X0034846Y0180677D01*
X0035359Y0179438D01*
X0036307Y0178489D01*
X0037547Y0177976D01*
X0038888Y0177976D01*
X0040127Y0178489D01*
X0041076Y0179438D01*
X0041589Y0180677D01*
X0041589Y0182018D01*
X0041080Y0183247D02*
X0064792Y0183247D01*
X0064792Y0184845D02*
X0021117Y0184845D01*
X0021117Y0184262D02*
X0020334Y0182371D01*
X0018887Y0180924D01*
X0016996Y0180141D01*
X0014950Y0180141D01*
X0013060Y0180924D01*
X0011613Y0182371D01*
X0010830Y0184262D01*
X0010830Y0186308D01*
X0011613Y0188198D01*
X0013060Y0189645D01*
X0014950Y0190428D01*
X0016996Y0190428D01*
X0018887Y0189645D01*
X0020334Y0188198D01*
X0021117Y0186308D01*
X0021117Y0184262D01*
X0020696Y0183247D02*
X0035354Y0183247D01*
X0034846Y0181648D02*
X0019610Y0181648D01*
X0021060Y0186444D02*
X0064792Y0186444D01*
X0064792Y0188042D02*
X0020398Y0188042D01*
X0018891Y0189641D02*
X0064792Y0189641D01*
X0064792Y0191239D02*
X0003600Y0191239D01*
X0003600Y0189641D02*
X0013055Y0189641D01*
X0011548Y0188042D02*
X0003600Y0188042D01*
X0003600Y0186444D02*
X0010886Y0186444D01*
X0010830Y0184845D02*
X0003600Y0184845D01*
X0003600Y0183247D02*
X0011250Y0183247D01*
X0012336Y0181648D02*
X0003600Y0181648D01*
X0003600Y0180050D02*
X0035106Y0180050D01*
X0036400Y0178451D02*
X0003600Y0178451D01*
X0003600Y0176853D02*
X0064792Y0176853D01*
X0064792Y0178451D02*
X0040035Y0178451D01*
X0041329Y0180050D02*
X0064792Y0180050D01*
X0064792Y0175254D02*
X0019498Y0175254D01*
X0018887Y0175866D02*
X0016996Y0176649D01*
X0014950Y0176649D01*
X0013060Y0175866D01*
X0011613Y0174419D01*
X0010830Y0172528D01*
X0010830Y0170482D01*
X0011613Y0168592D01*
X0013060Y0167145D01*
X0014950Y0166362D01*
X0016996Y0166362D01*
X0018887Y0167145D01*
X0020334Y0168592D01*
X0021117Y0170482D01*
X0021117Y0172528D01*
X0020334Y0174419D01*
X0018887Y0175866D01*
X0020650Y0173655D02*
X0064792Y0173655D01*
X0064792Y0172057D02*
X0021117Y0172057D01*
X0021107Y0170458D02*
X0064792Y0170458D01*
X0064792Y0168860D02*
X0020445Y0168860D01*
X0019003Y0167261D02*
X0064792Y0167261D01*
X0064792Y0165663D02*
X0042529Y0165663D01*
X0042847Y0165344D02*
X0041899Y0166293D01*
X0040660Y0166806D01*
X0039318Y0166806D01*
X0038079Y0166293D01*
X0037131Y0165344D01*
X0036617Y0164105D01*
X0036617Y0162764D01*
X0037131Y0161524D01*
X0038079Y0160576D01*
X0039318Y0160063D01*
X0040660Y0160063D01*
X0041899Y0160576D01*
X0042847Y0161524D01*
X0043361Y0162764D01*
X0043361Y0164105D01*
X0042847Y0165344D01*
X0043361Y0164064D02*
X0064792Y0164064D01*
X0064792Y0162466D02*
X0043237Y0162466D01*
X0042190Y0160867D02*
X0057260Y0160867D01*
X0056816Y0160423D02*
X0057764Y0161371D01*
X0059003Y0161885D01*
X0060345Y0161885D01*
X0061584Y0161371D01*
X0062532Y0160423D01*
X0063046Y0159184D01*
X0063046Y0157842D01*
X0062532Y0156603D01*
X0061584Y0155655D01*
X0060345Y0155141D01*
X0059003Y0155141D01*
X0057764Y0155655D01*
X0056816Y0156603D01*
X0056302Y0157842D01*
X0056302Y0159184D01*
X0056816Y0160423D01*
X0056338Y0159269D02*
X0020901Y0159269D01*
X0021117Y0158749D02*
X0020334Y0160639D01*
X0018887Y0162086D01*
X0016996Y0162869D01*
X0014950Y0162869D01*
X0013060Y0162086D01*
X0011613Y0160639D01*
X0010830Y0158749D01*
X0010830Y0156703D01*
X0011613Y0154812D01*
X0013060Y0153365D01*
X0014950Y0152582D01*
X0016996Y0152582D01*
X0018887Y0153365D01*
X0020334Y0154812D01*
X0021117Y0156703D01*
X0021117Y0158749D01*
X0021117Y0157670D02*
X0056374Y0157670D01*
X0057347Y0156072D02*
X0020855Y0156072D01*
X0021544Y0155072D02*
X0020595Y0154124D01*
X0020082Y0152885D01*
X0020082Y0151543D01*
X0020595Y0150304D01*
X0021544Y0149356D01*
X0022783Y0148842D01*
X0024124Y0148842D01*
X0025363Y0149356D01*
X0026312Y0150304D01*
X0026825Y0151543D01*
X0026825Y0152885D01*
X0026312Y0154124D01*
X0025363Y0155072D01*
X0024124Y0155586D01*
X0022783Y0155586D01*
X0021544Y0155072D01*
X0020945Y0154473D02*
X0019995Y0154473D01*
X0020082Y0152875D02*
X0017702Y0152875D01*
X0020192Y0151276D02*
X0003600Y0151276D01*
X0003600Y0149678D02*
X0021221Y0149678D01*
X0019114Y0148079D02*
X0064792Y0148079D01*
X0064792Y0146481D02*
X0020490Y0146481D01*
X0020334Y0146860D02*
X0018887Y0148306D01*
X0016996Y0149089D01*
X0014950Y0149089D01*
X0013060Y0148306D01*
X0011613Y0146860D01*
X0010830Y0144969D01*
X0010830Y0142923D01*
X0011613Y0141033D01*
X0013060Y0139586D01*
X0014950Y0138803D01*
X0016996Y0138803D01*
X0018887Y0139586D01*
X0020334Y0141033D01*
X0021117Y0142923D01*
X0021117Y0144969D01*
X0020334Y0146860D01*
X0021117Y0144882D02*
X0064792Y0144882D01*
X0064792Y0143284D02*
X0021117Y0143284D01*
X0020604Y0141685D02*
X0064792Y0141685D01*
X0064792Y0140087D02*
X0019388Y0140087D01*
X0012559Y0140087D02*
X0003600Y0140087D01*
X0003600Y0141685D02*
X0011343Y0141685D01*
X0010830Y0143284D02*
X0003600Y0143284D01*
X0003600Y0144882D02*
X0010830Y0144882D01*
X0011456Y0146481D02*
X0003600Y0146481D01*
X0003600Y0148079D02*
X0012833Y0148079D01*
X0014244Y0152875D02*
X0003600Y0152875D01*
X0003600Y0154473D02*
X0011952Y0154473D01*
X0011091Y0156072D02*
X0003600Y0156072D01*
X0003600Y0157670D02*
X0010830Y0157670D01*
X0011045Y0159269D02*
X0003600Y0159269D01*
X0003600Y0160867D02*
X0011841Y0160867D01*
X0013977Y0162466D02*
X0003600Y0162466D01*
X0003600Y0164064D02*
X0036617Y0164064D01*
X0036741Y0162466D02*
X0017969Y0162466D01*
X0020105Y0160867D02*
X0037788Y0160867D01*
X0038334Y0155192D02*
X0037095Y0154679D01*
X0036146Y0153730D01*
X0035633Y0152491D01*
X0035633Y0151150D01*
X0036146Y0149910D01*
X0037095Y0148962D01*
X0038334Y0148449D01*
X0039675Y0148449D01*
X0040915Y0148962D01*
X0041863Y0149910D01*
X0042376Y0151150D01*
X0042376Y0152491D01*
X0041863Y0153730D01*
X0040915Y0154679D01*
X0039675Y0155192D01*
X0038334Y0155192D01*
X0036890Y0154473D02*
X0025962Y0154473D01*
X0026825Y0152875D02*
X0035792Y0152875D01*
X0035633Y0151276D02*
X0026715Y0151276D01*
X0025686Y0149678D02*
X0036379Y0149678D01*
X0041631Y0149678D02*
X0064792Y0149678D01*
X0064792Y0151276D02*
X0042376Y0151276D01*
X0042217Y0152875D02*
X0064792Y0152875D01*
X0064792Y0154473D02*
X0041120Y0154473D01*
X0037449Y0165663D02*
X0003600Y0165663D01*
X0003600Y0167261D02*
X0012943Y0167261D01*
X0011502Y0168860D02*
X0003600Y0168860D01*
X0003600Y0170458D02*
X0010840Y0170458D01*
X0010830Y0172057D02*
X0003600Y0172057D01*
X0003600Y0173655D02*
X0011297Y0173655D01*
X0012448Y0175254D02*
X0003600Y0175254D01*
X0003600Y0192838D02*
X0064792Y0192838D01*
X0064792Y0194436D02*
X0018240Y0194436D01*
X0018887Y0194704D02*
X0020334Y0196151D01*
X0021117Y0198041D01*
X0021117Y0200087D01*
X0020334Y0201978D01*
X0018887Y0203425D01*
X0016996Y0204208D01*
X0014950Y0204208D01*
X0013060Y0203425D01*
X0011613Y0201978D01*
X0010830Y0200087D01*
X0010830Y0198041D01*
X0011613Y0196151D01*
X0013060Y0194704D01*
X0014950Y0193921D01*
X0016996Y0193921D01*
X0018887Y0194704D01*
X0020217Y0196035D02*
X0064792Y0196035D01*
X0064792Y0197633D02*
X0040755Y0197633D01*
X0041111Y0197781D02*
X0042060Y0198729D01*
X0042573Y0199968D01*
X0042573Y0201310D01*
X0042060Y0202549D01*
X0041111Y0203497D01*
X0039872Y0204011D01*
X0038531Y0204011D01*
X0037292Y0203497D01*
X0036343Y0202549D01*
X0035830Y0201310D01*
X0035830Y0199968D01*
X0036343Y0198729D01*
X0037292Y0197781D01*
X0038531Y0197267D01*
X0039872Y0197267D01*
X0041111Y0197781D01*
X0042268Y0199232D02*
X0064792Y0199232D01*
X0064792Y0200830D02*
X0042573Y0200830D01*
X0042110Y0202429D02*
X0064792Y0202429D01*
X0064792Y0204027D02*
X0017432Y0204027D01*
X0014515Y0204027D02*
X0003600Y0204027D01*
X0003600Y0202429D02*
X0012064Y0202429D01*
X0011138Y0200830D02*
X0003600Y0200830D01*
X0003600Y0199232D02*
X0010830Y0199232D01*
X0010999Y0197633D02*
X0003600Y0197633D01*
X0003600Y0196035D02*
X0011729Y0196035D01*
X0013706Y0194436D02*
X0003600Y0194436D01*
X0003600Y0205626D02*
X0064792Y0205626D01*
X0064792Y0207224D02*
X0003600Y0207224D01*
X0003600Y0208823D02*
X0012721Y0208823D01*
X0013060Y0208484D02*
X0014950Y0207701D01*
X0016996Y0207701D01*
X0018887Y0208484D01*
X0020334Y0209930D01*
X0021117Y0211821D01*
X0021117Y0213867D01*
X0020334Y0215757D01*
X0018887Y0217204D01*
X0016996Y0217987D01*
X0014950Y0217987D01*
X0013060Y0217204D01*
X0011613Y0215757D01*
X0010830Y0213867D01*
X0010830Y0211821D01*
X0011613Y0209930D01*
X0013060Y0208484D01*
X0011410Y0210421D02*
X0003600Y0210421D01*
X0003600Y0212020D02*
X0010830Y0212020D01*
X0010830Y0213618D02*
X0003600Y0213618D01*
X0003600Y0215217D02*
X0011389Y0215217D01*
X0012671Y0216815D02*
X0003600Y0216815D01*
X0003600Y0218414D02*
X0037247Y0218414D01*
X0037292Y0218458D02*
X0036343Y0217510D01*
X0035830Y0216270D01*
X0035830Y0214929D01*
X0036343Y0213690D01*
X0037292Y0212741D01*
X0038531Y0212228D01*
X0039872Y0212228D01*
X0041111Y0212741D01*
X0042060Y0213690D01*
X0042573Y0214929D01*
X0042573Y0216270D01*
X0042060Y0217510D01*
X0041111Y0218458D01*
X0039872Y0218971D01*
X0038531Y0218971D01*
X0037292Y0218458D01*
X0036056Y0216815D02*
X0019275Y0216815D01*
X0020557Y0215217D02*
X0035830Y0215217D01*
X0036415Y0213618D02*
X0021117Y0213618D01*
X0021117Y0212020D02*
X0064792Y0212020D01*
X0064792Y0213618D02*
X0041988Y0213618D01*
X0042573Y0215217D02*
X0064792Y0215217D01*
X0064792Y0216815D02*
X0042348Y0216815D01*
X0041156Y0218414D02*
X0064792Y0218414D01*
X0064792Y0220012D02*
X0062345Y0220012D01*
X0062336Y0219989D02*
X0062849Y0221228D01*
X0062849Y0222570D01*
X0062336Y0223809D01*
X0061387Y0224757D01*
X0060148Y0225271D01*
X0058806Y0225271D01*
X0057567Y0224757D01*
X0056619Y0223809D01*
X0056106Y0222570D01*
X0056106Y0221228D01*
X0056619Y0219989D01*
X0057567Y0219041D01*
X0058806Y0218527D01*
X0060148Y0218527D01*
X0061387Y0219041D01*
X0062336Y0219989D01*
X0062849Y0221611D02*
X0064792Y0221611D01*
X0064792Y0223209D02*
X0062584Y0223209D01*
X0061265Y0224808D02*
X0064792Y0224808D01*
X0064792Y0226406D02*
X0021117Y0226406D01*
X0021117Y0225600D02*
X0020334Y0223710D01*
X0018887Y0222263D01*
X0016996Y0221480D01*
X0014950Y0221480D01*
X0013060Y0222263D01*
X0011613Y0223710D01*
X0010830Y0225600D01*
X0010830Y0227646D01*
X0011613Y0229537D01*
X0013060Y0230984D01*
X0014950Y0231767D01*
X0016996Y0231767D01*
X0018887Y0230984D01*
X0020334Y0229537D01*
X0021117Y0227646D01*
X0021117Y0225600D01*
X0020788Y0224808D02*
X0057689Y0224808D01*
X0056371Y0223209D02*
X0019833Y0223209D01*
X0017312Y0221611D02*
X0056106Y0221611D01*
X0056609Y0220012D02*
X0003600Y0220012D01*
X0003600Y0221611D02*
X0014634Y0221611D01*
X0012113Y0223209D02*
X0003600Y0223209D01*
X0003600Y0224808D02*
X0011158Y0224808D01*
X0010830Y0226406D02*
X0003600Y0226406D01*
X0003600Y0228005D02*
X0010978Y0228005D01*
X0011680Y0229603D02*
X0003600Y0229603D01*
X0003600Y0231202D02*
X0013587Y0231202D01*
X0014950Y0235260D02*
X0016996Y0235260D01*
X0018887Y0236043D01*
X0020334Y0237489D01*
X0021117Y0239380D01*
X0021117Y0241426D01*
X0020334Y0243316D01*
X0018887Y0244763D01*
X0016996Y0245546D01*
X0014950Y0245546D01*
X0013060Y0244763D01*
X0011613Y0243316D01*
X0010830Y0241426D01*
X0010830Y0239380D01*
X0011613Y0237489D01*
X0013060Y0236043D01*
X0014950Y0235260D01*
X0013169Y0235997D02*
X0003600Y0235997D01*
X0003600Y0234399D02*
X0064792Y0234399D01*
X0064792Y0235997D02*
X0018778Y0235997D01*
X0020378Y0237596D02*
X0064792Y0237596D01*
X0064792Y0239194D02*
X0021040Y0239194D01*
X0021117Y0240793D02*
X0064792Y0240793D01*
X0064792Y0242391D02*
X0039659Y0242391D01*
X0039537Y0242269D02*
X0040485Y0243217D01*
X0040998Y0244457D01*
X0040998Y0245798D01*
X0040485Y0247037D01*
X0039537Y0247986D01*
X0038297Y0248499D01*
X0036956Y0248499D01*
X0035717Y0247986D01*
X0034768Y0247037D01*
X0034255Y0245798D01*
X0034255Y0244457D01*
X0034768Y0243217D01*
X0035717Y0242269D01*
X0036956Y0241756D01*
X0038297Y0241756D01*
X0039537Y0242269D01*
X0040805Y0243990D02*
X0064792Y0243990D01*
X0064792Y0245589D02*
X0040998Y0245589D01*
X0040335Y0247187D02*
X0064792Y0247187D01*
X0064792Y0248786D02*
X0003600Y0248786D01*
X0003600Y0250384D02*
X0012498Y0250384D01*
X0013060Y0249822D02*
X0014950Y0249039D01*
X0016996Y0249039D01*
X0018887Y0249822D01*
X0020334Y0251269D01*
X0021117Y0253159D01*
X0021117Y0255205D01*
X0020334Y0257096D01*
X0018887Y0258543D01*
X0016996Y0259326D01*
X0014950Y0259326D01*
X0013060Y0258543D01*
X0011613Y0257096D01*
X0010830Y0255205D01*
X0010830Y0253159D01*
X0011613Y0251269D01*
X0013060Y0249822D01*
X0011317Y0251983D02*
X0003600Y0251983D01*
X0003600Y0253581D02*
X0010830Y0253581D01*
X0010830Y0255180D02*
X0003600Y0255180D01*
X0003600Y0256778D02*
X0011481Y0256778D01*
X0012894Y0258377D02*
X0003600Y0258377D01*
X0003600Y0259975D02*
X0064792Y0259975D01*
X0064792Y0258377D02*
X0019053Y0258377D01*
X0020465Y0256778D02*
X0064792Y0256778D01*
X0064792Y0255180D02*
X0021117Y0255180D01*
X0021117Y0253581D02*
X0064792Y0253581D01*
X0064792Y0251983D02*
X0020629Y0251983D01*
X0019449Y0250384D02*
X0064792Y0250384D01*
X0064792Y0261574D02*
X0003600Y0261574D01*
X0003600Y0263172D02*
X0014097Y0263172D01*
X0014950Y0262819D02*
X0016996Y0262819D01*
X0018887Y0263602D01*
X0020334Y0265048D01*
X0021117Y0266939D01*
X0021117Y0268985D01*
X0020334Y0270875D01*
X0018887Y0272322D01*
X0016996Y0273105D01*
X0014950Y0273105D01*
X0013060Y0272322D01*
X0011613Y0270875D01*
X0010830Y0268985D01*
X0010830Y0266939D01*
X0011613Y0265048D01*
X0013060Y0263602D01*
X0014950Y0262819D01*
X0017850Y0263172D02*
X0064792Y0263172D01*
X0064792Y0264771D02*
X0020056Y0264771D01*
X0020881Y0266369D02*
X0064792Y0266369D01*
X0064792Y0267968D02*
X0021117Y0267968D01*
X0020876Y0269566D02*
X0064792Y0269566D01*
X0064792Y0271165D02*
X0020044Y0271165D01*
X0017822Y0272763D02*
X0060734Y0272763D01*
X0059622Y0274362D02*
X0003600Y0274362D01*
X0003600Y0275960D02*
X0059452Y0275960D01*
X0060172Y0277559D02*
X0003600Y0277559D01*
X0003600Y0279157D02*
X0064792Y0279157D01*
X0064792Y0280756D02*
X0003600Y0280756D01*
X0003600Y0282354D02*
X0064792Y0282354D01*
X0064792Y0283953D02*
X0003600Y0283953D01*
X0003600Y0285551D02*
X0064792Y0285551D01*
X0064792Y0287150D02*
X0003600Y0287150D01*
X0003600Y0288748D02*
X0064792Y0288748D01*
X0064792Y0290347D02*
X0003600Y0290347D01*
X0003600Y0291945D02*
X0012732Y0291945D01*
X0011134Y0293544D02*
X0003600Y0293544D01*
X0003600Y0295142D02*
X0010107Y0295142D01*
X0009445Y0296741D02*
X0003600Y0296741D01*
X0003600Y0298339D02*
X0009248Y0298339D01*
X0009248Y0299938D02*
X0003600Y0299938D01*
X0003600Y0301536D02*
X0009670Y0301536D01*
X0010332Y0303135D02*
X0003600Y0303135D01*
X0003600Y0304733D02*
X0011676Y0304733D01*
X0013880Y0306332D02*
X0003600Y0306332D01*
X0003600Y0272763D02*
X0014124Y0272763D01*
X0011902Y0271165D02*
X0003600Y0271165D01*
X0003600Y0269566D02*
X0011071Y0269566D01*
X0010830Y0267968D02*
X0003600Y0267968D01*
X0003600Y0266369D02*
X0011066Y0266369D01*
X0011891Y0264771D02*
X0003600Y0264771D01*
X0003600Y0247187D02*
X0034918Y0247187D01*
X0034255Y0245589D02*
X0003600Y0245589D01*
X0003600Y0243990D02*
X0012287Y0243990D01*
X0011230Y0242391D02*
X0003600Y0242391D01*
X0003600Y0240793D02*
X0010830Y0240793D01*
X0010907Y0239194D02*
X0003600Y0239194D01*
X0003600Y0237596D02*
X0011569Y0237596D01*
X0003600Y0232800D02*
X0064792Y0232800D01*
X0064792Y0231202D02*
X0018360Y0231202D01*
X0020267Y0229603D02*
X0064792Y0229603D01*
X0064792Y0228005D02*
X0020968Y0228005D01*
X0020717Y0242391D02*
X0035594Y0242391D01*
X0034448Y0243990D02*
X0019660Y0243990D01*
X0020537Y0210421D02*
X0064792Y0210421D01*
X0064792Y0208823D02*
X0019226Y0208823D01*
X0019883Y0202429D02*
X0036293Y0202429D01*
X0035830Y0200830D02*
X0020809Y0200830D01*
X0021117Y0199232D02*
X0036135Y0199232D01*
X0037648Y0197633D02*
X0020948Y0197633D01*
X0062088Y0160867D02*
X0064792Y0160867D01*
X0064792Y0159269D02*
X0063010Y0159269D01*
X0062974Y0157670D02*
X0064792Y0157670D01*
X0064792Y0156072D02*
X0062001Y0156072D01*
X0043635Y0138573D02*
X0042686Y0139521D01*
X0041447Y0140034D01*
X0040106Y0140034D01*
X0038866Y0139521D01*
X0037918Y0138573D01*
X0037405Y0137333D01*
X0037405Y0135992D01*
X0037918Y0134753D01*
X0038866Y0133804D01*
X0040106Y0133291D01*
X0041447Y0133291D01*
X0042686Y0133804D01*
X0043635Y0134753D01*
X0044148Y0135992D01*
X0044148Y0137333D01*
X0043635Y0138573D01*
X0043670Y0138488D02*
X0064792Y0138488D01*
X0064792Y0136890D02*
X0044148Y0136890D01*
X0043858Y0135291D02*
X0064792Y0135291D01*
X0064792Y0133693D02*
X0042417Y0133693D01*
X0039136Y0133693D02*
X0019721Y0133693D01*
X0020334Y0133080D02*
X0018887Y0134527D01*
X0016996Y0135310D01*
X0014950Y0135310D01*
X0013060Y0134527D01*
X0011613Y0133080D01*
X0010830Y0131190D01*
X0010830Y0129144D01*
X0011613Y0127253D01*
X0013060Y0125806D01*
X0014950Y0125023D01*
X0016996Y0125023D01*
X0018887Y0125806D01*
X0020334Y0127253D01*
X0021117Y0129144D01*
X0021117Y0131190D01*
X0020334Y0133080D01*
X0020742Y0132094D02*
X0064792Y0132094D01*
X0064792Y0130496D02*
X0021117Y0130496D01*
X0021014Y0128897D02*
X0064792Y0128897D01*
X0064792Y0127299D02*
X0026365Y0127299D01*
X0025954Y0127710D02*
X0024715Y0128223D01*
X0023373Y0128223D01*
X0022134Y0127710D01*
X0021186Y0126762D01*
X0020672Y0125522D01*
X0020672Y0124181D01*
X0021186Y0122942D01*
X0022134Y0121993D01*
X0023373Y0121480D01*
X0024715Y0121480D01*
X0025954Y0121993D01*
X0026902Y0122942D01*
X0027416Y0124181D01*
X0027416Y0125522D01*
X0026902Y0126762D01*
X0025954Y0127710D01*
X0027342Y0125700D02*
X0064792Y0125700D01*
X0064792Y0124102D02*
X0027383Y0124102D01*
X0026464Y0122503D02*
X0064792Y0122503D01*
X0064792Y0120905D02*
X0041224Y0120905D01*
X0041666Y0120462D02*
X0040718Y0121411D01*
X0039479Y0121924D01*
X0038137Y0121924D01*
X0036898Y0121411D01*
X0035950Y0120462D01*
X0035436Y0119223D01*
X0035436Y0117882D01*
X0035950Y0116643D01*
X0036898Y0115694D01*
X0038137Y0115181D01*
X0039479Y0115181D01*
X0040718Y0115694D01*
X0041666Y0116643D01*
X0042180Y0117882D01*
X0042180Y0119223D01*
X0041666Y0120462D01*
X0042145Y0119306D02*
X0064792Y0119306D01*
X0064792Y0117708D02*
X0042107Y0117708D01*
X0041133Y0116109D02*
X0064792Y0116109D01*
X0064792Y0114511D02*
X0020763Y0114511D01*
X0021117Y0115364D02*
X0020334Y0113474D01*
X0018887Y0112027D01*
X0016996Y0111244D01*
X0014950Y0111244D01*
X0013060Y0112027D01*
X0011613Y0113474D01*
X0010830Y0115364D01*
X0010830Y0117410D01*
X0011613Y0119301D01*
X0013060Y0120747D01*
X0014950Y0121530D01*
X0016996Y0121530D01*
X0018887Y0120747D01*
X0020334Y0119301D01*
X0021117Y0117410D01*
X0021117Y0115364D01*
X0021117Y0116109D02*
X0036483Y0116109D01*
X0035508Y0117708D02*
X0020993Y0117708D01*
X0020328Y0119306D02*
X0035471Y0119306D01*
X0036392Y0120905D02*
X0018507Y0120905D01*
X0021624Y0122503D02*
X0003600Y0122503D01*
X0003600Y0120905D02*
X0013439Y0120905D01*
X0011618Y0119306D02*
X0003600Y0119306D01*
X0003600Y0117708D02*
X0010953Y0117708D01*
X0010830Y0116109D02*
X0003600Y0116109D01*
X0003600Y0114511D02*
X0011183Y0114511D01*
X0012175Y0112912D02*
X0003600Y0112912D01*
X0003600Y0111314D02*
X0014782Y0111314D01*
X0017165Y0111314D02*
X0064792Y0111314D01*
X0064792Y0112912D02*
X0019772Y0112912D01*
X0016996Y0107751D02*
X0014950Y0107751D01*
X0013060Y0106968D01*
X0011613Y0105521D01*
X0010830Y0103631D01*
X0010830Y0101585D01*
X0011613Y0099694D01*
X0013060Y0098247D01*
X0014950Y0097464D01*
X0016996Y0097464D01*
X0018887Y0098247D01*
X0020334Y0099694D01*
X0021117Y0101585D01*
X0021117Y0103631D01*
X0020334Y0105521D01*
X0018887Y0106968D01*
X0016996Y0107751D01*
X0019337Y0106518D02*
X0064792Y0106518D01*
X0064792Y0104920D02*
X0020583Y0104920D01*
X0021117Y0103321D02*
X0036328Y0103321D01*
X0036146Y0103140D02*
X0035633Y0101900D01*
X0035633Y0100559D01*
X0036146Y0099320D01*
X0037095Y0098371D01*
X0038334Y0097858D01*
X0039675Y0097858D01*
X0040915Y0098371D01*
X0041863Y0099320D01*
X0042376Y0100559D01*
X0042376Y0101900D01*
X0041863Y0103140D01*
X0040915Y0104088D01*
X0039675Y0104601D01*
X0038334Y0104601D01*
X0037095Y0104088D01*
X0036146Y0103140D01*
X0035633Y0101722D02*
X0021117Y0101722D01*
X0020512Y0100124D02*
X0035813Y0100124D01*
X0036941Y0098525D02*
X0025020Y0098525D01*
X0024970Y0098576D02*
X0023730Y0099089D01*
X0022389Y0099089D01*
X0021150Y0098576D01*
X0020201Y0097628D01*
X0019688Y0096388D01*
X0019688Y0095047D01*
X0020201Y0093808D01*
X0021150Y0092859D01*
X0022389Y0092346D01*
X0023730Y0092346D01*
X0024970Y0092859D01*
X0025918Y0093808D01*
X0026431Y0095047D01*
X0026431Y0096388D01*
X0025918Y0097628D01*
X0024970Y0098576D01*
X0026208Y0096927D02*
X0056559Y0096927D01*
X0056499Y0096782D02*
X0056499Y0095441D01*
X0057013Y0094202D01*
X0057961Y0093253D01*
X0059200Y0092740D01*
X0060542Y0092740D01*
X0061781Y0093253D01*
X0062729Y0094202D01*
X0063243Y0095441D01*
X0063243Y0096782D01*
X0062729Y0098021D01*
X0061781Y0098970D01*
X0060542Y0099483D01*
X0059200Y0099483D01*
X0057961Y0098970D01*
X0057013Y0098021D01*
X0056499Y0096782D01*
X0056546Y0095328D02*
X0026431Y0095328D01*
X0025840Y0093730D02*
X0057484Y0093730D01*
X0062257Y0093730D02*
X0064792Y0093730D01*
X0064792Y0095328D02*
X0063196Y0095328D01*
X0063183Y0096927D02*
X0064792Y0096927D01*
X0064792Y0098525D02*
X0062225Y0098525D01*
X0064792Y0100124D02*
X0042196Y0100124D01*
X0042376Y0101722D02*
X0064792Y0101722D01*
X0064792Y0103321D02*
X0041682Y0103321D01*
X0041069Y0098525D02*
X0057517Y0098525D01*
X0064792Y0092131D02*
X0041257Y0092131D01*
X0040915Y0092474D02*
X0039675Y0092987D01*
X0038334Y0092987D01*
X0037095Y0092474D01*
X0036146Y0091525D01*
X0035633Y0090286D01*
X0035633Y0088945D01*
X0036146Y0087706D01*
X0037095Y0086757D01*
X0038334Y0086244D01*
X0039675Y0086244D01*
X0040915Y0086757D01*
X0041863Y0087706D01*
X0042376Y0088945D01*
X0042376Y0090286D01*
X0041863Y0091525D01*
X0040915Y0092474D01*
X0042274Y0090533D02*
X0064792Y0090533D01*
X0064792Y0088934D02*
X0042372Y0088934D01*
X0041493Y0087336D02*
X0064792Y0087336D01*
X0064792Y0085737D02*
X0020156Y0085737D01*
X0020334Y0085915D02*
X0018887Y0084468D01*
X0016996Y0083685D01*
X0014950Y0083685D01*
X0013060Y0084468D01*
X0011613Y0085915D01*
X0010830Y0087805D01*
X0010830Y0089851D01*
X0011613Y0091742D01*
X0013060Y0093188D01*
X0014950Y0093971D01*
X0016996Y0093971D01*
X0018887Y0093188D01*
X0020334Y0091742D01*
X0021117Y0089851D01*
X0021117Y0087805D01*
X0020334Y0085915D01*
X0020922Y0087336D02*
X0036516Y0087336D01*
X0035637Y0088934D02*
X0021117Y0088934D01*
X0020834Y0090533D02*
X0035735Y0090533D01*
X0036752Y0092131D02*
X0019944Y0092131D01*
X0020280Y0093730D02*
X0017579Y0093730D01*
X0019688Y0095328D02*
X0003600Y0095328D01*
X0003600Y0093730D02*
X0014367Y0093730D01*
X0012003Y0092131D02*
X0003600Y0092131D01*
X0003600Y0090533D02*
X0011112Y0090533D01*
X0010830Y0088934D02*
X0003600Y0088934D01*
X0003600Y0087336D02*
X0011024Y0087336D01*
X0011790Y0085737D02*
X0003600Y0085737D01*
X0003600Y0084139D02*
X0013854Y0084139D01*
X0014950Y0080192D02*
X0013060Y0079409D01*
X0011613Y0077962D01*
X0010830Y0076072D01*
X0010830Y0074025D01*
X0011613Y0072135D01*
X0013060Y0070688D01*
X0014950Y0069905D01*
X0016996Y0069905D01*
X0018887Y0070688D01*
X0020334Y0072135D01*
X0021117Y0074025D01*
X0021117Y0076072D01*
X0020334Y0077962D01*
X0018887Y0079409D01*
X0016996Y0080192D01*
X0014950Y0080192D01*
X0012994Y0079343D02*
X0003600Y0079343D01*
X0003600Y0077745D02*
X0011523Y0077745D01*
X0010861Y0076146D02*
X0003600Y0076146D01*
X0003600Y0074548D02*
X0010830Y0074548D01*
X0011276Y0072949D02*
X0003600Y0072949D01*
X0003600Y0071351D02*
X0012397Y0071351D01*
X0019549Y0071351D02*
X0064792Y0071351D01*
X0064792Y0072949D02*
X0020671Y0072949D01*
X0021117Y0074548D02*
X0064792Y0074548D01*
X0064792Y0076146D02*
X0021086Y0076146D01*
X0020423Y0077745D02*
X0064792Y0077745D01*
X0064792Y0079343D02*
X0018952Y0079343D01*
X0018093Y0084139D02*
X0064792Y0084139D01*
X0064792Y0082540D02*
X0003600Y0082540D01*
X0003600Y0080942D02*
X0064792Y0080942D01*
X0064792Y0069752D02*
X0025447Y0069752D01*
X0025721Y0069478D02*
X0024773Y0070427D01*
X0023534Y0070940D01*
X0022192Y0070940D01*
X0020953Y0070427D01*
X0020005Y0069478D01*
X0019491Y0068239D01*
X0019491Y0066898D01*
X0020005Y0065658D01*
X0020953Y0064710D01*
X0022192Y0064197D01*
X0023534Y0064197D01*
X0024773Y0064710D01*
X0025721Y0065658D01*
X0026235Y0066898D01*
X0026235Y0068239D01*
X0025721Y0069478D01*
X0026235Y0068154D02*
X0064792Y0068154D01*
X0064792Y0066555D02*
X0026093Y0066555D01*
X0025020Y0064957D02*
X0064792Y0064957D01*
X0064792Y0063358D02*
X0020675Y0063358D01*
X0020334Y0064182D02*
X0018887Y0065629D01*
X0016996Y0066412D01*
X0014950Y0066412D01*
X0013060Y0065629D01*
X0011613Y0064182D01*
X0010830Y0062292D01*
X0010830Y0060246D01*
X0011613Y0058356D01*
X0013060Y0056909D01*
X0014950Y0056126D01*
X0016996Y0056126D01*
X0018887Y0056909D01*
X0020334Y0058356D01*
X0021117Y0060246D01*
X0021117Y0062292D01*
X0020334Y0064182D01*
X0020706Y0064957D02*
X0019559Y0064957D01*
X0019633Y0066555D02*
X0003600Y0066555D01*
X0003600Y0064957D02*
X0012387Y0064957D01*
X0011272Y0063358D02*
X0003600Y0063358D01*
X0003600Y0061760D02*
X0010830Y0061760D01*
X0010865Y0060161D02*
X0003600Y0060161D01*
X0003600Y0058563D02*
X0011527Y0058563D01*
X0013004Y0056964D02*
X0003600Y0056964D01*
X0003600Y0055366D02*
X0037208Y0055366D01*
X0037208Y0056034D02*
X0037208Y0054693D01*
X0037721Y0053454D01*
X0038670Y0052505D01*
X0039909Y0051992D01*
X0041250Y0051992D01*
X0042489Y0052505D01*
X0043438Y0053454D01*
X0043951Y0054693D01*
X0043951Y0056034D01*
X0043438Y0057273D01*
X0042489Y0058222D01*
X0041250Y0058735D01*
X0039909Y0058735D01*
X0038670Y0058222D01*
X0037721Y0057273D01*
X0037208Y0056034D01*
X0037593Y0056964D02*
X0018942Y0056964D01*
X0020419Y0058563D02*
X0039492Y0058563D01*
X0041667Y0058563D02*
X0064792Y0058563D01*
X0064792Y0060161D02*
X0021081Y0060161D01*
X0021117Y0061760D02*
X0064792Y0061760D01*
X0064792Y0056964D02*
X0043566Y0056964D01*
X0043951Y0055366D02*
X0064792Y0055366D01*
X0064792Y0053767D02*
X0043568Y0053767D01*
X0041677Y0052169D02*
X0064792Y0052169D01*
X0064792Y0050570D02*
X0003600Y0050570D01*
X0003600Y0048972D02*
X0064792Y0048972D01*
X0064792Y0047373D02*
X0003600Y0047373D01*
X0003600Y0045775D02*
X0064792Y0045775D01*
X0064792Y0044176D02*
X0003600Y0044176D01*
X0003600Y0042578D02*
X0064792Y0042578D01*
X0064792Y0040979D02*
X0003600Y0040979D01*
X0003600Y0039381D02*
X0015727Y0039381D01*
X0015897Y0039451D02*
X0012846Y0038187D01*
X0010512Y0035852D01*
X0009248Y0032802D01*
X0009248Y0029500D01*
X0010512Y0026449D01*
X0012846Y0024115D01*
X0015897Y0022851D01*
X0019199Y0022851D01*
X0022250Y0024115D01*
X0024584Y0026449D01*
X0025848Y0029500D01*
X0025848Y0032802D01*
X0024584Y0035852D01*
X0022250Y0038187D01*
X0019199Y0039451D01*
X0015897Y0039451D01*
X0019369Y0039381D02*
X0064792Y0039381D01*
X0064792Y0037782D02*
X0022655Y0037782D01*
X0024253Y0036184D02*
X0057589Y0036184D01*
X0057567Y0036175D02*
X0056619Y0035226D01*
X0056106Y0033987D01*
X0056106Y0032646D01*
X0056619Y0031406D01*
X0057567Y0030458D01*
X0058806Y0029945D01*
X0060148Y0029945D01*
X0061387Y0030458D01*
X0062336Y0031406D01*
X0062849Y0032646D01*
X0062849Y0033987D01*
X0062336Y0035226D01*
X0061387Y0036175D01*
X0060148Y0036688D01*
X0058806Y0036688D01*
X0057567Y0036175D01*
X0056353Y0034585D02*
X0025109Y0034585D01*
X0025772Y0032987D02*
X0056106Y0032987D01*
X0056637Y0031388D02*
X0025848Y0031388D01*
X0025848Y0029789D02*
X0064792Y0029789D01*
X0064792Y0028191D02*
X0042205Y0028191D01*
X0042257Y0028140D02*
X0041308Y0029088D01*
X0040069Y0029601D01*
X0038728Y0029601D01*
X0037489Y0029088D01*
X0036540Y0028140D01*
X0036027Y0026900D01*
X0036027Y0025559D01*
X0036540Y0024320D01*
X0037489Y0023371D01*
X0038728Y0022858D01*
X0040069Y0022858D01*
X0041308Y0023371D01*
X0042257Y0024320D01*
X0042770Y0025559D01*
X0042770Y0026900D01*
X0042257Y0028140D01*
X0042770Y0026592D02*
X0064792Y0026592D01*
X0064792Y0024994D02*
X0042536Y0024994D01*
X0041332Y0023395D02*
X0064792Y0023395D01*
X0064792Y0021797D02*
X0003600Y0021797D01*
X0003600Y0023395D02*
X0014582Y0023395D01*
X0011967Y0024994D02*
X0003600Y0024994D01*
X0003600Y0026592D02*
X0010452Y0026592D01*
X0009790Y0028191D02*
X0003600Y0028191D01*
X0003600Y0029789D02*
X0009248Y0029789D01*
X0009248Y0031388D02*
X0003600Y0031388D01*
X0003600Y0032987D02*
X0009325Y0032987D01*
X0009987Y0034585D02*
X0003600Y0034585D01*
X0003600Y0036184D02*
X0010843Y0036184D01*
X0012441Y0037782D02*
X0003600Y0037782D01*
X0003600Y0052169D02*
X0039482Y0052169D01*
X0037591Y0053767D02*
X0003600Y0053767D01*
X0003600Y0068154D02*
X0019491Y0068154D01*
X0020279Y0069752D02*
X0003600Y0069752D01*
X0003600Y0096927D02*
X0019911Y0096927D01*
X0019165Y0098525D02*
X0021099Y0098525D01*
X0012782Y0098525D02*
X0003600Y0098525D01*
X0003600Y0100124D02*
X0011435Y0100124D01*
X0010830Y0101722D02*
X0003600Y0101722D01*
X0003600Y0103321D02*
X0010830Y0103321D01*
X0011364Y0104920D02*
X0003600Y0104920D01*
X0003600Y0106518D02*
X0012610Y0106518D01*
X0003600Y0108117D02*
X0064792Y0108117D01*
X0064792Y0109715D02*
X0003600Y0109715D01*
X0003600Y0124102D02*
X0020705Y0124102D01*
X0020746Y0125700D02*
X0018630Y0125700D01*
X0020352Y0127299D02*
X0021723Y0127299D01*
X0013316Y0125700D02*
X0003600Y0125700D01*
X0003600Y0127299D02*
X0011594Y0127299D01*
X0010932Y0128897D02*
X0003600Y0128897D01*
X0003600Y0130496D02*
X0010830Y0130496D01*
X0011205Y0132094D02*
X0003600Y0132094D01*
X0003600Y0133693D02*
X0012226Y0133693D01*
X0014905Y0135291D02*
X0003600Y0135291D01*
X0003600Y0136890D02*
X0037405Y0136890D01*
X0037695Y0135291D02*
X0017042Y0135291D01*
X0003600Y0138488D02*
X0037883Y0138488D01*
X0061366Y0036184D02*
X0064792Y0036184D01*
X0064792Y0034585D02*
X0062601Y0034585D01*
X0062849Y0032987D02*
X0064792Y0032987D01*
X0064792Y0031388D02*
X0062317Y0031388D01*
X0064792Y0020198D02*
X0003600Y0020198D01*
X0003600Y0018600D02*
X0064792Y0018600D01*
X0037464Y0023395D02*
X0020514Y0023395D01*
X0023129Y0024994D02*
X0036261Y0024994D01*
X0036027Y0026592D02*
X0024644Y0026592D01*
X0025306Y0028191D02*
X0036592Y0028191D01*
X0141086Y0259975D02*
X0161217Y0259975D01*
X0159585Y0261574D02*
X0142325Y0261574D01*
X0142573Y0263172D02*
X0159255Y0263172D01*
X0159694Y0264771D02*
X0142043Y0264771D01*
X0352194Y0144882D02*
X0357729Y0144882D01*
X0356081Y0143284D02*
X0352194Y0143284D01*
X0352194Y0141685D02*
X0355001Y0141685D01*
X0354339Y0140087D02*
X0352194Y0140087D01*
X0352194Y0138488D02*
X0354134Y0138488D01*
X0354134Y0136890D02*
X0352194Y0136890D01*
X0352194Y0135291D02*
X0354581Y0135291D01*
X0355243Y0133693D02*
X0352194Y0133693D01*
X0352194Y0132094D02*
X0356666Y0132094D01*
X0359141Y0130496D02*
X0352194Y0130496D01*
X0363206Y0037782D02*
X0374016Y0037782D01*
X0374016Y0036184D02*
X0364805Y0036184D01*
X0365661Y0034585D02*
X0374016Y0034585D01*
X0374016Y0032987D02*
X0366323Y0032987D01*
X0366399Y0031388D02*
X0374016Y0031388D01*
X0374016Y0029789D02*
X0366399Y0029789D01*
X0365857Y0028191D02*
X0374016Y0028191D01*
X0374016Y0026592D02*
X0365195Y0026592D01*
X0363680Y0024994D02*
X0374016Y0024994D01*
M02*
