G75*
%MOIN*%
%OFA0B0*%
%FSLAX25Y25*%
%IPPOS*%
%LPD*%
%AMOC8*
5,1,8,0,0,1.08239X$1,22.5*
%
%ADD10C,0.00000*%
%ADD11C,0.05906*%
%ADD12C,0.03562*%
%ADD13C,0.07087*%
%ADD14C,0.05700*%
%ADD15C,0.05315*%
%ADD16C,0.03543*%
%ADD17C,0.01000*%
%ADD18C,0.03150*%
%ADD19C,0.01600*%
D10*
X0001800Y0015403D02*
X0375816Y0015403D01*
X0375816Y0314615D01*
X0001800Y0314615D01*
X0001800Y0015403D01*
X0011048Y0031151D02*
X0011050Y0031312D01*
X0011056Y0031472D01*
X0011066Y0031633D01*
X0011080Y0031793D01*
X0011098Y0031953D01*
X0011119Y0032112D01*
X0011145Y0032271D01*
X0011175Y0032429D01*
X0011208Y0032586D01*
X0011246Y0032743D01*
X0011287Y0032898D01*
X0011332Y0033052D01*
X0011381Y0033205D01*
X0011434Y0033357D01*
X0011490Y0033508D01*
X0011551Y0033657D01*
X0011614Y0033805D01*
X0011682Y0033951D01*
X0011753Y0034095D01*
X0011827Y0034237D01*
X0011905Y0034378D01*
X0011987Y0034516D01*
X0012072Y0034653D01*
X0012160Y0034787D01*
X0012252Y0034919D01*
X0012347Y0035049D01*
X0012445Y0035177D01*
X0012546Y0035302D01*
X0012650Y0035424D01*
X0012757Y0035544D01*
X0012867Y0035661D01*
X0012980Y0035776D01*
X0013096Y0035887D01*
X0013215Y0035996D01*
X0013336Y0036101D01*
X0013460Y0036204D01*
X0013586Y0036304D01*
X0013714Y0036400D01*
X0013845Y0036493D01*
X0013979Y0036583D01*
X0014114Y0036670D01*
X0014252Y0036753D01*
X0014391Y0036833D01*
X0014533Y0036909D01*
X0014676Y0036982D01*
X0014821Y0037051D01*
X0014968Y0037117D01*
X0015116Y0037179D01*
X0015266Y0037237D01*
X0015417Y0037292D01*
X0015570Y0037343D01*
X0015724Y0037390D01*
X0015879Y0037433D01*
X0016035Y0037472D01*
X0016191Y0037508D01*
X0016349Y0037539D01*
X0016507Y0037567D01*
X0016666Y0037591D01*
X0016826Y0037611D01*
X0016986Y0037627D01*
X0017146Y0037639D01*
X0017307Y0037647D01*
X0017468Y0037651D01*
X0017628Y0037651D01*
X0017789Y0037647D01*
X0017950Y0037639D01*
X0018110Y0037627D01*
X0018270Y0037611D01*
X0018430Y0037591D01*
X0018589Y0037567D01*
X0018747Y0037539D01*
X0018905Y0037508D01*
X0019061Y0037472D01*
X0019217Y0037433D01*
X0019372Y0037390D01*
X0019526Y0037343D01*
X0019679Y0037292D01*
X0019830Y0037237D01*
X0019980Y0037179D01*
X0020128Y0037117D01*
X0020275Y0037051D01*
X0020420Y0036982D01*
X0020563Y0036909D01*
X0020705Y0036833D01*
X0020844Y0036753D01*
X0020982Y0036670D01*
X0021117Y0036583D01*
X0021251Y0036493D01*
X0021382Y0036400D01*
X0021510Y0036304D01*
X0021636Y0036204D01*
X0021760Y0036101D01*
X0021881Y0035996D01*
X0022000Y0035887D01*
X0022116Y0035776D01*
X0022229Y0035661D01*
X0022339Y0035544D01*
X0022446Y0035424D01*
X0022550Y0035302D01*
X0022651Y0035177D01*
X0022749Y0035049D01*
X0022844Y0034919D01*
X0022936Y0034787D01*
X0023024Y0034653D01*
X0023109Y0034516D01*
X0023191Y0034378D01*
X0023269Y0034237D01*
X0023343Y0034095D01*
X0023414Y0033951D01*
X0023482Y0033805D01*
X0023545Y0033657D01*
X0023606Y0033508D01*
X0023662Y0033357D01*
X0023715Y0033205D01*
X0023764Y0033052D01*
X0023809Y0032898D01*
X0023850Y0032743D01*
X0023888Y0032586D01*
X0023921Y0032429D01*
X0023951Y0032271D01*
X0023977Y0032112D01*
X0023998Y0031953D01*
X0024016Y0031793D01*
X0024030Y0031633D01*
X0024040Y0031472D01*
X0024046Y0031312D01*
X0024048Y0031151D01*
X0024046Y0030990D01*
X0024040Y0030830D01*
X0024030Y0030669D01*
X0024016Y0030509D01*
X0023998Y0030349D01*
X0023977Y0030190D01*
X0023951Y0030031D01*
X0023921Y0029873D01*
X0023888Y0029716D01*
X0023850Y0029559D01*
X0023809Y0029404D01*
X0023764Y0029250D01*
X0023715Y0029097D01*
X0023662Y0028945D01*
X0023606Y0028794D01*
X0023545Y0028645D01*
X0023482Y0028497D01*
X0023414Y0028351D01*
X0023343Y0028207D01*
X0023269Y0028065D01*
X0023191Y0027924D01*
X0023109Y0027786D01*
X0023024Y0027649D01*
X0022936Y0027515D01*
X0022844Y0027383D01*
X0022749Y0027253D01*
X0022651Y0027125D01*
X0022550Y0027000D01*
X0022446Y0026878D01*
X0022339Y0026758D01*
X0022229Y0026641D01*
X0022116Y0026526D01*
X0022000Y0026415D01*
X0021881Y0026306D01*
X0021760Y0026201D01*
X0021636Y0026098D01*
X0021510Y0025998D01*
X0021382Y0025902D01*
X0021251Y0025809D01*
X0021117Y0025719D01*
X0020982Y0025632D01*
X0020844Y0025549D01*
X0020705Y0025469D01*
X0020563Y0025393D01*
X0020420Y0025320D01*
X0020275Y0025251D01*
X0020128Y0025185D01*
X0019980Y0025123D01*
X0019830Y0025065D01*
X0019679Y0025010D01*
X0019526Y0024959D01*
X0019372Y0024912D01*
X0019217Y0024869D01*
X0019061Y0024830D01*
X0018905Y0024794D01*
X0018747Y0024763D01*
X0018589Y0024735D01*
X0018430Y0024711D01*
X0018270Y0024691D01*
X0018110Y0024675D01*
X0017950Y0024663D01*
X0017789Y0024655D01*
X0017628Y0024651D01*
X0017468Y0024651D01*
X0017307Y0024655D01*
X0017146Y0024663D01*
X0016986Y0024675D01*
X0016826Y0024691D01*
X0016666Y0024711D01*
X0016507Y0024735D01*
X0016349Y0024763D01*
X0016191Y0024794D01*
X0016035Y0024830D01*
X0015879Y0024869D01*
X0015724Y0024912D01*
X0015570Y0024959D01*
X0015417Y0025010D01*
X0015266Y0025065D01*
X0015116Y0025123D01*
X0014968Y0025185D01*
X0014821Y0025251D01*
X0014676Y0025320D01*
X0014533Y0025393D01*
X0014391Y0025469D01*
X0014252Y0025549D01*
X0014114Y0025632D01*
X0013979Y0025719D01*
X0013845Y0025809D01*
X0013714Y0025902D01*
X0013586Y0025998D01*
X0013460Y0026098D01*
X0013336Y0026201D01*
X0013215Y0026306D01*
X0013096Y0026415D01*
X0012980Y0026526D01*
X0012867Y0026641D01*
X0012757Y0026758D01*
X0012650Y0026878D01*
X0012546Y0027000D01*
X0012445Y0027125D01*
X0012347Y0027253D01*
X0012252Y0027383D01*
X0012160Y0027515D01*
X0012072Y0027649D01*
X0011987Y0027786D01*
X0011905Y0027924D01*
X0011827Y0028065D01*
X0011753Y0028207D01*
X0011682Y0028351D01*
X0011614Y0028497D01*
X0011551Y0028645D01*
X0011490Y0028794D01*
X0011434Y0028945D01*
X0011381Y0029097D01*
X0011332Y0029250D01*
X0011287Y0029404D01*
X0011246Y0029559D01*
X0011208Y0029716D01*
X0011175Y0029873D01*
X0011145Y0030031D01*
X0011119Y0030190D01*
X0011098Y0030349D01*
X0011080Y0030509D01*
X0011066Y0030669D01*
X0011056Y0030830D01*
X0011050Y0030990D01*
X0011048Y0031151D01*
X0011048Y0298867D02*
X0011050Y0299028D01*
X0011056Y0299188D01*
X0011066Y0299349D01*
X0011080Y0299509D01*
X0011098Y0299669D01*
X0011119Y0299828D01*
X0011145Y0299987D01*
X0011175Y0300145D01*
X0011208Y0300302D01*
X0011246Y0300459D01*
X0011287Y0300614D01*
X0011332Y0300768D01*
X0011381Y0300921D01*
X0011434Y0301073D01*
X0011490Y0301224D01*
X0011551Y0301373D01*
X0011614Y0301521D01*
X0011682Y0301667D01*
X0011753Y0301811D01*
X0011827Y0301953D01*
X0011905Y0302094D01*
X0011987Y0302232D01*
X0012072Y0302369D01*
X0012160Y0302503D01*
X0012252Y0302635D01*
X0012347Y0302765D01*
X0012445Y0302893D01*
X0012546Y0303018D01*
X0012650Y0303140D01*
X0012757Y0303260D01*
X0012867Y0303377D01*
X0012980Y0303492D01*
X0013096Y0303603D01*
X0013215Y0303712D01*
X0013336Y0303817D01*
X0013460Y0303920D01*
X0013586Y0304020D01*
X0013714Y0304116D01*
X0013845Y0304209D01*
X0013979Y0304299D01*
X0014114Y0304386D01*
X0014252Y0304469D01*
X0014391Y0304549D01*
X0014533Y0304625D01*
X0014676Y0304698D01*
X0014821Y0304767D01*
X0014968Y0304833D01*
X0015116Y0304895D01*
X0015266Y0304953D01*
X0015417Y0305008D01*
X0015570Y0305059D01*
X0015724Y0305106D01*
X0015879Y0305149D01*
X0016035Y0305188D01*
X0016191Y0305224D01*
X0016349Y0305255D01*
X0016507Y0305283D01*
X0016666Y0305307D01*
X0016826Y0305327D01*
X0016986Y0305343D01*
X0017146Y0305355D01*
X0017307Y0305363D01*
X0017468Y0305367D01*
X0017628Y0305367D01*
X0017789Y0305363D01*
X0017950Y0305355D01*
X0018110Y0305343D01*
X0018270Y0305327D01*
X0018430Y0305307D01*
X0018589Y0305283D01*
X0018747Y0305255D01*
X0018905Y0305224D01*
X0019061Y0305188D01*
X0019217Y0305149D01*
X0019372Y0305106D01*
X0019526Y0305059D01*
X0019679Y0305008D01*
X0019830Y0304953D01*
X0019980Y0304895D01*
X0020128Y0304833D01*
X0020275Y0304767D01*
X0020420Y0304698D01*
X0020563Y0304625D01*
X0020705Y0304549D01*
X0020844Y0304469D01*
X0020982Y0304386D01*
X0021117Y0304299D01*
X0021251Y0304209D01*
X0021382Y0304116D01*
X0021510Y0304020D01*
X0021636Y0303920D01*
X0021760Y0303817D01*
X0021881Y0303712D01*
X0022000Y0303603D01*
X0022116Y0303492D01*
X0022229Y0303377D01*
X0022339Y0303260D01*
X0022446Y0303140D01*
X0022550Y0303018D01*
X0022651Y0302893D01*
X0022749Y0302765D01*
X0022844Y0302635D01*
X0022936Y0302503D01*
X0023024Y0302369D01*
X0023109Y0302232D01*
X0023191Y0302094D01*
X0023269Y0301953D01*
X0023343Y0301811D01*
X0023414Y0301667D01*
X0023482Y0301521D01*
X0023545Y0301373D01*
X0023606Y0301224D01*
X0023662Y0301073D01*
X0023715Y0300921D01*
X0023764Y0300768D01*
X0023809Y0300614D01*
X0023850Y0300459D01*
X0023888Y0300302D01*
X0023921Y0300145D01*
X0023951Y0299987D01*
X0023977Y0299828D01*
X0023998Y0299669D01*
X0024016Y0299509D01*
X0024030Y0299349D01*
X0024040Y0299188D01*
X0024046Y0299028D01*
X0024048Y0298867D01*
X0024046Y0298706D01*
X0024040Y0298546D01*
X0024030Y0298385D01*
X0024016Y0298225D01*
X0023998Y0298065D01*
X0023977Y0297906D01*
X0023951Y0297747D01*
X0023921Y0297589D01*
X0023888Y0297432D01*
X0023850Y0297275D01*
X0023809Y0297120D01*
X0023764Y0296966D01*
X0023715Y0296813D01*
X0023662Y0296661D01*
X0023606Y0296510D01*
X0023545Y0296361D01*
X0023482Y0296213D01*
X0023414Y0296067D01*
X0023343Y0295923D01*
X0023269Y0295781D01*
X0023191Y0295640D01*
X0023109Y0295502D01*
X0023024Y0295365D01*
X0022936Y0295231D01*
X0022844Y0295099D01*
X0022749Y0294969D01*
X0022651Y0294841D01*
X0022550Y0294716D01*
X0022446Y0294594D01*
X0022339Y0294474D01*
X0022229Y0294357D01*
X0022116Y0294242D01*
X0022000Y0294131D01*
X0021881Y0294022D01*
X0021760Y0293917D01*
X0021636Y0293814D01*
X0021510Y0293714D01*
X0021382Y0293618D01*
X0021251Y0293525D01*
X0021117Y0293435D01*
X0020982Y0293348D01*
X0020844Y0293265D01*
X0020705Y0293185D01*
X0020563Y0293109D01*
X0020420Y0293036D01*
X0020275Y0292967D01*
X0020128Y0292901D01*
X0019980Y0292839D01*
X0019830Y0292781D01*
X0019679Y0292726D01*
X0019526Y0292675D01*
X0019372Y0292628D01*
X0019217Y0292585D01*
X0019061Y0292546D01*
X0018905Y0292510D01*
X0018747Y0292479D01*
X0018589Y0292451D01*
X0018430Y0292427D01*
X0018270Y0292407D01*
X0018110Y0292391D01*
X0017950Y0292379D01*
X0017789Y0292371D01*
X0017628Y0292367D01*
X0017468Y0292367D01*
X0017307Y0292371D01*
X0017146Y0292379D01*
X0016986Y0292391D01*
X0016826Y0292407D01*
X0016666Y0292427D01*
X0016507Y0292451D01*
X0016349Y0292479D01*
X0016191Y0292510D01*
X0016035Y0292546D01*
X0015879Y0292585D01*
X0015724Y0292628D01*
X0015570Y0292675D01*
X0015417Y0292726D01*
X0015266Y0292781D01*
X0015116Y0292839D01*
X0014968Y0292901D01*
X0014821Y0292967D01*
X0014676Y0293036D01*
X0014533Y0293109D01*
X0014391Y0293185D01*
X0014252Y0293265D01*
X0014114Y0293348D01*
X0013979Y0293435D01*
X0013845Y0293525D01*
X0013714Y0293618D01*
X0013586Y0293714D01*
X0013460Y0293814D01*
X0013336Y0293917D01*
X0013215Y0294022D01*
X0013096Y0294131D01*
X0012980Y0294242D01*
X0012867Y0294357D01*
X0012757Y0294474D01*
X0012650Y0294594D01*
X0012546Y0294716D01*
X0012445Y0294841D01*
X0012347Y0294969D01*
X0012252Y0295099D01*
X0012160Y0295231D01*
X0012072Y0295365D01*
X0011987Y0295502D01*
X0011905Y0295640D01*
X0011827Y0295781D01*
X0011753Y0295923D01*
X0011682Y0296067D01*
X0011614Y0296213D01*
X0011551Y0296361D01*
X0011490Y0296510D01*
X0011434Y0296661D01*
X0011381Y0296813D01*
X0011332Y0296966D01*
X0011287Y0297120D01*
X0011246Y0297275D01*
X0011208Y0297432D01*
X0011175Y0297589D01*
X0011145Y0297747D01*
X0011119Y0297906D01*
X0011098Y0298065D01*
X0011080Y0298225D01*
X0011066Y0298385D01*
X0011056Y0298546D01*
X0011050Y0298706D01*
X0011048Y0298867D01*
X0351599Y0298867D02*
X0351601Y0299028D01*
X0351607Y0299188D01*
X0351617Y0299349D01*
X0351631Y0299509D01*
X0351649Y0299669D01*
X0351670Y0299828D01*
X0351696Y0299987D01*
X0351726Y0300145D01*
X0351759Y0300302D01*
X0351797Y0300459D01*
X0351838Y0300614D01*
X0351883Y0300768D01*
X0351932Y0300921D01*
X0351985Y0301073D01*
X0352041Y0301224D01*
X0352102Y0301373D01*
X0352165Y0301521D01*
X0352233Y0301667D01*
X0352304Y0301811D01*
X0352378Y0301953D01*
X0352456Y0302094D01*
X0352538Y0302232D01*
X0352623Y0302369D01*
X0352711Y0302503D01*
X0352803Y0302635D01*
X0352898Y0302765D01*
X0352996Y0302893D01*
X0353097Y0303018D01*
X0353201Y0303140D01*
X0353308Y0303260D01*
X0353418Y0303377D01*
X0353531Y0303492D01*
X0353647Y0303603D01*
X0353766Y0303712D01*
X0353887Y0303817D01*
X0354011Y0303920D01*
X0354137Y0304020D01*
X0354265Y0304116D01*
X0354396Y0304209D01*
X0354530Y0304299D01*
X0354665Y0304386D01*
X0354803Y0304469D01*
X0354942Y0304549D01*
X0355084Y0304625D01*
X0355227Y0304698D01*
X0355372Y0304767D01*
X0355519Y0304833D01*
X0355667Y0304895D01*
X0355817Y0304953D01*
X0355968Y0305008D01*
X0356121Y0305059D01*
X0356275Y0305106D01*
X0356430Y0305149D01*
X0356586Y0305188D01*
X0356742Y0305224D01*
X0356900Y0305255D01*
X0357058Y0305283D01*
X0357217Y0305307D01*
X0357377Y0305327D01*
X0357537Y0305343D01*
X0357697Y0305355D01*
X0357858Y0305363D01*
X0358019Y0305367D01*
X0358179Y0305367D01*
X0358340Y0305363D01*
X0358501Y0305355D01*
X0358661Y0305343D01*
X0358821Y0305327D01*
X0358981Y0305307D01*
X0359140Y0305283D01*
X0359298Y0305255D01*
X0359456Y0305224D01*
X0359612Y0305188D01*
X0359768Y0305149D01*
X0359923Y0305106D01*
X0360077Y0305059D01*
X0360230Y0305008D01*
X0360381Y0304953D01*
X0360531Y0304895D01*
X0360679Y0304833D01*
X0360826Y0304767D01*
X0360971Y0304698D01*
X0361114Y0304625D01*
X0361256Y0304549D01*
X0361395Y0304469D01*
X0361533Y0304386D01*
X0361668Y0304299D01*
X0361802Y0304209D01*
X0361933Y0304116D01*
X0362061Y0304020D01*
X0362187Y0303920D01*
X0362311Y0303817D01*
X0362432Y0303712D01*
X0362551Y0303603D01*
X0362667Y0303492D01*
X0362780Y0303377D01*
X0362890Y0303260D01*
X0362997Y0303140D01*
X0363101Y0303018D01*
X0363202Y0302893D01*
X0363300Y0302765D01*
X0363395Y0302635D01*
X0363487Y0302503D01*
X0363575Y0302369D01*
X0363660Y0302232D01*
X0363742Y0302094D01*
X0363820Y0301953D01*
X0363894Y0301811D01*
X0363965Y0301667D01*
X0364033Y0301521D01*
X0364096Y0301373D01*
X0364157Y0301224D01*
X0364213Y0301073D01*
X0364266Y0300921D01*
X0364315Y0300768D01*
X0364360Y0300614D01*
X0364401Y0300459D01*
X0364439Y0300302D01*
X0364472Y0300145D01*
X0364502Y0299987D01*
X0364528Y0299828D01*
X0364549Y0299669D01*
X0364567Y0299509D01*
X0364581Y0299349D01*
X0364591Y0299188D01*
X0364597Y0299028D01*
X0364599Y0298867D01*
X0364597Y0298706D01*
X0364591Y0298546D01*
X0364581Y0298385D01*
X0364567Y0298225D01*
X0364549Y0298065D01*
X0364528Y0297906D01*
X0364502Y0297747D01*
X0364472Y0297589D01*
X0364439Y0297432D01*
X0364401Y0297275D01*
X0364360Y0297120D01*
X0364315Y0296966D01*
X0364266Y0296813D01*
X0364213Y0296661D01*
X0364157Y0296510D01*
X0364096Y0296361D01*
X0364033Y0296213D01*
X0363965Y0296067D01*
X0363894Y0295923D01*
X0363820Y0295781D01*
X0363742Y0295640D01*
X0363660Y0295502D01*
X0363575Y0295365D01*
X0363487Y0295231D01*
X0363395Y0295099D01*
X0363300Y0294969D01*
X0363202Y0294841D01*
X0363101Y0294716D01*
X0362997Y0294594D01*
X0362890Y0294474D01*
X0362780Y0294357D01*
X0362667Y0294242D01*
X0362551Y0294131D01*
X0362432Y0294022D01*
X0362311Y0293917D01*
X0362187Y0293814D01*
X0362061Y0293714D01*
X0361933Y0293618D01*
X0361802Y0293525D01*
X0361668Y0293435D01*
X0361533Y0293348D01*
X0361395Y0293265D01*
X0361256Y0293185D01*
X0361114Y0293109D01*
X0360971Y0293036D01*
X0360826Y0292967D01*
X0360679Y0292901D01*
X0360531Y0292839D01*
X0360381Y0292781D01*
X0360230Y0292726D01*
X0360077Y0292675D01*
X0359923Y0292628D01*
X0359768Y0292585D01*
X0359612Y0292546D01*
X0359456Y0292510D01*
X0359298Y0292479D01*
X0359140Y0292451D01*
X0358981Y0292427D01*
X0358821Y0292407D01*
X0358661Y0292391D01*
X0358501Y0292379D01*
X0358340Y0292371D01*
X0358179Y0292367D01*
X0358019Y0292367D01*
X0357858Y0292371D01*
X0357697Y0292379D01*
X0357537Y0292391D01*
X0357377Y0292407D01*
X0357217Y0292427D01*
X0357058Y0292451D01*
X0356900Y0292479D01*
X0356742Y0292510D01*
X0356586Y0292546D01*
X0356430Y0292585D01*
X0356275Y0292628D01*
X0356121Y0292675D01*
X0355968Y0292726D01*
X0355817Y0292781D01*
X0355667Y0292839D01*
X0355519Y0292901D01*
X0355372Y0292967D01*
X0355227Y0293036D01*
X0355084Y0293109D01*
X0354942Y0293185D01*
X0354803Y0293265D01*
X0354665Y0293348D01*
X0354530Y0293435D01*
X0354396Y0293525D01*
X0354265Y0293618D01*
X0354137Y0293714D01*
X0354011Y0293814D01*
X0353887Y0293917D01*
X0353766Y0294022D01*
X0353647Y0294131D01*
X0353531Y0294242D01*
X0353418Y0294357D01*
X0353308Y0294474D01*
X0353201Y0294594D01*
X0353097Y0294716D01*
X0352996Y0294841D01*
X0352898Y0294969D01*
X0352803Y0295099D01*
X0352711Y0295231D01*
X0352623Y0295365D01*
X0352538Y0295502D01*
X0352456Y0295640D01*
X0352378Y0295781D01*
X0352304Y0295923D01*
X0352233Y0296067D01*
X0352165Y0296213D01*
X0352102Y0296361D01*
X0352041Y0296510D01*
X0351985Y0296661D01*
X0351932Y0296813D01*
X0351883Y0296966D01*
X0351838Y0297120D01*
X0351797Y0297275D01*
X0351759Y0297432D01*
X0351726Y0297589D01*
X0351696Y0297747D01*
X0351670Y0297906D01*
X0351649Y0298065D01*
X0351631Y0298225D01*
X0351617Y0298385D01*
X0351607Y0298546D01*
X0351601Y0298706D01*
X0351599Y0298867D01*
X0355934Y0253100D02*
X0355936Y0253258D01*
X0355942Y0253416D01*
X0355952Y0253574D01*
X0355966Y0253732D01*
X0355984Y0253889D01*
X0356005Y0254046D01*
X0356031Y0254202D01*
X0356061Y0254358D01*
X0356094Y0254513D01*
X0356132Y0254666D01*
X0356173Y0254819D01*
X0356218Y0254971D01*
X0356267Y0255122D01*
X0356320Y0255271D01*
X0356376Y0255419D01*
X0356436Y0255565D01*
X0356500Y0255710D01*
X0356568Y0255853D01*
X0356639Y0255995D01*
X0356713Y0256135D01*
X0356791Y0256272D01*
X0356873Y0256408D01*
X0356957Y0256542D01*
X0357046Y0256673D01*
X0357137Y0256802D01*
X0357232Y0256929D01*
X0357329Y0257054D01*
X0357430Y0257176D01*
X0357534Y0257295D01*
X0357641Y0257412D01*
X0357751Y0257526D01*
X0357864Y0257637D01*
X0357979Y0257746D01*
X0358097Y0257851D01*
X0358218Y0257953D01*
X0358341Y0258053D01*
X0358467Y0258149D01*
X0358595Y0258242D01*
X0358725Y0258332D01*
X0358858Y0258418D01*
X0358993Y0258502D01*
X0359129Y0258581D01*
X0359268Y0258658D01*
X0359409Y0258730D01*
X0359551Y0258800D01*
X0359695Y0258865D01*
X0359841Y0258927D01*
X0359988Y0258985D01*
X0360137Y0259040D01*
X0360287Y0259091D01*
X0360438Y0259138D01*
X0360590Y0259181D01*
X0360743Y0259220D01*
X0360898Y0259256D01*
X0361053Y0259287D01*
X0361209Y0259315D01*
X0361365Y0259339D01*
X0361522Y0259359D01*
X0361680Y0259375D01*
X0361837Y0259387D01*
X0361996Y0259395D01*
X0362154Y0259399D01*
X0362312Y0259399D01*
X0362470Y0259395D01*
X0362629Y0259387D01*
X0362786Y0259375D01*
X0362944Y0259359D01*
X0363101Y0259339D01*
X0363257Y0259315D01*
X0363413Y0259287D01*
X0363568Y0259256D01*
X0363723Y0259220D01*
X0363876Y0259181D01*
X0364028Y0259138D01*
X0364179Y0259091D01*
X0364329Y0259040D01*
X0364478Y0258985D01*
X0364625Y0258927D01*
X0364771Y0258865D01*
X0364915Y0258800D01*
X0365057Y0258730D01*
X0365198Y0258658D01*
X0365337Y0258581D01*
X0365473Y0258502D01*
X0365608Y0258418D01*
X0365741Y0258332D01*
X0365871Y0258242D01*
X0365999Y0258149D01*
X0366125Y0258053D01*
X0366248Y0257953D01*
X0366369Y0257851D01*
X0366487Y0257746D01*
X0366602Y0257637D01*
X0366715Y0257526D01*
X0366825Y0257412D01*
X0366932Y0257295D01*
X0367036Y0257176D01*
X0367137Y0257054D01*
X0367234Y0256929D01*
X0367329Y0256802D01*
X0367420Y0256673D01*
X0367509Y0256542D01*
X0367593Y0256408D01*
X0367675Y0256272D01*
X0367753Y0256135D01*
X0367827Y0255995D01*
X0367898Y0255853D01*
X0367966Y0255710D01*
X0368030Y0255565D01*
X0368090Y0255419D01*
X0368146Y0255271D01*
X0368199Y0255122D01*
X0368248Y0254971D01*
X0368293Y0254819D01*
X0368334Y0254666D01*
X0368372Y0254513D01*
X0368405Y0254358D01*
X0368435Y0254202D01*
X0368461Y0254046D01*
X0368482Y0253889D01*
X0368500Y0253732D01*
X0368514Y0253574D01*
X0368524Y0253416D01*
X0368530Y0253258D01*
X0368532Y0253100D01*
X0368530Y0252942D01*
X0368524Y0252784D01*
X0368514Y0252626D01*
X0368500Y0252468D01*
X0368482Y0252311D01*
X0368461Y0252154D01*
X0368435Y0251998D01*
X0368405Y0251842D01*
X0368372Y0251687D01*
X0368334Y0251534D01*
X0368293Y0251381D01*
X0368248Y0251229D01*
X0368199Y0251078D01*
X0368146Y0250929D01*
X0368090Y0250781D01*
X0368030Y0250635D01*
X0367966Y0250490D01*
X0367898Y0250347D01*
X0367827Y0250205D01*
X0367753Y0250065D01*
X0367675Y0249928D01*
X0367593Y0249792D01*
X0367509Y0249658D01*
X0367420Y0249527D01*
X0367329Y0249398D01*
X0367234Y0249271D01*
X0367137Y0249146D01*
X0367036Y0249024D01*
X0366932Y0248905D01*
X0366825Y0248788D01*
X0366715Y0248674D01*
X0366602Y0248563D01*
X0366487Y0248454D01*
X0366369Y0248349D01*
X0366248Y0248247D01*
X0366125Y0248147D01*
X0365999Y0248051D01*
X0365871Y0247958D01*
X0365741Y0247868D01*
X0365608Y0247782D01*
X0365473Y0247698D01*
X0365337Y0247619D01*
X0365198Y0247542D01*
X0365057Y0247470D01*
X0364915Y0247400D01*
X0364771Y0247335D01*
X0364625Y0247273D01*
X0364478Y0247215D01*
X0364329Y0247160D01*
X0364179Y0247109D01*
X0364028Y0247062D01*
X0363876Y0247019D01*
X0363723Y0246980D01*
X0363568Y0246944D01*
X0363413Y0246913D01*
X0363257Y0246885D01*
X0363101Y0246861D01*
X0362944Y0246841D01*
X0362786Y0246825D01*
X0362629Y0246813D01*
X0362470Y0246805D01*
X0362312Y0246801D01*
X0362154Y0246801D01*
X0361996Y0246805D01*
X0361837Y0246813D01*
X0361680Y0246825D01*
X0361522Y0246841D01*
X0361365Y0246861D01*
X0361209Y0246885D01*
X0361053Y0246913D01*
X0360898Y0246944D01*
X0360743Y0246980D01*
X0360590Y0247019D01*
X0360438Y0247062D01*
X0360287Y0247109D01*
X0360137Y0247160D01*
X0359988Y0247215D01*
X0359841Y0247273D01*
X0359695Y0247335D01*
X0359551Y0247400D01*
X0359409Y0247470D01*
X0359268Y0247542D01*
X0359129Y0247619D01*
X0358993Y0247698D01*
X0358858Y0247782D01*
X0358725Y0247868D01*
X0358595Y0247958D01*
X0358467Y0248051D01*
X0358341Y0248147D01*
X0358218Y0248247D01*
X0358097Y0248349D01*
X0357979Y0248454D01*
X0357864Y0248563D01*
X0357751Y0248674D01*
X0357641Y0248788D01*
X0357534Y0248905D01*
X0357430Y0249024D01*
X0357329Y0249146D01*
X0357232Y0249271D01*
X0357137Y0249398D01*
X0357046Y0249527D01*
X0356957Y0249658D01*
X0356873Y0249792D01*
X0356791Y0249928D01*
X0356713Y0250065D01*
X0356639Y0250205D01*
X0356568Y0250347D01*
X0356500Y0250490D01*
X0356436Y0250635D01*
X0356376Y0250781D01*
X0356320Y0250929D01*
X0356267Y0251078D01*
X0356218Y0251229D01*
X0356173Y0251381D01*
X0356132Y0251534D01*
X0356094Y0251687D01*
X0356061Y0251842D01*
X0356031Y0251998D01*
X0356005Y0252154D01*
X0355984Y0252311D01*
X0355966Y0252468D01*
X0355952Y0252626D01*
X0355942Y0252784D01*
X0355936Y0252942D01*
X0355934Y0253100D01*
X0355934Y0208100D02*
X0355936Y0208258D01*
X0355942Y0208416D01*
X0355952Y0208574D01*
X0355966Y0208732D01*
X0355984Y0208889D01*
X0356005Y0209046D01*
X0356031Y0209202D01*
X0356061Y0209358D01*
X0356094Y0209513D01*
X0356132Y0209666D01*
X0356173Y0209819D01*
X0356218Y0209971D01*
X0356267Y0210122D01*
X0356320Y0210271D01*
X0356376Y0210419D01*
X0356436Y0210565D01*
X0356500Y0210710D01*
X0356568Y0210853D01*
X0356639Y0210995D01*
X0356713Y0211135D01*
X0356791Y0211272D01*
X0356873Y0211408D01*
X0356957Y0211542D01*
X0357046Y0211673D01*
X0357137Y0211802D01*
X0357232Y0211929D01*
X0357329Y0212054D01*
X0357430Y0212176D01*
X0357534Y0212295D01*
X0357641Y0212412D01*
X0357751Y0212526D01*
X0357864Y0212637D01*
X0357979Y0212746D01*
X0358097Y0212851D01*
X0358218Y0212953D01*
X0358341Y0213053D01*
X0358467Y0213149D01*
X0358595Y0213242D01*
X0358725Y0213332D01*
X0358858Y0213418D01*
X0358993Y0213502D01*
X0359129Y0213581D01*
X0359268Y0213658D01*
X0359409Y0213730D01*
X0359551Y0213800D01*
X0359695Y0213865D01*
X0359841Y0213927D01*
X0359988Y0213985D01*
X0360137Y0214040D01*
X0360287Y0214091D01*
X0360438Y0214138D01*
X0360590Y0214181D01*
X0360743Y0214220D01*
X0360898Y0214256D01*
X0361053Y0214287D01*
X0361209Y0214315D01*
X0361365Y0214339D01*
X0361522Y0214359D01*
X0361680Y0214375D01*
X0361837Y0214387D01*
X0361996Y0214395D01*
X0362154Y0214399D01*
X0362312Y0214399D01*
X0362470Y0214395D01*
X0362629Y0214387D01*
X0362786Y0214375D01*
X0362944Y0214359D01*
X0363101Y0214339D01*
X0363257Y0214315D01*
X0363413Y0214287D01*
X0363568Y0214256D01*
X0363723Y0214220D01*
X0363876Y0214181D01*
X0364028Y0214138D01*
X0364179Y0214091D01*
X0364329Y0214040D01*
X0364478Y0213985D01*
X0364625Y0213927D01*
X0364771Y0213865D01*
X0364915Y0213800D01*
X0365057Y0213730D01*
X0365198Y0213658D01*
X0365337Y0213581D01*
X0365473Y0213502D01*
X0365608Y0213418D01*
X0365741Y0213332D01*
X0365871Y0213242D01*
X0365999Y0213149D01*
X0366125Y0213053D01*
X0366248Y0212953D01*
X0366369Y0212851D01*
X0366487Y0212746D01*
X0366602Y0212637D01*
X0366715Y0212526D01*
X0366825Y0212412D01*
X0366932Y0212295D01*
X0367036Y0212176D01*
X0367137Y0212054D01*
X0367234Y0211929D01*
X0367329Y0211802D01*
X0367420Y0211673D01*
X0367509Y0211542D01*
X0367593Y0211408D01*
X0367675Y0211272D01*
X0367753Y0211135D01*
X0367827Y0210995D01*
X0367898Y0210853D01*
X0367966Y0210710D01*
X0368030Y0210565D01*
X0368090Y0210419D01*
X0368146Y0210271D01*
X0368199Y0210122D01*
X0368248Y0209971D01*
X0368293Y0209819D01*
X0368334Y0209666D01*
X0368372Y0209513D01*
X0368405Y0209358D01*
X0368435Y0209202D01*
X0368461Y0209046D01*
X0368482Y0208889D01*
X0368500Y0208732D01*
X0368514Y0208574D01*
X0368524Y0208416D01*
X0368530Y0208258D01*
X0368532Y0208100D01*
X0368530Y0207942D01*
X0368524Y0207784D01*
X0368514Y0207626D01*
X0368500Y0207468D01*
X0368482Y0207311D01*
X0368461Y0207154D01*
X0368435Y0206998D01*
X0368405Y0206842D01*
X0368372Y0206687D01*
X0368334Y0206534D01*
X0368293Y0206381D01*
X0368248Y0206229D01*
X0368199Y0206078D01*
X0368146Y0205929D01*
X0368090Y0205781D01*
X0368030Y0205635D01*
X0367966Y0205490D01*
X0367898Y0205347D01*
X0367827Y0205205D01*
X0367753Y0205065D01*
X0367675Y0204928D01*
X0367593Y0204792D01*
X0367509Y0204658D01*
X0367420Y0204527D01*
X0367329Y0204398D01*
X0367234Y0204271D01*
X0367137Y0204146D01*
X0367036Y0204024D01*
X0366932Y0203905D01*
X0366825Y0203788D01*
X0366715Y0203674D01*
X0366602Y0203563D01*
X0366487Y0203454D01*
X0366369Y0203349D01*
X0366248Y0203247D01*
X0366125Y0203147D01*
X0365999Y0203051D01*
X0365871Y0202958D01*
X0365741Y0202868D01*
X0365608Y0202782D01*
X0365473Y0202698D01*
X0365337Y0202619D01*
X0365198Y0202542D01*
X0365057Y0202470D01*
X0364915Y0202400D01*
X0364771Y0202335D01*
X0364625Y0202273D01*
X0364478Y0202215D01*
X0364329Y0202160D01*
X0364179Y0202109D01*
X0364028Y0202062D01*
X0363876Y0202019D01*
X0363723Y0201980D01*
X0363568Y0201944D01*
X0363413Y0201913D01*
X0363257Y0201885D01*
X0363101Y0201861D01*
X0362944Y0201841D01*
X0362786Y0201825D01*
X0362629Y0201813D01*
X0362470Y0201805D01*
X0362312Y0201801D01*
X0362154Y0201801D01*
X0361996Y0201805D01*
X0361837Y0201813D01*
X0361680Y0201825D01*
X0361522Y0201841D01*
X0361365Y0201861D01*
X0361209Y0201885D01*
X0361053Y0201913D01*
X0360898Y0201944D01*
X0360743Y0201980D01*
X0360590Y0202019D01*
X0360438Y0202062D01*
X0360287Y0202109D01*
X0360137Y0202160D01*
X0359988Y0202215D01*
X0359841Y0202273D01*
X0359695Y0202335D01*
X0359551Y0202400D01*
X0359409Y0202470D01*
X0359268Y0202542D01*
X0359129Y0202619D01*
X0358993Y0202698D01*
X0358858Y0202782D01*
X0358725Y0202868D01*
X0358595Y0202958D01*
X0358467Y0203051D01*
X0358341Y0203147D01*
X0358218Y0203247D01*
X0358097Y0203349D01*
X0357979Y0203454D01*
X0357864Y0203563D01*
X0357751Y0203674D01*
X0357641Y0203788D01*
X0357534Y0203905D01*
X0357430Y0204024D01*
X0357329Y0204146D01*
X0357232Y0204271D01*
X0357137Y0204398D01*
X0357046Y0204527D01*
X0356957Y0204658D01*
X0356873Y0204792D01*
X0356791Y0204928D01*
X0356713Y0205065D01*
X0356639Y0205205D01*
X0356568Y0205347D01*
X0356500Y0205490D01*
X0356436Y0205635D01*
X0356376Y0205781D01*
X0356320Y0205929D01*
X0356267Y0206078D01*
X0356218Y0206229D01*
X0356173Y0206381D01*
X0356132Y0206534D01*
X0356094Y0206687D01*
X0356061Y0206842D01*
X0356031Y0206998D01*
X0356005Y0207154D01*
X0355984Y0207311D01*
X0355966Y0207468D01*
X0355952Y0207626D01*
X0355942Y0207784D01*
X0355936Y0207942D01*
X0355934Y0208100D01*
X0355934Y0137982D02*
X0355936Y0138140D01*
X0355942Y0138298D01*
X0355952Y0138456D01*
X0355966Y0138614D01*
X0355984Y0138771D01*
X0356005Y0138928D01*
X0356031Y0139084D01*
X0356061Y0139240D01*
X0356094Y0139395D01*
X0356132Y0139548D01*
X0356173Y0139701D01*
X0356218Y0139853D01*
X0356267Y0140004D01*
X0356320Y0140153D01*
X0356376Y0140301D01*
X0356436Y0140447D01*
X0356500Y0140592D01*
X0356568Y0140735D01*
X0356639Y0140877D01*
X0356713Y0141017D01*
X0356791Y0141154D01*
X0356873Y0141290D01*
X0356957Y0141424D01*
X0357046Y0141555D01*
X0357137Y0141684D01*
X0357232Y0141811D01*
X0357329Y0141936D01*
X0357430Y0142058D01*
X0357534Y0142177D01*
X0357641Y0142294D01*
X0357751Y0142408D01*
X0357864Y0142519D01*
X0357979Y0142628D01*
X0358097Y0142733D01*
X0358218Y0142835D01*
X0358341Y0142935D01*
X0358467Y0143031D01*
X0358595Y0143124D01*
X0358725Y0143214D01*
X0358858Y0143300D01*
X0358993Y0143384D01*
X0359129Y0143463D01*
X0359268Y0143540D01*
X0359409Y0143612D01*
X0359551Y0143682D01*
X0359695Y0143747D01*
X0359841Y0143809D01*
X0359988Y0143867D01*
X0360137Y0143922D01*
X0360287Y0143973D01*
X0360438Y0144020D01*
X0360590Y0144063D01*
X0360743Y0144102D01*
X0360898Y0144138D01*
X0361053Y0144169D01*
X0361209Y0144197D01*
X0361365Y0144221D01*
X0361522Y0144241D01*
X0361680Y0144257D01*
X0361837Y0144269D01*
X0361996Y0144277D01*
X0362154Y0144281D01*
X0362312Y0144281D01*
X0362470Y0144277D01*
X0362629Y0144269D01*
X0362786Y0144257D01*
X0362944Y0144241D01*
X0363101Y0144221D01*
X0363257Y0144197D01*
X0363413Y0144169D01*
X0363568Y0144138D01*
X0363723Y0144102D01*
X0363876Y0144063D01*
X0364028Y0144020D01*
X0364179Y0143973D01*
X0364329Y0143922D01*
X0364478Y0143867D01*
X0364625Y0143809D01*
X0364771Y0143747D01*
X0364915Y0143682D01*
X0365057Y0143612D01*
X0365198Y0143540D01*
X0365337Y0143463D01*
X0365473Y0143384D01*
X0365608Y0143300D01*
X0365741Y0143214D01*
X0365871Y0143124D01*
X0365999Y0143031D01*
X0366125Y0142935D01*
X0366248Y0142835D01*
X0366369Y0142733D01*
X0366487Y0142628D01*
X0366602Y0142519D01*
X0366715Y0142408D01*
X0366825Y0142294D01*
X0366932Y0142177D01*
X0367036Y0142058D01*
X0367137Y0141936D01*
X0367234Y0141811D01*
X0367329Y0141684D01*
X0367420Y0141555D01*
X0367509Y0141424D01*
X0367593Y0141290D01*
X0367675Y0141154D01*
X0367753Y0141017D01*
X0367827Y0140877D01*
X0367898Y0140735D01*
X0367966Y0140592D01*
X0368030Y0140447D01*
X0368090Y0140301D01*
X0368146Y0140153D01*
X0368199Y0140004D01*
X0368248Y0139853D01*
X0368293Y0139701D01*
X0368334Y0139548D01*
X0368372Y0139395D01*
X0368405Y0139240D01*
X0368435Y0139084D01*
X0368461Y0138928D01*
X0368482Y0138771D01*
X0368500Y0138614D01*
X0368514Y0138456D01*
X0368524Y0138298D01*
X0368530Y0138140D01*
X0368532Y0137982D01*
X0368530Y0137824D01*
X0368524Y0137666D01*
X0368514Y0137508D01*
X0368500Y0137350D01*
X0368482Y0137193D01*
X0368461Y0137036D01*
X0368435Y0136880D01*
X0368405Y0136724D01*
X0368372Y0136569D01*
X0368334Y0136416D01*
X0368293Y0136263D01*
X0368248Y0136111D01*
X0368199Y0135960D01*
X0368146Y0135811D01*
X0368090Y0135663D01*
X0368030Y0135517D01*
X0367966Y0135372D01*
X0367898Y0135229D01*
X0367827Y0135087D01*
X0367753Y0134947D01*
X0367675Y0134810D01*
X0367593Y0134674D01*
X0367509Y0134540D01*
X0367420Y0134409D01*
X0367329Y0134280D01*
X0367234Y0134153D01*
X0367137Y0134028D01*
X0367036Y0133906D01*
X0366932Y0133787D01*
X0366825Y0133670D01*
X0366715Y0133556D01*
X0366602Y0133445D01*
X0366487Y0133336D01*
X0366369Y0133231D01*
X0366248Y0133129D01*
X0366125Y0133029D01*
X0365999Y0132933D01*
X0365871Y0132840D01*
X0365741Y0132750D01*
X0365608Y0132664D01*
X0365473Y0132580D01*
X0365337Y0132501D01*
X0365198Y0132424D01*
X0365057Y0132352D01*
X0364915Y0132282D01*
X0364771Y0132217D01*
X0364625Y0132155D01*
X0364478Y0132097D01*
X0364329Y0132042D01*
X0364179Y0131991D01*
X0364028Y0131944D01*
X0363876Y0131901D01*
X0363723Y0131862D01*
X0363568Y0131826D01*
X0363413Y0131795D01*
X0363257Y0131767D01*
X0363101Y0131743D01*
X0362944Y0131723D01*
X0362786Y0131707D01*
X0362629Y0131695D01*
X0362470Y0131687D01*
X0362312Y0131683D01*
X0362154Y0131683D01*
X0361996Y0131687D01*
X0361837Y0131695D01*
X0361680Y0131707D01*
X0361522Y0131723D01*
X0361365Y0131743D01*
X0361209Y0131767D01*
X0361053Y0131795D01*
X0360898Y0131826D01*
X0360743Y0131862D01*
X0360590Y0131901D01*
X0360438Y0131944D01*
X0360287Y0131991D01*
X0360137Y0132042D01*
X0359988Y0132097D01*
X0359841Y0132155D01*
X0359695Y0132217D01*
X0359551Y0132282D01*
X0359409Y0132352D01*
X0359268Y0132424D01*
X0359129Y0132501D01*
X0358993Y0132580D01*
X0358858Y0132664D01*
X0358725Y0132750D01*
X0358595Y0132840D01*
X0358467Y0132933D01*
X0358341Y0133029D01*
X0358218Y0133129D01*
X0358097Y0133231D01*
X0357979Y0133336D01*
X0357864Y0133445D01*
X0357751Y0133556D01*
X0357641Y0133670D01*
X0357534Y0133787D01*
X0357430Y0133906D01*
X0357329Y0134028D01*
X0357232Y0134153D01*
X0357137Y0134280D01*
X0357046Y0134409D01*
X0356957Y0134540D01*
X0356873Y0134674D01*
X0356791Y0134810D01*
X0356713Y0134947D01*
X0356639Y0135087D01*
X0356568Y0135229D01*
X0356500Y0135372D01*
X0356436Y0135517D01*
X0356376Y0135663D01*
X0356320Y0135811D01*
X0356267Y0135960D01*
X0356218Y0136111D01*
X0356173Y0136263D01*
X0356132Y0136416D01*
X0356094Y0136569D01*
X0356061Y0136724D01*
X0356031Y0136880D01*
X0356005Y0137036D01*
X0355984Y0137193D01*
X0355966Y0137350D01*
X0355952Y0137508D01*
X0355942Y0137666D01*
X0355936Y0137824D01*
X0355934Y0137982D01*
X0355934Y0092982D02*
X0355936Y0093140D01*
X0355942Y0093298D01*
X0355952Y0093456D01*
X0355966Y0093614D01*
X0355984Y0093771D01*
X0356005Y0093928D01*
X0356031Y0094084D01*
X0356061Y0094240D01*
X0356094Y0094395D01*
X0356132Y0094548D01*
X0356173Y0094701D01*
X0356218Y0094853D01*
X0356267Y0095004D01*
X0356320Y0095153D01*
X0356376Y0095301D01*
X0356436Y0095447D01*
X0356500Y0095592D01*
X0356568Y0095735D01*
X0356639Y0095877D01*
X0356713Y0096017D01*
X0356791Y0096154D01*
X0356873Y0096290D01*
X0356957Y0096424D01*
X0357046Y0096555D01*
X0357137Y0096684D01*
X0357232Y0096811D01*
X0357329Y0096936D01*
X0357430Y0097058D01*
X0357534Y0097177D01*
X0357641Y0097294D01*
X0357751Y0097408D01*
X0357864Y0097519D01*
X0357979Y0097628D01*
X0358097Y0097733D01*
X0358218Y0097835D01*
X0358341Y0097935D01*
X0358467Y0098031D01*
X0358595Y0098124D01*
X0358725Y0098214D01*
X0358858Y0098300D01*
X0358993Y0098384D01*
X0359129Y0098463D01*
X0359268Y0098540D01*
X0359409Y0098612D01*
X0359551Y0098682D01*
X0359695Y0098747D01*
X0359841Y0098809D01*
X0359988Y0098867D01*
X0360137Y0098922D01*
X0360287Y0098973D01*
X0360438Y0099020D01*
X0360590Y0099063D01*
X0360743Y0099102D01*
X0360898Y0099138D01*
X0361053Y0099169D01*
X0361209Y0099197D01*
X0361365Y0099221D01*
X0361522Y0099241D01*
X0361680Y0099257D01*
X0361837Y0099269D01*
X0361996Y0099277D01*
X0362154Y0099281D01*
X0362312Y0099281D01*
X0362470Y0099277D01*
X0362629Y0099269D01*
X0362786Y0099257D01*
X0362944Y0099241D01*
X0363101Y0099221D01*
X0363257Y0099197D01*
X0363413Y0099169D01*
X0363568Y0099138D01*
X0363723Y0099102D01*
X0363876Y0099063D01*
X0364028Y0099020D01*
X0364179Y0098973D01*
X0364329Y0098922D01*
X0364478Y0098867D01*
X0364625Y0098809D01*
X0364771Y0098747D01*
X0364915Y0098682D01*
X0365057Y0098612D01*
X0365198Y0098540D01*
X0365337Y0098463D01*
X0365473Y0098384D01*
X0365608Y0098300D01*
X0365741Y0098214D01*
X0365871Y0098124D01*
X0365999Y0098031D01*
X0366125Y0097935D01*
X0366248Y0097835D01*
X0366369Y0097733D01*
X0366487Y0097628D01*
X0366602Y0097519D01*
X0366715Y0097408D01*
X0366825Y0097294D01*
X0366932Y0097177D01*
X0367036Y0097058D01*
X0367137Y0096936D01*
X0367234Y0096811D01*
X0367329Y0096684D01*
X0367420Y0096555D01*
X0367509Y0096424D01*
X0367593Y0096290D01*
X0367675Y0096154D01*
X0367753Y0096017D01*
X0367827Y0095877D01*
X0367898Y0095735D01*
X0367966Y0095592D01*
X0368030Y0095447D01*
X0368090Y0095301D01*
X0368146Y0095153D01*
X0368199Y0095004D01*
X0368248Y0094853D01*
X0368293Y0094701D01*
X0368334Y0094548D01*
X0368372Y0094395D01*
X0368405Y0094240D01*
X0368435Y0094084D01*
X0368461Y0093928D01*
X0368482Y0093771D01*
X0368500Y0093614D01*
X0368514Y0093456D01*
X0368524Y0093298D01*
X0368530Y0093140D01*
X0368532Y0092982D01*
X0368530Y0092824D01*
X0368524Y0092666D01*
X0368514Y0092508D01*
X0368500Y0092350D01*
X0368482Y0092193D01*
X0368461Y0092036D01*
X0368435Y0091880D01*
X0368405Y0091724D01*
X0368372Y0091569D01*
X0368334Y0091416D01*
X0368293Y0091263D01*
X0368248Y0091111D01*
X0368199Y0090960D01*
X0368146Y0090811D01*
X0368090Y0090663D01*
X0368030Y0090517D01*
X0367966Y0090372D01*
X0367898Y0090229D01*
X0367827Y0090087D01*
X0367753Y0089947D01*
X0367675Y0089810D01*
X0367593Y0089674D01*
X0367509Y0089540D01*
X0367420Y0089409D01*
X0367329Y0089280D01*
X0367234Y0089153D01*
X0367137Y0089028D01*
X0367036Y0088906D01*
X0366932Y0088787D01*
X0366825Y0088670D01*
X0366715Y0088556D01*
X0366602Y0088445D01*
X0366487Y0088336D01*
X0366369Y0088231D01*
X0366248Y0088129D01*
X0366125Y0088029D01*
X0365999Y0087933D01*
X0365871Y0087840D01*
X0365741Y0087750D01*
X0365608Y0087664D01*
X0365473Y0087580D01*
X0365337Y0087501D01*
X0365198Y0087424D01*
X0365057Y0087352D01*
X0364915Y0087282D01*
X0364771Y0087217D01*
X0364625Y0087155D01*
X0364478Y0087097D01*
X0364329Y0087042D01*
X0364179Y0086991D01*
X0364028Y0086944D01*
X0363876Y0086901D01*
X0363723Y0086862D01*
X0363568Y0086826D01*
X0363413Y0086795D01*
X0363257Y0086767D01*
X0363101Y0086743D01*
X0362944Y0086723D01*
X0362786Y0086707D01*
X0362629Y0086695D01*
X0362470Y0086687D01*
X0362312Y0086683D01*
X0362154Y0086683D01*
X0361996Y0086687D01*
X0361837Y0086695D01*
X0361680Y0086707D01*
X0361522Y0086723D01*
X0361365Y0086743D01*
X0361209Y0086767D01*
X0361053Y0086795D01*
X0360898Y0086826D01*
X0360743Y0086862D01*
X0360590Y0086901D01*
X0360438Y0086944D01*
X0360287Y0086991D01*
X0360137Y0087042D01*
X0359988Y0087097D01*
X0359841Y0087155D01*
X0359695Y0087217D01*
X0359551Y0087282D01*
X0359409Y0087352D01*
X0359268Y0087424D01*
X0359129Y0087501D01*
X0358993Y0087580D01*
X0358858Y0087664D01*
X0358725Y0087750D01*
X0358595Y0087840D01*
X0358467Y0087933D01*
X0358341Y0088029D01*
X0358218Y0088129D01*
X0358097Y0088231D01*
X0357979Y0088336D01*
X0357864Y0088445D01*
X0357751Y0088556D01*
X0357641Y0088670D01*
X0357534Y0088787D01*
X0357430Y0088906D01*
X0357329Y0089028D01*
X0357232Y0089153D01*
X0357137Y0089280D01*
X0357046Y0089409D01*
X0356957Y0089540D01*
X0356873Y0089674D01*
X0356791Y0089810D01*
X0356713Y0089947D01*
X0356639Y0090087D01*
X0356568Y0090229D01*
X0356500Y0090372D01*
X0356436Y0090517D01*
X0356376Y0090663D01*
X0356320Y0090811D01*
X0356267Y0090960D01*
X0356218Y0091111D01*
X0356173Y0091263D01*
X0356132Y0091416D01*
X0356094Y0091569D01*
X0356061Y0091724D01*
X0356031Y0091880D01*
X0356005Y0092036D01*
X0355984Y0092193D01*
X0355966Y0092350D01*
X0355952Y0092508D01*
X0355942Y0092666D01*
X0355936Y0092824D01*
X0355934Y0092982D01*
X0351599Y0031151D02*
X0351601Y0031312D01*
X0351607Y0031472D01*
X0351617Y0031633D01*
X0351631Y0031793D01*
X0351649Y0031953D01*
X0351670Y0032112D01*
X0351696Y0032271D01*
X0351726Y0032429D01*
X0351759Y0032586D01*
X0351797Y0032743D01*
X0351838Y0032898D01*
X0351883Y0033052D01*
X0351932Y0033205D01*
X0351985Y0033357D01*
X0352041Y0033508D01*
X0352102Y0033657D01*
X0352165Y0033805D01*
X0352233Y0033951D01*
X0352304Y0034095D01*
X0352378Y0034237D01*
X0352456Y0034378D01*
X0352538Y0034516D01*
X0352623Y0034653D01*
X0352711Y0034787D01*
X0352803Y0034919D01*
X0352898Y0035049D01*
X0352996Y0035177D01*
X0353097Y0035302D01*
X0353201Y0035424D01*
X0353308Y0035544D01*
X0353418Y0035661D01*
X0353531Y0035776D01*
X0353647Y0035887D01*
X0353766Y0035996D01*
X0353887Y0036101D01*
X0354011Y0036204D01*
X0354137Y0036304D01*
X0354265Y0036400D01*
X0354396Y0036493D01*
X0354530Y0036583D01*
X0354665Y0036670D01*
X0354803Y0036753D01*
X0354942Y0036833D01*
X0355084Y0036909D01*
X0355227Y0036982D01*
X0355372Y0037051D01*
X0355519Y0037117D01*
X0355667Y0037179D01*
X0355817Y0037237D01*
X0355968Y0037292D01*
X0356121Y0037343D01*
X0356275Y0037390D01*
X0356430Y0037433D01*
X0356586Y0037472D01*
X0356742Y0037508D01*
X0356900Y0037539D01*
X0357058Y0037567D01*
X0357217Y0037591D01*
X0357377Y0037611D01*
X0357537Y0037627D01*
X0357697Y0037639D01*
X0357858Y0037647D01*
X0358019Y0037651D01*
X0358179Y0037651D01*
X0358340Y0037647D01*
X0358501Y0037639D01*
X0358661Y0037627D01*
X0358821Y0037611D01*
X0358981Y0037591D01*
X0359140Y0037567D01*
X0359298Y0037539D01*
X0359456Y0037508D01*
X0359612Y0037472D01*
X0359768Y0037433D01*
X0359923Y0037390D01*
X0360077Y0037343D01*
X0360230Y0037292D01*
X0360381Y0037237D01*
X0360531Y0037179D01*
X0360679Y0037117D01*
X0360826Y0037051D01*
X0360971Y0036982D01*
X0361114Y0036909D01*
X0361256Y0036833D01*
X0361395Y0036753D01*
X0361533Y0036670D01*
X0361668Y0036583D01*
X0361802Y0036493D01*
X0361933Y0036400D01*
X0362061Y0036304D01*
X0362187Y0036204D01*
X0362311Y0036101D01*
X0362432Y0035996D01*
X0362551Y0035887D01*
X0362667Y0035776D01*
X0362780Y0035661D01*
X0362890Y0035544D01*
X0362997Y0035424D01*
X0363101Y0035302D01*
X0363202Y0035177D01*
X0363300Y0035049D01*
X0363395Y0034919D01*
X0363487Y0034787D01*
X0363575Y0034653D01*
X0363660Y0034516D01*
X0363742Y0034378D01*
X0363820Y0034237D01*
X0363894Y0034095D01*
X0363965Y0033951D01*
X0364033Y0033805D01*
X0364096Y0033657D01*
X0364157Y0033508D01*
X0364213Y0033357D01*
X0364266Y0033205D01*
X0364315Y0033052D01*
X0364360Y0032898D01*
X0364401Y0032743D01*
X0364439Y0032586D01*
X0364472Y0032429D01*
X0364502Y0032271D01*
X0364528Y0032112D01*
X0364549Y0031953D01*
X0364567Y0031793D01*
X0364581Y0031633D01*
X0364591Y0031472D01*
X0364597Y0031312D01*
X0364599Y0031151D01*
X0364597Y0030990D01*
X0364591Y0030830D01*
X0364581Y0030669D01*
X0364567Y0030509D01*
X0364549Y0030349D01*
X0364528Y0030190D01*
X0364502Y0030031D01*
X0364472Y0029873D01*
X0364439Y0029716D01*
X0364401Y0029559D01*
X0364360Y0029404D01*
X0364315Y0029250D01*
X0364266Y0029097D01*
X0364213Y0028945D01*
X0364157Y0028794D01*
X0364096Y0028645D01*
X0364033Y0028497D01*
X0363965Y0028351D01*
X0363894Y0028207D01*
X0363820Y0028065D01*
X0363742Y0027924D01*
X0363660Y0027786D01*
X0363575Y0027649D01*
X0363487Y0027515D01*
X0363395Y0027383D01*
X0363300Y0027253D01*
X0363202Y0027125D01*
X0363101Y0027000D01*
X0362997Y0026878D01*
X0362890Y0026758D01*
X0362780Y0026641D01*
X0362667Y0026526D01*
X0362551Y0026415D01*
X0362432Y0026306D01*
X0362311Y0026201D01*
X0362187Y0026098D01*
X0362061Y0025998D01*
X0361933Y0025902D01*
X0361802Y0025809D01*
X0361668Y0025719D01*
X0361533Y0025632D01*
X0361395Y0025549D01*
X0361256Y0025469D01*
X0361114Y0025393D01*
X0360971Y0025320D01*
X0360826Y0025251D01*
X0360679Y0025185D01*
X0360531Y0025123D01*
X0360381Y0025065D01*
X0360230Y0025010D01*
X0360077Y0024959D01*
X0359923Y0024912D01*
X0359768Y0024869D01*
X0359612Y0024830D01*
X0359456Y0024794D01*
X0359298Y0024763D01*
X0359140Y0024735D01*
X0358981Y0024711D01*
X0358821Y0024691D01*
X0358661Y0024675D01*
X0358501Y0024663D01*
X0358340Y0024655D01*
X0358179Y0024651D01*
X0358019Y0024651D01*
X0357858Y0024655D01*
X0357697Y0024663D01*
X0357537Y0024675D01*
X0357377Y0024691D01*
X0357217Y0024711D01*
X0357058Y0024735D01*
X0356900Y0024763D01*
X0356742Y0024794D01*
X0356586Y0024830D01*
X0356430Y0024869D01*
X0356275Y0024912D01*
X0356121Y0024959D01*
X0355968Y0025010D01*
X0355817Y0025065D01*
X0355667Y0025123D01*
X0355519Y0025185D01*
X0355372Y0025251D01*
X0355227Y0025320D01*
X0355084Y0025393D01*
X0354942Y0025469D01*
X0354803Y0025549D01*
X0354665Y0025632D01*
X0354530Y0025719D01*
X0354396Y0025809D01*
X0354265Y0025902D01*
X0354137Y0025998D01*
X0354011Y0026098D01*
X0353887Y0026201D01*
X0353766Y0026306D01*
X0353647Y0026415D01*
X0353531Y0026526D01*
X0353418Y0026641D01*
X0353308Y0026758D01*
X0353201Y0026878D01*
X0353097Y0027000D01*
X0352996Y0027125D01*
X0352898Y0027253D01*
X0352803Y0027383D01*
X0352711Y0027515D01*
X0352623Y0027649D01*
X0352538Y0027786D01*
X0352456Y0027924D01*
X0352378Y0028065D01*
X0352304Y0028207D01*
X0352233Y0028351D01*
X0352165Y0028497D01*
X0352102Y0028645D01*
X0352041Y0028794D01*
X0351985Y0028945D01*
X0351932Y0029097D01*
X0351883Y0029250D01*
X0351838Y0029404D01*
X0351797Y0029559D01*
X0351759Y0029716D01*
X0351726Y0029873D01*
X0351696Y0030031D01*
X0351670Y0030190D01*
X0351649Y0030349D01*
X0351631Y0030509D01*
X0351617Y0030669D01*
X0351607Y0030830D01*
X0351601Y0030990D01*
X0351599Y0031151D01*
D11*
X0337233Y0097982D03*
X0327233Y0102982D03*
X0327233Y0112982D03*
X0327233Y0122982D03*
X0337233Y0127982D03*
X0337233Y0117982D03*
X0337233Y0107982D03*
X0327233Y0132982D03*
X0337233Y0213100D03*
X0337233Y0223100D03*
X0337233Y0233100D03*
X0337233Y0243100D03*
X0327233Y0248100D03*
X0327233Y0238100D03*
X0327233Y0228100D03*
X0327233Y0218100D03*
D12*
X0178572Y0154773D03*
X0173572Y0154773D03*
D13*
X0015973Y0157726D03*
X0015973Y0143946D03*
X0015973Y0130167D03*
X0015973Y0116387D03*
X0015973Y0102608D03*
X0015973Y0088828D03*
X0015973Y0075049D03*
X0015973Y0061269D03*
X0147666Y0026427D03*
X0161446Y0026427D03*
X0175225Y0026427D03*
X0189005Y0026427D03*
X0015973Y0171505D03*
X0015973Y0185285D03*
X0015973Y0199064D03*
X0015973Y0212844D03*
X0015973Y0226623D03*
X0015973Y0240403D03*
X0015973Y0254182D03*
X0015973Y0267962D03*
D14*
X0223375Y0250167D03*
X0223375Y0240167D03*
X0223375Y0230167D03*
X0223375Y0220167D03*
X0223375Y0210167D03*
X0223375Y0200167D03*
X0223375Y0190167D03*
X0223375Y0180167D03*
X0223375Y0170167D03*
X0223375Y0160167D03*
X0223375Y0150167D03*
X0223375Y0140167D03*
X0223375Y0130167D03*
X0223375Y0120167D03*
X0223375Y0110167D03*
X0223375Y0100167D03*
X0223375Y0090167D03*
X0223375Y0080167D03*
X0223375Y0070167D03*
X0223375Y0060167D03*
X0223375Y0050167D03*
X0223375Y0040167D03*
X0223375Y0030167D03*
X0223375Y0020167D03*
X0283375Y0020167D03*
X0283375Y0030167D03*
X0283375Y0040167D03*
X0283375Y0050167D03*
X0283375Y0060167D03*
X0283375Y0070167D03*
X0283375Y0080167D03*
X0283375Y0090167D03*
X0283375Y0100167D03*
X0283375Y0110167D03*
X0283375Y0120167D03*
X0283375Y0130167D03*
X0283375Y0140167D03*
X0283375Y0150167D03*
X0283375Y0160167D03*
X0283375Y0170167D03*
X0283375Y0180167D03*
X0283375Y0190167D03*
X0283375Y0200167D03*
X0283375Y0210167D03*
X0283375Y0220167D03*
X0283375Y0230167D03*
X0283375Y0240167D03*
X0283375Y0250167D03*
D15*
X0202666Y0283001D03*
X0192666Y0283001D03*
X0182666Y0283001D03*
X0162666Y0283001D03*
X0152666Y0283001D03*
X0142666Y0283001D03*
X0132666Y0283001D03*
D16*
X0139202Y0262844D03*
X0162627Y0263041D03*
X0127587Y0242962D03*
X0119123Y0238828D03*
X0102981Y0238631D03*
X0089005Y0239222D03*
X0056918Y0240206D03*
X0059477Y0221899D03*
X0039202Y0215600D03*
X0039202Y0200639D03*
X0038217Y0181348D03*
X0056131Y0175442D03*
X0039989Y0163434D03*
X0039005Y0151820D03*
X0040776Y0136663D03*
X0024044Y0124852D03*
X0038808Y0118552D03*
X0056131Y0112844D03*
X0039005Y0101230D03*
X0039005Y0089615D03*
X0023060Y0095718D03*
X0022863Y0067568D03*
X0040580Y0055364D03*
X0057115Y0050049D03*
X0059477Y0033316D03*
X0039398Y0026230D03*
X0087430Y0052017D03*
X0102587Y0051230D03*
X0120107Y0044537D03*
X0129359Y0064222D03*
X0115580Y0073867D03*
X0089989Y0080560D03*
X0059871Y0096112D03*
X0087824Y0113631D03*
X0102391Y0112253D03*
X0126209Y0130757D03*
X0118335Y0132923D03*
X0119320Y0147489D03*
X0123454Y0149655D03*
X0145698Y0170127D03*
X0157115Y0169930D03*
X0150422Y0156741D03*
X0123454Y0183316D03*
X0102587Y0175639D03*
X0088808Y0177017D03*
X0059674Y0158513D03*
X0088217Y0143356D03*
X0130540Y0103198D03*
X0142548Y0113434D03*
X0164005Y0108513D03*
X0187233Y0128986D03*
X0195698Y0114025D03*
X0193729Y0104970D03*
X0193926Y0097489D03*
X0214792Y0109694D03*
X0198847Y0150245D03*
X0198847Y0168159D03*
X0179950Y0182923D03*
X0166564Y0192962D03*
X0157115Y0192962D03*
X0145894Y0192962D03*
X0152587Y0233907D03*
X0089005Y0206545D03*
X0037627Y0245127D03*
X0062824Y0275442D03*
X0089202Y0269734D03*
X0218926Y0275245D03*
X0251406Y0289615D03*
X0342351Y0196505D03*
X0331918Y0190600D03*
X0310658Y0190403D03*
X0310461Y0173277D03*
X0310461Y0163041D03*
X0319517Y0154576D03*
X0343335Y0083119D03*
X0331721Y0073277D03*
X0310855Y0073080D03*
X0302587Y0064615D03*
X0302784Y0052017D03*
X0317745Y0039812D03*
X0209280Y0020127D03*
X0142745Y0072686D03*
X0142548Y0083907D03*
X0023454Y0152214D03*
D17*
X0026525Y0152199D02*
X0121654Y0152199D01*
X0121714Y0152259D02*
X0120850Y0151395D01*
X0120420Y0150358D01*
X0119931Y0150561D01*
X0118709Y0150561D01*
X0117580Y0150094D01*
X0116716Y0149229D01*
X0116248Y0148100D01*
X0116248Y0146878D01*
X0116716Y0145750D01*
X0117580Y0144885D01*
X0118709Y0144418D01*
X0119931Y0144418D01*
X0121060Y0144885D01*
X0121924Y0145750D01*
X0122353Y0146786D01*
X0122843Y0146583D01*
X0124065Y0146583D01*
X0125193Y0147051D01*
X0126058Y0147915D01*
X0126525Y0149044D01*
X0126525Y0150266D01*
X0126058Y0151395D01*
X0125193Y0152259D01*
X0124065Y0152726D01*
X0122843Y0152726D01*
X0121714Y0152259D01*
X0120769Y0151200D02*
X0026358Y0151200D01*
X0026525Y0151603D02*
X0026058Y0150474D01*
X0025193Y0149610D01*
X0024065Y0149142D01*
X0022843Y0149142D01*
X0021714Y0149610D01*
X0020850Y0150474D01*
X0020382Y0151603D01*
X0020382Y0152825D01*
X0020850Y0153954D01*
X0021714Y0154818D01*
X0022843Y0155286D01*
X0024065Y0155286D01*
X0025193Y0154818D01*
X0026058Y0153954D01*
X0026525Y0152825D01*
X0026525Y0151603D01*
X0025786Y0150202D02*
X0117841Y0150202D01*
X0116705Y0149203D02*
X0024212Y0149203D01*
X0022695Y0149203D02*
X0003300Y0149203D01*
X0003300Y0148205D02*
X0013598Y0148205D01*
X0013230Y0148052D02*
X0011867Y0146690D01*
X0011130Y0144910D01*
X0011130Y0142983D01*
X0011867Y0141203D01*
X0013230Y0139840D01*
X0015010Y0139103D01*
X0016937Y0139103D01*
X0018717Y0139840D01*
X0020079Y0141203D01*
X0020817Y0142983D01*
X0020817Y0144910D01*
X0020079Y0146690D01*
X0018717Y0148052D01*
X0016937Y0148789D01*
X0015010Y0148789D01*
X0013230Y0148052D01*
X0012384Y0147206D02*
X0003300Y0147206D01*
X0003300Y0146208D02*
X0011668Y0146208D01*
X0011254Y0145209D02*
X0003300Y0145209D01*
X0003300Y0144211D02*
X0011130Y0144211D01*
X0011130Y0143212D02*
X0003300Y0143212D01*
X0003300Y0142214D02*
X0011448Y0142214D01*
X0011862Y0141215D02*
X0003300Y0141215D01*
X0003300Y0140217D02*
X0012853Y0140217D01*
X0014731Y0139218D02*
X0003300Y0139218D01*
X0003300Y0138220D02*
X0038097Y0138220D01*
X0038172Y0138403D02*
X0037705Y0137274D01*
X0037705Y0136052D01*
X0038172Y0134923D01*
X0039036Y0134059D01*
X0040165Y0133591D01*
X0041387Y0133591D01*
X0042516Y0134059D01*
X0043380Y0134923D01*
X0043848Y0136052D01*
X0043848Y0137274D01*
X0043380Y0138403D01*
X0042516Y0139267D01*
X0041387Y0139734D01*
X0040165Y0139734D01*
X0039036Y0139267D01*
X0038172Y0138403D01*
X0038988Y0139218D02*
X0017215Y0139218D01*
X0019093Y0140217D02*
X0184871Y0140217D01*
X0184871Y0141215D02*
X0020084Y0141215D01*
X0020498Y0142214D02*
X0184871Y0142214D01*
X0184871Y0143212D02*
X0020817Y0143212D01*
X0020817Y0144211D02*
X0184871Y0144211D01*
X0184871Y0145209D02*
X0121384Y0145209D01*
X0122114Y0146208D02*
X0184871Y0146208D01*
X0184871Y0147206D02*
X0125349Y0147206D01*
X0126178Y0148205D02*
X0184871Y0148205D01*
X0184871Y0149203D02*
X0126525Y0149203D01*
X0126525Y0150202D02*
X0184871Y0150202D01*
X0184871Y0151200D02*
X0126138Y0151200D01*
X0125253Y0152199D02*
X0171518Y0152199D01*
X0171480Y0152224D02*
X0172017Y0151865D01*
X0172615Y0151618D01*
X0173248Y0151492D01*
X0173481Y0151492D01*
X0173481Y0154682D01*
X0173662Y0154682D01*
X0173662Y0151492D01*
X0173895Y0151492D01*
X0174529Y0151618D01*
X0175126Y0151865D01*
X0175663Y0152224D01*
X0176120Y0152681D01*
X0176195Y0152793D01*
X0176826Y0152161D01*
X0177959Y0151692D01*
X0179185Y0151692D01*
X0180317Y0152161D01*
X0181184Y0153028D01*
X0181653Y0154160D01*
X0181653Y0155386D01*
X0181184Y0156518D01*
X0180317Y0157385D01*
X0179185Y0157854D01*
X0177959Y0157854D01*
X0176826Y0157385D01*
X0176195Y0156753D01*
X0176120Y0156865D01*
X0175663Y0157322D01*
X0175126Y0157681D01*
X0174529Y0157928D01*
X0173895Y0158054D01*
X0173662Y0158054D01*
X0173662Y0154864D01*
X0173481Y0154864D01*
X0173481Y0158054D01*
X0173248Y0158054D01*
X0172615Y0157928D01*
X0172017Y0157681D01*
X0171480Y0157322D01*
X0171023Y0156865D01*
X0170664Y0156327D01*
X0170417Y0155730D01*
X0170291Y0155096D01*
X0170291Y0154864D01*
X0173481Y0154864D01*
X0173481Y0154682D01*
X0170291Y0154682D01*
X0170291Y0154450D01*
X0170417Y0153816D01*
X0170664Y0153219D01*
X0171023Y0152681D01*
X0171480Y0152224D01*
X0170678Y0153197D02*
X0026371Y0153197D01*
X0025815Y0154196D02*
X0170341Y0154196D01*
X0170310Y0155194D02*
X0024284Y0155194D01*
X0022623Y0155194D02*
X0020344Y0155194D01*
X0020287Y0155082D02*
X0020647Y0155790D01*
X0020892Y0156545D01*
X0021000Y0157226D01*
X0016473Y0157226D01*
X0016473Y0158226D01*
X0015473Y0158226D01*
X0015473Y0162753D01*
X0014792Y0162645D01*
X0014037Y0162400D01*
X0013330Y0162039D01*
X0012688Y0161573D01*
X0012126Y0161011D01*
X0011660Y0160369D01*
X0011299Y0159662D01*
X0011054Y0158907D01*
X0010946Y0158226D01*
X0015473Y0158226D01*
X0015473Y0157226D01*
X0010946Y0157226D01*
X0011054Y0156545D01*
X0011299Y0155790D01*
X0011660Y0155082D01*
X0012126Y0154440D01*
X0012688Y0153879D01*
X0013330Y0153412D01*
X0014037Y0153052D01*
X0014792Y0152807D01*
X0015473Y0152699D01*
X0015473Y0157226D01*
X0016473Y0157226D01*
X0016473Y0152699D01*
X0017154Y0152807D01*
X0017909Y0153052D01*
X0018616Y0153412D01*
X0019259Y0153879D01*
X0019820Y0154440D01*
X0020287Y0155082D01*
X0019576Y0154196D02*
X0021092Y0154196D01*
X0020536Y0153197D02*
X0018195Y0153197D01*
X0016473Y0153197D02*
X0015473Y0153197D01*
X0015473Y0154196D02*
X0016473Y0154196D01*
X0016473Y0155194D02*
X0015473Y0155194D01*
X0015473Y0156193D02*
X0016473Y0156193D01*
X0016473Y0157191D02*
X0015473Y0157191D01*
X0015473Y0158190D02*
X0003300Y0158190D01*
X0003300Y0157191D02*
X0010952Y0157191D01*
X0011168Y0156193D02*
X0003300Y0156193D01*
X0003300Y0155194D02*
X0011603Y0155194D01*
X0012371Y0154196D02*
X0003300Y0154196D01*
X0003300Y0153197D02*
X0013752Y0153197D01*
X0016473Y0158190D02*
X0184871Y0158190D01*
X0184871Y0157191D02*
X0180510Y0157191D01*
X0180663Y0157322D02*
X0180126Y0157681D01*
X0179633Y0157885D01*
X0190776Y0157726D01*
X0190776Y0243749D01*
X0130659Y0243228D01*
X0130659Y0243573D01*
X0130191Y0244702D01*
X0129327Y0245566D01*
X0128198Y0246034D01*
X0126976Y0246034D01*
X0125847Y0245566D01*
X0124983Y0244702D01*
X0124516Y0243573D01*
X0124516Y0243175D01*
X0122666Y0243159D01*
X0122666Y0313115D01*
X0374316Y0313115D01*
X0374316Y0016903D01*
X0286263Y0016903D01*
X0286693Y0017333D01*
X0287095Y0017887D01*
X0287406Y0018497D01*
X0287618Y0019148D01*
X0287708Y0019717D01*
X0283825Y0019717D01*
X0283825Y0020617D01*
X0282925Y0020617D01*
X0282925Y0024500D01*
X0282356Y0024410D01*
X0281705Y0024198D01*
X0281095Y0023887D01*
X0280541Y0023485D01*
X0280057Y0023000D01*
X0279654Y0022447D01*
X0279344Y0021836D01*
X0279132Y0021185D01*
X0279042Y0020617D01*
X0282925Y0020617D01*
X0282925Y0019717D01*
X0279042Y0019717D01*
X0279132Y0019148D01*
X0279344Y0018497D01*
X0279654Y0017887D01*
X0280057Y0017333D01*
X0280487Y0016903D01*
X0225980Y0016903D01*
X0226893Y0017816D01*
X0227525Y0019341D01*
X0227525Y0020992D01*
X0226893Y0022517D01*
X0225726Y0023685D01*
X0224200Y0024317D01*
X0222549Y0024317D01*
X0221024Y0023685D01*
X0219857Y0022517D01*
X0219225Y0020992D01*
X0219225Y0019341D01*
X0219857Y0017816D01*
X0220770Y0016903D01*
X0139783Y0016903D01*
X0139595Y0047686D01*
X0190776Y0047686D01*
X0190776Y0105954D01*
X0176997Y0105954D01*
X0176997Y0151879D01*
X0177017Y0151865D01*
X0177615Y0151618D01*
X0178248Y0151492D01*
X0178481Y0151492D01*
X0178481Y0154682D01*
X0178662Y0154682D01*
X0178662Y0151492D01*
X0178895Y0151492D01*
X0179529Y0151618D01*
X0180126Y0151865D01*
X0180663Y0152224D01*
X0181120Y0152681D01*
X0181479Y0153219D01*
X0181727Y0153816D01*
X0181853Y0154450D01*
X0181853Y0154682D01*
X0178662Y0154682D01*
X0178662Y0154864D01*
X0181853Y0154864D01*
X0181853Y0155096D01*
X0181727Y0155730D01*
X0181479Y0156327D01*
X0181120Y0156865D01*
X0180663Y0157322D01*
X0180793Y0157191D02*
X0220198Y0157191D01*
X0220057Y0157333D02*
X0220541Y0156849D01*
X0221095Y0156446D01*
X0221705Y0156135D01*
X0222356Y0155924D01*
X0222925Y0155834D01*
X0222925Y0159717D01*
X0219042Y0159717D01*
X0219132Y0159148D01*
X0219344Y0158497D01*
X0219654Y0157887D01*
X0220057Y0157333D01*
X0219500Y0158190D02*
X0190776Y0158190D01*
X0190776Y0159189D02*
X0219125Y0159189D01*
X0219042Y0160617D02*
X0222925Y0160617D01*
X0222925Y0164500D01*
X0222356Y0164410D01*
X0221705Y0164198D01*
X0221095Y0163887D01*
X0220541Y0163485D01*
X0220057Y0163000D01*
X0219654Y0162447D01*
X0219344Y0161836D01*
X0219132Y0161185D01*
X0219042Y0160617D01*
X0219132Y0161186D02*
X0190776Y0161186D01*
X0190776Y0162184D02*
X0219521Y0162184D01*
X0220239Y0163183D02*
X0190776Y0163183D01*
X0190776Y0164181D02*
X0221672Y0164181D01*
X0222925Y0164181D02*
X0223825Y0164181D01*
X0223825Y0164500D02*
X0224393Y0164410D01*
X0225045Y0164198D01*
X0225655Y0163887D01*
X0226209Y0163485D01*
X0226693Y0163000D01*
X0227095Y0162447D01*
X0227406Y0161836D01*
X0227618Y0161185D01*
X0227708Y0160617D01*
X0223825Y0160617D01*
X0222925Y0160617D01*
X0222925Y0159717D01*
X0223825Y0159717D01*
X0223825Y0160617D01*
X0223825Y0164500D01*
X0225078Y0164181D02*
X0282222Y0164181D01*
X0282549Y0164317D02*
X0281024Y0163685D01*
X0279857Y0162517D01*
X0279225Y0160992D01*
X0279225Y0159341D01*
X0279857Y0157816D01*
X0281024Y0156648D01*
X0282549Y0156017D01*
X0284200Y0156017D01*
X0285726Y0156648D01*
X0286893Y0157816D01*
X0287525Y0159341D01*
X0287525Y0160992D01*
X0286893Y0162517D01*
X0285726Y0163685D01*
X0284200Y0164317D01*
X0282549Y0164317D01*
X0282549Y0166017D02*
X0284200Y0166017D01*
X0285726Y0166648D01*
X0286893Y0167816D01*
X0287525Y0169341D01*
X0287525Y0170992D01*
X0286893Y0172517D01*
X0285726Y0173685D01*
X0284200Y0174317D01*
X0282549Y0174317D01*
X0281024Y0173685D01*
X0279857Y0172517D01*
X0279225Y0170992D01*
X0279225Y0169341D01*
X0279857Y0167816D01*
X0281024Y0166648D01*
X0282549Y0166017D01*
X0282160Y0166178D02*
X0224590Y0166178D01*
X0224200Y0166017D02*
X0225726Y0166648D01*
X0226893Y0167816D01*
X0227525Y0169341D01*
X0227525Y0170992D01*
X0226893Y0172517D01*
X0225726Y0173685D01*
X0224200Y0174317D01*
X0222549Y0174317D01*
X0221024Y0173685D01*
X0219857Y0172517D01*
X0219225Y0170992D01*
X0219225Y0169341D01*
X0219857Y0167816D01*
X0221024Y0166648D01*
X0222549Y0166017D01*
X0224200Y0166017D01*
X0222160Y0166178D02*
X0201211Y0166178D01*
X0201451Y0166419D02*
X0201919Y0167548D01*
X0201919Y0168770D01*
X0201451Y0169899D01*
X0200587Y0170763D01*
X0199458Y0171230D01*
X0198236Y0171230D01*
X0197107Y0170763D01*
X0196243Y0169899D01*
X0195776Y0168770D01*
X0195776Y0167548D01*
X0196243Y0166419D01*
X0197107Y0165555D01*
X0198236Y0165087D01*
X0199458Y0165087D01*
X0200587Y0165555D01*
X0201451Y0166419D01*
X0201765Y0167177D02*
X0220496Y0167177D01*
X0219708Y0168175D02*
X0201919Y0168175D01*
X0201752Y0169174D02*
X0219294Y0169174D01*
X0219225Y0170172D02*
X0201178Y0170172D01*
X0199603Y0171171D02*
X0219299Y0171171D01*
X0219712Y0172169D02*
X0190776Y0172169D01*
X0190776Y0171171D02*
X0198092Y0171171D01*
X0196517Y0170172D02*
X0190776Y0170172D01*
X0190776Y0169174D02*
X0195943Y0169174D01*
X0195776Y0168175D02*
X0190776Y0168175D01*
X0190776Y0167177D02*
X0195929Y0167177D01*
X0196484Y0166178D02*
X0190776Y0166178D01*
X0190776Y0165180D02*
X0198013Y0165180D01*
X0199681Y0165180D02*
X0308256Y0165180D01*
X0307857Y0164781D02*
X0307390Y0163652D01*
X0307390Y0162430D01*
X0307857Y0161301D01*
X0308721Y0160437D01*
X0309850Y0159969D01*
X0311072Y0159969D01*
X0312201Y0160437D01*
X0313065Y0161301D01*
X0313533Y0162430D01*
X0313533Y0163652D01*
X0313065Y0164781D01*
X0312201Y0165645D01*
X0311072Y0166112D01*
X0309850Y0166112D01*
X0308721Y0165645D01*
X0307857Y0164781D01*
X0307609Y0164181D02*
X0284528Y0164181D01*
X0286228Y0163183D02*
X0307390Y0163183D01*
X0307491Y0162184D02*
X0287031Y0162184D01*
X0287445Y0161186D02*
X0307973Y0161186D01*
X0309324Y0160187D02*
X0287525Y0160187D01*
X0287462Y0159189D02*
X0374316Y0159189D01*
X0374316Y0160187D02*
X0311599Y0160187D01*
X0312950Y0161186D02*
X0374316Y0161186D01*
X0374316Y0162184D02*
X0313431Y0162184D01*
X0313533Y0163183D02*
X0374316Y0163183D01*
X0374316Y0164181D02*
X0313314Y0164181D01*
X0312666Y0165180D02*
X0374316Y0165180D01*
X0374316Y0166178D02*
X0284590Y0166178D01*
X0286254Y0167177D02*
X0374316Y0167177D01*
X0374316Y0168175D02*
X0287042Y0168175D01*
X0287455Y0169174D02*
X0374316Y0169174D01*
X0374316Y0170172D02*
X0287525Y0170172D01*
X0287451Y0171171D02*
X0308224Y0171171D01*
X0307857Y0171537D02*
X0308721Y0170673D01*
X0309850Y0170205D01*
X0311072Y0170205D01*
X0312201Y0170673D01*
X0313065Y0171537D01*
X0313533Y0172666D01*
X0313533Y0173888D01*
X0313065Y0175017D01*
X0312201Y0175881D01*
X0311072Y0176349D01*
X0309850Y0176349D01*
X0308721Y0175881D01*
X0307857Y0175017D01*
X0307390Y0173888D01*
X0307390Y0172666D01*
X0307857Y0171537D01*
X0307596Y0172169D02*
X0287037Y0172169D01*
X0286243Y0173168D02*
X0307390Y0173168D01*
X0307505Y0174166D02*
X0284564Y0174166D01*
X0284200Y0176017D02*
X0285726Y0176648D01*
X0286893Y0177816D01*
X0287525Y0179341D01*
X0287525Y0180992D01*
X0286893Y0182517D01*
X0285726Y0183685D01*
X0284200Y0184317D01*
X0282549Y0184317D01*
X0281024Y0183685D01*
X0279857Y0182517D01*
X0279225Y0180992D01*
X0279225Y0179341D01*
X0279857Y0177816D01*
X0281024Y0176648D01*
X0282549Y0176017D01*
X0284200Y0176017D01*
X0284554Y0176163D02*
X0309403Y0176163D01*
X0308005Y0175165D02*
X0190776Y0175165D01*
X0190776Y0176163D02*
X0222196Y0176163D01*
X0222549Y0176017D02*
X0224200Y0176017D01*
X0225726Y0176648D01*
X0226893Y0177816D01*
X0227525Y0179341D01*
X0227525Y0180992D01*
X0226893Y0182517D01*
X0225726Y0183685D01*
X0224200Y0184317D01*
X0222549Y0184317D01*
X0221024Y0183685D01*
X0219857Y0182517D01*
X0219225Y0180992D01*
X0219225Y0179341D01*
X0219857Y0177816D01*
X0221024Y0176648D01*
X0222549Y0176017D01*
X0222186Y0174166D02*
X0190776Y0174166D01*
X0190776Y0173168D02*
X0220507Y0173168D01*
X0220511Y0177162D02*
X0190776Y0177162D01*
X0190776Y0178160D02*
X0219714Y0178160D01*
X0219300Y0179159D02*
X0190776Y0179159D01*
X0190776Y0180157D02*
X0219225Y0180157D01*
X0219293Y0181156D02*
X0190776Y0181156D01*
X0190776Y0182154D02*
X0219706Y0182154D01*
X0220492Y0183153D02*
X0190776Y0183153D01*
X0190776Y0184151D02*
X0222150Y0184151D01*
X0222549Y0186017D02*
X0224200Y0186017D01*
X0225726Y0186648D01*
X0226893Y0187816D01*
X0227525Y0189341D01*
X0227525Y0190992D01*
X0226893Y0192517D01*
X0225726Y0193685D01*
X0224200Y0194317D01*
X0222549Y0194317D01*
X0221024Y0193685D01*
X0219857Y0192517D01*
X0219225Y0190992D01*
X0219225Y0189341D01*
X0219857Y0187816D01*
X0221024Y0186648D01*
X0222549Y0186017D01*
X0222231Y0186148D02*
X0190776Y0186148D01*
X0190776Y0185150D02*
X0374316Y0185150D01*
X0374316Y0186148D02*
X0284518Y0186148D01*
X0284200Y0186017D02*
X0285726Y0186648D01*
X0286893Y0187816D01*
X0287525Y0189341D01*
X0287525Y0190992D01*
X0286893Y0192517D01*
X0285726Y0193685D01*
X0284200Y0194317D01*
X0282549Y0194317D01*
X0281024Y0193685D01*
X0279857Y0192517D01*
X0279225Y0190992D01*
X0279225Y0189341D01*
X0279857Y0187816D01*
X0281024Y0186648D01*
X0282549Y0186017D01*
X0284200Y0186017D01*
X0284599Y0184151D02*
X0374316Y0184151D01*
X0374316Y0183153D02*
X0286258Y0183153D01*
X0287043Y0182154D02*
X0374316Y0182154D01*
X0374316Y0181156D02*
X0287457Y0181156D01*
X0287525Y0180157D02*
X0374316Y0180157D01*
X0374316Y0179159D02*
X0287449Y0179159D01*
X0287036Y0178160D02*
X0374316Y0178160D01*
X0374316Y0177162D02*
X0286239Y0177162D01*
X0282196Y0176163D02*
X0224554Y0176163D01*
X0226239Y0177162D02*
X0280511Y0177162D01*
X0279714Y0178160D02*
X0227036Y0178160D01*
X0227449Y0179159D02*
X0279300Y0179159D01*
X0279225Y0180157D02*
X0227525Y0180157D01*
X0227457Y0181156D02*
X0279293Y0181156D01*
X0279706Y0182154D02*
X0227043Y0182154D01*
X0226258Y0183153D02*
X0280492Y0183153D01*
X0282150Y0184151D02*
X0224599Y0184151D01*
X0224518Y0186148D02*
X0282231Y0186148D01*
X0280526Y0187147D02*
X0226224Y0187147D01*
X0227029Y0188145D02*
X0279720Y0188145D01*
X0279307Y0189144D02*
X0227443Y0189144D01*
X0227525Y0190142D02*
X0279225Y0190142D01*
X0279286Y0191141D02*
X0227463Y0191141D01*
X0227050Y0192139D02*
X0279700Y0192139D01*
X0280477Y0193138D02*
X0226273Y0193138D01*
X0224635Y0194136D02*
X0282114Y0194136D01*
X0282549Y0196017D02*
X0284200Y0196017D01*
X0285726Y0196648D01*
X0286893Y0197816D01*
X0287525Y0199341D01*
X0287525Y0200992D01*
X0286893Y0202517D01*
X0285726Y0203685D01*
X0284200Y0204317D01*
X0282549Y0204317D01*
X0281024Y0203685D01*
X0279857Y0202517D01*
X0279225Y0200992D01*
X0279225Y0199341D01*
X0279857Y0197816D01*
X0281024Y0196648D01*
X0282549Y0196017D01*
X0282267Y0196133D02*
X0224482Y0196133D01*
X0224200Y0196017D02*
X0225726Y0196648D01*
X0226893Y0197816D01*
X0227525Y0199341D01*
X0227525Y0200992D01*
X0226893Y0202517D01*
X0225726Y0203685D01*
X0224200Y0204317D01*
X0222549Y0204317D01*
X0221024Y0203685D01*
X0219857Y0202517D01*
X0219225Y0200992D01*
X0219225Y0199341D01*
X0219857Y0197816D01*
X0221024Y0196648D01*
X0222549Y0196017D01*
X0224200Y0196017D01*
X0222267Y0196133D02*
X0190776Y0196133D01*
X0190776Y0195135D02*
X0339594Y0195135D01*
X0339747Y0194765D02*
X0340611Y0193901D01*
X0341740Y0193434D01*
X0342962Y0193434D01*
X0344091Y0193901D01*
X0344955Y0194765D01*
X0345423Y0195894D01*
X0345423Y0197116D01*
X0344955Y0198245D01*
X0344091Y0199109D01*
X0342962Y0199577D01*
X0341740Y0199577D01*
X0340611Y0199109D01*
X0339747Y0198245D01*
X0339280Y0197116D01*
X0339280Y0195894D01*
X0339747Y0194765D01*
X0340376Y0194136D02*
X0284635Y0194136D01*
X0286273Y0193138D02*
X0309235Y0193138D01*
X0308918Y0193007D02*
X0310047Y0193475D01*
X0311269Y0193475D01*
X0312398Y0193007D01*
X0313262Y0192143D01*
X0313730Y0191014D01*
X0313730Y0189792D01*
X0313262Y0188663D01*
X0312398Y0187799D01*
X0311269Y0187331D01*
X0310047Y0187331D01*
X0308918Y0187799D01*
X0308054Y0188663D01*
X0307587Y0189792D01*
X0307587Y0191014D01*
X0308054Y0192143D01*
X0308918Y0193007D01*
X0308053Y0192139D02*
X0287050Y0192139D01*
X0287463Y0191141D02*
X0307639Y0191141D01*
X0307587Y0190142D02*
X0287525Y0190142D01*
X0287443Y0189144D02*
X0307855Y0189144D01*
X0308572Y0188145D02*
X0287029Y0188145D01*
X0286224Y0187147D02*
X0374316Y0187147D01*
X0374316Y0188145D02*
X0312745Y0188145D01*
X0313461Y0189144D02*
X0374316Y0189144D01*
X0374316Y0190142D02*
X0313730Y0190142D01*
X0313677Y0191141D02*
X0374316Y0191141D01*
X0374316Y0192139D02*
X0313264Y0192139D01*
X0312082Y0193138D02*
X0374316Y0193138D01*
X0374316Y0194136D02*
X0344326Y0194136D01*
X0345108Y0195135D02*
X0374316Y0195135D01*
X0374316Y0196133D02*
X0345423Y0196133D01*
X0345416Y0197132D02*
X0374316Y0197132D01*
X0374316Y0198130D02*
X0345003Y0198130D01*
X0344044Y0199129D02*
X0374316Y0199129D01*
X0374316Y0200127D02*
X0287525Y0200127D01*
X0287469Y0201126D02*
X0358689Y0201126D01*
X0357815Y0201488D02*
X0360682Y0200301D01*
X0363784Y0200301D01*
X0366651Y0201488D01*
X0368845Y0203682D01*
X0370032Y0206548D01*
X0370032Y0209651D01*
X0368845Y0212518D01*
X0366651Y0214712D01*
X0363784Y0215899D01*
X0360682Y0215899D01*
X0357815Y0214712D01*
X0355621Y0212518D01*
X0354434Y0209651D01*
X0354434Y0206548D01*
X0355621Y0203682D01*
X0357815Y0201488D01*
X0357179Y0202124D02*
X0287056Y0202124D01*
X0286287Y0203123D02*
X0356180Y0203123D01*
X0355439Y0204122D02*
X0284671Y0204122D01*
X0284200Y0206017D02*
X0285726Y0206648D01*
X0286893Y0207816D01*
X0287525Y0209341D01*
X0287525Y0210992D01*
X0286893Y0212517D01*
X0285726Y0213685D01*
X0284200Y0214317D01*
X0282549Y0214317D01*
X0281024Y0213685D01*
X0279857Y0212517D01*
X0279225Y0210992D01*
X0279225Y0209341D01*
X0279857Y0207816D01*
X0281024Y0206648D01*
X0282549Y0206017D01*
X0284200Y0206017D01*
X0284446Y0206119D02*
X0354612Y0206119D01*
X0354434Y0207117D02*
X0286194Y0207117D01*
X0287017Y0208116D02*
X0354434Y0208116D01*
X0354434Y0209114D02*
X0338724Y0209114D01*
X0338079Y0208847D02*
X0339642Y0209494D01*
X0340838Y0210691D01*
X0341486Y0212254D01*
X0341486Y0213946D01*
X0340838Y0215509D01*
X0339642Y0216705D01*
X0338079Y0217352D01*
X0336387Y0217352D01*
X0334824Y0216705D01*
X0333628Y0215509D01*
X0332980Y0213946D01*
X0332980Y0212254D01*
X0333628Y0210691D01*
X0334824Y0209494D01*
X0336387Y0208847D01*
X0338079Y0208847D01*
X0335742Y0209114D02*
X0287431Y0209114D01*
X0287525Y0210113D02*
X0334206Y0210113D01*
X0333454Y0211111D02*
X0287476Y0211111D01*
X0287062Y0212110D02*
X0333040Y0212110D01*
X0332980Y0213108D02*
X0286302Y0213108D01*
X0284707Y0214107D02*
X0325760Y0214107D01*
X0326387Y0213847D02*
X0328079Y0213847D01*
X0329642Y0214494D01*
X0330838Y0215691D01*
X0331486Y0217254D01*
X0331486Y0218946D01*
X0330838Y0220509D01*
X0329642Y0221705D01*
X0328079Y0222352D01*
X0326387Y0222352D01*
X0324824Y0221705D01*
X0323628Y0220509D01*
X0322980Y0218946D01*
X0322980Y0217254D01*
X0323628Y0215691D01*
X0324824Y0214494D01*
X0326387Y0213847D01*
X0328706Y0214107D02*
X0333047Y0214107D01*
X0333461Y0215105D02*
X0330253Y0215105D01*
X0331009Y0216104D02*
X0334223Y0216104D01*
X0335783Y0217102D02*
X0331423Y0217102D01*
X0331486Y0218101D02*
X0374316Y0218101D01*
X0374316Y0219099D02*
X0338688Y0219099D01*
X0338079Y0218847D02*
X0339642Y0219494D01*
X0340838Y0220691D01*
X0341486Y0222254D01*
X0341486Y0223946D01*
X0340838Y0225509D01*
X0339642Y0226705D01*
X0338079Y0227352D01*
X0336387Y0227352D01*
X0334824Y0226705D01*
X0333628Y0225509D01*
X0332980Y0223946D01*
X0332980Y0222254D01*
X0333628Y0220691D01*
X0334824Y0219494D01*
X0336387Y0218847D01*
X0338079Y0218847D01*
X0338683Y0217102D02*
X0374316Y0217102D01*
X0374316Y0216104D02*
X0340243Y0216104D01*
X0341006Y0215105D02*
X0358765Y0215105D01*
X0357210Y0214107D02*
X0341419Y0214107D01*
X0341486Y0213108D02*
X0356212Y0213108D01*
X0355452Y0212110D02*
X0341426Y0212110D01*
X0341012Y0211111D02*
X0355039Y0211111D01*
X0354625Y0210113D02*
X0340260Y0210113D01*
X0340245Y0220098D02*
X0374316Y0220098D01*
X0374316Y0221096D02*
X0341006Y0221096D01*
X0341420Y0222095D02*
X0374316Y0222095D01*
X0374316Y0223093D02*
X0341486Y0223093D01*
X0341425Y0224092D02*
X0374316Y0224092D01*
X0374316Y0225090D02*
X0341012Y0225090D01*
X0340258Y0226089D02*
X0374316Y0226089D01*
X0374316Y0227087D02*
X0338719Y0227087D01*
X0338079Y0228847D02*
X0336387Y0228847D01*
X0334824Y0229494D01*
X0333628Y0230691D01*
X0332980Y0232254D01*
X0332980Y0233946D01*
X0333628Y0235509D01*
X0334824Y0236705D01*
X0336387Y0237352D01*
X0338079Y0237352D01*
X0339642Y0236705D01*
X0340838Y0235509D01*
X0341486Y0233946D01*
X0341486Y0232254D01*
X0340838Y0230691D01*
X0339642Y0229494D01*
X0338079Y0228847D01*
X0338652Y0229084D02*
X0374316Y0229084D01*
X0374316Y0228086D02*
X0331486Y0228086D01*
X0331486Y0227254D02*
X0331486Y0228946D01*
X0330838Y0230509D01*
X0329642Y0231705D01*
X0328079Y0232352D01*
X0326387Y0232352D01*
X0324824Y0231705D01*
X0323628Y0230509D01*
X0322980Y0228946D01*
X0322980Y0227254D01*
X0323628Y0225691D01*
X0324824Y0224494D01*
X0326387Y0223847D01*
X0328079Y0223847D01*
X0329642Y0224494D01*
X0330838Y0225691D01*
X0331486Y0227254D01*
X0331417Y0227087D02*
X0335747Y0227087D01*
X0334208Y0226089D02*
X0331003Y0226089D01*
X0330238Y0225090D02*
X0333454Y0225090D01*
X0333041Y0224092D02*
X0328670Y0224092D01*
X0328701Y0222095D02*
X0333046Y0222095D01*
X0332980Y0223093D02*
X0286317Y0223093D01*
X0286893Y0222517D02*
X0285726Y0223685D01*
X0284200Y0224317D01*
X0282549Y0224317D01*
X0281024Y0223685D01*
X0279857Y0222517D01*
X0279225Y0220992D01*
X0279225Y0219341D01*
X0279857Y0217816D01*
X0281024Y0216648D01*
X0282549Y0216017D01*
X0284200Y0216017D01*
X0285726Y0216648D01*
X0286893Y0217816D01*
X0287525Y0219341D01*
X0287525Y0220992D01*
X0286893Y0222517D01*
X0287068Y0222095D02*
X0325765Y0222095D01*
X0324215Y0221096D02*
X0287482Y0221096D01*
X0287525Y0220098D02*
X0323458Y0220098D01*
X0323044Y0219099D02*
X0287425Y0219099D01*
X0287011Y0218101D02*
X0322980Y0218101D01*
X0323043Y0217102D02*
X0286179Y0217102D01*
X0284410Y0216104D02*
X0323457Y0216104D01*
X0324213Y0215105D02*
X0190776Y0215105D01*
X0190776Y0214107D02*
X0222042Y0214107D01*
X0222549Y0214317D02*
X0221024Y0213685D01*
X0219857Y0212517D01*
X0219225Y0210992D01*
X0219225Y0209341D01*
X0219857Y0207816D01*
X0221024Y0206648D01*
X0222549Y0206017D01*
X0224200Y0206017D01*
X0225726Y0206648D01*
X0226893Y0207816D01*
X0227525Y0209341D01*
X0227525Y0210992D01*
X0226893Y0212517D01*
X0225726Y0213685D01*
X0224200Y0214317D01*
X0222549Y0214317D01*
X0222549Y0216017D02*
X0224200Y0216017D01*
X0225726Y0216648D01*
X0226893Y0217816D01*
X0227525Y0219341D01*
X0227525Y0220992D01*
X0226893Y0222517D01*
X0225726Y0223685D01*
X0224200Y0224317D01*
X0222549Y0224317D01*
X0221024Y0223685D01*
X0219857Y0222517D01*
X0219225Y0220992D01*
X0219225Y0219341D01*
X0219857Y0217816D01*
X0221024Y0216648D01*
X0222549Y0216017D01*
X0222339Y0216104D02*
X0190776Y0216104D01*
X0190776Y0217102D02*
X0220570Y0217102D01*
X0219739Y0218101D02*
X0190776Y0218101D01*
X0190776Y0219099D02*
X0219325Y0219099D01*
X0219225Y0220098D02*
X0190776Y0220098D01*
X0190776Y0221096D02*
X0219268Y0221096D01*
X0219682Y0222095D02*
X0190776Y0222095D01*
X0190776Y0223093D02*
X0220432Y0223093D01*
X0222006Y0224092D02*
X0190776Y0224092D01*
X0190776Y0225090D02*
X0324228Y0225090D01*
X0323463Y0226089D02*
X0284374Y0226089D01*
X0284200Y0226017D02*
X0285726Y0226648D01*
X0286893Y0227816D01*
X0287525Y0229341D01*
X0287525Y0230992D01*
X0286893Y0232517D01*
X0285726Y0233685D01*
X0284200Y0234317D01*
X0282549Y0234317D01*
X0281024Y0233685D01*
X0279857Y0232517D01*
X0279225Y0230992D01*
X0279225Y0229341D01*
X0279857Y0227816D01*
X0281024Y0226648D01*
X0282549Y0226017D01*
X0284200Y0226017D01*
X0282375Y0226089D02*
X0224374Y0226089D01*
X0224200Y0226017D02*
X0225726Y0226648D01*
X0226893Y0227816D01*
X0227525Y0229341D01*
X0227525Y0230992D01*
X0226893Y0232517D01*
X0225726Y0233685D01*
X0224200Y0234317D01*
X0222549Y0234317D01*
X0221024Y0233685D01*
X0219857Y0232517D01*
X0219225Y0230992D01*
X0219225Y0229341D01*
X0219857Y0227816D01*
X0221024Y0226648D01*
X0222549Y0226017D01*
X0224200Y0226017D01*
X0222375Y0226089D02*
X0190776Y0226089D01*
X0190776Y0227087D02*
X0220585Y0227087D01*
X0219745Y0228086D02*
X0190776Y0228086D01*
X0190776Y0229084D02*
X0219331Y0229084D01*
X0219225Y0230083D02*
X0190776Y0230083D01*
X0190776Y0231081D02*
X0219262Y0231081D01*
X0219675Y0232080D02*
X0190776Y0232080D01*
X0190776Y0233078D02*
X0220418Y0233078D01*
X0221970Y0234077D02*
X0190776Y0234077D01*
X0190776Y0235075D02*
X0324243Y0235075D01*
X0324824Y0234494D02*
X0326387Y0233847D01*
X0328079Y0233847D01*
X0329642Y0234494D01*
X0330838Y0235691D01*
X0331486Y0237254D01*
X0331486Y0238946D01*
X0330838Y0240509D01*
X0329642Y0241705D01*
X0328079Y0242352D01*
X0326387Y0242352D01*
X0324824Y0241705D01*
X0323628Y0240509D01*
X0322980Y0238946D01*
X0322980Y0237254D01*
X0323628Y0235691D01*
X0324824Y0234494D01*
X0325832Y0234077D02*
X0284779Y0234077D01*
X0286332Y0233078D02*
X0332980Y0233078D01*
X0333035Y0234077D02*
X0328634Y0234077D01*
X0330223Y0235075D02*
X0333448Y0235075D01*
X0334193Y0236074D02*
X0330997Y0236074D01*
X0331411Y0237072D02*
X0335711Y0237072D01*
X0336387Y0238847D02*
X0338079Y0238847D01*
X0339642Y0239494D01*
X0340838Y0240691D01*
X0341486Y0242254D01*
X0341486Y0243946D01*
X0340838Y0245509D01*
X0339642Y0246705D01*
X0338079Y0247352D01*
X0336387Y0247352D01*
X0334824Y0246705D01*
X0333628Y0245509D01*
X0332980Y0243946D01*
X0332980Y0242254D01*
X0333628Y0240691D01*
X0334824Y0239494D01*
X0336387Y0238847D01*
X0335850Y0239069D02*
X0331435Y0239069D01*
X0331486Y0238071D02*
X0374316Y0238071D01*
X0374316Y0239069D02*
X0338616Y0239069D01*
X0340216Y0240068D02*
X0374316Y0240068D01*
X0374316Y0241066D02*
X0340994Y0241066D01*
X0341408Y0242065D02*
X0374316Y0242065D01*
X0374316Y0243063D02*
X0341486Y0243063D01*
X0341438Y0244062D02*
X0374316Y0244062D01*
X0374316Y0245060D02*
X0341024Y0245060D01*
X0340288Y0246059D02*
X0358851Y0246059D01*
X0357815Y0246488D02*
X0360682Y0245301D01*
X0363784Y0245301D01*
X0366651Y0246488D01*
X0368845Y0248682D01*
X0370032Y0251548D01*
X0370032Y0254651D01*
X0368845Y0257518D01*
X0366651Y0259712D01*
X0363784Y0260899D01*
X0360682Y0260899D01*
X0357815Y0259712D01*
X0355621Y0257518D01*
X0354434Y0254651D01*
X0354434Y0251548D01*
X0355621Y0248682D01*
X0357815Y0246488D01*
X0357246Y0247058D02*
X0338791Y0247058D01*
X0335675Y0247058D02*
X0331405Y0247058D01*
X0331486Y0247254D02*
X0330838Y0245691D01*
X0329642Y0244494D01*
X0328079Y0243847D01*
X0326387Y0243847D01*
X0324824Y0244494D01*
X0323628Y0245691D01*
X0322980Y0247254D01*
X0322980Y0248946D01*
X0323628Y0250509D01*
X0324824Y0251705D01*
X0326387Y0252352D01*
X0328079Y0252352D01*
X0329642Y0251705D01*
X0330838Y0250509D01*
X0331486Y0248946D01*
X0331486Y0247254D01*
X0331486Y0248056D02*
X0356247Y0248056D01*
X0355467Y0249055D02*
X0331441Y0249055D01*
X0331027Y0250053D02*
X0355053Y0250053D01*
X0354640Y0251052D02*
X0330296Y0251052D01*
X0328809Y0252050D02*
X0354434Y0252050D01*
X0354434Y0253049D02*
X0286362Y0253049D01*
X0286893Y0252517D02*
X0285726Y0253685D01*
X0284200Y0254317D01*
X0282549Y0254317D01*
X0281024Y0253685D01*
X0279857Y0252517D01*
X0279225Y0250992D01*
X0279225Y0249341D01*
X0279857Y0247816D01*
X0281024Y0246648D01*
X0282549Y0246017D01*
X0284200Y0246017D01*
X0285726Y0246648D01*
X0286893Y0247816D01*
X0287525Y0249341D01*
X0287525Y0250992D01*
X0286893Y0252517D01*
X0287087Y0252050D02*
X0325657Y0252050D01*
X0324171Y0251052D02*
X0287500Y0251052D01*
X0287525Y0250053D02*
X0323439Y0250053D01*
X0323025Y0249055D02*
X0287406Y0249055D01*
X0286992Y0248056D02*
X0322980Y0248056D01*
X0323062Y0247058D02*
X0286135Y0247058D01*
X0284302Y0246059D02*
X0323475Y0246059D01*
X0324258Y0245060D02*
X0129833Y0245060D01*
X0130456Y0244062D02*
X0221934Y0244062D01*
X0222549Y0244317D02*
X0221024Y0243685D01*
X0219857Y0242517D01*
X0219225Y0240992D01*
X0219225Y0239341D01*
X0219857Y0237816D01*
X0221024Y0236648D01*
X0222549Y0236017D01*
X0224200Y0236017D01*
X0225726Y0236648D01*
X0226893Y0237816D01*
X0227525Y0239341D01*
X0227525Y0240992D01*
X0226893Y0242517D01*
X0225726Y0243685D01*
X0224200Y0244317D01*
X0222549Y0244317D01*
X0222549Y0246017D02*
X0224200Y0246017D01*
X0225726Y0246648D01*
X0226893Y0247816D01*
X0227525Y0249341D01*
X0227525Y0250992D01*
X0226893Y0252517D01*
X0225726Y0253685D01*
X0224200Y0254317D01*
X0222549Y0254317D01*
X0221024Y0253685D01*
X0219857Y0252517D01*
X0219225Y0250992D01*
X0219225Y0249341D01*
X0219857Y0247816D01*
X0221024Y0246648D01*
X0222549Y0246017D01*
X0222447Y0246059D02*
X0122666Y0246059D01*
X0122666Y0247058D02*
X0220615Y0247058D01*
X0219757Y0248056D02*
X0122666Y0248056D01*
X0122666Y0249055D02*
X0219344Y0249055D01*
X0219225Y0250053D02*
X0122666Y0250053D01*
X0122666Y0251052D02*
X0219249Y0251052D01*
X0219663Y0252050D02*
X0122666Y0252050D01*
X0122666Y0253049D02*
X0220388Y0253049D01*
X0221899Y0254047D02*
X0122666Y0254047D01*
X0122666Y0255046D02*
X0354597Y0255046D01*
X0354434Y0254047D02*
X0284851Y0254047D01*
X0281899Y0254047D02*
X0224851Y0254047D01*
X0226362Y0253049D02*
X0280388Y0253049D01*
X0279663Y0252050D02*
X0227087Y0252050D01*
X0227500Y0251052D02*
X0279249Y0251052D01*
X0279225Y0250053D02*
X0227525Y0250053D01*
X0227406Y0249055D02*
X0279344Y0249055D01*
X0279757Y0248056D02*
X0226992Y0248056D01*
X0226135Y0247058D02*
X0280615Y0247058D01*
X0282447Y0246059D02*
X0224302Y0246059D01*
X0224815Y0244062D02*
X0281934Y0244062D01*
X0282549Y0244317D02*
X0281024Y0243685D01*
X0279857Y0242517D01*
X0279225Y0240992D01*
X0279225Y0239341D01*
X0279857Y0237816D01*
X0281024Y0236648D01*
X0282549Y0236017D01*
X0284200Y0236017D01*
X0285726Y0236648D01*
X0286893Y0237816D01*
X0287525Y0239341D01*
X0287525Y0240992D01*
X0286893Y0242517D01*
X0285726Y0243685D01*
X0284200Y0244317D01*
X0282549Y0244317D01*
X0284815Y0244062D02*
X0325868Y0244062D01*
X0325693Y0242065D02*
X0287080Y0242065D01*
X0287494Y0241066D02*
X0324185Y0241066D01*
X0323445Y0240068D02*
X0287525Y0240068D01*
X0287412Y0239069D02*
X0323032Y0239069D01*
X0322980Y0238071D02*
X0286999Y0238071D01*
X0286150Y0237072D02*
X0323055Y0237072D01*
X0323469Y0236074D02*
X0284338Y0236074D01*
X0282411Y0236074D02*
X0224338Y0236074D01*
X0222411Y0236074D02*
X0190776Y0236074D01*
X0190776Y0237072D02*
X0220600Y0237072D01*
X0219751Y0238071D02*
X0190776Y0238071D01*
X0190776Y0239069D02*
X0219337Y0239069D01*
X0219225Y0240068D02*
X0190776Y0240068D01*
X0190776Y0241066D02*
X0219256Y0241066D01*
X0219669Y0242065D02*
X0190776Y0242065D01*
X0190776Y0243063D02*
X0220403Y0243063D01*
X0226347Y0243063D02*
X0280403Y0243063D01*
X0279669Y0242065D02*
X0227080Y0242065D01*
X0227494Y0241066D02*
X0279256Y0241066D01*
X0279225Y0240068D02*
X0227525Y0240068D01*
X0227412Y0239069D02*
X0279337Y0239069D01*
X0279751Y0238071D02*
X0226999Y0238071D01*
X0226150Y0237072D02*
X0280600Y0237072D01*
X0281970Y0234077D02*
X0224779Y0234077D01*
X0226332Y0233078D02*
X0280418Y0233078D01*
X0279675Y0232080D02*
X0227074Y0232080D01*
X0227488Y0231081D02*
X0279262Y0231081D01*
X0279225Y0230083D02*
X0227525Y0230083D01*
X0227418Y0229084D02*
X0279331Y0229084D01*
X0279745Y0228086D02*
X0227005Y0228086D01*
X0226164Y0227087D02*
X0280585Y0227087D01*
X0282006Y0224092D02*
X0224743Y0224092D01*
X0226317Y0223093D02*
X0280432Y0223093D01*
X0279682Y0222095D02*
X0227068Y0222095D01*
X0227482Y0221096D02*
X0279268Y0221096D01*
X0279225Y0220098D02*
X0227525Y0220098D01*
X0227425Y0219099D02*
X0279325Y0219099D01*
X0279739Y0218101D02*
X0227011Y0218101D01*
X0226179Y0217102D02*
X0280570Y0217102D01*
X0282339Y0216104D02*
X0224410Y0216104D01*
X0224707Y0214107D02*
X0282042Y0214107D01*
X0280447Y0213108D02*
X0226302Y0213108D01*
X0227062Y0212110D02*
X0279688Y0212110D01*
X0279274Y0211111D02*
X0227476Y0211111D01*
X0227525Y0210113D02*
X0279225Y0210113D01*
X0279319Y0209114D02*
X0227431Y0209114D01*
X0227017Y0208116D02*
X0279732Y0208116D01*
X0280555Y0207117D02*
X0226194Y0207117D01*
X0224446Y0206119D02*
X0282303Y0206119D01*
X0282078Y0204122D02*
X0224671Y0204122D01*
X0226287Y0203123D02*
X0280462Y0203123D01*
X0279694Y0202124D02*
X0227056Y0202124D01*
X0227469Y0201126D02*
X0279280Y0201126D01*
X0279225Y0200127D02*
X0227525Y0200127D01*
X0227437Y0199129D02*
X0279313Y0199129D01*
X0279726Y0198130D02*
X0227023Y0198130D01*
X0226209Y0197132D02*
X0280541Y0197132D01*
X0284482Y0196133D02*
X0339280Y0196133D01*
X0339286Y0197132D02*
X0286209Y0197132D01*
X0287023Y0198130D02*
X0339700Y0198130D01*
X0340659Y0199129D02*
X0287437Y0199129D01*
X0282186Y0174166D02*
X0224564Y0174166D01*
X0226243Y0173168D02*
X0280507Y0173168D01*
X0279712Y0172169D02*
X0227037Y0172169D01*
X0227451Y0171171D02*
X0279299Y0171171D01*
X0279225Y0170172D02*
X0227525Y0170172D01*
X0227455Y0169174D02*
X0279294Y0169174D01*
X0279708Y0168175D02*
X0227042Y0168175D01*
X0226254Y0167177D02*
X0280496Y0167177D01*
X0280522Y0163183D02*
X0226511Y0163183D01*
X0227229Y0162184D02*
X0279719Y0162184D01*
X0279305Y0161186D02*
X0227618Y0161186D01*
X0227708Y0159717D02*
X0223825Y0159717D01*
X0223825Y0155834D01*
X0224393Y0155924D01*
X0225045Y0156135D01*
X0225655Y0156446D01*
X0226209Y0156849D01*
X0226693Y0157333D01*
X0227095Y0157887D01*
X0227406Y0158497D01*
X0227618Y0159148D01*
X0227708Y0159717D01*
X0227624Y0159189D02*
X0279288Y0159189D01*
X0279225Y0160187D02*
X0223825Y0160187D01*
X0222925Y0160187D02*
X0190776Y0160187D01*
X0184871Y0160187D02*
X0020379Y0160187D01*
X0020287Y0160369D02*
X0020647Y0159662D01*
X0020892Y0158907D01*
X0021000Y0158226D01*
X0016473Y0158226D01*
X0016473Y0162753D01*
X0017154Y0162645D01*
X0017909Y0162400D01*
X0018616Y0162039D01*
X0019259Y0161573D01*
X0019820Y0161011D01*
X0020287Y0160369D01*
X0019646Y0161186D02*
X0037894Y0161186D01*
X0038249Y0160830D02*
X0039378Y0160363D01*
X0040600Y0160363D01*
X0041729Y0160830D01*
X0042593Y0161694D01*
X0043061Y0162823D01*
X0043061Y0164045D01*
X0042593Y0165174D01*
X0041729Y0166038D01*
X0040600Y0166506D01*
X0039378Y0166506D01*
X0038249Y0166038D01*
X0037385Y0165174D01*
X0036917Y0164045D01*
X0036917Y0162823D01*
X0037385Y0161694D01*
X0038249Y0160830D01*
X0037182Y0162184D02*
X0018332Y0162184D01*
X0016473Y0162184D02*
X0015473Y0162184D01*
X0015473Y0161186D02*
X0016473Y0161186D01*
X0016473Y0160187D02*
X0015473Y0160187D01*
X0015473Y0159189D02*
X0016473Y0159189D01*
X0013614Y0162184D02*
X0003300Y0162184D01*
X0003300Y0161186D02*
X0012301Y0161186D01*
X0011567Y0160187D02*
X0003300Y0160187D01*
X0003300Y0159189D02*
X0011146Y0159189D01*
X0013767Y0167177D02*
X0003300Y0167177D01*
X0003300Y0168175D02*
X0012454Y0168175D01*
X0011867Y0168762D02*
X0013230Y0167399D01*
X0015010Y0166662D01*
X0016937Y0166662D01*
X0018717Y0167399D01*
X0020079Y0168762D01*
X0020817Y0170542D01*
X0020817Y0172469D01*
X0020079Y0174249D01*
X0018717Y0175611D01*
X0016937Y0176349D01*
X0015010Y0176349D01*
X0013230Y0175611D01*
X0011867Y0174249D01*
X0011130Y0172469D01*
X0011130Y0170542D01*
X0011867Y0168762D01*
X0011697Y0169174D02*
X0003300Y0169174D01*
X0003300Y0170172D02*
X0011283Y0170172D01*
X0011130Y0171171D02*
X0003300Y0171171D01*
X0003300Y0172169D02*
X0011130Y0172169D01*
X0011419Y0173168D02*
X0003300Y0173168D01*
X0003300Y0174166D02*
X0011833Y0174166D01*
X0012783Y0175165D02*
X0003300Y0175165D01*
X0003300Y0176163D02*
X0014562Y0176163D01*
X0017384Y0176163D02*
X0053105Y0176163D01*
X0053059Y0176053D02*
X0053059Y0174831D01*
X0053527Y0173702D01*
X0054391Y0172838D01*
X0055520Y0172371D01*
X0056742Y0172371D01*
X0057871Y0172838D01*
X0058735Y0173702D01*
X0059202Y0174831D01*
X0059202Y0176053D01*
X0058735Y0177182D01*
X0057871Y0178046D01*
X0056742Y0178514D01*
X0055520Y0178514D01*
X0054391Y0178046D01*
X0053527Y0177182D01*
X0053059Y0176053D01*
X0053059Y0175165D02*
X0019163Y0175165D01*
X0020113Y0174166D02*
X0053335Y0174166D01*
X0054061Y0173168D02*
X0020527Y0173168D01*
X0020817Y0172169D02*
X0184871Y0172169D01*
X0184871Y0171171D02*
X0020817Y0171171D01*
X0020663Y0170172D02*
X0184871Y0170172D01*
X0184871Y0169174D02*
X0020250Y0169174D01*
X0019493Y0168175D02*
X0184871Y0168175D01*
X0184871Y0167177D02*
X0018179Y0167177D01*
X0020801Y0159189D02*
X0184871Y0159189D01*
X0184871Y0161186D02*
X0042084Y0161186D01*
X0042796Y0162184D02*
X0184871Y0162184D01*
X0184871Y0163183D02*
X0043061Y0163183D01*
X0043004Y0164181D02*
X0184871Y0164181D01*
X0184871Y0165180D02*
X0042588Y0165180D01*
X0041392Y0166178D02*
X0184871Y0166178D01*
X0184871Y0173168D02*
X0058200Y0173168D01*
X0058927Y0174166D02*
X0087664Y0174166D01*
X0088197Y0173945D02*
X0087068Y0174413D01*
X0086204Y0175277D01*
X0085736Y0176406D01*
X0085736Y0177628D01*
X0086204Y0178757D01*
X0087068Y0179621D01*
X0088197Y0180089D01*
X0089419Y0180089D01*
X0090548Y0179621D01*
X0091412Y0178757D01*
X0091880Y0177628D01*
X0091880Y0176406D01*
X0091412Y0175277D01*
X0090548Y0174413D01*
X0089419Y0173945D01*
X0088197Y0173945D01*
X0089952Y0174166D02*
X0184871Y0174166D01*
X0184871Y0175165D02*
X0091299Y0175165D01*
X0091779Y0176163D02*
X0184871Y0176163D01*
X0184871Y0177162D02*
X0091880Y0177162D01*
X0091659Y0178160D02*
X0184871Y0178160D01*
X0184871Y0179159D02*
X0091010Y0179159D01*
X0086606Y0179159D02*
X0003300Y0179159D01*
X0003300Y0180157D02*
X0184871Y0180157D01*
X0184871Y0181156D02*
X0125637Y0181156D01*
X0126058Y0181576D02*
X0125193Y0180712D01*
X0124065Y0180245D01*
X0122843Y0180245D01*
X0121714Y0180712D01*
X0120850Y0181576D01*
X0120382Y0182705D01*
X0120382Y0183927D01*
X0120850Y0185056D01*
X0121714Y0185920D01*
X0122843Y0186388D01*
X0124065Y0186388D01*
X0125193Y0185920D01*
X0126058Y0185056D01*
X0126525Y0183927D01*
X0126525Y0182705D01*
X0126058Y0181576D01*
X0126297Y0182154D02*
X0184871Y0182154D01*
X0184871Y0183153D02*
X0126525Y0183153D01*
X0126432Y0184151D02*
X0184871Y0184151D01*
X0184871Y0185150D02*
X0125964Y0185150D01*
X0124643Y0186148D02*
X0184871Y0186148D01*
X0184871Y0187147D02*
X0020671Y0187147D01*
X0020647Y0187221D02*
X0020287Y0187928D01*
X0019820Y0188570D01*
X0019259Y0189132D01*
X0018616Y0189598D01*
X0017909Y0189959D01*
X0017154Y0190204D01*
X0016473Y0190312D01*
X0016473Y0185785D01*
X0015473Y0185785D01*
X0015473Y0190312D01*
X0014792Y0190204D01*
X0014037Y0189959D01*
X0013330Y0189598D01*
X0012688Y0189132D01*
X0012126Y0188570D01*
X0011660Y0187928D01*
X0011299Y0187221D01*
X0011054Y0186466D01*
X0010946Y0185785D01*
X0015473Y0185785D01*
X0015473Y0184785D01*
X0010946Y0184785D01*
X0011054Y0184104D01*
X0011299Y0183349D01*
X0011660Y0182641D01*
X0012126Y0181999D01*
X0012688Y0181438D01*
X0013330Y0180971D01*
X0014037Y0180611D01*
X0014792Y0180366D01*
X0015473Y0180258D01*
X0015473Y0184785D01*
X0016473Y0184785D01*
X0016473Y0185785D01*
X0021000Y0185785D01*
X0020892Y0186466D01*
X0020647Y0187221D01*
X0020129Y0188145D02*
X0184871Y0188145D01*
X0184871Y0189144D02*
X0019242Y0189144D01*
X0017344Y0190142D02*
X0144675Y0190142D01*
X0144155Y0190358D02*
X0145283Y0189890D01*
X0146505Y0189890D01*
X0147634Y0190358D01*
X0148498Y0191222D01*
X0148966Y0192351D01*
X0148966Y0193573D01*
X0148498Y0194702D01*
X0147634Y0195566D01*
X0146505Y0196034D01*
X0145283Y0196034D01*
X0144155Y0195566D01*
X0143290Y0194702D01*
X0142823Y0193573D01*
X0142823Y0192351D01*
X0143290Y0191222D01*
X0144155Y0190358D01*
X0143372Y0191141D02*
X0003300Y0191141D01*
X0003300Y0192139D02*
X0142910Y0192139D01*
X0142823Y0193138D02*
X0003300Y0193138D01*
X0003300Y0194136D02*
X0143056Y0194136D01*
X0143723Y0195135D02*
X0018893Y0195135D01*
X0018717Y0194958D02*
X0020079Y0196321D01*
X0020817Y0198101D01*
X0020817Y0200028D01*
X0020079Y0201808D01*
X0018717Y0203170D01*
X0016937Y0203908D01*
X0015010Y0203908D01*
X0013230Y0203170D01*
X0011867Y0201808D01*
X0011130Y0200028D01*
X0011130Y0198101D01*
X0011867Y0196321D01*
X0013230Y0194958D01*
X0015010Y0194221D01*
X0016937Y0194221D01*
X0018717Y0194958D01*
X0019892Y0196133D02*
X0184871Y0196133D01*
X0184871Y0195135D02*
X0168735Y0195135D01*
X0168304Y0195566D02*
X0167175Y0196034D01*
X0165953Y0196034D01*
X0164824Y0195566D01*
X0163960Y0194702D01*
X0163492Y0193573D01*
X0163492Y0192351D01*
X0163960Y0191222D01*
X0164824Y0190358D01*
X0165953Y0189890D01*
X0167175Y0189890D01*
X0168304Y0190358D01*
X0169168Y0191222D01*
X0169635Y0192351D01*
X0169635Y0193573D01*
X0169168Y0194702D01*
X0168304Y0195566D01*
X0169402Y0194136D02*
X0184871Y0194136D01*
X0184871Y0193138D02*
X0169635Y0193138D01*
X0169548Y0192139D02*
X0184871Y0192139D01*
X0184871Y0191141D02*
X0169087Y0191141D01*
X0167783Y0190142D02*
X0184871Y0190142D01*
X0190776Y0190142D02*
X0219225Y0190142D01*
X0219286Y0191141D02*
X0190776Y0191141D01*
X0190776Y0192139D02*
X0219700Y0192139D01*
X0220477Y0193138D02*
X0190776Y0193138D01*
X0190776Y0194136D02*
X0222114Y0194136D01*
X0220541Y0197132D02*
X0190776Y0197132D01*
X0190776Y0198130D02*
X0219726Y0198130D01*
X0219313Y0199129D02*
X0190776Y0199129D01*
X0190776Y0200127D02*
X0219225Y0200127D01*
X0219280Y0201126D02*
X0190776Y0201126D01*
X0190776Y0202124D02*
X0219694Y0202124D01*
X0220462Y0203123D02*
X0190776Y0203123D01*
X0190776Y0204122D02*
X0222078Y0204122D01*
X0222303Y0206119D02*
X0190776Y0206119D01*
X0190776Y0207117D02*
X0220555Y0207117D01*
X0219732Y0208116D02*
X0190776Y0208116D01*
X0190776Y0209114D02*
X0219319Y0209114D01*
X0219225Y0210113D02*
X0190776Y0210113D01*
X0190776Y0211111D02*
X0219274Y0211111D01*
X0219688Y0212110D02*
X0190776Y0212110D01*
X0190776Y0213108D02*
X0220447Y0213108D01*
X0219307Y0189144D02*
X0190776Y0189144D01*
X0190776Y0188145D02*
X0219720Y0188145D01*
X0220526Y0187147D02*
X0190776Y0187147D01*
X0184871Y0197132D02*
X0020415Y0197132D01*
X0020817Y0198130D02*
X0037366Y0198130D01*
X0037462Y0198035D02*
X0038591Y0197567D01*
X0039813Y0197567D01*
X0040942Y0198035D01*
X0041806Y0198899D01*
X0042273Y0200028D01*
X0042273Y0201250D01*
X0041806Y0202379D01*
X0040942Y0203243D01*
X0039813Y0203711D01*
X0038591Y0203711D01*
X0037462Y0203243D01*
X0036598Y0202379D01*
X0036130Y0201250D01*
X0036130Y0200028D01*
X0036598Y0198899D01*
X0037462Y0198035D01*
X0036502Y0199129D02*
X0020817Y0199129D01*
X0020775Y0200127D02*
X0036130Y0200127D01*
X0036130Y0201126D02*
X0020362Y0201126D01*
X0019762Y0202124D02*
X0036492Y0202124D01*
X0037342Y0203123D02*
X0018764Y0203123D01*
X0017154Y0207925D02*
X0017909Y0208170D01*
X0018616Y0208530D01*
X0019259Y0208997D01*
X0019820Y0209558D01*
X0020287Y0210201D01*
X0020647Y0210908D01*
X0020892Y0211663D01*
X0021000Y0212344D01*
X0016473Y0212344D01*
X0016473Y0207817D01*
X0017154Y0207925D01*
X0017742Y0208116D02*
X0184871Y0208116D01*
X0184871Y0209114D02*
X0019376Y0209114D01*
X0020223Y0210113D02*
X0184871Y0210113D01*
X0184871Y0211111D02*
X0020713Y0211111D01*
X0020963Y0212110D02*
X0184871Y0212110D01*
X0184871Y0213108D02*
X0016473Y0213108D01*
X0016473Y0213344D02*
X0021000Y0213344D01*
X0020892Y0214025D01*
X0020647Y0214780D01*
X0020287Y0215487D01*
X0019820Y0216129D01*
X0019259Y0216691D01*
X0018616Y0217157D01*
X0017909Y0217518D01*
X0017154Y0217763D01*
X0016473Y0217871D01*
X0016473Y0213344D01*
X0015473Y0213344D01*
X0015473Y0212344D01*
X0010946Y0212344D01*
X0011054Y0211663D01*
X0011299Y0210908D01*
X0011660Y0210201D01*
X0012126Y0209558D01*
X0012688Y0208997D01*
X0013330Y0208530D01*
X0014037Y0208170D01*
X0014792Y0207925D01*
X0015473Y0207817D01*
X0015473Y0212344D01*
X0016473Y0212344D01*
X0016473Y0213344D01*
X0016473Y0214107D02*
X0015473Y0214107D01*
X0015473Y0213344D02*
X0015473Y0217871D01*
X0014792Y0217763D01*
X0014037Y0217518D01*
X0013330Y0217157D01*
X0012688Y0216691D01*
X0012126Y0216129D01*
X0011660Y0215487D01*
X0011299Y0214780D01*
X0011054Y0214025D01*
X0010946Y0213344D01*
X0015473Y0213344D01*
X0015473Y0213108D02*
X0003300Y0213108D01*
X0003300Y0212110D02*
X0010983Y0212110D01*
X0011233Y0211111D02*
X0003300Y0211111D01*
X0003300Y0210113D02*
X0011724Y0210113D01*
X0012571Y0209114D02*
X0003300Y0209114D01*
X0003300Y0208116D02*
X0014205Y0208116D01*
X0015473Y0208116D02*
X0016473Y0208116D01*
X0016473Y0209114D02*
X0015473Y0209114D01*
X0015473Y0210113D02*
X0016473Y0210113D01*
X0016473Y0211111D02*
X0015473Y0211111D01*
X0015473Y0212110D02*
X0016473Y0212110D01*
X0016473Y0215105D02*
X0015473Y0215105D01*
X0015473Y0216104D02*
X0016473Y0216104D01*
X0016473Y0217102D02*
X0015473Y0217102D01*
X0013254Y0217102D02*
X0003300Y0217102D01*
X0003300Y0216104D02*
X0012108Y0216104D01*
X0011465Y0215105D02*
X0003300Y0215105D01*
X0003300Y0214107D02*
X0011081Y0214107D01*
X0018692Y0217102D02*
X0184871Y0217102D01*
X0184871Y0216104D02*
X0019839Y0216104D01*
X0020481Y0215105D02*
X0184871Y0215105D01*
X0184871Y0214107D02*
X0020866Y0214107D01*
X0017696Y0222095D02*
X0184871Y0222095D01*
X0184871Y0223093D02*
X0019293Y0223093D01*
X0018717Y0222517D02*
X0020079Y0223880D01*
X0020817Y0225660D01*
X0020817Y0227587D01*
X0020079Y0229367D01*
X0018717Y0230729D01*
X0016937Y0231467D01*
X0015010Y0231467D01*
X0013230Y0230729D01*
X0011867Y0229367D01*
X0011130Y0227587D01*
X0011130Y0225660D01*
X0011867Y0223880D01*
X0013230Y0222517D01*
X0015010Y0221780D01*
X0016937Y0221780D01*
X0018717Y0222517D01*
X0020167Y0224092D02*
X0184871Y0224092D01*
X0184871Y0225090D02*
X0020581Y0225090D01*
X0020817Y0226089D02*
X0184871Y0226089D01*
X0184871Y0227087D02*
X0020817Y0227087D01*
X0020610Y0228086D02*
X0184871Y0228086D01*
X0184871Y0229084D02*
X0020196Y0229084D01*
X0019363Y0230083D02*
X0184871Y0230083D01*
X0184871Y0231081D02*
X0153793Y0231081D01*
X0154327Y0231303D02*
X0155191Y0232167D01*
X0155659Y0233296D01*
X0155659Y0234518D01*
X0155191Y0235647D01*
X0154327Y0236511D01*
X0153198Y0236978D01*
X0151976Y0236978D01*
X0150847Y0236511D01*
X0149983Y0235647D01*
X0149516Y0234518D01*
X0149516Y0233296D01*
X0149983Y0232167D01*
X0150847Y0231303D01*
X0151976Y0230835D01*
X0153198Y0230835D01*
X0154327Y0231303D01*
X0155104Y0232080D02*
X0184871Y0232080D01*
X0184871Y0233078D02*
X0155569Y0233078D01*
X0155659Y0234077D02*
X0184871Y0234077D01*
X0184871Y0235075D02*
X0155428Y0235075D01*
X0154764Y0236074D02*
X0184871Y0236074D01*
X0184871Y0237072D02*
X0121711Y0237072D01*
X0121727Y0237088D02*
X0122194Y0238217D01*
X0122194Y0238434D01*
X0184871Y0238434D01*
X0184871Y0130967D01*
X0184629Y0130726D01*
X0184161Y0129597D01*
X0184161Y0128375D01*
X0184629Y0127246D01*
X0184871Y0127004D01*
X0184871Y0119537D01*
X0196288Y0107726D01*
X0196303Y0106740D01*
X0195469Y0107574D01*
X0194340Y0108041D01*
X0193118Y0108041D01*
X0191989Y0107574D01*
X0191125Y0106710D01*
X0190657Y0105581D01*
X0190657Y0104359D01*
X0191125Y0103230D01*
X0191989Y0102366D01*
X0193118Y0101898D01*
X0194340Y0101898D01*
X0195469Y0102366D01*
X0196333Y0103230D01*
X0196355Y0103281D01*
X0196413Y0099346D01*
X0195666Y0100094D01*
X0194537Y0100561D01*
X0193315Y0100561D01*
X0192186Y0100094D01*
X0191322Y0099229D01*
X0190854Y0098100D01*
X0190854Y0096878D01*
X0191322Y0095750D01*
X0192186Y0094885D01*
X0192860Y0094606D01*
X0186249Y0094734D01*
X0186839Y0051623D01*
X0135658Y0051623D01*
X0135658Y0016903D01*
X0003300Y0016903D01*
X0003300Y0313115D01*
X0117942Y0313115D01*
X0117942Y0241664D01*
X0117383Y0241432D01*
X0116519Y0240568D01*
X0116051Y0239439D01*
X0116051Y0238217D01*
X0116519Y0237088D01*
X0117383Y0236224D01*
X0118512Y0235756D01*
X0119734Y0235756D01*
X0120863Y0236224D01*
X0121727Y0237088D01*
X0122134Y0238071D02*
X0184871Y0238071D01*
X0184871Y0221096D02*
X0003300Y0221096D01*
X0003300Y0220098D02*
X0184871Y0220098D01*
X0184871Y0219099D02*
X0003300Y0219099D01*
X0003300Y0218101D02*
X0184871Y0218101D01*
X0184871Y0207117D02*
X0003300Y0207117D01*
X0003300Y0206119D02*
X0184871Y0206119D01*
X0184871Y0205120D02*
X0003300Y0205120D01*
X0003300Y0204122D02*
X0184871Y0204122D01*
X0184871Y0203123D02*
X0041062Y0203123D01*
X0041911Y0202124D02*
X0184871Y0202124D01*
X0184871Y0201126D02*
X0042273Y0201126D01*
X0042273Y0200127D02*
X0184871Y0200127D01*
X0184871Y0199129D02*
X0041901Y0199129D01*
X0041037Y0198130D02*
X0184871Y0198130D01*
X0190776Y0205120D02*
X0355025Y0205120D01*
X0365777Y0201126D02*
X0374316Y0201126D01*
X0374316Y0202124D02*
X0367288Y0202124D01*
X0368286Y0203123D02*
X0374316Y0203123D01*
X0374316Y0204122D02*
X0369027Y0204122D01*
X0369441Y0205120D02*
X0374316Y0205120D01*
X0374316Y0206119D02*
X0369854Y0206119D01*
X0370032Y0207117D02*
X0374316Y0207117D01*
X0374316Y0208116D02*
X0370032Y0208116D01*
X0370032Y0209114D02*
X0374316Y0209114D01*
X0374316Y0210113D02*
X0369841Y0210113D01*
X0369428Y0211111D02*
X0374316Y0211111D01*
X0374316Y0212110D02*
X0369014Y0212110D01*
X0368254Y0213108D02*
X0374316Y0213108D01*
X0374316Y0214107D02*
X0367256Y0214107D01*
X0365701Y0215105D02*
X0374316Y0215105D01*
X0374316Y0230083D02*
X0340230Y0230083D01*
X0341000Y0231081D02*
X0374316Y0231081D01*
X0374316Y0232080D02*
X0341414Y0232080D01*
X0341486Y0233078D02*
X0374316Y0233078D01*
X0374316Y0234077D02*
X0341431Y0234077D01*
X0341018Y0235075D02*
X0374316Y0235075D01*
X0374316Y0236074D02*
X0340273Y0236074D01*
X0338755Y0237072D02*
X0374316Y0237072D01*
X0374316Y0246059D02*
X0365616Y0246059D01*
X0367221Y0247058D02*
X0374316Y0247058D01*
X0374316Y0248056D02*
X0368219Y0248056D01*
X0368999Y0249055D02*
X0374316Y0249055D01*
X0374316Y0250053D02*
X0369413Y0250053D01*
X0369826Y0251052D02*
X0374316Y0251052D01*
X0374316Y0252050D02*
X0370032Y0252050D01*
X0370032Y0253049D02*
X0374316Y0253049D01*
X0374316Y0254047D02*
X0370032Y0254047D01*
X0369869Y0255046D02*
X0374316Y0255046D01*
X0374316Y0256044D02*
X0369455Y0256044D01*
X0369042Y0257043D02*
X0374316Y0257043D01*
X0374316Y0258041D02*
X0368321Y0258041D01*
X0367323Y0259040D02*
X0374316Y0259040D01*
X0374316Y0260038D02*
X0365863Y0260038D01*
X0358604Y0260038D02*
X0122666Y0260038D01*
X0122666Y0259040D02*
X0357143Y0259040D01*
X0356145Y0258041D02*
X0122666Y0258041D01*
X0122666Y0257043D02*
X0355424Y0257043D01*
X0355011Y0256044D02*
X0122666Y0256044D01*
X0117942Y0256044D02*
X0020444Y0256044D01*
X0020079Y0256926D02*
X0020817Y0255146D01*
X0020817Y0253219D01*
X0020079Y0251439D01*
X0018717Y0250076D01*
X0016937Y0249339D01*
X0015010Y0249339D01*
X0013230Y0250076D01*
X0011867Y0251439D01*
X0011130Y0253219D01*
X0011130Y0255146D01*
X0011867Y0256926D01*
X0013230Y0258288D01*
X0015010Y0259026D01*
X0016937Y0259026D01*
X0018717Y0258288D01*
X0020079Y0256926D01*
X0019962Y0257043D02*
X0117942Y0257043D01*
X0117942Y0258041D02*
X0018964Y0258041D01*
X0020817Y0255046D02*
X0117942Y0255046D01*
X0117942Y0254047D02*
X0020817Y0254047D01*
X0020746Y0253049D02*
X0117942Y0253049D01*
X0117942Y0252050D02*
X0020332Y0252050D01*
X0019692Y0251052D02*
X0117942Y0251052D01*
X0117942Y0250053D02*
X0018660Y0250053D01*
X0013286Y0250053D02*
X0003300Y0250053D01*
X0003300Y0249055D02*
X0117942Y0249055D01*
X0117942Y0248056D02*
X0003300Y0248056D01*
X0003300Y0247058D02*
X0117942Y0247058D01*
X0117942Y0246059D02*
X0003300Y0246059D01*
X0003300Y0245060D02*
X0014005Y0245060D01*
X0014037Y0245077D02*
X0013330Y0244716D01*
X0012688Y0244250D01*
X0012126Y0243688D01*
X0011660Y0243046D01*
X0011299Y0242339D01*
X0011054Y0241584D01*
X0010946Y0240903D01*
X0015473Y0240903D01*
X0015473Y0239903D01*
X0010946Y0239903D01*
X0011054Y0239222D01*
X0011299Y0238467D01*
X0011660Y0237760D01*
X0012126Y0237117D01*
X0012688Y0236556D01*
X0013330Y0236089D01*
X0014037Y0235729D01*
X0014792Y0235484D01*
X0015473Y0235376D01*
X0015473Y0239903D01*
X0016473Y0239903D01*
X0016473Y0235376D01*
X0017154Y0235484D01*
X0017909Y0235729D01*
X0018616Y0236089D01*
X0019259Y0236556D01*
X0019820Y0237117D01*
X0020287Y0237760D01*
X0020647Y0238467D01*
X0020892Y0239222D01*
X0021000Y0239903D01*
X0016473Y0239903D01*
X0016473Y0240903D01*
X0015473Y0240903D01*
X0015473Y0245430D01*
X0014792Y0245322D01*
X0014037Y0245077D01*
X0015473Y0245060D02*
X0016473Y0245060D01*
X0016473Y0245430D02*
X0016473Y0240903D01*
X0021000Y0240903D01*
X0020892Y0241584D01*
X0020647Y0242339D01*
X0020287Y0243046D01*
X0019820Y0243688D01*
X0019259Y0244250D01*
X0018616Y0244716D01*
X0017909Y0245077D01*
X0017154Y0245322D01*
X0016473Y0245430D01*
X0016473Y0244062D02*
X0015473Y0244062D01*
X0015473Y0243063D02*
X0016473Y0243063D01*
X0016473Y0242065D02*
X0015473Y0242065D01*
X0015473Y0241066D02*
X0016473Y0241066D01*
X0016473Y0240068D02*
X0053846Y0240068D01*
X0053846Y0239595D02*
X0054314Y0238466D01*
X0055178Y0237602D01*
X0056307Y0237134D01*
X0057529Y0237134D01*
X0058658Y0237602D01*
X0059522Y0238466D01*
X0059990Y0239595D01*
X0059990Y0240817D01*
X0059522Y0241946D01*
X0058658Y0242810D01*
X0057529Y0243278D01*
X0056307Y0243278D01*
X0055178Y0242810D01*
X0054314Y0241946D01*
X0053846Y0240817D01*
X0053846Y0239595D01*
X0054064Y0239069D02*
X0020843Y0239069D01*
X0020445Y0238071D02*
X0054709Y0238071D01*
X0053950Y0241066D02*
X0020974Y0241066D01*
X0020736Y0242065D02*
X0054433Y0242065D01*
X0055790Y0243063D02*
X0020274Y0243063D01*
X0019446Y0244062D02*
X0117942Y0244062D01*
X0117942Y0245060D02*
X0017941Y0245060D01*
X0012500Y0244062D02*
X0003300Y0244062D01*
X0003300Y0243063D02*
X0011672Y0243063D01*
X0011210Y0242065D02*
X0003300Y0242065D01*
X0003300Y0241066D02*
X0010972Y0241066D01*
X0011104Y0239069D02*
X0003300Y0239069D01*
X0003300Y0238071D02*
X0011501Y0238071D01*
X0012171Y0237072D02*
X0003300Y0237072D01*
X0003300Y0236074D02*
X0013361Y0236074D01*
X0015473Y0236074D02*
X0016473Y0236074D01*
X0016473Y0237072D02*
X0015473Y0237072D01*
X0015473Y0238071D02*
X0016473Y0238071D01*
X0016473Y0239069D02*
X0015473Y0239069D01*
X0015473Y0240068D02*
X0003300Y0240068D01*
X0003300Y0235075D02*
X0149747Y0235075D01*
X0149516Y0234077D02*
X0003300Y0234077D01*
X0003300Y0233078D02*
X0149606Y0233078D01*
X0150070Y0232080D02*
X0003300Y0232080D01*
X0003300Y0231081D02*
X0014080Y0231081D01*
X0012583Y0230083D02*
X0003300Y0230083D01*
X0003300Y0229084D02*
X0011750Y0229084D01*
X0011337Y0228086D02*
X0003300Y0228086D01*
X0003300Y0227087D02*
X0011130Y0227087D01*
X0011130Y0226089D02*
X0003300Y0226089D01*
X0003300Y0225090D02*
X0011366Y0225090D01*
X0011779Y0224092D02*
X0003300Y0224092D01*
X0003300Y0223093D02*
X0012654Y0223093D01*
X0014250Y0222095D02*
X0003300Y0222095D01*
X0017867Y0231081D02*
X0151382Y0231081D01*
X0150410Y0236074D02*
X0120500Y0236074D01*
X0117745Y0236074D02*
X0018586Y0236074D01*
X0019775Y0237072D02*
X0086810Y0237072D01*
X0086401Y0237482D02*
X0087265Y0236618D01*
X0088394Y0236150D01*
X0089616Y0236150D01*
X0090745Y0236618D01*
X0091609Y0237482D01*
X0092076Y0238611D01*
X0092076Y0239833D01*
X0091609Y0240962D01*
X0090745Y0241826D01*
X0089616Y0242293D01*
X0088394Y0242293D01*
X0087265Y0241826D01*
X0086401Y0240962D01*
X0085933Y0239833D01*
X0085933Y0238611D01*
X0086401Y0237482D01*
X0086157Y0238071D02*
X0059127Y0238071D01*
X0059772Y0239069D02*
X0085933Y0239069D01*
X0086030Y0240068D02*
X0059990Y0240068D01*
X0059886Y0241066D02*
X0086505Y0241066D01*
X0087842Y0242065D02*
X0059403Y0242065D01*
X0058046Y0243063D02*
X0117942Y0243063D01*
X0117942Y0242065D02*
X0090167Y0242065D01*
X0091504Y0241066D02*
X0117017Y0241066D01*
X0116312Y0240068D02*
X0091979Y0240068D01*
X0092076Y0239069D02*
X0116051Y0239069D01*
X0116112Y0238071D02*
X0091853Y0238071D01*
X0091199Y0237072D02*
X0116535Y0237072D01*
X0122666Y0244062D02*
X0124718Y0244062D01*
X0125342Y0245060D02*
X0122666Y0245060D01*
X0117942Y0259040D02*
X0003300Y0259040D01*
X0003300Y0260038D02*
X0117942Y0260038D01*
X0117942Y0261037D02*
X0003300Y0261037D01*
X0003300Y0262035D02*
X0117942Y0262035D01*
X0117942Y0263034D02*
X0017097Y0263034D01*
X0017154Y0263043D02*
X0017909Y0263288D01*
X0018616Y0263649D01*
X0019259Y0264115D01*
X0019820Y0264676D01*
X0020287Y0265319D01*
X0020647Y0266026D01*
X0020892Y0266781D01*
X0021000Y0267462D01*
X0016473Y0267462D01*
X0016473Y0262935D01*
X0017154Y0263043D01*
X0016473Y0263034D02*
X0015473Y0263034D01*
X0015473Y0262935D02*
X0015473Y0267462D01*
X0010946Y0267462D01*
X0011054Y0266781D01*
X0011299Y0266026D01*
X0011660Y0265319D01*
X0012126Y0264676D01*
X0012688Y0264115D01*
X0013330Y0263649D01*
X0014037Y0263288D01*
X0014792Y0263043D01*
X0015473Y0262935D01*
X0014850Y0263034D02*
X0003300Y0263034D01*
X0003300Y0264032D02*
X0012802Y0264032D01*
X0011869Y0265031D02*
X0003300Y0265031D01*
X0003300Y0266029D02*
X0011298Y0266029D01*
X0011015Y0267028D02*
X0003300Y0267028D01*
X0003300Y0268026D02*
X0015473Y0268026D01*
X0015473Y0268462D02*
X0015473Y0267462D01*
X0016473Y0267462D01*
X0016473Y0268462D01*
X0015473Y0268462D01*
X0010946Y0268462D01*
X0011054Y0269143D01*
X0011299Y0269898D01*
X0011660Y0270605D01*
X0012126Y0271247D01*
X0012688Y0271809D01*
X0013330Y0272275D01*
X0014037Y0272636D01*
X0014792Y0272881D01*
X0015473Y0272989D01*
X0015473Y0268462D01*
X0015473Y0269025D02*
X0016473Y0269025D01*
X0016473Y0268462D02*
X0016473Y0272989D01*
X0017154Y0272881D01*
X0017909Y0272636D01*
X0018616Y0272275D01*
X0019259Y0271809D01*
X0019820Y0271247D01*
X0020287Y0270605D01*
X0020647Y0269898D01*
X0020892Y0269143D01*
X0021000Y0268462D01*
X0016473Y0268462D01*
X0016473Y0268026D02*
X0117942Y0268026D01*
X0117942Y0267028D02*
X0020931Y0267028D01*
X0020648Y0266029D02*
X0117942Y0266029D01*
X0117942Y0265031D02*
X0020077Y0265031D01*
X0019145Y0264032D02*
X0117942Y0264032D01*
X0122666Y0264032D02*
X0374316Y0264032D01*
X0374316Y0263034D02*
X0122666Y0263034D01*
X0122666Y0262035D02*
X0374316Y0262035D01*
X0374316Y0261037D02*
X0122666Y0261037D01*
X0122666Y0265031D02*
X0374316Y0265031D01*
X0374316Y0266029D02*
X0122666Y0266029D01*
X0122666Y0267028D02*
X0374316Y0267028D01*
X0374316Y0268026D02*
X0122666Y0268026D01*
X0122666Y0269025D02*
X0374316Y0269025D01*
X0374316Y0270023D02*
X0122666Y0270023D01*
X0122666Y0271022D02*
X0374316Y0271022D01*
X0374316Y0272020D02*
X0122666Y0272020D01*
X0122666Y0273019D02*
X0374316Y0273019D01*
X0374316Y0274017D02*
X0122666Y0274017D01*
X0122666Y0275016D02*
X0374316Y0275016D01*
X0374316Y0276014D02*
X0122666Y0276014D01*
X0122666Y0277013D02*
X0374316Y0277013D01*
X0374316Y0278011D02*
X0122666Y0278011D01*
X0122666Y0279010D02*
X0141497Y0279010D01*
X0141693Y0278946D02*
X0142280Y0278853D01*
X0142280Y0282615D01*
X0143052Y0282615D01*
X0143052Y0278853D01*
X0143640Y0278946D01*
X0144262Y0279148D01*
X0144845Y0279446D01*
X0145375Y0279830D01*
X0145837Y0280293D01*
X0146222Y0280822D01*
X0146519Y0281405D01*
X0146721Y0282028D01*
X0146814Y0282615D01*
X0143052Y0282615D01*
X0143052Y0283387D01*
X0146814Y0283387D01*
X0146721Y0283975D01*
X0146519Y0284597D01*
X0146222Y0285180D01*
X0145837Y0285710D01*
X0145375Y0286172D01*
X0144845Y0286557D01*
X0144262Y0286854D01*
X0143640Y0287056D01*
X0143052Y0287149D01*
X0143052Y0283387D01*
X0142280Y0283387D01*
X0142280Y0282615D01*
X0138518Y0282615D01*
X0138611Y0282028D01*
X0138813Y0281405D01*
X0139110Y0280822D01*
X0139495Y0280293D01*
X0139958Y0279830D01*
X0140487Y0279446D01*
X0141070Y0279148D01*
X0141693Y0278946D01*
X0142280Y0279010D02*
X0143052Y0279010D01*
X0143836Y0279010D02*
X0201497Y0279010D01*
X0201693Y0278946D02*
X0202280Y0278853D01*
X0202280Y0282615D01*
X0203052Y0282615D01*
X0203052Y0278853D01*
X0203640Y0278946D01*
X0204262Y0279148D01*
X0204845Y0279446D01*
X0205375Y0279830D01*
X0205837Y0280293D01*
X0206222Y0280822D01*
X0206519Y0281405D01*
X0206721Y0282028D01*
X0206814Y0282615D01*
X0203052Y0282615D01*
X0203052Y0283387D01*
X0206814Y0283387D01*
X0206721Y0283975D01*
X0206519Y0284597D01*
X0206222Y0285180D01*
X0205837Y0285710D01*
X0205375Y0286172D01*
X0204845Y0286557D01*
X0204262Y0286854D01*
X0203640Y0287056D01*
X0203052Y0287149D01*
X0203052Y0283387D01*
X0202280Y0283387D01*
X0202280Y0282615D01*
X0198518Y0282615D01*
X0198611Y0282028D01*
X0198813Y0281405D01*
X0199110Y0280822D01*
X0199495Y0280293D01*
X0199958Y0279830D01*
X0200487Y0279446D01*
X0201070Y0279148D01*
X0201693Y0278946D01*
X0202280Y0279010D02*
X0203052Y0279010D01*
X0203836Y0279010D02*
X0374316Y0279010D01*
X0374316Y0280008D02*
X0205553Y0280008D01*
X0206316Y0281007D02*
X0374316Y0281007D01*
X0374316Y0282005D02*
X0206714Y0282005D01*
X0206712Y0284002D02*
X0374316Y0284002D01*
X0374316Y0283004D02*
X0203052Y0283004D01*
X0202280Y0283004D02*
X0196624Y0283004D01*
X0196624Y0283788D02*
X0196021Y0285243D01*
X0194908Y0286356D01*
X0193453Y0286959D01*
X0191879Y0286959D01*
X0190424Y0286356D01*
X0189311Y0285243D01*
X0188709Y0283788D01*
X0188709Y0282214D01*
X0189311Y0280760D01*
X0190424Y0279646D01*
X0191879Y0279044D01*
X0193453Y0279044D01*
X0194908Y0279646D01*
X0196021Y0280760D01*
X0196624Y0282214D01*
X0196624Y0283788D01*
X0196535Y0284002D02*
X0198620Y0284002D01*
X0198611Y0283975D02*
X0198518Y0283387D01*
X0202280Y0283387D01*
X0202280Y0287149D01*
X0201693Y0287056D01*
X0201070Y0286854D01*
X0200487Y0286557D01*
X0199958Y0286172D01*
X0199495Y0285710D01*
X0199110Y0285180D01*
X0198813Y0284597D01*
X0198611Y0283975D01*
X0199019Y0285001D02*
X0196121Y0285001D01*
X0195265Y0285999D02*
X0199785Y0285999D01*
X0201513Y0286998D02*
X0143820Y0286998D01*
X0143052Y0286998D02*
X0142280Y0286998D01*
X0142280Y0287149D02*
X0141693Y0287056D01*
X0141070Y0286854D01*
X0140487Y0286557D01*
X0139958Y0286172D01*
X0139495Y0285710D01*
X0139110Y0285180D01*
X0138813Y0284597D01*
X0138611Y0283975D01*
X0138518Y0283387D01*
X0142280Y0283387D01*
X0142280Y0287149D01*
X0141513Y0286998D02*
X0122666Y0286998D01*
X0122666Y0287996D02*
X0248752Y0287996D01*
X0248802Y0287876D02*
X0248335Y0289004D01*
X0248335Y0290226D01*
X0248802Y0291355D01*
X0249666Y0292219D01*
X0250795Y0292687D01*
X0252017Y0292687D01*
X0253146Y0292219D01*
X0254010Y0291355D01*
X0254478Y0290226D01*
X0254478Y0289004D01*
X0254010Y0287876D01*
X0253146Y0287011D01*
X0252017Y0286544D01*
X0250795Y0286544D01*
X0249666Y0287011D01*
X0248802Y0287876D01*
X0248339Y0288995D02*
X0122666Y0288995D01*
X0122666Y0289993D02*
X0248335Y0289993D01*
X0248652Y0290992D02*
X0122666Y0290992D01*
X0122666Y0291991D02*
X0249437Y0291991D01*
X0253375Y0291991D02*
X0353797Y0291991D01*
X0353568Y0292085D02*
X0356508Y0290867D01*
X0359691Y0290867D01*
X0362631Y0292085D01*
X0364881Y0294336D01*
X0366099Y0297276D01*
X0366099Y0300459D01*
X0364881Y0303399D01*
X0362631Y0305650D01*
X0359691Y0306867D01*
X0356508Y0306867D01*
X0353568Y0305650D01*
X0351317Y0303399D01*
X0350099Y0300459D01*
X0350099Y0297276D01*
X0351317Y0294336D01*
X0353568Y0292085D01*
X0352664Y0292989D02*
X0122666Y0292989D01*
X0122666Y0293988D02*
X0351665Y0293988D01*
X0351048Y0294986D02*
X0122666Y0294986D01*
X0122666Y0295985D02*
X0350634Y0295985D01*
X0350221Y0296983D02*
X0122666Y0296983D01*
X0122666Y0297982D02*
X0350099Y0297982D01*
X0350099Y0298980D02*
X0122666Y0298980D01*
X0122666Y0299979D02*
X0350099Y0299979D01*
X0350314Y0300977D02*
X0122666Y0300977D01*
X0122666Y0301976D02*
X0350728Y0301976D01*
X0351141Y0302974D02*
X0122666Y0302974D01*
X0122666Y0303973D02*
X0351891Y0303973D01*
X0352889Y0304971D02*
X0122666Y0304971D01*
X0122666Y0305970D02*
X0354341Y0305970D01*
X0361858Y0305970D02*
X0374316Y0305970D01*
X0374316Y0306968D02*
X0122666Y0306968D01*
X0122666Y0307967D02*
X0374316Y0307967D01*
X0374316Y0308965D02*
X0122666Y0308965D01*
X0122666Y0309964D02*
X0374316Y0309964D01*
X0374316Y0310962D02*
X0122666Y0310962D01*
X0122666Y0311961D02*
X0374316Y0311961D01*
X0374316Y0312959D02*
X0122666Y0312959D01*
X0117942Y0312959D02*
X0003300Y0312959D01*
X0003300Y0311961D02*
X0117942Y0311961D01*
X0117942Y0310962D02*
X0003300Y0310962D01*
X0003300Y0309964D02*
X0117942Y0309964D01*
X0117942Y0308965D02*
X0003300Y0308965D01*
X0003300Y0307967D02*
X0117942Y0307967D01*
X0117942Y0306968D02*
X0003300Y0306968D01*
X0003300Y0305970D02*
X0013789Y0305970D01*
X0013016Y0305650D02*
X0010766Y0303399D01*
X0009548Y0300459D01*
X0009548Y0297276D01*
X0010766Y0294336D01*
X0013016Y0292085D01*
X0015957Y0290867D01*
X0019139Y0290867D01*
X0022080Y0292085D01*
X0024330Y0294336D01*
X0025548Y0297276D01*
X0025548Y0300459D01*
X0024330Y0303399D01*
X0022080Y0305650D01*
X0019139Y0306867D01*
X0015957Y0306867D01*
X0013016Y0305650D01*
X0012338Y0304971D02*
X0003300Y0304971D01*
X0003300Y0303973D02*
X0011340Y0303973D01*
X0010590Y0302974D02*
X0003300Y0302974D01*
X0003300Y0301976D02*
X0010176Y0301976D01*
X0009763Y0300977D02*
X0003300Y0300977D01*
X0003300Y0299979D02*
X0009548Y0299979D01*
X0009548Y0298980D02*
X0003300Y0298980D01*
X0003300Y0297982D02*
X0009548Y0297982D01*
X0009669Y0296983D02*
X0003300Y0296983D01*
X0003300Y0295985D02*
X0010083Y0295985D01*
X0010497Y0294986D02*
X0003300Y0294986D01*
X0003300Y0293988D02*
X0011114Y0293988D01*
X0012113Y0292989D02*
X0003300Y0292989D01*
X0003300Y0291991D02*
X0013245Y0291991D01*
X0015656Y0290992D02*
X0003300Y0290992D01*
X0003300Y0289993D02*
X0117942Y0289993D01*
X0117942Y0288995D02*
X0003300Y0288995D01*
X0003300Y0287996D02*
X0117942Y0287996D01*
X0117942Y0286998D02*
X0003300Y0286998D01*
X0003300Y0285999D02*
X0117942Y0285999D01*
X0117942Y0285001D02*
X0003300Y0285001D01*
X0003300Y0284002D02*
X0117942Y0284002D01*
X0117942Y0283004D02*
X0003300Y0283004D01*
X0003300Y0282005D02*
X0117942Y0282005D01*
X0117942Y0281007D02*
X0003300Y0281007D01*
X0003300Y0280008D02*
X0117942Y0280008D01*
X0117942Y0279010D02*
X0003300Y0279010D01*
X0003300Y0278011D02*
X0117942Y0278011D01*
X0117942Y0277013D02*
X0003300Y0277013D01*
X0003300Y0276014D02*
X0117942Y0276014D01*
X0117942Y0275016D02*
X0003300Y0275016D01*
X0003300Y0274017D02*
X0117942Y0274017D01*
X0117942Y0273019D02*
X0003300Y0273019D01*
X0003300Y0272020D02*
X0012979Y0272020D01*
X0011962Y0271022D02*
X0003300Y0271022D01*
X0003300Y0270023D02*
X0011363Y0270023D01*
X0011035Y0269025D02*
X0003300Y0269025D01*
X0015473Y0270023D02*
X0016473Y0270023D01*
X0016473Y0271022D02*
X0015473Y0271022D01*
X0015473Y0272020D02*
X0016473Y0272020D01*
X0018968Y0272020D02*
X0117942Y0272020D01*
X0117942Y0271022D02*
X0019984Y0271022D01*
X0020583Y0270023D02*
X0117942Y0270023D01*
X0117942Y0269025D02*
X0020911Y0269025D01*
X0016473Y0267028D02*
X0015473Y0267028D01*
X0015473Y0266029D02*
X0016473Y0266029D01*
X0016473Y0265031D02*
X0015473Y0265031D01*
X0015473Y0264032D02*
X0016473Y0264032D01*
X0012982Y0258041D02*
X0003300Y0258041D01*
X0003300Y0257043D02*
X0011984Y0257043D01*
X0011502Y0256044D02*
X0003300Y0256044D01*
X0003300Y0255046D02*
X0011130Y0255046D01*
X0011130Y0254047D02*
X0003300Y0254047D01*
X0003300Y0253049D02*
X0011201Y0253049D01*
X0011614Y0252050D02*
X0003300Y0252050D01*
X0003300Y0251052D02*
X0012255Y0251052D01*
X0019440Y0290992D02*
X0117942Y0290992D01*
X0117942Y0291991D02*
X0021851Y0291991D01*
X0022983Y0292989D02*
X0117942Y0292989D01*
X0117942Y0293988D02*
X0023982Y0293988D01*
X0024599Y0294986D02*
X0117942Y0294986D01*
X0117942Y0295985D02*
X0025013Y0295985D01*
X0025427Y0296983D02*
X0117942Y0296983D01*
X0117942Y0297982D02*
X0025548Y0297982D01*
X0025548Y0298980D02*
X0117942Y0298980D01*
X0117942Y0299979D02*
X0025548Y0299979D01*
X0025333Y0300977D02*
X0117942Y0300977D01*
X0117942Y0301976D02*
X0024920Y0301976D01*
X0024506Y0302974D02*
X0117942Y0302974D01*
X0117942Y0303973D02*
X0023757Y0303973D01*
X0022758Y0304971D02*
X0117942Y0304971D01*
X0117942Y0305970D02*
X0021307Y0305970D01*
X0122666Y0285999D02*
X0130068Y0285999D01*
X0130424Y0286356D02*
X0129311Y0285243D01*
X0128709Y0283788D01*
X0128709Y0282214D01*
X0129311Y0280760D01*
X0130424Y0279646D01*
X0131879Y0279044D01*
X0133453Y0279044D01*
X0134908Y0279646D01*
X0136021Y0280760D01*
X0136624Y0282214D01*
X0136624Y0283788D01*
X0136021Y0285243D01*
X0134908Y0286356D01*
X0133453Y0286959D01*
X0131879Y0286959D01*
X0130424Y0286356D01*
X0129211Y0285001D02*
X0122666Y0285001D01*
X0122666Y0284002D02*
X0128797Y0284002D01*
X0128709Y0283004D02*
X0122666Y0283004D01*
X0122666Y0282005D02*
X0128795Y0282005D01*
X0129209Y0281007D02*
X0122666Y0281007D01*
X0122666Y0280008D02*
X0130062Y0280008D01*
X0135270Y0280008D02*
X0139780Y0280008D01*
X0139016Y0281007D02*
X0136124Y0281007D01*
X0136537Y0282005D02*
X0138618Y0282005D01*
X0138620Y0284002D02*
X0136535Y0284002D01*
X0136624Y0283004D02*
X0142280Y0283004D01*
X0143052Y0283004D02*
X0148709Y0283004D01*
X0148709Y0283788D02*
X0148709Y0282214D01*
X0149311Y0280760D01*
X0150424Y0279646D01*
X0151879Y0279044D01*
X0153453Y0279044D01*
X0154908Y0279646D01*
X0156021Y0280760D01*
X0156624Y0282214D01*
X0156624Y0283788D01*
X0156021Y0285243D01*
X0154908Y0286356D01*
X0153453Y0286959D01*
X0151879Y0286959D01*
X0150424Y0286356D01*
X0149311Y0285243D01*
X0148709Y0283788D01*
X0148797Y0284002D02*
X0146712Y0284002D01*
X0146313Y0285001D02*
X0149211Y0285001D01*
X0150068Y0285999D02*
X0145548Y0285999D01*
X0143052Y0285999D02*
X0142280Y0285999D01*
X0142280Y0285001D02*
X0143052Y0285001D01*
X0143052Y0284002D02*
X0142280Y0284002D01*
X0142280Y0282005D02*
X0143052Y0282005D01*
X0143052Y0281007D02*
X0142280Y0281007D01*
X0142280Y0280008D02*
X0143052Y0280008D01*
X0145553Y0280008D02*
X0150062Y0280008D01*
X0149209Y0281007D02*
X0146316Y0281007D01*
X0146714Y0282005D02*
X0148795Y0282005D01*
X0155270Y0280008D02*
X0160062Y0280008D01*
X0160424Y0279646D02*
X0161879Y0279044D01*
X0163453Y0279044D01*
X0164908Y0279646D01*
X0166021Y0280760D01*
X0166624Y0282214D01*
X0166624Y0283788D01*
X0166021Y0285243D01*
X0164908Y0286356D01*
X0163453Y0286959D01*
X0161879Y0286959D01*
X0160424Y0286356D01*
X0159311Y0285243D01*
X0158709Y0283788D01*
X0158709Y0282214D01*
X0159311Y0280760D01*
X0160424Y0279646D01*
X0159209Y0281007D02*
X0156124Y0281007D01*
X0156537Y0282005D02*
X0158795Y0282005D01*
X0158709Y0283004D02*
X0156624Y0283004D01*
X0156535Y0284002D02*
X0158797Y0284002D01*
X0159211Y0285001D02*
X0156121Y0285001D01*
X0155265Y0285999D02*
X0160068Y0285999D01*
X0165265Y0285999D02*
X0180068Y0285999D01*
X0180424Y0286356D02*
X0179311Y0285243D01*
X0178709Y0283788D01*
X0178709Y0282214D01*
X0179311Y0280760D01*
X0180424Y0279646D01*
X0181879Y0279044D01*
X0183453Y0279044D01*
X0184908Y0279646D01*
X0186021Y0280760D01*
X0186624Y0282214D01*
X0186624Y0283788D01*
X0186021Y0285243D01*
X0184908Y0286356D01*
X0183453Y0286959D01*
X0181879Y0286959D01*
X0180424Y0286356D01*
X0179211Y0285001D02*
X0166121Y0285001D01*
X0166535Y0284002D02*
X0178797Y0284002D01*
X0178709Y0283004D02*
X0166624Y0283004D01*
X0166537Y0282005D02*
X0178795Y0282005D01*
X0179209Y0281007D02*
X0166124Y0281007D01*
X0165270Y0280008D02*
X0180062Y0280008D01*
X0185270Y0280008D02*
X0190062Y0280008D01*
X0189209Y0281007D02*
X0186124Y0281007D01*
X0186537Y0282005D02*
X0188795Y0282005D01*
X0188709Y0283004D02*
X0186624Y0283004D01*
X0186535Y0284002D02*
X0188797Y0284002D01*
X0189211Y0285001D02*
X0186121Y0285001D01*
X0185265Y0285999D02*
X0190068Y0285999D01*
X0196537Y0282005D02*
X0198618Y0282005D01*
X0199016Y0281007D02*
X0196124Y0281007D01*
X0195270Y0280008D02*
X0199780Y0280008D01*
X0202280Y0280008D02*
X0203052Y0280008D01*
X0203052Y0281007D02*
X0202280Y0281007D01*
X0202280Y0282005D02*
X0203052Y0282005D01*
X0203052Y0284002D02*
X0202280Y0284002D01*
X0202280Y0285001D02*
X0203052Y0285001D01*
X0203052Y0285999D02*
X0202280Y0285999D01*
X0202280Y0286998D02*
X0203052Y0286998D01*
X0203820Y0286998D02*
X0249699Y0286998D01*
X0253114Y0286998D02*
X0374316Y0286998D01*
X0374316Y0287996D02*
X0254060Y0287996D01*
X0254474Y0288995D02*
X0374316Y0288995D01*
X0374316Y0289993D02*
X0254478Y0289993D01*
X0254161Y0290992D02*
X0356207Y0290992D01*
X0359991Y0290992D02*
X0374316Y0290992D01*
X0374316Y0291991D02*
X0362402Y0291991D01*
X0363534Y0292989D02*
X0374316Y0292989D01*
X0374316Y0293988D02*
X0364533Y0293988D01*
X0365151Y0294986D02*
X0374316Y0294986D01*
X0374316Y0295985D02*
X0365564Y0295985D01*
X0365978Y0296983D02*
X0374316Y0296983D01*
X0374316Y0297982D02*
X0366099Y0297982D01*
X0366099Y0298980D02*
X0374316Y0298980D01*
X0374316Y0299979D02*
X0366099Y0299979D01*
X0365884Y0300977D02*
X0374316Y0300977D01*
X0374316Y0301976D02*
X0365471Y0301976D01*
X0365057Y0302974D02*
X0374316Y0302974D01*
X0374316Y0303973D02*
X0364308Y0303973D01*
X0363309Y0304971D02*
X0374316Y0304971D01*
X0374316Y0285999D02*
X0205548Y0285999D01*
X0206313Y0285001D02*
X0374316Y0285001D01*
X0334178Y0246059D02*
X0330991Y0246059D01*
X0330208Y0245060D02*
X0333442Y0245060D01*
X0333028Y0244062D02*
X0328598Y0244062D01*
X0328773Y0242065D02*
X0333059Y0242065D01*
X0332980Y0243063D02*
X0286347Y0243063D01*
X0287074Y0232080D02*
X0325729Y0232080D01*
X0324200Y0231081D02*
X0287488Y0231081D01*
X0287525Y0230083D02*
X0323451Y0230083D01*
X0323038Y0229084D02*
X0287418Y0229084D01*
X0287005Y0228086D02*
X0322980Y0228086D01*
X0323049Y0227087D02*
X0286164Y0227087D01*
X0284743Y0224092D02*
X0325796Y0224092D01*
X0330251Y0221096D02*
X0333460Y0221096D01*
X0334221Y0220098D02*
X0331009Y0220098D01*
X0331422Y0219099D02*
X0335778Y0219099D01*
X0335814Y0229084D02*
X0331428Y0229084D01*
X0331015Y0230083D02*
X0334236Y0230083D01*
X0333466Y0231081D02*
X0330266Y0231081D01*
X0328737Y0232080D02*
X0333052Y0232080D01*
X0334251Y0240068D02*
X0331021Y0240068D01*
X0330281Y0241066D02*
X0333472Y0241066D01*
X0311520Y0176163D02*
X0374316Y0176163D01*
X0374316Y0175165D02*
X0312918Y0175165D01*
X0313418Y0174166D02*
X0374316Y0174166D01*
X0374316Y0173168D02*
X0313533Y0173168D01*
X0313327Y0172169D02*
X0374316Y0172169D01*
X0374316Y0171171D02*
X0312699Y0171171D01*
X0287048Y0158190D02*
X0374316Y0158190D01*
X0374316Y0157191D02*
X0286269Y0157191D01*
X0284626Y0156193D02*
X0374316Y0156193D01*
X0374316Y0155194D02*
X0181833Y0155194D01*
X0181653Y0155194D02*
X0184871Y0155194D01*
X0184871Y0154196D02*
X0181653Y0154196D01*
X0181802Y0154196D02*
X0222258Y0154196D01*
X0222549Y0154317D02*
X0221024Y0153685D01*
X0219857Y0152517D01*
X0219225Y0150992D01*
X0219225Y0149341D01*
X0219857Y0147816D01*
X0221024Y0146648D01*
X0222549Y0146017D01*
X0224200Y0146017D01*
X0225726Y0146648D01*
X0226893Y0147816D01*
X0227525Y0149341D01*
X0227525Y0150992D01*
X0226893Y0152517D01*
X0225726Y0153685D01*
X0224200Y0154317D01*
X0222549Y0154317D01*
X0222925Y0156193D02*
X0223825Y0156193D01*
X0223825Y0157191D02*
X0222925Y0157191D01*
X0222925Y0158190D02*
X0223825Y0158190D01*
X0223825Y0159189D02*
X0222925Y0159189D01*
X0222925Y0161186D02*
X0223825Y0161186D01*
X0223825Y0162184D02*
X0222925Y0162184D01*
X0222925Y0163183D02*
X0223825Y0163183D01*
X0227250Y0158190D02*
X0279702Y0158190D01*
X0280481Y0157191D02*
X0226551Y0157191D01*
X0225158Y0156193D02*
X0282124Y0156193D01*
X0282549Y0154317D02*
X0281024Y0153685D01*
X0279857Y0152517D01*
X0279225Y0150992D01*
X0279225Y0149341D01*
X0279857Y0147816D01*
X0281024Y0146648D01*
X0282549Y0146017D01*
X0284200Y0146017D01*
X0285726Y0146648D01*
X0286893Y0147816D01*
X0287525Y0149341D01*
X0287525Y0150992D01*
X0286893Y0152517D01*
X0285726Y0153685D01*
X0284200Y0154317D01*
X0282549Y0154317D01*
X0282258Y0154196D02*
X0224492Y0154196D01*
X0226213Y0153197D02*
X0280537Y0153197D01*
X0279725Y0152199D02*
X0227025Y0152199D01*
X0227439Y0151200D02*
X0279311Y0151200D01*
X0279225Y0150202D02*
X0227525Y0150202D01*
X0227468Y0149203D02*
X0279282Y0149203D01*
X0279695Y0148205D02*
X0227054Y0148205D01*
X0226283Y0147206D02*
X0280466Y0147206D01*
X0282088Y0146208D02*
X0224662Y0146208D01*
X0224200Y0144317D02*
X0222549Y0144317D01*
X0221024Y0143685D01*
X0219857Y0142517D01*
X0219225Y0140992D01*
X0219225Y0139341D01*
X0219857Y0137816D01*
X0221024Y0136648D01*
X0222549Y0136017D01*
X0224200Y0136017D01*
X0225726Y0136648D01*
X0226893Y0137816D01*
X0227525Y0139341D01*
X0227525Y0140992D01*
X0226893Y0142517D01*
X0225726Y0143685D01*
X0224200Y0144317D01*
X0224456Y0144211D02*
X0282294Y0144211D01*
X0282549Y0144317D02*
X0281024Y0143685D01*
X0279857Y0142517D01*
X0279225Y0140992D01*
X0279225Y0139341D01*
X0279857Y0137816D01*
X0281024Y0136648D01*
X0282549Y0136017D01*
X0284200Y0136017D01*
X0285726Y0136648D01*
X0286893Y0137816D01*
X0287525Y0139341D01*
X0287525Y0140992D01*
X0286893Y0142517D01*
X0285726Y0143685D01*
X0284200Y0144317D01*
X0282549Y0144317D01*
X0284456Y0144211D02*
X0357433Y0144211D01*
X0357815Y0144593D02*
X0355621Y0142400D01*
X0354434Y0139533D01*
X0354434Y0136430D01*
X0355621Y0133564D01*
X0357815Y0131370D01*
X0360682Y0130182D01*
X0363784Y0130182D01*
X0366651Y0131370D01*
X0368845Y0133564D01*
X0370032Y0136430D01*
X0370032Y0139533D01*
X0368845Y0142400D01*
X0366651Y0144593D01*
X0363784Y0145781D01*
X0360682Y0145781D01*
X0357815Y0144593D01*
X0359302Y0145209D02*
X0176997Y0145209D01*
X0176997Y0144211D02*
X0222294Y0144211D01*
X0222088Y0146208D02*
X0176997Y0146208D01*
X0176997Y0147206D02*
X0198157Y0147206D01*
X0198236Y0147174D02*
X0199458Y0147174D01*
X0200587Y0147641D01*
X0201451Y0148505D01*
X0201919Y0149634D01*
X0201919Y0150856D01*
X0201451Y0151985D01*
X0200587Y0152849D01*
X0199458Y0153317D01*
X0198236Y0153317D01*
X0197107Y0152849D01*
X0196243Y0151985D01*
X0195776Y0150856D01*
X0195776Y0149634D01*
X0196243Y0148505D01*
X0197107Y0147641D01*
X0198236Y0147174D01*
X0199537Y0147206D02*
X0220466Y0147206D01*
X0219695Y0148205D02*
X0201151Y0148205D01*
X0201740Y0149203D02*
X0219282Y0149203D01*
X0219225Y0150202D02*
X0201919Y0150202D01*
X0201776Y0151200D02*
X0219311Y0151200D01*
X0219725Y0152199D02*
X0201238Y0152199D01*
X0199747Y0153197D02*
X0220537Y0153197D01*
X0221592Y0156193D02*
X0181535Y0156193D01*
X0181318Y0156193D02*
X0184871Y0156193D01*
X0184871Y0153197D02*
X0181254Y0153197D01*
X0181465Y0153197D02*
X0197948Y0153197D01*
X0196457Y0152199D02*
X0180625Y0152199D01*
X0180355Y0152199D02*
X0184871Y0152199D01*
X0178662Y0152199D02*
X0178481Y0152199D01*
X0178481Y0153197D02*
X0178662Y0153197D01*
X0178662Y0154196D02*
X0178481Y0154196D01*
X0176788Y0152199D02*
X0175625Y0152199D01*
X0176997Y0151200D02*
X0195918Y0151200D01*
X0195776Y0150202D02*
X0176997Y0150202D01*
X0176997Y0149203D02*
X0195954Y0149203D01*
X0196544Y0148205D02*
X0176997Y0148205D01*
X0176997Y0143212D02*
X0220552Y0143212D01*
X0219731Y0142214D02*
X0176997Y0142214D01*
X0176997Y0141215D02*
X0219317Y0141215D01*
X0219225Y0140217D02*
X0176997Y0140217D01*
X0176997Y0139218D02*
X0219276Y0139218D01*
X0219689Y0138220D02*
X0176997Y0138220D01*
X0176997Y0137221D02*
X0220451Y0137221D01*
X0222052Y0136223D02*
X0176997Y0136223D01*
X0176997Y0135224D02*
X0323559Y0135224D01*
X0323628Y0135391D02*
X0322980Y0133828D01*
X0322980Y0132136D01*
X0323628Y0130573D01*
X0324824Y0129376D01*
X0326387Y0128729D01*
X0328079Y0128729D01*
X0329642Y0129376D01*
X0330838Y0130573D01*
X0331486Y0132136D01*
X0331486Y0133828D01*
X0330838Y0135391D01*
X0329642Y0136587D01*
X0328079Y0137234D01*
X0326387Y0137234D01*
X0324824Y0136587D01*
X0323628Y0135391D01*
X0324460Y0136223D02*
X0284698Y0136223D01*
X0286298Y0137221D02*
X0326355Y0137221D01*
X0328111Y0137221D02*
X0354434Y0137221D01*
X0354434Y0138220D02*
X0287060Y0138220D01*
X0287474Y0139218D02*
X0354434Y0139218D01*
X0354717Y0140217D02*
X0287525Y0140217D01*
X0287432Y0141215D02*
X0355131Y0141215D01*
X0355544Y0142214D02*
X0287019Y0142214D01*
X0286198Y0143212D02*
X0356434Y0143212D01*
X0354520Y0136223D02*
X0330006Y0136223D01*
X0330907Y0135224D02*
X0354933Y0135224D01*
X0355347Y0134226D02*
X0331321Y0134226D01*
X0331486Y0133227D02*
X0355958Y0133227D01*
X0356956Y0132229D02*
X0338093Y0132229D01*
X0338079Y0132234D02*
X0336387Y0132234D01*
X0334824Y0131587D01*
X0333628Y0130391D01*
X0332980Y0128828D01*
X0332980Y0127136D01*
X0333628Y0125573D01*
X0334824Y0124376D01*
X0336387Y0123729D01*
X0338079Y0123729D01*
X0339642Y0124376D01*
X0340838Y0125573D01*
X0341486Y0127136D01*
X0341486Y0128828D01*
X0340838Y0130391D01*
X0339642Y0131587D01*
X0338079Y0132234D01*
X0336373Y0132229D02*
X0331486Y0132229D01*
X0331111Y0131230D02*
X0334467Y0131230D01*
X0333562Y0130232D02*
X0330497Y0130232D01*
X0329296Y0129233D02*
X0333148Y0129233D01*
X0332980Y0128235D02*
X0287066Y0128235D01*
X0286893Y0127816D02*
X0287525Y0129341D01*
X0287525Y0130992D01*
X0286893Y0132517D01*
X0285726Y0133685D01*
X0284200Y0134317D01*
X0282549Y0134317D01*
X0281024Y0133685D01*
X0279857Y0132517D01*
X0279225Y0130992D01*
X0279225Y0129341D01*
X0279857Y0127816D01*
X0281024Y0126648D01*
X0282549Y0126017D01*
X0284200Y0126017D01*
X0285726Y0126648D01*
X0286893Y0127816D01*
X0286313Y0127236D02*
X0332980Y0127236D01*
X0333352Y0126238D02*
X0329991Y0126238D01*
X0329642Y0126587D02*
X0330838Y0125391D01*
X0331486Y0123828D01*
X0331486Y0122136D01*
X0330838Y0120573D01*
X0329642Y0119376D01*
X0328079Y0118729D01*
X0326387Y0118729D01*
X0324824Y0119376D01*
X0323628Y0120573D01*
X0322980Y0122136D01*
X0322980Y0123828D01*
X0323628Y0125391D01*
X0324824Y0126587D01*
X0326387Y0127234D01*
X0328079Y0127234D01*
X0329642Y0126587D01*
X0330901Y0125239D02*
X0333961Y0125239D01*
X0335152Y0124241D02*
X0331315Y0124241D01*
X0331486Y0123242D02*
X0374316Y0123242D01*
X0374316Y0122244D02*
X0331486Y0122244D01*
X0331117Y0121245D02*
X0334482Y0121245D01*
X0334824Y0121587D02*
X0333628Y0120391D01*
X0332980Y0118828D01*
X0332980Y0117136D01*
X0333628Y0115573D01*
X0334824Y0114376D01*
X0336387Y0113729D01*
X0338079Y0113729D01*
X0339642Y0114376D01*
X0340838Y0115573D01*
X0341486Y0117136D01*
X0341486Y0118828D01*
X0340838Y0120391D01*
X0339642Y0121587D01*
X0338079Y0122234D01*
X0336387Y0122234D01*
X0334824Y0121587D01*
X0333568Y0120247D02*
X0330512Y0120247D01*
X0329332Y0119248D02*
X0333155Y0119248D01*
X0332980Y0118250D02*
X0287073Y0118250D01*
X0286893Y0117816D02*
X0287525Y0119341D01*
X0287525Y0120992D01*
X0286893Y0122517D01*
X0285726Y0123685D01*
X0284200Y0124317D01*
X0282549Y0124317D01*
X0281024Y0123685D01*
X0279857Y0122517D01*
X0279225Y0120992D01*
X0279225Y0119341D01*
X0279857Y0117816D01*
X0281024Y0116648D01*
X0282549Y0116017D01*
X0284200Y0116017D01*
X0285726Y0116648D01*
X0286893Y0117816D01*
X0286328Y0117251D02*
X0332980Y0117251D01*
X0333346Y0116253D02*
X0329976Y0116253D01*
X0329642Y0116587D02*
X0328079Y0117234D01*
X0326387Y0117234D01*
X0324824Y0116587D01*
X0323628Y0115391D01*
X0322980Y0113828D01*
X0322980Y0112136D01*
X0323628Y0110573D01*
X0324824Y0109376D01*
X0326387Y0108729D01*
X0328079Y0108729D01*
X0329642Y0109376D01*
X0330838Y0110573D01*
X0331486Y0112136D01*
X0331486Y0113828D01*
X0330838Y0115391D01*
X0329642Y0116587D01*
X0330895Y0115254D02*
X0333946Y0115254D01*
X0335116Y0114255D02*
X0331309Y0114255D01*
X0331486Y0113257D02*
X0374316Y0113257D01*
X0374316Y0114255D02*
X0339350Y0114255D01*
X0340520Y0115254D02*
X0374316Y0115254D01*
X0374316Y0116253D02*
X0341120Y0116253D01*
X0341486Y0117251D02*
X0374316Y0117251D01*
X0374316Y0118250D02*
X0341486Y0118250D01*
X0341312Y0119248D02*
X0374316Y0119248D01*
X0374316Y0120247D02*
X0340898Y0120247D01*
X0339984Y0121245D02*
X0374316Y0121245D01*
X0374316Y0124241D02*
X0339314Y0124241D01*
X0340505Y0125239D02*
X0374316Y0125239D01*
X0374316Y0126238D02*
X0341114Y0126238D01*
X0341486Y0127236D02*
X0374316Y0127236D01*
X0374316Y0128235D02*
X0341486Y0128235D01*
X0341318Y0129233D02*
X0374316Y0129233D01*
X0374316Y0130232D02*
X0363903Y0130232D01*
X0366314Y0131230D02*
X0374316Y0131230D01*
X0374316Y0132229D02*
X0367510Y0132229D01*
X0368508Y0133227D02*
X0374316Y0133227D01*
X0374316Y0134226D02*
X0369119Y0134226D01*
X0369533Y0135224D02*
X0374316Y0135224D01*
X0374316Y0136223D02*
X0369946Y0136223D01*
X0370032Y0137221D02*
X0374316Y0137221D01*
X0374316Y0138220D02*
X0370032Y0138220D01*
X0370032Y0139218D02*
X0374316Y0139218D01*
X0374316Y0140217D02*
X0369749Y0140217D01*
X0369335Y0141215D02*
X0374316Y0141215D01*
X0374316Y0142214D02*
X0368922Y0142214D01*
X0368032Y0143212D02*
X0374316Y0143212D01*
X0374316Y0144211D02*
X0367034Y0144211D01*
X0365164Y0145209D02*
X0374316Y0145209D01*
X0374316Y0146208D02*
X0284662Y0146208D01*
X0286283Y0147206D02*
X0374316Y0147206D01*
X0374316Y0148205D02*
X0287054Y0148205D01*
X0287468Y0149203D02*
X0374316Y0149203D01*
X0374316Y0150202D02*
X0287525Y0150202D01*
X0287439Y0151200D02*
X0374316Y0151200D01*
X0374316Y0152199D02*
X0287025Y0152199D01*
X0286213Y0153197D02*
X0374316Y0153197D01*
X0374316Y0154196D02*
X0284492Y0154196D01*
X0280552Y0143212D02*
X0226198Y0143212D01*
X0227019Y0142214D02*
X0279731Y0142214D01*
X0279317Y0141215D02*
X0227432Y0141215D01*
X0227525Y0140217D02*
X0279225Y0140217D01*
X0279276Y0139218D02*
X0227474Y0139218D01*
X0227060Y0138220D02*
X0279689Y0138220D01*
X0280451Y0137221D02*
X0226298Y0137221D01*
X0224698Y0136223D02*
X0282052Y0136223D01*
X0282330Y0134226D02*
X0224420Y0134226D01*
X0224200Y0134317D02*
X0222549Y0134317D01*
X0221024Y0133685D01*
X0219857Y0132517D01*
X0219225Y0130992D01*
X0219225Y0129341D01*
X0219857Y0127816D01*
X0221024Y0126648D01*
X0222549Y0126017D01*
X0224200Y0126017D01*
X0225726Y0126648D01*
X0226893Y0127816D01*
X0227525Y0129341D01*
X0227525Y0130992D01*
X0226893Y0132517D01*
X0225726Y0133685D01*
X0224200Y0134317D01*
X0222330Y0134226D02*
X0176997Y0134226D01*
X0176997Y0133227D02*
X0220566Y0133227D01*
X0219737Y0132229D02*
X0176997Y0132229D01*
X0176997Y0131230D02*
X0219323Y0131230D01*
X0219225Y0130232D02*
X0176997Y0130232D01*
X0176997Y0129233D02*
X0219270Y0129233D01*
X0219683Y0128235D02*
X0176997Y0128235D01*
X0176997Y0127236D02*
X0220436Y0127236D01*
X0222016Y0126238D02*
X0176997Y0126238D01*
X0176997Y0125239D02*
X0323565Y0125239D01*
X0323151Y0124241D02*
X0284384Y0124241D01*
X0282366Y0124241D02*
X0224384Y0124241D01*
X0224200Y0124317D02*
X0222549Y0124317D01*
X0221024Y0123685D01*
X0219857Y0122517D01*
X0219225Y0120992D01*
X0219225Y0119341D01*
X0219857Y0117816D01*
X0221024Y0116648D01*
X0222549Y0116017D01*
X0224200Y0116017D01*
X0225726Y0116648D01*
X0226893Y0117816D01*
X0227525Y0119341D01*
X0227525Y0120992D01*
X0226893Y0122517D01*
X0225726Y0123685D01*
X0224200Y0124317D01*
X0222366Y0124241D02*
X0176997Y0124241D01*
X0176997Y0123242D02*
X0220581Y0123242D01*
X0219743Y0122244D02*
X0176997Y0122244D01*
X0176997Y0121245D02*
X0219330Y0121245D01*
X0219225Y0120247D02*
X0176997Y0120247D01*
X0176997Y0119248D02*
X0219263Y0119248D01*
X0219677Y0118250D02*
X0176997Y0118250D01*
X0176997Y0117251D02*
X0220421Y0117251D01*
X0221980Y0116253D02*
X0176997Y0116253D01*
X0176997Y0115254D02*
X0323571Y0115254D01*
X0323158Y0114255D02*
X0284348Y0114255D01*
X0284200Y0114317D02*
X0285726Y0113685D01*
X0286893Y0112517D01*
X0287525Y0110992D01*
X0287525Y0109341D01*
X0286893Y0107816D01*
X0285726Y0106648D01*
X0284200Y0106017D01*
X0282549Y0106017D01*
X0281024Y0106648D01*
X0279857Y0107816D01*
X0279225Y0109341D01*
X0279225Y0110992D01*
X0279857Y0112517D01*
X0281024Y0113685D01*
X0282549Y0114317D01*
X0284200Y0114317D01*
X0282402Y0114255D02*
X0224348Y0114255D01*
X0224200Y0114317D02*
X0222549Y0114317D01*
X0221024Y0113685D01*
X0219857Y0112517D01*
X0219225Y0110992D01*
X0219225Y0109341D01*
X0219857Y0107816D01*
X0221024Y0106648D01*
X0222549Y0106017D01*
X0224200Y0106017D01*
X0225726Y0106648D01*
X0226893Y0107816D01*
X0227525Y0109341D01*
X0227525Y0110992D01*
X0226893Y0112517D01*
X0225726Y0113685D01*
X0224200Y0114317D01*
X0222402Y0114255D02*
X0176997Y0114255D01*
X0176997Y0113257D02*
X0220596Y0113257D01*
X0219749Y0112258D02*
X0216572Y0112258D01*
X0216532Y0112298D02*
X0215403Y0112766D01*
X0214181Y0112766D01*
X0213052Y0112298D01*
X0212188Y0111434D01*
X0211720Y0110305D01*
X0211720Y0109083D01*
X0212188Y0107954D01*
X0213052Y0107090D01*
X0214181Y0106623D01*
X0215403Y0106623D01*
X0216532Y0107090D01*
X0217396Y0107954D01*
X0217864Y0109083D01*
X0217864Y0110305D01*
X0217396Y0111434D01*
X0216532Y0112298D01*
X0217468Y0111260D02*
X0219336Y0111260D01*
X0219225Y0110261D02*
X0217864Y0110261D01*
X0217864Y0109263D02*
X0219257Y0109263D01*
X0219671Y0108264D02*
X0217525Y0108264D01*
X0216708Y0107266D02*
X0220407Y0107266D01*
X0221944Y0106267D02*
X0176997Y0106267D01*
X0176997Y0107266D02*
X0212876Y0107266D01*
X0212060Y0108264D02*
X0176997Y0108264D01*
X0176997Y0109263D02*
X0211720Y0109263D01*
X0211720Y0110261D02*
X0176997Y0110261D01*
X0176997Y0111260D02*
X0212116Y0111260D01*
X0213012Y0112258D02*
X0176997Y0112258D01*
X0185150Y0119248D02*
X0019962Y0119248D01*
X0020079Y0119131D02*
X0018717Y0120493D01*
X0016937Y0121230D01*
X0015010Y0121230D01*
X0013230Y0120493D01*
X0011867Y0119131D01*
X0011130Y0117351D01*
X0011130Y0115424D01*
X0011867Y0113644D01*
X0013230Y0112281D01*
X0015010Y0111544D01*
X0016937Y0111544D01*
X0018717Y0112281D01*
X0020079Y0113644D01*
X0020817Y0115424D01*
X0020817Y0117351D01*
X0020079Y0119131D01*
X0020444Y0118250D02*
X0186115Y0118250D01*
X0187080Y0117251D02*
X0020817Y0117251D01*
X0020817Y0116253D02*
X0086125Y0116253D01*
X0086084Y0116235D02*
X0085220Y0115371D01*
X0084752Y0114242D01*
X0084752Y0113020D01*
X0085220Y0111891D01*
X0086084Y0111027D01*
X0087213Y0110560D01*
X0088435Y0110560D01*
X0089564Y0111027D01*
X0090428Y0111891D01*
X0090895Y0113020D01*
X0090895Y0114242D01*
X0090428Y0115371D01*
X0089564Y0116235D01*
X0088435Y0116703D01*
X0087213Y0116703D01*
X0086084Y0116235D01*
X0085171Y0115254D02*
X0058064Y0115254D01*
X0057871Y0115448D02*
X0056742Y0115915D01*
X0055520Y0115915D01*
X0054391Y0115448D01*
X0053527Y0114584D01*
X0053059Y0113455D01*
X0053059Y0112233D01*
X0053527Y0111104D01*
X0054391Y0110240D01*
X0055520Y0109772D01*
X0056742Y0109772D01*
X0057871Y0110240D01*
X0058735Y0111104D01*
X0059202Y0112233D01*
X0059202Y0113455D01*
X0058735Y0114584D01*
X0057871Y0115448D01*
X0058871Y0114255D02*
X0084757Y0114255D01*
X0084752Y0113257D02*
X0059202Y0113257D01*
X0059202Y0112258D02*
X0085067Y0112258D01*
X0085851Y0111260D02*
X0058799Y0111260D01*
X0057892Y0110261D02*
X0193837Y0110261D01*
X0194802Y0109263D02*
X0003300Y0109263D01*
X0003300Y0110261D02*
X0054369Y0110261D01*
X0053462Y0111260D02*
X0003300Y0111260D01*
X0003300Y0112258D02*
X0013285Y0112258D01*
X0012254Y0113257D02*
X0003300Y0113257D01*
X0003300Y0114255D02*
X0011614Y0114255D01*
X0011200Y0115254D02*
X0003300Y0115254D01*
X0003300Y0116253D02*
X0011130Y0116253D01*
X0011130Y0117251D02*
X0003300Y0117251D01*
X0003300Y0118250D02*
X0011502Y0118250D01*
X0011985Y0119248D02*
X0003300Y0119248D01*
X0003300Y0120247D02*
X0012983Y0120247D01*
X0014792Y0125248D02*
X0014037Y0125493D01*
X0013330Y0125853D01*
X0012688Y0126320D01*
X0012126Y0126881D01*
X0011660Y0127523D01*
X0011299Y0128231D01*
X0011054Y0128986D01*
X0010946Y0129667D01*
X0015473Y0129667D01*
X0015473Y0130667D01*
X0015473Y0135194D01*
X0014792Y0135086D01*
X0014037Y0134840D01*
X0013330Y0134480D01*
X0012688Y0134013D01*
X0012126Y0133452D01*
X0011660Y0132810D01*
X0011299Y0132103D01*
X0011054Y0131348D01*
X0010946Y0130667D01*
X0015473Y0130667D01*
X0016473Y0130667D01*
X0016473Y0135194D01*
X0017154Y0135086D01*
X0017909Y0134840D01*
X0018616Y0134480D01*
X0019259Y0134013D01*
X0019820Y0133452D01*
X0020287Y0132810D01*
X0020647Y0132103D01*
X0020892Y0131348D01*
X0021000Y0130667D01*
X0016473Y0130667D01*
X0016473Y0129667D01*
X0021000Y0129667D01*
X0020892Y0128986D01*
X0020647Y0128231D01*
X0020287Y0127523D01*
X0019820Y0126881D01*
X0019259Y0126320D01*
X0018616Y0125853D01*
X0017909Y0125493D01*
X0017154Y0125248D01*
X0016473Y0125140D01*
X0016473Y0129667D01*
X0015473Y0129667D01*
X0015473Y0125140D01*
X0014792Y0125248D01*
X0014845Y0125239D02*
X0003300Y0125239D01*
X0003300Y0124241D02*
X0020972Y0124241D01*
X0021440Y0123112D01*
X0022304Y0122248D01*
X0023433Y0121780D01*
X0024655Y0121780D01*
X0025784Y0122248D01*
X0026648Y0123112D01*
X0027116Y0124241D01*
X0027116Y0125463D01*
X0026648Y0126592D01*
X0025784Y0127456D01*
X0024655Y0127923D01*
X0023433Y0127923D01*
X0022304Y0127456D01*
X0021440Y0126592D01*
X0020972Y0125463D01*
X0020972Y0124241D01*
X0020972Y0125239D02*
X0017101Y0125239D01*
X0016473Y0125239D02*
X0015473Y0125239D01*
X0015473Y0126238D02*
X0016473Y0126238D01*
X0016473Y0127236D02*
X0015473Y0127236D01*
X0015473Y0128235D02*
X0016473Y0128235D01*
X0016473Y0129233D02*
X0015473Y0129233D01*
X0015473Y0130232D02*
X0003300Y0130232D01*
X0003300Y0131230D02*
X0011036Y0131230D01*
X0011364Y0132229D02*
X0003300Y0132229D01*
X0003300Y0133227D02*
X0011963Y0133227D01*
X0012980Y0134226D02*
X0003300Y0134226D01*
X0003300Y0135224D02*
X0038047Y0135224D01*
X0037705Y0136223D02*
X0003300Y0136223D01*
X0003300Y0137221D02*
X0037705Y0137221D01*
X0038869Y0134226D02*
X0018967Y0134226D01*
X0019983Y0133227D02*
X0115264Y0133227D01*
X0115264Y0133534D02*
X0115264Y0132312D01*
X0115731Y0131183D01*
X0116595Y0130319D01*
X0117724Y0129851D01*
X0118946Y0129851D01*
X0120075Y0130319D01*
X0120939Y0131183D01*
X0121407Y0132312D01*
X0121407Y0133534D01*
X0120939Y0134663D01*
X0120075Y0135527D01*
X0118946Y0135994D01*
X0117724Y0135994D01*
X0116595Y0135527D01*
X0115731Y0134663D01*
X0115264Y0133534D01*
X0115550Y0134226D02*
X0042683Y0134226D01*
X0043505Y0135224D02*
X0116293Y0135224D01*
X0115298Y0132229D02*
X0020583Y0132229D01*
X0020911Y0131230D02*
X0115712Y0131230D01*
X0116805Y0130232D02*
X0016473Y0130232D01*
X0016473Y0131230D02*
X0015473Y0131230D01*
X0015473Y0132229D02*
X0016473Y0132229D01*
X0016473Y0133227D02*
X0015473Y0133227D01*
X0015473Y0134226D02*
X0016473Y0134226D01*
X0020932Y0129233D02*
X0123516Y0129233D01*
X0123605Y0129017D02*
X0124469Y0128153D01*
X0125598Y0127686D01*
X0126820Y0127686D01*
X0127949Y0128153D01*
X0128813Y0129017D01*
X0129281Y0130146D01*
X0129281Y0131368D01*
X0128813Y0132497D01*
X0127949Y0133361D01*
X0126820Y0133829D01*
X0125598Y0133829D01*
X0124469Y0133361D01*
X0123605Y0132497D01*
X0123138Y0131368D01*
X0123138Y0130146D01*
X0123605Y0129017D01*
X0124388Y0128235D02*
X0020648Y0128235D01*
X0020078Y0127236D02*
X0022085Y0127236D01*
X0021293Y0126238D02*
X0019146Y0126238D01*
X0021386Y0123242D02*
X0003300Y0123242D01*
X0003300Y0122244D02*
X0022314Y0122244D01*
X0025774Y0122244D02*
X0184871Y0122244D01*
X0184871Y0123242D02*
X0026702Y0123242D01*
X0027116Y0124241D02*
X0184871Y0124241D01*
X0184871Y0125239D02*
X0027116Y0125239D01*
X0026795Y0126238D02*
X0184871Y0126238D01*
X0184638Y0127236D02*
X0026004Y0127236D01*
X0018963Y0120247D02*
X0184871Y0120247D01*
X0184871Y0121245D02*
X0003300Y0121245D01*
X0003300Y0126238D02*
X0012801Y0126238D01*
X0011868Y0127236D02*
X0003300Y0127236D01*
X0003300Y0128235D02*
X0011298Y0128235D01*
X0011015Y0129233D02*
X0003300Y0129233D01*
X0020746Y0115254D02*
X0054197Y0115254D01*
X0053391Y0114255D02*
X0020333Y0114255D01*
X0019693Y0113257D02*
X0053059Y0113257D01*
X0053059Y0112258D02*
X0018662Y0112258D01*
X0017154Y0107527D02*
X0016473Y0107635D01*
X0016473Y0103108D01*
X0015473Y0103108D01*
X0015473Y0107635D01*
X0014792Y0107527D01*
X0014037Y0107281D01*
X0013330Y0106921D01*
X0012688Y0106454D01*
X0012126Y0105893D01*
X0011660Y0105251D01*
X0011299Y0104544D01*
X0011054Y0103789D01*
X0010946Y0103108D01*
X0015473Y0103108D01*
X0015473Y0102108D01*
X0010946Y0102108D01*
X0011054Y0101427D01*
X0011299Y0100672D01*
X0011660Y0099964D01*
X0012126Y0099322D01*
X0012688Y0098761D01*
X0013330Y0098294D01*
X0014037Y0097934D01*
X0014792Y0097688D01*
X0015473Y0097581D01*
X0015473Y0102108D01*
X0016473Y0102108D01*
X0016473Y0103108D01*
X0021000Y0103108D01*
X0020892Y0103789D01*
X0020647Y0104544D01*
X0020287Y0105251D01*
X0019820Y0105893D01*
X0019259Y0106454D01*
X0018616Y0106921D01*
X0017909Y0107281D01*
X0017154Y0107527D01*
X0016473Y0107266D02*
X0015473Y0107266D01*
X0015473Y0106267D02*
X0016473Y0106267D01*
X0016473Y0105269D02*
X0015473Y0105269D01*
X0015473Y0104270D02*
X0016473Y0104270D01*
X0016473Y0103272D02*
X0015473Y0103272D01*
X0015473Y0102273D02*
X0003300Y0102273D01*
X0003300Y0101275D02*
X0011103Y0101275D01*
X0011501Y0100276D02*
X0003300Y0100276D01*
X0003300Y0099278D02*
X0012171Y0099278D01*
X0013359Y0098279D02*
X0003300Y0098279D01*
X0003300Y0097281D02*
X0020383Y0097281D01*
X0020456Y0097458D02*
X0019988Y0096329D01*
X0019988Y0095107D01*
X0020456Y0093978D01*
X0021320Y0093114D01*
X0022449Y0092646D01*
X0023671Y0092646D01*
X0024800Y0093114D01*
X0025664Y0093978D01*
X0026131Y0095107D01*
X0026131Y0096329D01*
X0025664Y0097458D01*
X0024800Y0098322D01*
X0023671Y0098789D01*
X0022449Y0098789D01*
X0021320Y0098322D01*
X0020456Y0097458D01*
X0021277Y0098279D02*
X0018587Y0098279D01*
X0018616Y0098294D02*
X0019259Y0098761D01*
X0019820Y0099322D01*
X0020287Y0099964D01*
X0020647Y0100672D01*
X0020892Y0101427D01*
X0021000Y0102108D01*
X0016473Y0102108D01*
X0016473Y0097581D01*
X0017154Y0097688D01*
X0017909Y0097934D01*
X0018616Y0098294D01*
X0019776Y0099278D02*
X0036613Y0099278D01*
X0036401Y0099490D02*
X0037265Y0098626D01*
X0038394Y0098158D01*
X0039616Y0098158D01*
X0040745Y0098626D01*
X0041609Y0099490D01*
X0042076Y0100619D01*
X0042076Y0101841D01*
X0041609Y0102970D01*
X0040745Y0103834D01*
X0039616Y0104301D01*
X0038394Y0104301D01*
X0037265Y0103834D01*
X0036401Y0102970D01*
X0035933Y0101841D01*
X0035933Y0100619D01*
X0036401Y0099490D01*
X0036075Y0100276D02*
X0020446Y0100276D01*
X0020843Y0101275D02*
X0035933Y0101275D01*
X0036112Y0102273D02*
X0016473Y0102273D01*
X0016473Y0101275D02*
X0015473Y0101275D01*
X0015473Y0100276D02*
X0016473Y0100276D01*
X0016473Y0099278D02*
X0015473Y0099278D01*
X0015473Y0098279D02*
X0016473Y0098279D01*
X0019988Y0096282D02*
X0003300Y0096282D01*
X0003300Y0095284D02*
X0019988Y0095284D01*
X0020328Y0094285D02*
X0003300Y0094285D01*
X0003300Y0093287D02*
X0014081Y0093287D01*
X0013230Y0092934D02*
X0011867Y0091572D01*
X0011130Y0089791D01*
X0011130Y0087865D01*
X0011867Y0086085D01*
X0013230Y0084722D01*
X0015010Y0083985D01*
X0016937Y0083985D01*
X0018717Y0084722D01*
X0020079Y0086085D01*
X0020817Y0087865D01*
X0020817Y0089791D01*
X0020079Y0091572D01*
X0018717Y0092934D01*
X0016937Y0093671D01*
X0015010Y0093671D01*
X0013230Y0092934D01*
X0012584Y0092288D02*
X0003300Y0092288D01*
X0003300Y0091290D02*
X0011751Y0091290D01*
X0011337Y0090291D02*
X0003300Y0090291D01*
X0003300Y0089293D02*
X0011130Y0089293D01*
X0011130Y0088294D02*
X0003300Y0088294D01*
X0003300Y0087296D02*
X0011366Y0087296D01*
X0011779Y0086297D02*
X0003300Y0086297D01*
X0003300Y0085299D02*
X0012653Y0085299D01*
X0014248Y0084300D02*
X0003300Y0084300D01*
X0003300Y0083302D02*
X0186405Y0083302D01*
X0186392Y0084300D02*
X0017698Y0084300D01*
X0019293Y0085299D02*
X0186378Y0085299D01*
X0186364Y0086297D02*
X0020167Y0086297D01*
X0020581Y0087296D02*
X0186351Y0087296D01*
X0186337Y0088294D02*
X0020817Y0088294D01*
X0020817Y0089293D02*
X0186323Y0089293D01*
X0186310Y0090291D02*
X0020610Y0090291D01*
X0020196Y0091290D02*
X0186296Y0091290D01*
X0186282Y0092288D02*
X0019363Y0092288D01*
X0017865Y0093287D02*
X0021147Y0093287D01*
X0024973Y0093287D02*
X0186269Y0093287D01*
X0186255Y0094285D02*
X0025791Y0094285D01*
X0026131Y0095284D02*
X0191788Y0095284D01*
X0190776Y0095284D01*
X0191322Y0095750D02*
X0190854Y0096878D01*
X0190854Y0098100D01*
X0191322Y0099229D01*
X0192186Y0100094D01*
X0193315Y0100561D01*
X0194537Y0100561D01*
X0195666Y0100094D01*
X0196530Y0099229D01*
X0196998Y0098100D01*
X0196998Y0096878D01*
X0196530Y0095750D01*
X0195666Y0094885D01*
X0194537Y0094418D01*
X0193315Y0094418D01*
X0192186Y0094885D01*
X0191322Y0095750D01*
X0191101Y0096282D02*
X0026131Y0096282D01*
X0025737Y0097281D02*
X0190854Y0097281D01*
X0190776Y0097281D01*
X0190776Y0098279D02*
X0190928Y0098279D01*
X0039909Y0098279D01*
X0041397Y0099278D02*
X0191370Y0099278D01*
X0190776Y0099278D01*
X0190776Y0100276D02*
X0192627Y0100276D01*
X0131513Y0100276D01*
X0131151Y0100127D02*
X0132280Y0100594D01*
X0133144Y0101458D01*
X0133612Y0102587D01*
X0133612Y0103809D01*
X0133144Y0104938D01*
X0132280Y0105802D01*
X0131151Y0106270D01*
X0129929Y0106270D01*
X0128800Y0105802D01*
X0127936Y0104938D01*
X0127469Y0103809D01*
X0127469Y0102587D01*
X0127936Y0101458D01*
X0128800Y0100594D01*
X0129929Y0100127D01*
X0131151Y0100127D01*
X0129567Y0100276D02*
X0041935Y0100276D01*
X0042076Y0101275D02*
X0128119Y0101275D01*
X0127598Y0102273D02*
X0041897Y0102273D01*
X0041306Y0103272D02*
X0127469Y0103272D01*
X0127660Y0104270D02*
X0039690Y0104270D01*
X0038319Y0104270D02*
X0020736Y0104270D01*
X0020974Y0103272D02*
X0036703Y0103272D01*
X0038101Y0098279D02*
X0024842Y0098279D01*
X0020274Y0105269D02*
X0128267Y0105269D01*
X0129923Y0106267D02*
X0019446Y0106267D01*
X0017940Y0107266D02*
X0191681Y0107266D01*
X0190942Y0106267D02*
X0131157Y0106267D01*
X0132813Y0105269D02*
X0190657Y0105269D01*
X0190776Y0105269D02*
X0323577Y0105269D01*
X0323628Y0105391D02*
X0322980Y0103828D01*
X0322980Y0102136D01*
X0323628Y0100573D01*
X0324824Y0099376D01*
X0326387Y0098729D01*
X0328079Y0098729D01*
X0329642Y0099376D01*
X0330838Y0100573D01*
X0331486Y0102136D01*
X0331486Y0103828D01*
X0330838Y0105391D01*
X0329642Y0106587D01*
X0328079Y0107234D01*
X0326387Y0107234D01*
X0324824Y0106587D01*
X0323628Y0105391D01*
X0323164Y0104270D02*
X0284312Y0104270D01*
X0284200Y0104317D02*
X0285726Y0103685D01*
X0286893Y0102517D01*
X0287525Y0100992D01*
X0287525Y0099341D01*
X0286893Y0097816D01*
X0285726Y0096648D01*
X0284200Y0096017D01*
X0282549Y0096017D01*
X0281024Y0096648D01*
X0279857Y0097816D01*
X0279225Y0099341D01*
X0279225Y0100992D01*
X0279857Y0102517D01*
X0281024Y0103685D01*
X0282549Y0104317D01*
X0284200Y0104317D01*
X0282438Y0104270D02*
X0224312Y0104270D01*
X0224200Y0104317D02*
X0222549Y0104317D01*
X0221024Y0103685D01*
X0219857Y0102517D01*
X0219225Y0100992D01*
X0219225Y0099341D01*
X0219857Y0097816D01*
X0221024Y0096648D01*
X0222549Y0096017D01*
X0224200Y0096017D01*
X0225726Y0096648D01*
X0226893Y0097816D01*
X0227525Y0099341D01*
X0227525Y0100992D01*
X0226893Y0102517D01*
X0225726Y0103685D01*
X0224200Y0104317D01*
X0222438Y0104270D02*
X0190776Y0104270D01*
X0190694Y0104270D02*
X0133421Y0104270D01*
X0133612Y0103272D02*
X0191108Y0103272D01*
X0190776Y0103272D02*
X0220611Y0103272D01*
X0219756Y0102273D02*
X0190776Y0102273D01*
X0190776Y0101275D02*
X0219342Y0101275D01*
X0219225Y0100276D02*
X0195225Y0100276D01*
X0196399Y0100276D01*
X0196384Y0101275D02*
X0132961Y0101275D01*
X0133482Y0102273D02*
X0192212Y0102273D01*
X0195246Y0102273D02*
X0196370Y0102273D01*
X0196351Y0103272D02*
X0196355Y0103272D01*
X0196295Y0107266D02*
X0195777Y0107266D01*
X0195767Y0108264D02*
X0003300Y0108264D01*
X0003300Y0107266D02*
X0014007Y0107266D01*
X0012501Y0106267D02*
X0003300Y0106267D01*
X0003300Y0105269D02*
X0011673Y0105269D01*
X0011211Y0104270D02*
X0003300Y0104270D01*
X0003300Y0103272D02*
X0010972Y0103272D01*
X0003300Y0082303D02*
X0186419Y0082303D01*
X0186433Y0081305D02*
X0003300Y0081305D01*
X0003300Y0080306D02*
X0186446Y0080306D01*
X0186460Y0079308D02*
X0018691Y0079308D01*
X0018616Y0079362D02*
X0017909Y0079722D01*
X0017154Y0079968D01*
X0016473Y0080076D01*
X0016473Y0075549D01*
X0015473Y0075549D01*
X0015473Y0080076D01*
X0014792Y0079968D01*
X0014037Y0079722D01*
X0013330Y0079362D01*
X0012688Y0078895D01*
X0012126Y0078334D01*
X0011660Y0077692D01*
X0011299Y0076984D01*
X0011054Y0076230D01*
X0010946Y0075549D01*
X0015473Y0075549D01*
X0015473Y0074549D01*
X0010946Y0074549D01*
X0011054Y0073868D01*
X0011299Y0073113D01*
X0011660Y0072405D01*
X0012126Y0071763D01*
X0012688Y0071202D01*
X0013330Y0070735D01*
X0014037Y0070375D01*
X0014792Y0070129D01*
X0015473Y0070022D01*
X0015473Y0074548D01*
X0016473Y0074548D01*
X0016473Y0070022D01*
X0017154Y0070129D01*
X0017909Y0070375D01*
X0018616Y0070735D01*
X0019259Y0071202D01*
X0019820Y0071763D01*
X0020287Y0072405D01*
X0020647Y0073113D01*
X0020892Y0073868D01*
X0021000Y0074549D01*
X0016473Y0074549D01*
X0016473Y0075549D01*
X0021000Y0075549D01*
X0020892Y0076230D01*
X0020647Y0076984D01*
X0020287Y0077692D01*
X0019820Y0078334D01*
X0019259Y0078895D01*
X0018616Y0079362D01*
X0019838Y0078309D02*
X0186474Y0078309D01*
X0186487Y0077311D02*
X0020481Y0077311D01*
X0020866Y0076312D02*
X0113680Y0076312D01*
X0113840Y0076471D02*
X0112976Y0075607D01*
X0112508Y0074478D01*
X0112508Y0073256D01*
X0112976Y0072127D01*
X0113840Y0071263D01*
X0114969Y0070796D01*
X0116191Y0070796D01*
X0117319Y0071263D01*
X0118184Y0072127D01*
X0118651Y0073256D01*
X0118651Y0074478D01*
X0118184Y0075607D01*
X0117319Y0076471D01*
X0116191Y0076939D01*
X0114969Y0076939D01*
X0113840Y0076471D01*
X0112854Y0075314D02*
X0016473Y0075314D01*
X0016473Y0076312D02*
X0015473Y0076312D01*
X0015473Y0075314D02*
X0003300Y0075314D01*
X0003300Y0076312D02*
X0011081Y0076312D01*
X0011466Y0077311D02*
X0003300Y0077311D01*
X0003300Y0078309D02*
X0012108Y0078309D01*
X0013255Y0079308D02*
X0003300Y0079308D01*
X0003300Y0074315D02*
X0010983Y0074315D01*
X0011233Y0073317D02*
X0003300Y0073317D01*
X0003300Y0072318D02*
X0011723Y0072318D01*
X0012570Y0071320D02*
X0003300Y0071320D01*
X0003300Y0070321D02*
X0014203Y0070321D01*
X0015473Y0070321D02*
X0016473Y0070321D01*
X0016473Y0071320D02*
X0015473Y0071320D01*
X0015473Y0072318D02*
X0016473Y0072318D01*
X0016473Y0073317D02*
X0015473Y0073317D01*
X0015473Y0074315D02*
X0016473Y0074315D01*
X0016473Y0077311D02*
X0015473Y0077311D01*
X0015473Y0078309D02*
X0016473Y0078309D01*
X0016473Y0079308D02*
X0015473Y0079308D01*
X0020963Y0074315D02*
X0112508Y0074315D01*
X0112508Y0073317D02*
X0020713Y0073317D01*
X0020223Y0072318D02*
X0112897Y0072318D01*
X0113783Y0071320D02*
X0019377Y0071320D01*
X0017744Y0070321D02*
X0021482Y0070321D01*
X0021123Y0070172D02*
X0020259Y0069308D01*
X0019791Y0068179D01*
X0019791Y0066957D01*
X0020259Y0065828D01*
X0021123Y0064964D01*
X0022252Y0064497D01*
X0023474Y0064497D01*
X0024603Y0064964D01*
X0025467Y0065828D01*
X0025935Y0066957D01*
X0025935Y0068179D01*
X0025467Y0069308D01*
X0024603Y0070172D01*
X0023474Y0070640D01*
X0022252Y0070640D01*
X0021123Y0070172D01*
X0020273Y0069322D02*
X0003300Y0069322D01*
X0003300Y0068324D02*
X0019851Y0068324D01*
X0019791Y0067325D02*
X0003300Y0067325D01*
X0003300Y0066327D02*
X0020052Y0066327D01*
X0020759Y0065328D02*
X0018763Y0065328D01*
X0018717Y0065375D02*
X0016937Y0066112D01*
X0015010Y0066112D01*
X0013230Y0065375D01*
X0011867Y0064013D01*
X0011130Y0062232D01*
X0011130Y0060306D01*
X0011867Y0058526D01*
X0013230Y0057163D01*
X0015010Y0056426D01*
X0016937Y0056426D01*
X0018717Y0057163D01*
X0020079Y0058526D01*
X0020817Y0060306D01*
X0020817Y0062232D01*
X0020079Y0064013D01*
X0018717Y0065375D01*
X0019762Y0064330D02*
X0126287Y0064330D01*
X0126287Y0064833D02*
X0126287Y0063611D01*
X0126755Y0062482D01*
X0127619Y0061618D01*
X0128748Y0061150D01*
X0129970Y0061150D01*
X0131099Y0061618D01*
X0131963Y0062482D01*
X0132431Y0063611D01*
X0132431Y0064833D01*
X0131963Y0065962D01*
X0131099Y0066826D01*
X0129970Y0067293D01*
X0128748Y0067293D01*
X0127619Y0066826D01*
X0126755Y0065962D01*
X0126287Y0064833D01*
X0126493Y0065328D02*
X0024967Y0065328D01*
X0025674Y0066327D02*
X0127120Y0066327D01*
X0126403Y0063331D02*
X0020361Y0063331D01*
X0020775Y0062333D02*
X0126904Y0062333D01*
X0128303Y0061334D02*
X0020817Y0061334D01*
X0020817Y0060336D02*
X0186720Y0060336D01*
X0186706Y0061334D02*
X0130415Y0061334D01*
X0131814Y0062333D02*
X0186693Y0062333D01*
X0186679Y0063331D02*
X0132315Y0063331D01*
X0132431Y0064330D02*
X0186665Y0064330D01*
X0186652Y0065328D02*
X0132225Y0065328D01*
X0131598Y0066327D02*
X0186638Y0066327D01*
X0186624Y0067325D02*
X0025935Y0067325D01*
X0025875Y0068324D02*
X0186611Y0068324D01*
X0186597Y0069322D02*
X0025453Y0069322D01*
X0024244Y0070321D02*
X0186583Y0070321D01*
X0186570Y0071320D02*
X0117376Y0071320D01*
X0118262Y0072318D02*
X0186556Y0072318D01*
X0186542Y0073317D02*
X0118651Y0073317D01*
X0118651Y0074315D02*
X0186529Y0074315D01*
X0186515Y0075314D02*
X0118305Y0075314D01*
X0117479Y0076312D02*
X0186501Y0076312D01*
X0190776Y0076312D02*
X0221836Y0076312D01*
X0222549Y0076017D02*
X0224200Y0076017D01*
X0225726Y0076648D01*
X0226893Y0077816D01*
X0227525Y0079341D01*
X0227525Y0080992D01*
X0226893Y0082517D01*
X0225726Y0083685D01*
X0224200Y0084317D01*
X0222549Y0084317D01*
X0221024Y0083685D01*
X0219857Y0082517D01*
X0219225Y0080992D01*
X0219225Y0079341D01*
X0219857Y0077816D01*
X0221024Y0076648D01*
X0222549Y0076017D01*
X0222549Y0074317D02*
X0221024Y0073685D01*
X0219857Y0072517D01*
X0219225Y0070992D01*
X0219225Y0069341D01*
X0219857Y0067816D01*
X0221024Y0066648D01*
X0222549Y0066017D01*
X0224200Y0066017D01*
X0225726Y0066648D01*
X0226893Y0067816D01*
X0227525Y0069341D01*
X0227525Y0070992D01*
X0226893Y0072517D01*
X0225726Y0073685D01*
X0224200Y0074317D01*
X0222549Y0074317D01*
X0222545Y0074315D02*
X0190776Y0074315D01*
X0190776Y0073317D02*
X0220656Y0073317D01*
X0219774Y0072318D02*
X0190776Y0072318D01*
X0190776Y0071320D02*
X0219360Y0071320D01*
X0219225Y0070321D02*
X0190776Y0070321D01*
X0190776Y0069322D02*
X0219233Y0069322D01*
X0219646Y0068324D02*
X0190776Y0068324D01*
X0190776Y0067325D02*
X0220347Y0067325D01*
X0221800Y0066327D02*
X0190776Y0066327D01*
X0190776Y0065328D02*
X0299558Y0065328D01*
X0299516Y0065226D02*
X0299516Y0064004D01*
X0299983Y0062876D01*
X0300847Y0062011D01*
X0301976Y0061544D01*
X0303198Y0061544D01*
X0304327Y0062011D01*
X0305191Y0062876D01*
X0305659Y0064004D01*
X0305659Y0065226D01*
X0305191Y0066355D01*
X0304327Y0067219D01*
X0303198Y0067687D01*
X0301976Y0067687D01*
X0300847Y0067219D01*
X0299983Y0066355D01*
X0299516Y0065226D01*
X0299516Y0064330D02*
X0190776Y0064330D01*
X0190776Y0063331D02*
X0220671Y0063331D01*
X0221024Y0063685D02*
X0219857Y0062517D01*
X0219225Y0060992D01*
X0219225Y0059341D01*
X0219857Y0057816D01*
X0221024Y0056648D01*
X0222549Y0056017D01*
X0224200Y0056017D01*
X0225726Y0056648D01*
X0226893Y0057816D01*
X0227525Y0059341D01*
X0227525Y0060992D01*
X0226893Y0062517D01*
X0225726Y0063685D01*
X0224200Y0064317D01*
X0222549Y0064317D01*
X0221024Y0063685D01*
X0219780Y0062333D02*
X0190776Y0062333D01*
X0190776Y0061334D02*
X0219367Y0061334D01*
X0219225Y0060336D02*
X0190776Y0060336D01*
X0190776Y0059337D02*
X0219226Y0059337D01*
X0219640Y0058339D02*
X0190776Y0058339D01*
X0190776Y0057340D02*
X0220332Y0057340D01*
X0221764Y0056342D02*
X0190776Y0056342D01*
X0190776Y0055343D02*
X0374316Y0055343D01*
X0374316Y0054345D02*
X0304800Y0054345D01*
X0304524Y0054621D02*
X0305388Y0053757D01*
X0305856Y0052628D01*
X0305856Y0051406D01*
X0305388Y0050277D01*
X0304524Y0049413D01*
X0303395Y0048945D01*
X0302173Y0048945D01*
X0301044Y0049413D01*
X0300180Y0050277D01*
X0299713Y0051406D01*
X0299713Y0052628D01*
X0300180Y0053757D01*
X0301044Y0054621D01*
X0302173Y0055089D01*
X0303395Y0055089D01*
X0304524Y0054621D01*
X0305558Y0053346D02*
X0374316Y0053346D01*
X0374316Y0052348D02*
X0305856Y0052348D01*
X0305832Y0051349D02*
X0374316Y0051349D01*
X0374316Y0050351D02*
X0305419Y0050351D01*
X0304377Y0049352D02*
X0374316Y0049352D01*
X0374316Y0048354D02*
X0287116Y0048354D01*
X0286893Y0047816D02*
X0287525Y0049341D01*
X0287525Y0050992D01*
X0286893Y0052517D01*
X0285726Y0053685D01*
X0284200Y0054317D01*
X0282549Y0054317D01*
X0281024Y0053685D01*
X0279857Y0052517D01*
X0279225Y0050992D01*
X0279225Y0049341D01*
X0279857Y0047816D01*
X0281024Y0046648D01*
X0282549Y0046017D01*
X0284200Y0046017D01*
X0285726Y0046648D01*
X0286893Y0047816D01*
X0286432Y0047355D02*
X0374316Y0047355D01*
X0374316Y0046357D02*
X0285021Y0046357D01*
X0284200Y0044317D02*
X0285726Y0043685D01*
X0286893Y0042517D01*
X0287525Y0040992D01*
X0287525Y0039341D01*
X0286893Y0037816D01*
X0285726Y0036648D01*
X0284200Y0036017D01*
X0282549Y0036017D01*
X0281024Y0036648D01*
X0279857Y0037816D01*
X0279225Y0039341D01*
X0279225Y0040992D01*
X0279857Y0042517D01*
X0281024Y0043685D01*
X0282549Y0044317D01*
X0284200Y0044317D01*
X0286049Y0043361D02*
X0374316Y0043361D01*
X0374316Y0042363D02*
X0286957Y0042363D01*
X0287371Y0041364D02*
X0374316Y0041364D01*
X0374316Y0040366D02*
X0287525Y0040366D01*
X0287525Y0039367D02*
X0374316Y0039367D01*
X0374316Y0038369D02*
X0361579Y0038369D01*
X0362631Y0037933D02*
X0359691Y0039151D01*
X0356508Y0039151D01*
X0353568Y0037933D01*
X0351317Y0035683D01*
X0350099Y0032742D01*
X0350099Y0029560D01*
X0351317Y0026619D01*
X0353568Y0024369D01*
X0356508Y0023151D01*
X0359691Y0023151D01*
X0362631Y0024369D01*
X0364881Y0026619D01*
X0366099Y0029560D01*
X0366099Y0032742D01*
X0364881Y0035683D01*
X0362631Y0037933D01*
X0363194Y0037370D02*
X0374316Y0037370D01*
X0374316Y0036372D02*
X0364192Y0036372D01*
X0365009Y0035373D02*
X0374316Y0035373D01*
X0374316Y0034375D02*
X0365423Y0034375D01*
X0365837Y0033376D02*
X0374316Y0033376D01*
X0374316Y0032378D02*
X0366099Y0032378D01*
X0366099Y0031379D02*
X0374316Y0031379D01*
X0374316Y0030381D02*
X0366099Y0030381D01*
X0366026Y0029382D02*
X0374316Y0029382D01*
X0374316Y0028384D02*
X0365612Y0028384D01*
X0365198Y0027385D02*
X0374316Y0027385D01*
X0374316Y0026387D02*
X0364649Y0026387D01*
X0363650Y0025388D02*
X0374316Y0025388D01*
X0374316Y0024389D02*
X0362651Y0024389D01*
X0360270Y0023391D02*
X0374316Y0023391D01*
X0374316Y0022392D02*
X0287123Y0022392D01*
X0287095Y0022447D02*
X0286693Y0023000D01*
X0286209Y0023485D01*
X0285655Y0023887D01*
X0285045Y0024198D01*
X0284393Y0024410D01*
X0283825Y0024500D01*
X0283825Y0020617D01*
X0287708Y0020617D01*
X0287618Y0021185D01*
X0287406Y0021836D01*
X0287095Y0022447D01*
X0287550Y0021394D02*
X0374316Y0021394D01*
X0374316Y0020395D02*
X0283825Y0020395D01*
X0282925Y0020395D02*
X0227525Y0020395D01*
X0227525Y0019397D02*
X0279092Y0019397D01*
X0279394Y0018398D02*
X0227134Y0018398D01*
X0226477Y0017400D02*
X0280008Y0017400D01*
X0279200Y0021394D02*
X0227358Y0021394D01*
X0226945Y0022392D02*
X0279627Y0022392D01*
X0280447Y0023391D02*
X0226019Y0023391D01*
X0225093Y0026387D02*
X0281656Y0026387D01*
X0281024Y0026648D02*
X0282549Y0026017D01*
X0284200Y0026017D01*
X0285726Y0026648D01*
X0286893Y0027816D01*
X0287525Y0029341D01*
X0287525Y0030992D01*
X0286893Y0032517D01*
X0285726Y0033685D01*
X0284200Y0034317D01*
X0282549Y0034317D01*
X0281024Y0033685D01*
X0279857Y0032517D01*
X0279225Y0030992D01*
X0279225Y0029341D01*
X0279857Y0027816D01*
X0281024Y0026648D01*
X0280287Y0027385D02*
X0226462Y0027385D01*
X0226893Y0027816D02*
X0227525Y0029341D01*
X0227525Y0030992D01*
X0226893Y0032517D01*
X0225726Y0033685D01*
X0224200Y0034317D01*
X0222549Y0034317D01*
X0221024Y0033685D01*
X0219857Y0032517D01*
X0219225Y0030992D01*
X0219225Y0029341D01*
X0219857Y0027816D01*
X0221024Y0026648D01*
X0222549Y0026017D01*
X0224200Y0026017D01*
X0225726Y0026648D01*
X0226893Y0027816D01*
X0227128Y0028384D02*
X0279621Y0028384D01*
X0279225Y0029382D02*
X0227525Y0029382D01*
X0227525Y0030381D02*
X0279225Y0030381D01*
X0279385Y0031379D02*
X0227365Y0031379D01*
X0226951Y0032378D02*
X0279799Y0032378D01*
X0280715Y0033376D02*
X0226034Y0033376D01*
X0225057Y0036372D02*
X0281692Y0036372D01*
X0280302Y0037370D02*
X0226447Y0037370D01*
X0226893Y0037816D02*
X0227525Y0039341D01*
X0227525Y0040992D01*
X0226893Y0042517D01*
X0225726Y0043685D01*
X0224200Y0044317D01*
X0222549Y0044317D01*
X0221024Y0043685D01*
X0219857Y0042517D01*
X0219225Y0040992D01*
X0219225Y0039341D01*
X0219857Y0037816D01*
X0221024Y0036648D01*
X0222549Y0036017D01*
X0224200Y0036017D01*
X0225726Y0036648D01*
X0226893Y0037816D01*
X0227122Y0038369D02*
X0279628Y0038369D01*
X0279225Y0039367D02*
X0227525Y0039367D01*
X0227525Y0040366D02*
X0279225Y0040366D01*
X0279379Y0041364D02*
X0227371Y0041364D01*
X0226957Y0042363D02*
X0279793Y0042363D01*
X0280700Y0043361D02*
X0226049Y0043361D01*
X0225021Y0046357D02*
X0281728Y0046357D01*
X0280317Y0047355D02*
X0226432Y0047355D01*
X0226893Y0047816D02*
X0225726Y0046648D01*
X0224200Y0046017D01*
X0222549Y0046017D01*
X0221024Y0046648D01*
X0219857Y0047816D01*
X0219225Y0049341D01*
X0219225Y0050992D01*
X0219857Y0052517D01*
X0221024Y0053685D01*
X0222549Y0054317D01*
X0224200Y0054317D01*
X0225726Y0053685D01*
X0226893Y0052517D01*
X0227525Y0050992D01*
X0227525Y0049341D01*
X0226893Y0047816D01*
X0227116Y0048354D02*
X0279634Y0048354D01*
X0279225Y0049352D02*
X0227525Y0049352D01*
X0227525Y0050351D02*
X0279225Y0050351D01*
X0279373Y0051349D02*
X0227377Y0051349D01*
X0226963Y0052348D02*
X0279786Y0052348D01*
X0280685Y0053346D02*
X0226064Y0053346D01*
X0224985Y0056342D02*
X0281764Y0056342D01*
X0281024Y0056648D02*
X0282549Y0056017D01*
X0284200Y0056017D01*
X0285726Y0056648D01*
X0286893Y0057816D01*
X0287525Y0059341D01*
X0287525Y0060992D01*
X0286893Y0062517D01*
X0285726Y0063685D01*
X0284200Y0064317D01*
X0282549Y0064317D01*
X0281024Y0063685D01*
X0279857Y0062517D01*
X0279225Y0060992D01*
X0279225Y0059341D01*
X0279857Y0057816D01*
X0281024Y0056648D01*
X0280332Y0057340D02*
X0226417Y0057340D01*
X0227110Y0058339D02*
X0279640Y0058339D01*
X0279226Y0059337D02*
X0227523Y0059337D01*
X0227525Y0060336D02*
X0279225Y0060336D01*
X0279367Y0061334D02*
X0227383Y0061334D01*
X0226969Y0062333D02*
X0279780Y0062333D01*
X0280671Y0063331D02*
X0226079Y0063331D01*
X0224949Y0066327D02*
X0281800Y0066327D01*
X0282549Y0066017D02*
X0284200Y0066017D01*
X0285726Y0066648D01*
X0286893Y0067816D01*
X0287525Y0069341D01*
X0287525Y0070992D01*
X0286893Y0072517D01*
X0285726Y0073685D01*
X0284200Y0074317D01*
X0282549Y0074317D01*
X0281024Y0073685D01*
X0279857Y0072517D01*
X0279225Y0070992D01*
X0279225Y0069341D01*
X0279857Y0067816D01*
X0281024Y0066648D01*
X0282549Y0066017D01*
X0284949Y0066327D02*
X0299972Y0066327D01*
X0301103Y0067325D02*
X0286403Y0067325D01*
X0287103Y0068324D02*
X0374316Y0068324D01*
X0374316Y0069322D02*
X0287517Y0069322D01*
X0287525Y0070321D02*
X0309489Y0070321D01*
X0309115Y0070476D02*
X0310244Y0070008D01*
X0311466Y0070008D01*
X0312595Y0070476D01*
X0313459Y0071340D01*
X0313927Y0072469D01*
X0313927Y0073691D01*
X0313459Y0074820D01*
X0312595Y0075684D01*
X0311466Y0076152D01*
X0310244Y0076152D01*
X0309115Y0075684D01*
X0308251Y0074820D01*
X0307783Y0073691D01*
X0307783Y0072469D01*
X0308251Y0071340D01*
X0309115Y0070476D01*
X0308272Y0071320D02*
X0287389Y0071320D01*
X0286976Y0072318D02*
X0307846Y0072318D01*
X0307783Y0073317D02*
X0286094Y0073317D01*
X0284204Y0074315D02*
X0308042Y0074315D01*
X0308745Y0075314D02*
X0190776Y0075314D01*
X0190776Y0077311D02*
X0220362Y0077311D01*
X0219652Y0078309D02*
X0190776Y0078309D01*
X0190776Y0079308D02*
X0219239Y0079308D01*
X0219225Y0080306D02*
X0190776Y0080306D01*
X0190776Y0081305D02*
X0219354Y0081305D01*
X0219768Y0082303D02*
X0190776Y0082303D01*
X0190776Y0083302D02*
X0220641Y0083302D01*
X0222510Y0084300D02*
X0190776Y0084300D01*
X0190776Y0085299D02*
X0341171Y0085299D01*
X0341595Y0085723D02*
X0340731Y0084859D01*
X0340264Y0083730D01*
X0340264Y0082508D01*
X0340731Y0081379D01*
X0341595Y0080515D01*
X0342724Y0080048D01*
X0343946Y0080048D01*
X0345075Y0080515D01*
X0345939Y0081379D01*
X0346407Y0082508D01*
X0346407Y0083730D01*
X0345939Y0084859D01*
X0345075Y0085723D01*
X0343946Y0086191D01*
X0342724Y0086191D01*
X0341595Y0085723D01*
X0340500Y0084300D02*
X0284240Y0084300D01*
X0284200Y0084317D02*
X0282549Y0084317D01*
X0281024Y0083685D01*
X0279857Y0082517D01*
X0279225Y0080992D01*
X0279225Y0079341D01*
X0279857Y0077816D01*
X0281024Y0076648D01*
X0282549Y0076017D01*
X0284200Y0076017D01*
X0285726Y0076648D01*
X0286893Y0077816D01*
X0287525Y0079341D01*
X0287525Y0080992D01*
X0286893Y0082517D01*
X0285726Y0083685D01*
X0284200Y0084317D01*
X0282510Y0084300D02*
X0224240Y0084300D01*
X0224200Y0086017D02*
X0222549Y0086017D01*
X0221024Y0086648D01*
X0219857Y0087816D01*
X0219225Y0089341D01*
X0219225Y0090992D01*
X0219857Y0092517D01*
X0221024Y0093685D01*
X0222549Y0094317D01*
X0224200Y0094317D01*
X0225726Y0093685D01*
X0226893Y0092517D01*
X0227525Y0090992D01*
X0227525Y0089341D01*
X0226893Y0087816D01*
X0225726Y0086648D01*
X0224200Y0086017D01*
X0224878Y0086297D02*
X0281872Y0086297D01*
X0282549Y0086017D02*
X0284200Y0086017D01*
X0285726Y0086648D01*
X0286893Y0087816D01*
X0287525Y0089341D01*
X0287525Y0090992D01*
X0286893Y0092517D01*
X0285726Y0093685D01*
X0284200Y0094317D01*
X0282549Y0094317D01*
X0281024Y0093685D01*
X0279857Y0092517D01*
X0279225Y0090992D01*
X0279225Y0089341D01*
X0279857Y0087816D01*
X0281024Y0086648D01*
X0282549Y0086017D01*
X0284878Y0086297D02*
X0357990Y0086297D01*
X0357815Y0086370D02*
X0360682Y0085182D01*
X0363784Y0085182D01*
X0366651Y0086370D01*
X0368845Y0088564D01*
X0370032Y0091430D01*
X0370032Y0094533D01*
X0368845Y0097400D01*
X0366651Y0099593D01*
X0363784Y0100781D01*
X0360682Y0100781D01*
X0357815Y0099593D01*
X0355621Y0097400D01*
X0354434Y0094533D01*
X0354434Y0091430D01*
X0355621Y0088564D01*
X0357815Y0086370D01*
X0356889Y0087296D02*
X0286373Y0087296D01*
X0287091Y0088294D02*
X0355891Y0088294D01*
X0355319Y0089293D02*
X0287505Y0089293D01*
X0287525Y0090291D02*
X0354906Y0090291D01*
X0354492Y0091290D02*
X0287402Y0091290D01*
X0286988Y0092288D02*
X0354434Y0092288D01*
X0354434Y0093287D02*
X0286124Y0093287D01*
X0284276Y0094285D02*
X0335044Y0094285D01*
X0334824Y0094376D02*
X0336387Y0093729D01*
X0338079Y0093729D01*
X0339642Y0094376D01*
X0340838Y0095573D01*
X0341486Y0097136D01*
X0341486Y0098828D01*
X0340838Y0100391D01*
X0339642Y0101587D01*
X0338079Y0102234D01*
X0336387Y0102234D01*
X0334824Y0101587D01*
X0333628Y0100391D01*
X0332980Y0098828D01*
X0332980Y0097136D01*
X0333628Y0095573D01*
X0334824Y0094376D01*
X0333917Y0095284D02*
X0196064Y0095284D01*
X0196751Y0096282D02*
X0221908Y0096282D01*
X0220392Y0097281D02*
X0196998Y0097281D01*
X0196924Y0098279D02*
X0219665Y0098279D01*
X0219251Y0099278D02*
X0196482Y0099278D01*
X0191101Y0096282D02*
X0190776Y0096282D01*
X0190776Y0094285D02*
X0222474Y0094285D01*
X0224276Y0094285D02*
X0282474Y0094285D01*
X0281908Y0096282D02*
X0224842Y0096282D01*
X0226358Y0097281D02*
X0280392Y0097281D01*
X0279665Y0098279D02*
X0227085Y0098279D01*
X0227499Y0099278D02*
X0279251Y0099278D01*
X0279225Y0100276D02*
X0227525Y0100276D01*
X0227408Y0101275D02*
X0279342Y0101275D01*
X0279756Y0102273D02*
X0226994Y0102273D01*
X0226139Y0103272D02*
X0280611Y0103272D01*
X0281944Y0106267D02*
X0224806Y0106267D01*
X0226343Y0107266D02*
X0280407Y0107266D01*
X0279671Y0108264D02*
X0227079Y0108264D01*
X0227492Y0109263D02*
X0279257Y0109263D01*
X0279225Y0110261D02*
X0227525Y0110261D01*
X0227414Y0111260D02*
X0279336Y0111260D01*
X0279749Y0112258D02*
X0227000Y0112258D01*
X0226153Y0113257D02*
X0280596Y0113257D01*
X0281980Y0116253D02*
X0224770Y0116253D01*
X0226328Y0117251D02*
X0280421Y0117251D01*
X0279677Y0118250D02*
X0227073Y0118250D01*
X0227486Y0119248D02*
X0279263Y0119248D01*
X0279225Y0120247D02*
X0227525Y0120247D01*
X0227420Y0121245D02*
X0279330Y0121245D01*
X0279743Y0122244D02*
X0227006Y0122244D01*
X0226168Y0123242D02*
X0280581Y0123242D01*
X0282016Y0126238D02*
X0224734Y0126238D01*
X0226313Y0127236D02*
X0280436Y0127236D01*
X0279683Y0128235D02*
X0227066Y0128235D01*
X0227480Y0129233D02*
X0279270Y0129233D01*
X0279225Y0130232D02*
X0227525Y0130232D01*
X0227426Y0131230D02*
X0279323Y0131230D01*
X0279737Y0132229D02*
X0227013Y0132229D01*
X0226183Y0133227D02*
X0280566Y0133227D01*
X0284420Y0134226D02*
X0323145Y0134226D01*
X0322980Y0133227D02*
X0286183Y0133227D01*
X0287013Y0132229D02*
X0322980Y0132229D01*
X0323355Y0131230D02*
X0287426Y0131230D01*
X0287525Y0130232D02*
X0323969Y0130232D01*
X0325170Y0129233D02*
X0287480Y0129233D01*
X0284734Y0126238D02*
X0324475Y0126238D01*
X0322980Y0123242D02*
X0286168Y0123242D01*
X0287006Y0122244D02*
X0322980Y0122244D01*
X0323349Y0121245D02*
X0287420Y0121245D01*
X0287525Y0120247D02*
X0323954Y0120247D01*
X0325134Y0119248D02*
X0287486Y0119248D01*
X0284770Y0116253D02*
X0324490Y0116253D01*
X0322980Y0113257D02*
X0286153Y0113257D01*
X0287000Y0112258D02*
X0322980Y0112258D01*
X0323343Y0111260D02*
X0287414Y0111260D01*
X0287525Y0110261D02*
X0323939Y0110261D01*
X0325098Y0109263D02*
X0287492Y0109263D01*
X0287079Y0108264D02*
X0332980Y0108264D01*
X0332980Y0108828D02*
X0332980Y0107136D01*
X0333628Y0105573D01*
X0334824Y0104376D01*
X0336387Y0103729D01*
X0338079Y0103729D01*
X0339642Y0104376D01*
X0340838Y0105573D01*
X0341486Y0107136D01*
X0341486Y0108828D01*
X0340838Y0110391D01*
X0339642Y0111587D01*
X0338079Y0112234D01*
X0336387Y0112234D01*
X0334824Y0111587D01*
X0333628Y0110391D01*
X0332980Y0108828D01*
X0333161Y0109263D02*
X0329368Y0109263D01*
X0330527Y0110261D02*
X0333574Y0110261D01*
X0334497Y0111260D02*
X0331123Y0111260D01*
X0331486Y0112258D02*
X0374316Y0112258D01*
X0374316Y0111260D02*
X0339969Y0111260D01*
X0340892Y0110261D02*
X0374316Y0110261D01*
X0374316Y0109263D02*
X0341305Y0109263D01*
X0341486Y0108264D02*
X0374316Y0108264D01*
X0374316Y0107266D02*
X0341486Y0107266D01*
X0341126Y0106267D02*
X0374316Y0106267D01*
X0374316Y0105269D02*
X0340535Y0105269D01*
X0339386Y0104270D02*
X0374316Y0104270D01*
X0374316Y0103272D02*
X0331486Y0103272D01*
X0331486Y0102273D02*
X0374316Y0102273D01*
X0374316Y0101275D02*
X0339954Y0101275D01*
X0340886Y0100276D02*
X0359464Y0100276D01*
X0357500Y0099278D02*
X0341299Y0099278D01*
X0341486Y0098279D02*
X0356501Y0098279D01*
X0355572Y0097281D02*
X0341486Y0097281D01*
X0341132Y0096282D02*
X0355158Y0096282D01*
X0354745Y0095284D02*
X0340550Y0095284D01*
X0339422Y0094285D02*
X0354434Y0094285D01*
X0365002Y0100276D02*
X0374316Y0100276D01*
X0374316Y0099278D02*
X0366967Y0099278D01*
X0367965Y0098279D02*
X0374316Y0098279D01*
X0374316Y0097281D02*
X0368894Y0097281D01*
X0369308Y0096282D02*
X0374316Y0096282D01*
X0374316Y0095284D02*
X0369721Y0095284D01*
X0370032Y0094285D02*
X0374316Y0094285D01*
X0374316Y0093287D02*
X0370032Y0093287D01*
X0370032Y0092288D02*
X0374316Y0092288D01*
X0374316Y0091290D02*
X0369974Y0091290D01*
X0369560Y0090291D02*
X0374316Y0090291D01*
X0374316Y0089293D02*
X0369147Y0089293D01*
X0368575Y0088294D02*
X0374316Y0088294D01*
X0374316Y0087296D02*
X0367577Y0087296D01*
X0366476Y0086297D02*
X0374316Y0086297D01*
X0374316Y0085299D02*
X0364065Y0085299D01*
X0360401Y0085299D02*
X0345500Y0085299D01*
X0346171Y0084300D02*
X0374316Y0084300D01*
X0374316Y0083302D02*
X0346407Y0083302D01*
X0346322Y0082303D02*
X0374316Y0082303D01*
X0374316Y0081305D02*
X0345865Y0081305D01*
X0344570Y0080306D02*
X0374316Y0080306D01*
X0374316Y0079308D02*
X0287511Y0079308D01*
X0287525Y0080306D02*
X0342101Y0080306D01*
X0340806Y0081305D02*
X0287395Y0081305D01*
X0286982Y0082303D02*
X0340349Y0082303D01*
X0340264Y0083302D02*
X0286109Y0083302D01*
X0280641Y0083302D02*
X0226109Y0083302D01*
X0226982Y0082303D02*
X0279768Y0082303D01*
X0279354Y0081305D02*
X0227395Y0081305D01*
X0227525Y0080306D02*
X0279225Y0080306D01*
X0279239Y0079308D02*
X0227511Y0079308D01*
X0227097Y0078309D02*
X0279652Y0078309D01*
X0280362Y0077311D02*
X0226388Y0077311D01*
X0224913Y0076312D02*
X0281836Y0076312D01*
X0282545Y0074315D02*
X0224204Y0074315D01*
X0226094Y0073317D02*
X0280656Y0073317D01*
X0279774Y0072318D02*
X0226976Y0072318D01*
X0227389Y0071320D02*
X0279360Y0071320D01*
X0279225Y0070321D02*
X0227525Y0070321D01*
X0227517Y0069322D02*
X0279233Y0069322D01*
X0279646Y0068324D02*
X0227103Y0068324D01*
X0226403Y0067325D02*
X0280347Y0067325D01*
X0286079Y0063331D02*
X0299795Y0063331D01*
X0300526Y0062333D02*
X0286969Y0062333D01*
X0287383Y0061334D02*
X0374316Y0061334D01*
X0374316Y0060336D02*
X0287525Y0060336D01*
X0287523Y0059337D02*
X0374316Y0059337D01*
X0374316Y0058339D02*
X0287110Y0058339D01*
X0286417Y0057340D02*
X0374316Y0057340D01*
X0374316Y0056342D02*
X0284985Y0056342D01*
X0286064Y0053346D02*
X0300010Y0053346D01*
X0299713Y0052348D02*
X0286963Y0052348D01*
X0287377Y0051349D02*
X0299736Y0051349D01*
X0300150Y0050351D02*
X0287525Y0050351D01*
X0287525Y0049352D02*
X0301191Y0049352D01*
X0300768Y0054345D02*
X0190776Y0054345D01*
X0190776Y0053346D02*
X0220685Y0053346D01*
X0219786Y0052348D02*
X0190776Y0052348D01*
X0190776Y0051349D02*
X0219373Y0051349D01*
X0219225Y0050351D02*
X0190776Y0050351D01*
X0190776Y0049352D02*
X0219225Y0049352D01*
X0219634Y0048354D02*
X0190776Y0048354D01*
X0186829Y0052348D02*
X0090502Y0052348D01*
X0090502Y0052628D02*
X0090034Y0053757D01*
X0089170Y0054621D01*
X0088041Y0055089D01*
X0086819Y0055089D01*
X0085690Y0054621D01*
X0084826Y0053757D01*
X0084358Y0052628D01*
X0084358Y0051406D01*
X0084826Y0050277D01*
X0085690Y0049413D01*
X0086819Y0048945D01*
X0088041Y0048945D01*
X0089170Y0049413D01*
X0090034Y0050277D01*
X0090502Y0051406D01*
X0090502Y0052628D01*
X0090204Y0053346D02*
X0186816Y0053346D01*
X0186802Y0054345D02*
X0089446Y0054345D01*
X0090478Y0051349D02*
X0135658Y0051349D01*
X0135658Y0050351D02*
X0090064Y0050351D01*
X0089023Y0049352D02*
X0135658Y0049352D01*
X0135658Y0048354D02*
X0059738Y0048354D01*
X0059719Y0048309D02*
X0060187Y0049438D01*
X0060187Y0050660D01*
X0059719Y0051788D01*
X0058855Y0052653D01*
X0057726Y0053120D01*
X0056504Y0053120D01*
X0055375Y0052653D01*
X0054511Y0051788D01*
X0054043Y0050660D01*
X0054043Y0049438D01*
X0054511Y0048309D01*
X0055375Y0047445D01*
X0056504Y0046977D01*
X0057726Y0046977D01*
X0058855Y0047445D01*
X0059719Y0048309D01*
X0060151Y0049352D02*
X0085837Y0049352D01*
X0084795Y0050351D02*
X0060187Y0050351D01*
X0059901Y0051349D02*
X0084382Y0051349D01*
X0084358Y0052348D02*
X0059160Y0052348D01*
X0055070Y0052348D02*
X0003300Y0052348D01*
X0003300Y0053346D02*
X0084656Y0053346D01*
X0085414Y0054345D02*
X0003300Y0054345D01*
X0003300Y0055343D02*
X0186788Y0055343D01*
X0186775Y0056342D02*
X0003300Y0056342D01*
X0003300Y0057340D02*
X0013052Y0057340D01*
X0012054Y0058339D02*
X0003300Y0058339D01*
X0003300Y0059337D02*
X0011531Y0059337D01*
X0011130Y0060336D02*
X0003300Y0060336D01*
X0003300Y0061334D02*
X0011130Y0061334D01*
X0011172Y0062333D02*
X0003300Y0062333D01*
X0003300Y0063331D02*
X0011585Y0063331D01*
X0012185Y0064330D02*
X0003300Y0064330D01*
X0003300Y0065328D02*
X0013183Y0065328D01*
X0020415Y0059337D02*
X0186734Y0059337D01*
X0186747Y0058339D02*
X0019893Y0058339D01*
X0018894Y0057340D02*
X0186761Y0057340D01*
X0219225Y0040366D02*
X0139640Y0040366D01*
X0139634Y0041364D02*
X0219379Y0041364D01*
X0219793Y0042363D02*
X0139628Y0042363D01*
X0139622Y0043361D02*
X0220700Y0043361D01*
X0221728Y0046357D02*
X0139603Y0046357D01*
X0139597Y0047355D02*
X0220317Y0047355D01*
X0219225Y0039367D02*
X0139646Y0039367D01*
X0139652Y0038369D02*
X0219628Y0038369D01*
X0220302Y0037370D02*
X0139658Y0037370D01*
X0139664Y0036372D02*
X0221692Y0036372D01*
X0220715Y0033376D02*
X0139683Y0033376D01*
X0139689Y0032378D02*
X0219799Y0032378D01*
X0219385Y0031379D02*
X0176195Y0031379D01*
X0176406Y0031346D02*
X0175725Y0031453D01*
X0175725Y0026927D01*
X0174725Y0026927D01*
X0174725Y0031453D01*
X0174044Y0031346D01*
X0173289Y0031100D01*
X0172582Y0030740D01*
X0171940Y0030273D01*
X0171378Y0029712D01*
X0170912Y0029070D01*
X0170551Y0028362D01*
X0170306Y0027607D01*
X0170198Y0026926D01*
X0174725Y0026926D01*
X0174725Y0025927D01*
X0170198Y0025927D01*
X0170306Y0025246D01*
X0170551Y0024491D01*
X0170912Y0023783D01*
X0171378Y0023141D01*
X0171940Y0022580D01*
X0172582Y0022113D01*
X0173289Y0021753D01*
X0174044Y0021507D01*
X0174725Y0021400D01*
X0174725Y0025926D01*
X0175725Y0025926D01*
X0175725Y0021400D01*
X0176406Y0021507D01*
X0177161Y0021753D01*
X0177868Y0022113D01*
X0178511Y0022580D01*
X0179072Y0023141D01*
X0179539Y0023783D01*
X0179899Y0024491D01*
X0180144Y0025246D01*
X0180252Y0025927D01*
X0175725Y0025927D01*
X0175725Y0026926D01*
X0180252Y0026926D01*
X0180144Y0027607D01*
X0179899Y0028362D01*
X0179539Y0029070D01*
X0179072Y0029712D01*
X0178511Y0030273D01*
X0177868Y0030740D01*
X0177161Y0031100D01*
X0176406Y0031346D01*
X0175725Y0031379D02*
X0174725Y0031379D01*
X0174255Y0031379D02*
X0148636Y0031379D01*
X0148847Y0031346D02*
X0148166Y0031453D01*
X0148166Y0026927D01*
X0147166Y0026927D01*
X0147166Y0031453D01*
X0146485Y0031346D01*
X0145730Y0031100D01*
X0145023Y0030740D01*
X0144381Y0030273D01*
X0143819Y0029712D01*
X0143353Y0029070D01*
X0142992Y0028362D01*
X0142747Y0027607D01*
X0142639Y0026926D01*
X0147166Y0026926D01*
X0147166Y0025927D01*
X0142639Y0025927D01*
X0142747Y0025246D01*
X0142992Y0024491D01*
X0143353Y0023783D01*
X0143819Y0023141D01*
X0144381Y0022580D01*
X0145023Y0022113D01*
X0145730Y0021753D01*
X0146485Y0021507D01*
X0147166Y0021400D01*
X0147166Y0025926D01*
X0148166Y0025926D01*
X0148166Y0021400D01*
X0148847Y0021507D01*
X0149602Y0021753D01*
X0150309Y0022113D01*
X0150952Y0022580D01*
X0151513Y0023141D01*
X0151980Y0023783D01*
X0152340Y0024491D01*
X0152585Y0025246D01*
X0152693Y0025927D01*
X0148166Y0025927D01*
X0148166Y0026926D01*
X0152693Y0026926D01*
X0152585Y0027607D01*
X0152340Y0028362D01*
X0151980Y0029070D01*
X0151513Y0029712D01*
X0150952Y0030273D01*
X0150309Y0030740D01*
X0149602Y0031100D01*
X0148847Y0031346D01*
X0148166Y0031379D02*
X0147166Y0031379D01*
X0146696Y0031379D02*
X0139695Y0031379D01*
X0139701Y0030381D02*
X0144528Y0030381D01*
X0143580Y0029382D02*
X0139707Y0029382D01*
X0139713Y0028384D02*
X0143003Y0028384D01*
X0142712Y0027385D02*
X0139719Y0027385D01*
X0139725Y0026387D02*
X0147166Y0026387D01*
X0147166Y0027385D02*
X0148166Y0027385D01*
X0148166Y0026387D02*
X0156602Y0026387D01*
X0156602Y0025463D02*
X0157340Y0023683D01*
X0158702Y0022321D01*
X0160482Y0021583D01*
X0162409Y0021583D01*
X0164189Y0022321D01*
X0165552Y0023683D01*
X0166289Y0025463D01*
X0166289Y0027390D01*
X0165552Y0029170D01*
X0164189Y0030532D01*
X0162409Y0031270D01*
X0160482Y0031270D01*
X0158702Y0030532D01*
X0157340Y0029170D01*
X0156602Y0027390D01*
X0156602Y0025463D01*
X0156633Y0025388D02*
X0152608Y0025388D01*
X0152288Y0024389D02*
X0157047Y0024389D01*
X0157632Y0023391D02*
X0151695Y0023391D01*
X0150694Y0022392D02*
X0158630Y0022392D01*
X0156602Y0027385D02*
X0152620Y0027385D01*
X0152329Y0028384D02*
X0157014Y0028384D01*
X0157552Y0029382D02*
X0151753Y0029382D01*
X0150804Y0030381D02*
X0158550Y0030381D01*
X0164341Y0030381D02*
X0172087Y0030381D01*
X0171139Y0029382D02*
X0165340Y0029382D01*
X0165877Y0028384D02*
X0170562Y0028384D01*
X0170271Y0027385D02*
X0166289Y0027385D01*
X0166289Y0026387D02*
X0174725Y0026387D01*
X0174725Y0027385D02*
X0175725Y0027385D01*
X0175725Y0026387D02*
X0184161Y0026387D01*
X0184161Y0025463D02*
X0184899Y0023683D01*
X0186261Y0022321D01*
X0188041Y0021583D01*
X0189968Y0021583D01*
X0191748Y0022321D01*
X0193111Y0023683D01*
X0193848Y0025463D01*
X0193848Y0027390D01*
X0193111Y0029170D01*
X0191748Y0030532D01*
X0189968Y0031270D01*
X0188041Y0031270D01*
X0186261Y0030532D01*
X0184899Y0029170D01*
X0184161Y0027390D01*
X0184161Y0025463D01*
X0184193Y0025388D02*
X0180167Y0025388D01*
X0179848Y0024389D02*
X0184606Y0024389D01*
X0185191Y0023391D02*
X0179254Y0023391D01*
X0178253Y0022392D02*
X0186189Y0022392D01*
X0184161Y0027385D02*
X0180180Y0027385D01*
X0179888Y0028384D02*
X0184573Y0028384D01*
X0185111Y0029382D02*
X0179312Y0029382D01*
X0178363Y0030381D02*
X0186109Y0030381D01*
X0191900Y0030381D02*
X0219225Y0030381D01*
X0219225Y0029382D02*
X0192899Y0029382D01*
X0193436Y0028384D02*
X0219621Y0028384D01*
X0220287Y0027385D02*
X0193848Y0027385D01*
X0193848Y0026387D02*
X0221656Y0026387D01*
X0220730Y0023391D02*
X0192819Y0023391D01*
X0193403Y0024389D02*
X0282294Y0024389D01*
X0282925Y0024389D02*
X0283825Y0024389D01*
X0284455Y0024389D02*
X0353547Y0024389D01*
X0352548Y0025388D02*
X0193817Y0025388D01*
X0191820Y0022392D02*
X0207202Y0022392D01*
X0207540Y0022731D02*
X0206676Y0021867D01*
X0206209Y0020738D01*
X0206209Y0019516D01*
X0206676Y0018387D01*
X0207540Y0017523D01*
X0208669Y0017056D01*
X0209891Y0017056D01*
X0211020Y0017523D01*
X0211884Y0018387D01*
X0212352Y0019516D01*
X0212352Y0020738D01*
X0211884Y0021867D01*
X0211020Y0022731D01*
X0209891Y0023199D01*
X0208669Y0023199D01*
X0207540Y0022731D01*
X0206480Y0021394D02*
X0139756Y0021394D01*
X0139750Y0022392D02*
X0144638Y0022392D01*
X0143638Y0023391D02*
X0139743Y0023391D01*
X0139737Y0024389D02*
X0143044Y0024389D01*
X0142724Y0025388D02*
X0139731Y0025388D01*
X0135658Y0025388D02*
X0023099Y0025388D01*
X0024097Y0026387D02*
X0135658Y0026387D01*
X0135658Y0027385D02*
X0024647Y0027385D01*
X0024330Y0026619D02*
X0022080Y0024369D01*
X0019139Y0023151D01*
X0015957Y0023151D01*
X0013016Y0024369D01*
X0010766Y0026619D01*
X0009548Y0029560D01*
X0009548Y0032742D01*
X0010766Y0035683D01*
X0013016Y0037933D01*
X0015957Y0039151D01*
X0019139Y0039151D01*
X0022080Y0037933D01*
X0024330Y0035683D01*
X0025548Y0032742D01*
X0025548Y0029560D01*
X0024330Y0026619D01*
X0025061Y0028384D02*
X0135658Y0028384D01*
X0135658Y0029382D02*
X0025474Y0029382D01*
X0025548Y0030381D02*
X0135658Y0030381D01*
X0135658Y0031379D02*
X0025548Y0031379D01*
X0025548Y0032378D02*
X0135658Y0032378D01*
X0135658Y0033376D02*
X0025285Y0033376D01*
X0024872Y0034375D02*
X0135658Y0034375D01*
X0135658Y0035373D02*
X0024458Y0035373D01*
X0023641Y0036372D02*
X0135658Y0036372D01*
X0135658Y0037370D02*
X0022643Y0037370D01*
X0021028Y0038369D02*
X0135658Y0038369D01*
X0135658Y0039367D02*
X0003300Y0039367D01*
X0003300Y0038369D02*
X0014068Y0038369D01*
X0012454Y0037370D02*
X0003300Y0037370D01*
X0003300Y0036372D02*
X0011455Y0036372D01*
X0010638Y0035373D02*
X0003300Y0035373D01*
X0003300Y0034375D02*
X0010224Y0034375D01*
X0009811Y0033376D02*
X0003300Y0033376D01*
X0003300Y0032378D02*
X0009548Y0032378D01*
X0009548Y0031379D02*
X0003300Y0031379D01*
X0003300Y0030381D02*
X0009548Y0030381D01*
X0009622Y0029382D02*
X0003300Y0029382D01*
X0003300Y0028384D02*
X0010035Y0028384D01*
X0010449Y0027385D02*
X0003300Y0027385D01*
X0003300Y0026387D02*
X0010999Y0026387D01*
X0011997Y0025388D02*
X0003300Y0025388D01*
X0003300Y0024389D02*
X0012996Y0024389D01*
X0015377Y0023391D02*
X0003300Y0023391D01*
X0003300Y0022392D02*
X0135658Y0022392D01*
X0135658Y0021394D02*
X0003300Y0021394D01*
X0003300Y0020395D02*
X0135658Y0020395D01*
X0135658Y0019397D02*
X0003300Y0019397D01*
X0003300Y0018398D02*
X0135658Y0018398D01*
X0135658Y0017400D02*
X0003300Y0017400D01*
X0019719Y0023391D02*
X0135658Y0023391D01*
X0135658Y0024389D02*
X0022100Y0024389D01*
X0003300Y0040366D02*
X0135658Y0040366D01*
X0135658Y0041364D02*
X0003300Y0041364D01*
X0003300Y0042363D02*
X0117937Y0042363D01*
X0118367Y0041933D02*
X0119496Y0041465D01*
X0120718Y0041465D01*
X0121847Y0041933D01*
X0122711Y0042797D01*
X0123179Y0043926D01*
X0123179Y0045148D01*
X0122711Y0046277D01*
X0121847Y0047141D01*
X0120718Y0047608D01*
X0119496Y0047608D01*
X0118367Y0047141D01*
X0117503Y0046277D01*
X0117035Y0045148D01*
X0117035Y0043926D01*
X0117503Y0042797D01*
X0118367Y0041933D01*
X0117269Y0043361D02*
X0003300Y0043361D01*
X0003300Y0044360D02*
X0117035Y0044360D01*
X0117123Y0045358D02*
X0003300Y0045358D01*
X0003300Y0046357D02*
X0117583Y0046357D01*
X0118885Y0047355D02*
X0058639Y0047355D01*
X0055591Y0047355D02*
X0003300Y0047355D01*
X0003300Y0048354D02*
X0054492Y0048354D01*
X0054079Y0049352D02*
X0003300Y0049352D01*
X0003300Y0050351D02*
X0054043Y0050351D01*
X0054329Y0051349D02*
X0003300Y0051349D01*
X0089796Y0111260D02*
X0192872Y0111260D01*
X0191907Y0112258D02*
X0090580Y0112258D01*
X0090895Y0113257D02*
X0190941Y0113257D01*
X0189976Y0114255D02*
X0090890Y0114255D01*
X0090476Y0115254D02*
X0189011Y0115254D01*
X0188046Y0116253D02*
X0089522Y0116253D01*
X0119866Y0130232D02*
X0123138Y0130232D01*
X0123138Y0131230D02*
X0120959Y0131230D01*
X0121373Y0132229D02*
X0123494Y0132229D01*
X0124335Y0133227D02*
X0121407Y0133227D01*
X0121120Y0134226D02*
X0184871Y0134226D01*
X0184871Y0135224D02*
X0120378Y0135224D01*
X0128083Y0133227D02*
X0184871Y0133227D01*
X0184871Y0132229D02*
X0128925Y0132229D01*
X0129281Y0131230D02*
X0184871Y0131230D01*
X0184425Y0130232D02*
X0129281Y0130232D01*
X0128903Y0129233D02*
X0184161Y0129233D01*
X0184219Y0128235D02*
X0128031Y0128235D01*
X0117256Y0145209D02*
X0020692Y0145209D01*
X0020279Y0146208D02*
X0116526Y0146208D01*
X0116248Y0147206D02*
X0019562Y0147206D01*
X0018348Y0148205D02*
X0116291Y0148205D01*
X0086316Y0175165D02*
X0059202Y0175165D01*
X0059157Y0176163D02*
X0085837Y0176163D01*
X0085736Y0177162D02*
X0058743Y0177162D01*
X0057596Y0178160D02*
X0085957Y0178160D01*
X0054666Y0178160D02*
X0003300Y0178160D01*
X0003300Y0177162D02*
X0053518Y0177162D01*
X0038586Y0166178D02*
X0003300Y0166178D01*
X0003300Y0165180D02*
X0037390Y0165180D01*
X0036974Y0164181D02*
X0003300Y0164181D01*
X0003300Y0163183D02*
X0036917Y0163183D01*
X0020995Y0157191D02*
X0171350Y0157191D01*
X0170608Y0156193D02*
X0020778Y0156193D01*
X0020382Y0152199D02*
X0003300Y0152199D01*
X0003300Y0151200D02*
X0020549Y0151200D01*
X0021122Y0150202D02*
X0003300Y0150202D01*
X0016473Y0180258D02*
X0017154Y0180366D01*
X0017909Y0180611D01*
X0018616Y0180971D01*
X0019259Y0181438D01*
X0019820Y0181999D01*
X0020287Y0182641D01*
X0020647Y0183349D01*
X0020892Y0184104D01*
X0021000Y0184785D01*
X0016473Y0184785D01*
X0016473Y0180258D01*
X0016473Y0181156D02*
X0015473Y0181156D01*
X0015473Y0182154D02*
X0016473Y0182154D01*
X0016473Y0183153D02*
X0015473Y0183153D01*
X0015473Y0184151D02*
X0016473Y0184151D01*
X0016473Y0185150D02*
X0120943Y0185150D01*
X0120475Y0184151D02*
X0020900Y0184151D01*
X0020547Y0183153D02*
X0120382Y0183153D01*
X0120610Y0182154D02*
X0019933Y0182154D01*
X0018870Y0181156D02*
X0121270Y0181156D01*
X0122264Y0186148D02*
X0020943Y0186148D01*
X0016473Y0186148D02*
X0015473Y0186148D01*
X0015473Y0185150D02*
X0003300Y0185150D01*
X0003300Y0186148D02*
X0011004Y0186148D01*
X0011275Y0187147D02*
X0003300Y0187147D01*
X0003300Y0188145D02*
X0011818Y0188145D01*
X0012705Y0189144D02*
X0003300Y0189144D01*
X0003300Y0190142D02*
X0014603Y0190142D01*
X0015473Y0190142D02*
X0016473Y0190142D01*
X0016473Y0189144D02*
X0015473Y0189144D01*
X0015473Y0188145D02*
X0016473Y0188145D01*
X0016473Y0187147D02*
X0015473Y0187147D01*
X0011047Y0184151D02*
X0003300Y0184151D01*
X0003300Y0183153D02*
X0011399Y0183153D01*
X0012014Y0182154D02*
X0003300Y0182154D01*
X0003300Y0181156D02*
X0013076Y0181156D01*
X0013053Y0195135D02*
X0003300Y0195135D01*
X0003300Y0196133D02*
X0012055Y0196133D01*
X0011531Y0197132D02*
X0003300Y0197132D01*
X0003300Y0198130D02*
X0011130Y0198130D01*
X0011130Y0199129D02*
X0003300Y0199129D01*
X0003300Y0200127D02*
X0011171Y0200127D01*
X0011585Y0201126D02*
X0003300Y0201126D01*
X0003300Y0202124D02*
X0012184Y0202124D01*
X0013182Y0203123D02*
X0003300Y0203123D01*
X0042565Y0139218D02*
X0184871Y0139218D01*
X0184871Y0138220D02*
X0043456Y0138220D01*
X0043848Y0137221D02*
X0184871Y0137221D01*
X0184871Y0136223D02*
X0043848Y0136223D01*
X0147114Y0190142D02*
X0155895Y0190142D01*
X0155375Y0190358D02*
X0156504Y0189890D01*
X0157726Y0189890D01*
X0158855Y0190358D01*
X0159719Y0191222D01*
X0160187Y0192351D01*
X0160187Y0193573D01*
X0159719Y0194702D01*
X0158855Y0195566D01*
X0157726Y0196034D01*
X0156504Y0196034D01*
X0155375Y0195566D01*
X0154511Y0194702D01*
X0154043Y0193573D01*
X0154043Y0192351D01*
X0154511Y0191222D01*
X0155375Y0190358D01*
X0154592Y0191141D02*
X0148417Y0191141D01*
X0148878Y0192139D02*
X0154131Y0192139D01*
X0154043Y0193138D02*
X0148966Y0193138D01*
X0148733Y0194136D02*
X0154277Y0194136D01*
X0154944Y0195135D02*
X0148065Y0195135D01*
X0158335Y0190142D02*
X0165344Y0190142D01*
X0164041Y0191141D02*
X0159638Y0191141D01*
X0160099Y0192139D02*
X0163580Y0192139D01*
X0163492Y0193138D02*
X0160187Y0193138D01*
X0159953Y0194136D02*
X0163726Y0194136D01*
X0164393Y0195135D02*
X0159286Y0195135D01*
X0173481Y0157191D02*
X0173662Y0157191D01*
X0173662Y0156193D02*
X0173481Y0156193D01*
X0173481Y0155194D02*
X0173662Y0155194D01*
X0173662Y0154196D02*
X0173481Y0154196D01*
X0173481Y0153197D02*
X0173662Y0153197D01*
X0173662Y0152199D02*
X0173481Y0152199D01*
X0175793Y0157191D02*
X0176633Y0157191D01*
X0190776Y0093287D02*
X0220626Y0093287D01*
X0219762Y0092288D02*
X0190776Y0092288D01*
X0190776Y0091290D02*
X0219348Y0091290D01*
X0219225Y0090291D02*
X0190776Y0090291D01*
X0190776Y0089293D02*
X0219245Y0089293D01*
X0219658Y0088294D02*
X0190776Y0088294D01*
X0190776Y0087296D02*
X0220377Y0087296D01*
X0221872Y0086297D02*
X0190776Y0086297D01*
X0226373Y0087296D02*
X0280377Y0087296D01*
X0279658Y0088294D02*
X0227091Y0088294D01*
X0227505Y0089293D02*
X0279245Y0089293D01*
X0279225Y0090291D02*
X0227525Y0090291D01*
X0227402Y0091290D02*
X0279348Y0091290D01*
X0279762Y0092288D02*
X0226988Y0092288D01*
X0226124Y0093287D02*
X0280626Y0093287D01*
X0284842Y0096282D02*
X0333334Y0096282D01*
X0332980Y0097281D02*
X0286358Y0097281D01*
X0287085Y0098279D02*
X0332980Y0098279D01*
X0333167Y0099278D02*
X0329404Y0099278D01*
X0330542Y0100276D02*
X0333580Y0100276D01*
X0334512Y0101275D02*
X0331129Y0101275D01*
X0331302Y0104270D02*
X0335080Y0104270D01*
X0333931Y0105269D02*
X0330889Y0105269D01*
X0329962Y0106267D02*
X0333340Y0106267D01*
X0332980Y0107266D02*
X0286343Y0107266D01*
X0284806Y0106267D02*
X0324505Y0106267D01*
X0322980Y0103272D02*
X0286139Y0103272D01*
X0286994Y0102273D02*
X0322980Y0102273D01*
X0323337Y0101275D02*
X0287408Y0101275D01*
X0287525Y0100276D02*
X0323924Y0100276D01*
X0325062Y0099278D02*
X0287499Y0099278D01*
X0287097Y0078309D02*
X0374316Y0078309D01*
X0374316Y0077311D02*
X0286388Y0077311D01*
X0284913Y0076312D02*
X0374316Y0076312D01*
X0374316Y0075314D02*
X0312966Y0075314D01*
X0313668Y0074315D02*
X0374316Y0074315D01*
X0374316Y0073317D02*
X0313927Y0073317D01*
X0313864Y0072318D02*
X0374316Y0072318D01*
X0374316Y0071320D02*
X0313439Y0071320D01*
X0312221Y0070321D02*
X0374316Y0070321D01*
X0374316Y0067325D02*
X0304071Y0067325D01*
X0305203Y0066327D02*
X0374316Y0066327D01*
X0374316Y0065328D02*
X0305617Y0065328D01*
X0305659Y0064330D02*
X0374316Y0064330D01*
X0374316Y0063331D02*
X0305380Y0063331D01*
X0304649Y0062333D02*
X0374316Y0062333D01*
X0374316Y0045358D02*
X0139609Y0045358D01*
X0139616Y0044360D02*
X0374316Y0044360D01*
X0354619Y0038369D02*
X0287122Y0038369D01*
X0286447Y0037370D02*
X0353005Y0037370D01*
X0352006Y0036372D02*
X0285057Y0036372D01*
X0286034Y0033376D02*
X0350362Y0033376D01*
X0350099Y0032378D02*
X0286951Y0032378D01*
X0287365Y0031379D02*
X0350099Y0031379D01*
X0350099Y0030381D02*
X0287525Y0030381D01*
X0287525Y0029382D02*
X0350173Y0029382D01*
X0350586Y0028384D02*
X0287128Y0028384D01*
X0286462Y0027385D02*
X0351000Y0027385D01*
X0351550Y0026387D02*
X0285093Y0026387D01*
X0286302Y0023391D02*
X0355928Y0023391D01*
X0350775Y0034375D02*
X0139676Y0034375D01*
X0139670Y0035373D02*
X0351189Y0035373D01*
X0374316Y0019397D02*
X0287657Y0019397D01*
X0287356Y0018398D02*
X0374316Y0018398D01*
X0374316Y0017400D02*
X0286742Y0017400D01*
X0283825Y0021394D02*
X0282925Y0021394D01*
X0282925Y0022392D02*
X0283825Y0022392D01*
X0283825Y0023391D02*
X0282925Y0023391D01*
X0220273Y0017400D02*
X0210722Y0017400D01*
X0211889Y0018398D02*
X0219615Y0018398D01*
X0219225Y0019397D02*
X0212303Y0019397D01*
X0212352Y0020395D02*
X0219225Y0020395D01*
X0219391Y0021394D02*
X0212080Y0021394D01*
X0211359Y0022392D02*
X0219805Y0022392D01*
X0207838Y0017400D02*
X0139780Y0017400D01*
X0139774Y0018398D02*
X0206672Y0018398D01*
X0206258Y0019397D02*
X0139768Y0019397D01*
X0139762Y0020395D02*
X0206209Y0020395D01*
X0175725Y0022392D02*
X0174725Y0022392D01*
X0174725Y0023391D02*
X0175725Y0023391D01*
X0175725Y0024389D02*
X0174725Y0024389D01*
X0174725Y0025388D02*
X0175725Y0025388D01*
X0175725Y0028384D02*
X0174725Y0028384D01*
X0174725Y0029382D02*
X0175725Y0029382D01*
X0175725Y0030381D02*
X0174725Y0030381D01*
X0170284Y0025388D02*
X0166258Y0025388D01*
X0165844Y0024389D02*
X0170603Y0024389D01*
X0171197Y0023391D02*
X0165260Y0023391D01*
X0164261Y0022392D02*
X0172197Y0022392D01*
X0148166Y0022392D02*
X0147166Y0022392D01*
X0147166Y0023391D02*
X0148166Y0023391D01*
X0148166Y0024389D02*
X0147166Y0024389D01*
X0147166Y0025388D02*
X0148166Y0025388D01*
X0148166Y0028384D02*
X0147166Y0028384D01*
X0147166Y0029382D02*
X0148166Y0029382D01*
X0148166Y0030381D02*
X0147166Y0030381D01*
X0135658Y0042363D02*
X0122277Y0042363D01*
X0122945Y0043361D02*
X0135658Y0043361D01*
X0135658Y0044360D02*
X0123179Y0044360D01*
X0123092Y0045358D02*
X0135658Y0045358D01*
X0135658Y0046357D02*
X0122631Y0046357D01*
X0121329Y0047355D02*
X0135658Y0047355D01*
X0339999Y0131230D02*
X0358152Y0131230D01*
X0360563Y0130232D02*
X0340904Y0130232D01*
X0139019Y0285001D02*
X0136121Y0285001D01*
X0135265Y0285999D02*
X0139785Y0285999D01*
D18*
X0322469Y0256545D02*
X0322863Y0256151D01*
X0322666Y0256545D01*
D19*
X0181131Y0092175D02*
X0181328Y0091978D01*
M02*
