G75*
%MOIN*%
%OFA0B0*%
%FSLAX25Y25*%
%IPPOS*%
%LPD*%
%AMOC8*
5,1,8,0,0,1.08239X$1,22.5*
%
%ADD10C,0.00000*%
%ADD11R,0.04331X0.03937*%
%ADD12R,0.05315X0.04724*%
%ADD13R,0.04724X0.05315*%
%ADD14R,0.07400X0.07400*%
%ADD15C,0.07400*%
%ADD16R,0.01400X0.05800*%
%ADD17R,0.08700X0.02400*%
%ADD18C,0.03562*%
%ADD19R,0.08000X0.08000*%
%ADD20C,0.08000*%
%ADD21C,0.05700*%
%ADD22C,0.05315*%
%ADD23R,0.02362X0.08661*%
%ADD24R,0.03937X0.04331*%
%ADD25R,0.05512X0.05512*%
%ADD26C,0.01200*%
%ADD27C,0.03200*%
%ADD28C,0.01600*%
%ADD29C,0.03543*%
%ADD30C,0.02400*%
%ADD31C,0.01181*%
%ADD32C,0.00984*%
D10*
X0001800Y0015403D02*
X0375816Y0015403D01*
X0375816Y0314615D01*
X0001800Y0314615D01*
X0001800Y0015403D01*
X0011048Y0031151D02*
X0011050Y0031312D01*
X0011056Y0031472D01*
X0011066Y0031633D01*
X0011080Y0031793D01*
X0011098Y0031953D01*
X0011119Y0032112D01*
X0011145Y0032271D01*
X0011175Y0032429D01*
X0011208Y0032586D01*
X0011246Y0032743D01*
X0011287Y0032898D01*
X0011332Y0033052D01*
X0011381Y0033205D01*
X0011434Y0033357D01*
X0011490Y0033508D01*
X0011551Y0033657D01*
X0011614Y0033805D01*
X0011682Y0033951D01*
X0011753Y0034095D01*
X0011827Y0034237D01*
X0011905Y0034378D01*
X0011987Y0034516D01*
X0012072Y0034653D01*
X0012160Y0034787D01*
X0012252Y0034919D01*
X0012347Y0035049D01*
X0012445Y0035177D01*
X0012546Y0035302D01*
X0012650Y0035424D01*
X0012757Y0035544D01*
X0012867Y0035661D01*
X0012980Y0035776D01*
X0013096Y0035887D01*
X0013215Y0035996D01*
X0013336Y0036101D01*
X0013460Y0036204D01*
X0013586Y0036304D01*
X0013714Y0036400D01*
X0013845Y0036493D01*
X0013979Y0036583D01*
X0014114Y0036670D01*
X0014252Y0036753D01*
X0014391Y0036833D01*
X0014533Y0036909D01*
X0014676Y0036982D01*
X0014821Y0037051D01*
X0014968Y0037117D01*
X0015116Y0037179D01*
X0015266Y0037237D01*
X0015417Y0037292D01*
X0015570Y0037343D01*
X0015724Y0037390D01*
X0015879Y0037433D01*
X0016035Y0037472D01*
X0016191Y0037508D01*
X0016349Y0037539D01*
X0016507Y0037567D01*
X0016666Y0037591D01*
X0016826Y0037611D01*
X0016986Y0037627D01*
X0017146Y0037639D01*
X0017307Y0037647D01*
X0017468Y0037651D01*
X0017628Y0037651D01*
X0017789Y0037647D01*
X0017950Y0037639D01*
X0018110Y0037627D01*
X0018270Y0037611D01*
X0018430Y0037591D01*
X0018589Y0037567D01*
X0018747Y0037539D01*
X0018905Y0037508D01*
X0019061Y0037472D01*
X0019217Y0037433D01*
X0019372Y0037390D01*
X0019526Y0037343D01*
X0019679Y0037292D01*
X0019830Y0037237D01*
X0019980Y0037179D01*
X0020128Y0037117D01*
X0020275Y0037051D01*
X0020420Y0036982D01*
X0020563Y0036909D01*
X0020705Y0036833D01*
X0020844Y0036753D01*
X0020982Y0036670D01*
X0021117Y0036583D01*
X0021251Y0036493D01*
X0021382Y0036400D01*
X0021510Y0036304D01*
X0021636Y0036204D01*
X0021760Y0036101D01*
X0021881Y0035996D01*
X0022000Y0035887D01*
X0022116Y0035776D01*
X0022229Y0035661D01*
X0022339Y0035544D01*
X0022446Y0035424D01*
X0022550Y0035302D01*
X0022651Y0035177D01*
X0022749Y0035049D01*
X0022844Y0034919D01*
X0022936Y0034787D01*
X0023024Y0034653D01*
X0023109Y0034516D01*
X0023191Y0034378D01*
X0023269Y0034237D01*
X0023343Y0034095D01*
X0023414Y0033951D01*
X0023482Y0033805D01*
X0023545Y0033657D01*
X0023606Y0033508D01*
X0023662Y0033357D01*
X0023715Y0033205D01*
X0023764Y0033052D01*
X0023809Y0032898D01*
X0023850Y0032743D01*
X0023888Y0032586D01*
X0023921Y0032429D01*
X0023951Y0032271D01*
X0023977Y0032112D01*
X0023998Y0031953D01*
X0024016Y0031793D01*
X0024030Y0031633D01*
X0024040Y0031472D01*
X0024046Y0031312D01*
X0024048Y0031151D01*
X0024046Y0030990D01*
X0024040Y0030830D01*
X0024030Y0030669D01*
X0024016Y0030509D01*
X0023998Y0030349D01*
X0023977Y0030190D01*
X0023951Y0030031D01*
X0023921Y0029873D01*
X0023888Y0029716D01*
X0023850Y0029559D01*
X0023809Y0029404D01*
X0023764Y0029250D01*
X0023715Y0029097D01*
X0023662Y0028945D01*
X0023606Y0028794D01*
X0023545Y0028645D01*
X0023482Y0028497D01*
X0023414Y0028351D01*
X0023343Y0028207D01*
X0023269Y0028065D01*
X0023191Y0027924D01*
X0023109Y0027786D01*
X0023024Y0027649D01*
X0022936Y0027515D01*
X0022844Y0027383D01*
X0022749Y0027253D01*
X0022651Y0027125D01*
X0022550Y0027000D01*
X0022446Y0026878D01*
X0022339Y0026758D01*
X0022229Y0026641D01*
X0022116Y0026526D01*
X0022000Y0026415D01*
X0021881Y0026306D01*
X0021760Y0026201D01*
X0021636Y0026098D01*
X0021510Y0025998D01*
X0021382Y0025902D01*
X0021251Y0025809D01*
X0021117Y0025719D01*
X0020982Y0025632D01*
X0020844Y0025549D01*
X0020705Y0025469D01*
X0020563Y0025393D01*
X0020420Y0025320D01*
X0020275Y0025251D01*
X0020128Y0025185D01*
X0019980Y0025123D01*
X0019830Y0025065D01*
X0019679Y0025010D01*
X0019526Y0024959D01*
X0019372Y0024912D01*
X0019217Y0024869D01*
X0019061Y0024830D01*
X0018905Y0024794D01*
X0018747Y0024763D01*
X0018589Y0024735D01*
X0018430Y0024711D01*
X0018270Y0024691D01*
X0018110Y0024675D01*
X0017950Y0024663D01*
X0017789Y0024655D01*
X0017628Y0024651D01*
X0017468Y0024651D01*
X0017307Y0024655D01*
X0017146Y0024663D01*
X0016986Y0024675D01*
X0016826Y0024691D01*
X0016666Y0024711D01*
X0016507Y0024735D01*
X0016349Y0024763D01*
X0016191Y0024794D01*
X0016035Y0024830D01*
X0015879Y0024869D01*
X0015724Y0024912D01*
X0015570Y0024959D01*
X0015417Y0025010D01*
X0015266Y0025065D01*
X0015116Y0025123D01*
X0014968Y0025185D01*
X0014821Y0025251D01*
X0014676Y0025320D01*
X0014533Y0025393D01*
X0014391Y0025469D01*
X0014252Y0025549D01*
X0014114Y0025632D01*
X0013979Y0025719D01*
X0013845Y0025809D01*
X0013714Y0025902D01*
X0013586Y0025998D01*
X0013460Y0026098D01*
X0013336Y0026201D01*
X0013215Y0026306D01*
X0013096Y0026415D01*
X0012980Y0026526D01*
X0012867Y0026641D01*
X0012757Y0026758D01*
X0012650Y0026878D01*
X0012546Y0027000D01*
X0012445Y0027125D01*
X0012347Y0027253D01*
X0012252Y0027383D01*
X0012160Y0027515D01*
X0012072Y0027649D01*
X0011987Y0027786D01*
X0011905Y0027924D01*
X0011827Y0028065D01*
X0011753Y0028207D01*
X0011682Y0028351D01*
X0011614Y0028497D01*
X0011551Y0028645D01*
X0011490Y0028794D01*
X0011434Y0028945D01*
X0011381Y0029097D01*
X0011332Y0029250D01*
X0011287Y0029404D01*
X0011246Y0029559D01*
X0011208Y0029716D01*
X0011175Y0029873D01*
X0011145Y0030031D01*
X0011119Y0030190D01*
X0011098Y0030349D01*
X0011080Y0030509D01*
X0011066Y0030669D01*
X0011056Y0030830D01*
X0011050Y0030990D01*
X0011048Y0031151D01*
X0011048Y0298867D02*
X0011050Y0299028D01*
X0011056Y0299188D01*
X0011066Y0299349D01*
X0011080Y0299509D01*
X0011098Y0299669D01*
X0011119Y0299828D01*
X0011145Y0299987D01*
X0011175Y0300145D01*
X0011208Y0300302D01*
X0011246Y0300459D01*
X0011287Y0300614D01*
X0011332Y0300768D01*
X0011381Y0300921D01*
X0011434Y0301073D01*
X0011490Y0301224D01*
X0011551Y0301373D01*
X0011614Y0301521D01*
X0011682Y0301667D01*
X0011753Y0301811D01*
X0011827Y0301953D01*
X0011905Y0302094D01*
X0011987Y0302232D01*
X0012072Y0302369D01*
X0012160Y0302503D01*
X0012252Y0302635D01*
X0012347Y0302765D01*
X0012445Y0302893D01*
X0012546Y0303018D01*
X0012650Y0303140D01*
X0012757Y0303260D01*
X0012867Y0303377D01*
X0012980Y0303492D01*
X0013096Y0303603D01*
X0013215Y0303712D01*
X0013336Y0303817D01*
X0013460Y0303920D01*
X0013586Y0304020D01*
X0013714Y0304116D01*
X0013845Y0304209D01*
X0013979Y0304299D01*
X0014114Y0304386D01*
X0014252Y0304469D01*
X0014391Y0304549D01*
X0014533Y0304625D01*
X0014676Y0304698D01*
X0014821Y0304767D01*
X0014968Y0304833D01*
X0015116Y0304895D01*
X0015266Y0304953D01*
X0015417Y0305008D01*
X0015570Y0305059D01*
X0015724Y0305106D01*
X0015879Y0305149D01*
X0016035Y0305188D01*
X0016191Y0305224D01*
X0016349Y0305255D01*
X0016507Y0305283D01*
X0016666Y0305307D01*
X0016826Y0305327D01*
X0016986Y0305343D01*
X0017146Y0305355D01*
X0017307Y0305363D01*
X0017468Y0305367D01*
X0017628Y0305367D01*
X0017789Y0305363D01*
X0017950Y0305355D01*
X0018110Y0305343D01*
X0018270Y0305327D01*
X0018430Y0305307D01*
X0018589Y0305283D01*
X0018747Y0305255D01*
X0018905Y0305224D01*
X0019061Y0305188D01*
X0019217Y0305149D01*
X0019372Y0305106D01*
X0019526Y0305059D01*
X0019679Y0305008D01*
X0019830Y0304953D01*
X0019980Y0304895D01*
X0020128Y0304833D01*
X0020275Y0304767D01*
X0020420Y0304698D01*
X0020563Y0304625D01*
X0020705Y0304549D01*
X0020844Y0304469D01*
X0020982Y0304386D01*
X0021117Y0304299D01*
X0021251Y0304209D01*
X0021382Y0304116D01*
X0021510Y0304020D01*
X0021636Y0303920D01*
X0021760Y0303817D01*
X0021881Y0303712D01*
X0022000Y0303603D01*
X0022116Y0303492D01*
X0022229Y0303377D01*
X0022339Y0303260D01*
X0022446Y0303140D01*
X0022550Y0303018D01*
X0022651Y0302893D01*
X0022749Y0302765D01*
X0022844Y0302635D01*
X0022936Y0302503D01*
X0023024Y0302369D01*
X0023109Y0302232D01*
X0023191Y0302094D01*
X0023269Y0301953D01*
X0023343Y0301811D01*
X0023414Y0301667D01*
X0023482Y0301521D01*
X0023545Y0301373D01*
X0023606Y0301224D01*
X0023662Y0301073D01*
X0023715Y0300921D01*
X0023764Y0300768D01*
X0023809Y0300614D01*
X0023850Y0300459D01*
X0023888Y0300302D01*
X0023921Y0300145D01*
X0023951Y0299987D01*
X0023977Y0299828D01*
X0023998Y0299669D01*
X0024016Y0299509D01*
X0024030Y0299349D01*
X0024040Y0299188D01*
X0024046Y0299028D01*
X0024048Y0298867D01*
X0024046Y0298706D01*
X0024040Y0298546D01*
X0024030Y0298385D01*
X0024016Y0298225D01*
X0023998Y0298065D01*
X0023977Y0297906D01*
X0023951Y0297747D01*
X0023921Y0297589D01*
X0023888Y0297432D01*
X0023850Y0297275D01*
X0023809Y0297120D01*
X0023764Y0296966D01*
X0023715Y0296813D01*
X0023662Y0296661D01*
X0023606Y0296510D01*
X0023545Y0296361D01*
X0023482Y0296213D01*
X0023414Y0296067D01*
X0023343Y0295923D01*
X0023269Y0295781D01*
X0023191Y0295640D01*
X0023109Y0295502D01*
X0023024Y0295365D01*
X0022936Y0295231D01*
X0022844Y0295099D01*
X0022749Y0294969D01*
X0022651Y0294841D01*
X0022550Y0294716D01*
X0022446Y0294594D01*
X0022339Y0294474D01*
X0022229Y0294357D01*
X0022116Y0294242D01*
X0022000Y0294131D01*
X0021881Y0294022D01*
X0021760Y0293917D01*
X0021636Y0293814D01*
X0021510Y0293714D01*
X0021382Y0293618D01*
X0021251Y0293525D01*
X0021117Y0293435D01*
X0020982Y0293348D01*
X0020844Y0293265D01*
X0020705Y0293185D01*
X0020563Y0293109D01*
X0020420Y0293036D01*
X0020275Y0292967D01*
X0020128Y0292901D01*
X0019980Y0292839D01*
X0019830Y0292781D01*
X0019679Y0292726D01*
X0019526Y0292675D01*
X0019372Y0292628D01*
X0019217Y0292585D01*
X0019061Y0292546D01*
X0018905Y0292510D01*
X0018747Y0292479D01*
X0018589Y0292451D01*
X0018430Y0292427D01*
X0018270Y0292407D01*
X0018110Y0292391D01*
X0017950Y0292379D01*
X0017789Y0292371D01*
X0017628Y0292367D01*
X0017468Y0292367D01*
X0017307Y0292371D01*
X0017146Y0292379D01*
X0016986Y0292391D01*
X0016826Y0292407D01*
X0016666Y0292427D01*
X0016507Y0292451D01*
X0016349Y0292479D01*
X0016191Y0292510D01*
X0016035Y0292546D01*
X0015879Y0292585D01*
X0015724Y0292628D01*
X0015570Y0292675D01*
X0015417Y0292726D01*
X0015266Y0292781D01*
X0015116Y0292839D01*
X0014968Y0292901D01*
X0014821Y0292967D01*
X0014676Y0293036D01*
X0014533Y0293109D01*
X0014391Y0293185D01*
X0014252Y0293265D01*
X0014114Y0293348D01*
X0013979Y0293435D01*
X0013845Y0293525D01*
X0013714Y0293618D01*
X0013586Y0293714D01*
X0013460Y0293814D01*
X0013336Y0293917D01*
X0013215Y0294022D01*
X0013096Y0294131D01*
X0012980Y0294242D01*
X0012867Y0294357D01*
X0012757Y0294474D01*
X0012650Y0294594D01*
X0012546Y0294716D01*
X0012445Y0294841D01*
X0012347Y0294969D01*
X0012252Y0295099D01*
X0012160Y0295231D01*
X0012072Y0295365D01*
X0011987Y0295502D01*
X0011905Y0295640D01*
X0011827Y0295781D01*
X0011753Y0295923D01*
X0011682Y0296067D01*
X0011614Y0296213D01*
X0011551Y0296361D01*
X0011490Y0296510D01*
X0011434Y0296661D01*
X0011381Y0296813D01*
X0011332Y0296966D01*
X0011287Y0297120D01*
X0011246Y0297275D01*
X0011208Y0297432D01*
X0011175Y0297589D01*
X0011145Y0297747D01*
X0011119Y0297906D01*
X0011098Y0298065D01*
X0011080Y0298225D01*
X0011066Y0298385D01*
X0011056Y0298546D01*
X0011050Y0298706D01*
X0011048Y0298867D01*
X0351599Y0298867D02*
X0351601Y0299028D01*
X0351607Y0299188D01*
X0351617Y0299349D01*
X0351631Y0299509D01*
X0351649Y0299669D01*
X0351670Y0299828D01*
X0351696Y0299987D01*
X0351726Y0300145D01*
X0351759Y0300302D01*
X0351797Y0300459D01*
X0351838Y0300614D01*
X0351883Y0300768D01*
X0351932Y0300921D01*
X0351985Y0301073D01*
X0352041Y0301224D01*
X0352102Y0301373D01*
X0352165Y0301521D01*
X0352233Y0301667D01*
X0352304Y0301811D01*
X0352378Y0301953D01*
X0352456Y0302094D01*
X0352538Y0302232D01*
X0352623Y0302369D01*
X0352711Y0302503D01*
X0352803Y0302635D01*
X0352898Y0302765D01*
X0352996Y0302893D01*
X0353097Y0303018D01*
X0353201Y0303140D01*
X0353308Y0303260D01*
X0353418Y0303377D01*
X0353531Y0303492D01*
X0353647Y0303603D01*
X0353766Y0303712D01*
X0353887Y0303817D01*
X0354011Y0303920D01*
X0354137Y0304020D01*
X0354265Y0304116D01*
X0354396Y0304209D01*
X0354530Y0304299D01*
X0354665Y0304386D01*
X0354803Y0304469D01*
X0354942Y0304549D01*
X0355084Y0304625D01*
X0355227Y0304698D01*
X0355372Y0304767D01*
X0355519Y0304833D01*
X0355667Y0304895D01*
X0355817Y0304953D01*
X0355968Y0305008D01*
X0356121Y0305059D01*
X0356275Y0305106D01*
X0356430Y0305149D01*
X0356586Y0305188D01*
X0356742Y0305224D01*
X0356900Y0305255D01*
X0357058Y0305283D01*
X0357217Y0305307D01*
X0357377Y0305327D01*
X0357537Y0305343D01*
X0357697Y0305355D01*
X0357858Y0305363D01*
X0358019Y0305367D01*
X0358179Y0305367D01*
X0358340Y0305363D01*
X0358501Y0305355D01*
X0358661Y0305343D01*
X0358821Y0305327D01*
X0358981Y0305307D01*
X0359140Y0305283D01*
X0359298Y0305255D01*
X0359456Y0305224D01*
X0359612Y0305188D01*
X0359768Y0305149D01*
X0359923Y0305106D01*
X0360077Y0305059D01*
X0360230Y0305008D01*
X0360381Y0304953D01*
X0360531Y0304895D01*
X0360679Y0304833D01*
X0360826Y0304767D01*
X0360971Y0304698D01*
X0361114Y0304625D01*
X0361256Y0304549D01*
X0361395Y0304469D01*
X0361533Y0304386D01*
X0361668Y0304299D01*
X0361802Y0304209D01*
X0361933Y0304116D01*
X0362061Y0304020D01*
X0362187Y0303920D01*
X0362311Y0303817D01*
X0362432Y0303712D01*
X0362551Y0303603D01*
X0362667Y0303492D01*
X0362780Y0303377D01*
X0362890Y0303260D01*
X0362997Y0303140D01*
X0363101Y0303018D01*
X0363202Y0302893D01*
X0363300Y0302765D01*
X0363395Y0302635D01*
X0363487Y0302503D01*
X0363575Y0302369D01*
X0363660Y0302232D01*
X0363742Y0302094D01*
X0363820Y0301953D01*
X0363894Y0301811D01*
X0363965Y0301667D01*
X0364033Y0301521D01*
X0364096Y0301373D01*
X0364157Y0301224D01*
X0364213Y0301073D01*
X0364266Y0300921D01*
X0364315Y0300768D01*
X0364360Y0300614D01*
X0364401Y0300459D01*
X0364439Y0300302D01*
X0364472Y0300145D01*
X0364502Y0299987D01*
X0364528Y0299828D01*
X0364549Y0299669D01*
X0364567Y0299509D01*
X0364581Y0299349D01*
X0364591Y0299188D01*
X0364597Y0299028D01*
X0364599Y0298867D01*
X0364597Y0298706D01*
X0364591Y0298546D01*
X0364581Y0298385D01*
X0364567Y0298225D01*
X0364549Y0298065D01*
X0364528Y0297906D01*
X0364502Y0297747D01*
X0364472Y0297589D01*
X0364439Y0297432D01*
X0364401Y0297275D01*
X0364360Y0297120D01*
X0364315Y0296966D01*
X0364266Y0296813D01*
X0364213Y0296661D01*
X0364157Y0296510D01*
X0364096Y0296361D01*
X0364033Y0296213D01*
X0363965Y0296067D01*
X0363894Y0295923D01*
X0363820Y0295781D01*
X0363742Y0295640D01*
X0363660Y0295502D01*
X0363575Y0295365D01*
X0363487Y0295231D01*
X0363395Y0295099D01*
X0363300Y0294969D01*
X0363202Y0294841D01*
X0363101Y0294716D01*
X0362997Y0294594D01*
X0362890Y0294474D01*
X0362780Y0294357D01*
X0362667Y0294242D01*
X0362551Y0294131D01*
X0362432Y0294022D01*
X0362311Y0293917D01*
X0362187Y0293814D01*
X0362061Y0293714D01*
X0361933Y0293618D01*
X0361802Y0293525D01*
X0361668Y0293435D01*
X0361533Y0293348D01*
X0361395Y0293265D01*
X0361256Y0293185D01*
X0361114Y0293109D01*
X0360971Y0293036D01*
X0360826Y0292967D01*
X0360679Y0292901D01*
X0360531Y0292839D01*
X0360381Y0292781D01*
X0360230Y0292726D01*
X0360077Y0292675D01*
X0359923Y0292628D01*
X0359768Y0292585D01*
X0359612Y0292546D01*
X0359456Y0292510D01*
X0359298Y0292479D01*
X0359140Y0292451D01*
X0358981Y0292427D01*
X0358821Y0292407D01*
X0358661Y0292391D01*
X0358501Y0292379D01*
X0358340Y0292371D01*
X0358179Y0292367D01*
X0358019Y0292367D01*
X0357858Y0292371D01*
X0357697Y0292379D01*
X0357537Y0292391D01*
X0357377Y0292407D01*
X0357217Y0292427D01*
X0357058Y0292451D01*
X0356900Y0292479D01*
X0356742Y0292510D01*
X0356586Y0292546D01*
X0356430Y0292585D01*
X0356275Y0292628D01*
X0356121Y0292675D01*
X0355968Y0292726D01*
X0355817Y0292781D01*
X0355667Y0292839D01*
X0355519Y0292901D01*
X0355372Y0292967D01*
X0355227Y0293036D01*
X0355084Y0293109D01*
X0354942Y0293185D01*
X0354803Y0293265D01*
X0354665Y0293348D01*
X0354530Y0293435D01*
X0354396Y0293525D01*
X0354265Y0293618D01*
X0354137Y0293714D01*
X0354011Y0293814D01*
X0353887Y0293917D01*
X0353766Y0294022D01*
X0353647Y0294131D01*
X0353531Y0294242D01*
X0353418Y0294357D01*
X0353308Y0294474D01*
X0353201Y0294594D01*
X0353097Y0294716D01*
X0352996Y0294841D01*
X0352898Y0294969D01*
X0352803Y0295099D01*
X0352711Y0295231D01*
X0352623Y0295365D01*
X0352538Y0295502D01*
X0352456Y0295640D01*
X0352378Y0295781D01*
X0352304Y0295923D01*
X0352233Y0296067D01*
X0352165Y0296213D01*
X0352102Y0296361D01*
X0352041Y0296510D01*
X0351985Y0296661D01*
X0351932Y0296813D01*
X0351883Y0296966D01*
X0351838Y0297120D01*
X0351797Y0297275D01*
X0351759Y0297432D01*
X0351726Y0297589D01*
X0351696Y0297747D01*
X0351670Y0297906D01*
X0351649Y0298065D01*
X0351631Y0298225D01*
X0351617Y0298385D01*
X0351607Y0298546D01*
X0351601Y0298706D01*
X0351599Y0298867D01*
X0355934Y0253100D02*
X0355936Y0253258D01*
X0355942Y0253416D01*
X0355952Y0253574D01*
X0355966Y0253732D01*
X0355984Y0253889D01*
X0356005Y0254046D01*
X0356031Y0254202D01*
X0356061Y0254358D01*
X0356094Y0254513D01*
X0356132Y0254666D01*
X0356173Y0254819D01*
X0356218Y0254971D01*
X0356267Y0255122D01*
X0356320Y0255271D01*
X0356376Y0255419D01*
X0356436Y0255565D01*
X0356500Y0255710D01*
X0356568Y0255853D01*
X0356639Y0255995D01*
X0356713Y0256135D01*
X0356791Y0256272D01*
X0356873Y0256408D01*
X0356957Y0256542D01*
X0357046Y0256673D01*
X0357137Y0256802D01*
X0357232Y0256929D01*
X0357329Y0257054D01*
X0357430Y0257176D01*
X0357534Y0257295D01*
X0357641Y0257412D01*
X0357751Y0257526D01*
X0357864Y0257637D01*
X0357979Y0257746D01*
X0358097Y0257851D01*
X0358218Y0257953D01*
X0358341Y0258053D01*
X0358467Y0258149D01*
X0358595Y0258242D01*
X0358725Y0258332D01*
X0358858Y0258418D01*
X0358993Y0258502D01*
X0359129Y0258581D01*
X0359268Y0258658D01*
X0359409Y0258730D01*
X0359551Y0258800D01*
X0359695Y0258865D01*
X0359841Y0258927D01*
X0359988Y0258985D01*
X0360137Y0259040D01*
X0360287Y0259091D01*
X0360438Y0259138D01*
X0360590Y0259181D01*
X0360743Y0259220D01*
X0360898Y0259256D01*
X0361053Y0259287D01*
X0361209Y0259315D01*
X0361365Y0259339D01*
X0361522Y0259359D01*
X0361680Y0259375D01*
X0361837Y0259387D01*
X0361996Y0259395D01*
X0362154Y0259399D01*
X0362312Y0259399D01*
X0362470Y0259395D01*
X0362629Y0259387D01*
X0362786Y0259375D01*
X0362944Y0259359D01*
X0363101Y0259339D01*
X0363257Y0259315D01*
X0363413Y0259287D01*
X0363568Y0259256D01*
X0363723Y0259220D01*
X0363876Y0259181D01*
X0364028Y0259138D01*
X0364179Y0259091D01*
X0364329Y0259040D01*
X0364478Y0258985D01*
X0364625Y0258927D01*
X0364771Y0258865D01*
X0364915Y0258800D01*
X0365057Y0258730D01*
X0365198Y0258658D01*
X0365337Y0258581D01*
X0365473Y0258502D01*
X0365608Y0258418D01*
X0365741Y0258332D01*
X0365871Y0258242D01*
X0365999Y0258149D01*
X0366125Y0258053D01*
X0366248Y0257953D01*
X0366369Y0257851D01*
X0366487Y0257746D01*
X0366602Y0257637D01*
X0366715Y0257526D01*
X0366825Y0257412D01*
X0366932Y0257295D01*
X0367036Y0257176D01*
X0367137Y0257054D01*
X0367234Y0256929D01*
X0367329Y0256802D01*
X0367420Y0256673D01*
X0367509Y0256542D01*
X0367593Y0256408D01*
X0367675Y0256272D01*
X0367753Y0256135D01*
X0367827Y0255995D01*
X0367898Y0255853D01*
X0367966Y0255710D01*
X0368030Y0255565D01*
X0368090Y0255419D01*
X0368146Y0255271D01*
X0368199Y0255122D01*
X0368248Y0254971D01*
X0368293Y0254819D01*
X0368334Y0254666D01*
X0368372Y0254513D01*
X0368405Y0254358D01*
X0368435Y0254202D01*
X0368461Y0254046D01*
X0368482Y0253889D01*
X0368500Y0253732D01*
X0368514Y0253574D01*
X0368524Y0253416D01*
X0368530Y0253258D01*
X0368532Y0253100D01*
X0368530Y0252942D01*
X0368524Y0252784D01*
X0368514Y0252626D01*
X0368500Y0252468D01*
X0368482Y0252311D01*
X0368461Y0252154D01*
X0368435Y0251998D01*
X0368405Y0251842D01*
X0368372Y0251687D01*
X0368334Y0251534D01*
X0368293Y0251381D01*
X0368248Y0251229D01*
X0368199Y0251078D01*
X0368146Y0250929D01*
X0368090Y0250781D01*
X0368030Y0250635D01*
X0367966Y0250490D01*
X0367898Y0250347D01*
X0367827Y0250205D01*
X0367753Y0250065D01*
X0367675Y0249928D01*
X0367593Y0249792D01*
X0367509Y0249658D01*
X0367420Y0249527D01*
X0367329Y0249398D01*
X0367234Y0249271D01*
X0367137Y0249146D01*
X0367036Y0249024D01*
X0366932Y0248905D01*
X0366825Y0248788D01*
X0366715Y0248674D01*
X0366602Y0248563D01*
X0366487Y0248454D01*
X0366369Y0248349D01*
X0366248Y0248247D01*
X0366125Y0248147D01*
X0365999Y0248051D01*
X0365871Y0247958D01*
X0365741Y0247868D01*
X0365608Y0247782D01*
X0365473Y0247698D01*
X0365337Y0247619D01*
X0365198Y0247542D01*
X0365057Y0247470D01*
X0364915Y0247400D01*
X0364771Y0247335D01*
X0364625Y0247273D01*
X0364478Y0247215D01*
X0364329Y0247160D01*
X0364179Y0247109D01*
X0364028Y0247062D01*
X0363876Y0247019D01*
X0363723Y0246980D01*
X0363568Y0246944D01*
X0363413Y0246913D01*
X0363257Y0246885D01*
X0363101Y0246861D01*
X0362944Y0246841D01*
X0362786Y0246825D01*
X0362629Y0246813D01*
X0362470Y0246805D01*
X0362312Y0246801D01*
X0362154Y0246801D01*
X0361996Y0246805D01*
X0361837Y0246813D01*
X0361680Y0246825D01*
X0361522Y0246841D01*
X0361365Y0246861D01*
X0361209Y0246885D01*
X0361053Y0246913D01*
X0360898Y0246944D01*
X0360743Y0246980D01*
X0360590Y0247019D01*
X0360438Y0247062D01*
X0360287Y0247109D01*
X0360137Y0247160D01*
X0359988Y0247215D01*
X0359841Y0247273D01*
X0359695Y0247335D01*
X0359551Y0247400D01*
X0359409Y0247470D01*
X0359268Y0247542D01*
X0359129Y0247619D01*
X0358993Y0247698D01*
X0358858Y0247782D01*
X0358725Y0247868D01*
X0358595Y0247958D01*
X0358467Y0248051D01*
X0358341Y0248147D01*
X0358218Y0248247D01*
X0358097Y0248349D01*
X0357979Y0248454D01*
X0357864Y0248563D01*
X0357751Y0248674D01*
X0357641Y0248788D01*
X0357534Y0248905D01*
X0357430Y0249024D01*
X0357329Y0249146D01*
X0357232Y0249271D01*
X0357137Y0249398D01*
X0357046Y0249527D01*
X0356957Y0249658D01*
X0356873Y0249792D01*
X0356791Y0249928D01*
X0356713Y0250065D01*
X0356639Y0250205D01*
X0356568Y0250347D01*
X0356500Y0250490D01*
X0356436Y0250635D01*
X0356376Y0250781D01*
X0356320Y0250929D01*
X0356267Y0251078D01*
X0356218Y0251229D01*
X0356173Y0251381D01*
X0356132Y0251534D01*
X0356094Y0251687D01*
X0356061Y0251842D01*
X0356031Y0251998D01*
X0356005Y0252154D01*
X0355984Y0252311D01*
X0355966Y0252468D01*
X0355952Y0252626D01*
X0355942Y0252784D01*
X0355936Y0252942D01*
X0355934Y0253100D01*
X0355934Y0208100D02*
X0355936Y0208258D01*
X0355942Y0208416D01*
X0355952Y0208574D01*
X0355966Y0208732D01*
X0355984Y0208889D01*
X0356005Y0209046D01*
X0356031Y0209202D01*
X0356061Y0209358D01*
X0356094Y0209513D01*
X0356132Y0209666D01*
X0356173Y0209819D01*
X0356218Y0209971D01*
X0356267Y0210122D01*
X0356320Y0210271D01*
X0356376Y0210419D01*
X0356436Y0210565D01*
X0356500Y0210710D01*
X0356568Y0210853D01*
X0356639Y0210995D01*
X0356713Y0211135D01*
X0356791Y0211272D01*
X0356873Y0211408D01*
X0356957Y0211542D01*
X0357046Y0211673D01*
X0357137Y0211802D01*
X0357232Y0211929D01*
X0357329Y0212054D01*
X0357430Y0212176D01*
X0357534Y0212295D01*
X0357641Y0212412D01*
X0357751Y0212526D01*
X0357864Y0212637D01*
X0357979Y0212746D01*
X0358097Y0212851D01*
X0358218Y0212953D01*
X0358341Y0213053D01*
X0358467Y0213149D01*
X0358595Y0213242D01*
X0358725Y0213332D01*
X0358858Y0213418D01*
X0358993Y0213502D01*
X0359129Y0213581D01*
X0359268Y0213658D01*
X0359409Y0213730D01*
X0359551Y0213800D01*
X0359695Y0213865D01*
X0359841Y0213927D01*
X0359988Y0213985D01*
X0360137Y0214040D01*
X0360287Y0214091D01*
X0360438Y0214138D01*
X0360590Y0214181D01*
X0360743Y0214220D01*
X0360898Y0214256D01*
X0361053Y0214287D01*
X0361209Y0214315D01*
X0361365Y0214339D01*
X0361522Y0214359D01*
X0361680Y0214375D01*
X0361837Y0214387D01*
X0361996Y0214395D01*
X0362154Y0214399D01*
X0362312Y0214399D01*
X0362470Y0214395D01*
X0362629Y0214387D01*
X0362786Y0214375D01*
X0362944Y0214359D01*
X0363101Y0214339D01*
X0363257Y0214315D01*
X0363413Y0214287D01*
X0363568Y0214256D01*
X0363723Y0214220D01*
X0363876Y0214181D01*
X0364028Y0214138D01*
X0364179Y0214091D01*
X0364329Y0214040D01*
X0364478Y0213985D01*
X0364625Y0213927D01*
X0364771Y0213865D01*
X0364915Y0213800D01*
X0365057Y0213730D01*
X0365198Y0213658D01*
X0365337Y0213581D01*
X0365473Y0213502D01*
X0365608Y0213418D01*
X0365741Y0213332D01*
X0365871Y0213242D01*
X0365999Y0213149D01*
X0366125Y0213053D01*
X0366248Y0212953D01*
X0366369Y0212851D01*
X0366487Y0212746D01*
X0366602Y0212637D01*
X0366715Y0212526D01*
X0366825Y0212412D01*
X0366932Y0212295D01*
X0367036Y0212176D01*
X0367137Y0212054D01*
X0367234Y0211929D01*
X0367329Y0211802D01*
X0367420Y0211673D01*
X0367509Y0211542D01*
X0367593Y0211408D01*
X0367675Y0211272D01*
X0367753Y0211135D01*
X0367827Y0210995D01*
X0367898Y0210853D01*
X0367966Y0210710D01*
X0368030Y0210565D01*
X0368090Y0210419D01*
X0368146Y0210271D01*
X0368199Y0210122D01*
X0368248Y0209971D01*
X0368293Y0209819D01*
X0368334Y0209666D01*
X0368372Y0209513D01*
X0368405Y0209358D01*
X0368435Y0209202D01*
X0368461Y0209046D01*
X0368482Y0208889D01*
X0368500Y0208732D01*
X0368514Y0208574D01*
X0368524Y0208416D01*
X0368530Y0208258D01*
X0368532Y0208100D01*
X0368530Y0207942D01*
X0368524Y0207784D01*
X0368514Y0207626D01*
X0368500Y0207468D01*
X0368482Y0207311D01*
X0368461Y0207154D01*
X0368435Y0206998D01*
X0368405Y0206842D01*
X0368372Y0206687D01*
X0368334Y0206534D01*
X0368293Y0206381D01*
X0368248Y0206229D01*
X0368199Y0206078D01*
X0368146Y0205929D01*
X0368090Y0205781D01*
X0368030Y0205635D01*
X0367966Y0205490D01*
X0367898Y0205347D01*
X0367827Y0205205D01*
X0367753Y0205065D01*
X0367675Y0204928D01*
X0367593Y0204792D01*
X0367509Y0204658D01*
X0367420Y0204527D01*
X0367329Y0204398D01*
X0367234Y0204271D01*
X0367137Y0204146D01*
X0367036Y0204024D01*
X0366932Y0203905D01*
X0366825Y0203788D01*
X0366715Y0203674D01*
X0366602Y0203563D01*
X0366487Y0203454D01*
X0366369Y0203349D01*
X0366248Y0203247D01*
X0366125Y0203147D01*
X0365999Y0203051D01*
X0365871Y0202958D01*
X0365741Y0202868D01*
X0365608Y0202782D01*
X0365473Y0202698D01*
X0365337Y0202619D01*
X0365198Y0202542D01*
X0365057Y0202470D01*
X0364915Y0202400D01*
X0364771Y0202335D01*
X0364625Y0202273D01*
X0364478Y0202215D01*
X0364329Y0202160D01*
X0364179Y0202109D01*
X0364028Y0202062D01*
X0363876Y0202019D01*
X0363723Y0201980D01*
X0363568Y0201944D01*
X0363413Y0201913D01*
X0363257Y0201885D01*
X0363101Y0201861D01*
X0362944Y0201841D01*
X0362786Y0201825D01*
X0362629Y0201813D01*
X0362470Y0201805D01*
X0362312Y0201801D01*
X0362154Y0201801D01*
X0361996Y0201805D01*
X0361837Y0201813D01*
X0361680Y0201825D01*
X0361522Y0201841D01*
X0361365Y0201861D01*
X0361209Y0201885D01*
X0361053Y0201913D01*
X0360898Y0201944D01*
X0360743Y0201980D01*
X0360590Y0202019D01*
X0360438Y0202062D01*
X0360287Y0202109D01*
X0360137Y0202160D01*
X0359988Y0202215D01*
X0359841Y0202273D01*
X0359695Y0202335D01*
X0359551Y0202400D01*
X0359409Y0202470D01*
X0359268Y0202542D01*
X0359129Y0202619D01*
X0358993Y0202698D01*
X0358858Y0202782D01*
X0358725Y0202868D01*
X0358595Y0202958D01*
X0358467Y0203051D01*
X0358341Y0203147D01*
X0358218Y0203247D01*
X0358097Y0203349D01*
X0357979Y0203454D01*
X0357864Y0203563D01*
X0357751Y0203674D01*
X0357641Y0203788D01*
X0357534Y0203905D01*
X0357430Y0204024D01*
X0357329Y0204146D01*
X0357232Y0204271D01*
X0357137Y0204398D01*
X0357046Y0204527D01*
X0356957Y0204658D01*
X0356873Y0204792D01*
X0356791Y0204928D01*
X0356713Y0205065D01*
X0356639Y0205205D01*
X0356568Y0205347D01*
X0356500Y0205490D01*
X0356436Y0205635D01*
X0356376Y0205781D01*
X0356320Y0205929D01*
X0356267Y0206078D01*
X0356218Y0206229D01*
X0356173Y0206381D01*
X0356132Y0206534D01*
X0356094Y0206687D01*
X0356061Y0206842D01*
X0356031Y0206998D01*
X0356005Y0207154D01*
X0355984Y0207311D01*
X0355966Y0207468D01*
X0355952Y0207626D01*
X0355942Y0207784D01*
X0355936Y0207942D01*
X0355934Y0208100D01*
X0355934Y0137982D02*
X0355936Y0138140D01*
X0355942Y0138298D01*
X0355952Y0138456D01*
X0355966Y0138614D01*
X0355984Y0138771D01*
X0356005Y0138928D01*
X0356031Y0139084D01*
X0356061Y0139240D01*
X0356094Y0139395D01*
X0356132Y0139548D01*
X0356173Y0139701D01*
X0356218Y0139853D01*
X0356267Y0140004D01*
X0356320Y0140153D01*
X0356376Y0140301D01*
X0356436Y0140447D01*
X0356500Y0140592D01*
X0356568Y0140735D01*
X0356639Y0140877D01*
X0356713Y0141017D01*
X0356791Y0141154D01*
X0356873Y0141290D01*
X0356957Y0141424D01*
X0357046Y0141555D01*
X0357137Y0141684D01*
X0357232Y0141811D01*
X0357329Y0141936D01*
X0357430Y0142058D01*
X0357534Y0142177D01*
X0357641Y0142294D01*
X0357751Y0142408D01*
X0357864Y0142519D01*
X0357979Y0142628D01*
X0358097Y0142733D01*
X0358218Y0142835D01*
X0358341Y0142935D01*
X0358467Y0143031D01*
X0358595Y0143124D01*
X0358725Y0143214D01*
X0358858Y0143300D01*
X0358993Y0143384D01*
X0359129Y0143463D01*
X0359268Y0143540D01*
X0359409Y0143612D01*
X0359551Y0143682D01*
X0359695Y0143747D01*
X0359841Y0143809D01*
X0359988Y0143867D01*
X0360137Y0143922D01*
X0360287Y0143973D01*
X0360438Y0144020D01*
X0360590Y0144063D01*
X0360743Y0144102D01*
X0360898Y0144138D01*
X0361053Y0144169D01*
X0361209Y0144197D01*
X0361365Y0144221D01*
X0361522Y0144241D01*
X0361680Y0144257D01*
X0361837Y0144269D01*
X0361996Y0144277D01*
X0362154Y0144281D01*
X0362312Y0144281D01*
X0362470Y0144277D01*
X0362629Y0144269D01*
X0362786Y0144257D01*
X0362944Y0144241D01*
X0363101Y0144221D01*
X0363257Y0144197D01*
X0363413Y0144169D01*
X0363568Y0144138D01*
X0363723Y0144102D01*
X0363876Y0144063D01*
X0364028Y0144020D01*
X0364179Y0143973D01*
X0364329Y0143922D01*
X0364478Y0143867D01*
X0364625Y0143809D01*
X0364771Y0143747D01*
X0364915Y0143682D01*
X0365057Y0143612D01*
X0365198Y0143540D01*
X0365337Y0143463D01*
X0365473Y0143384D01*
X0365608Y0143300D01*
X0365741Y0143214D01*
X0365871Y0143124D01*
X0365999Y0143031D01*
X0366125Y0142935D01*
X0366248Y0142835D01*
X0366369Y0142733D01*
X0366487Y0142628D01*
X0366602Y0142519D01*
X0366715Y0142408D01*
X0366825Y0142294D01*
X0366932Y0142177D01*
X0367036Y0142058D01*
X0367137Y0141936D01*
X0367234Y0141811D01*
X0367329Y0141684D01*
X0367420Y0141555D01*
X0367509Y0141424D01*
X0367593Y0141290D01*
X0367675Y0141154D01*
X0367753Y0141017D01*
X0367827Y0140877D01*
X0367898Y0140735D01*
X0367966Y0140592D01*
X0368030Y0140447D01*
X0368090Y0140301D01*
X0368146Y0140153D01*
X0368199Y0140004D01*
X0368248Y0139853D01*
X0368293Y0139701D01*
X0368334Y0139548D01*
X0368372Y0139395D01*
X0368405Y0139240D01*
X0368435Y0139084D01*
X0368461Y0138928D01*
X0368482Y0138771D01*
X0368500Y0138614D01*
X0368514Y0138456D01*
X0368524Y0138298D01*
X0368530Y0138140D01*
X0368532Y0137982D01*
X0368530Y0137824D01*
X0368524Y0137666D01*
X0368514Y0137508D01*
X0368500Y0137350D01*
X0368482Y0137193D01*
X0368461Y0137036D01*
X0368435Y0136880D01*
X0368405Y0136724D01*
X0368372Y0136569D01*
X0368334Y0136416D01*
X0368293Y0136263D01*
X0368248Y0136111D01*
X0368199Y0135960D01*
X0368146Y0135811D01*
X0368090Y0135663D01*
X0368030Y0135517D01*
X0367966Y0135372D01*
X0367898Y0135229D01*
X0367827Y0135087D01*
X0367753Y0134947D01*
X0367675Y0134810D01*
X0367593Y0134674D01*
X0367509Y0134540D01*
X0367420Y0134409D01*
X0367329Y0134280D01*
X0367234Y0134153D01*
X0367137Y0134028D01*
X0367036Y0133906D01*
X0366932Y0133787D01*
X0366825Y0133670D01*
X0366715Y0133556D01*
X0366602Y0133445D01*
X0366487Y0133336D01*
X0366369Y0133231D01*
X0366248Y0133129D01*
X0366125Y0133029D01*
X0365999Y0132933D01*
X0365871Y0132840D01*
X0365741Y0132750D01*
X0365608Y0132664D01*
X0365473Y0132580D01*
X0365337Y0132501D01*
X0365198Y0132424D01*
X0365057Y0132352D01*
X0364915Y0132282D01*
X0364771Y0132217D01*
X0364625Y0132155D01*
X0364478Y0132097D01*
X0364329Y0132042D01*
X0364179Y0131991D01*
X0364028Y0131944D01*
X0363876Y0131901D01*
X0363723Y0131862D01*
X0363568Y0131826D01*
X0363413Y0131795D01*
X0363257Y0131767D01*
X0363101Y0131743D01*
X0362944Y0131723D01*
X0362786Y0131707D01*
X0362629Y0131695D01*
X0362470Y0131687D01*
X0362312Y0131683D01*
X0362154Y0131683D01*
X0361996Y0131687D01*
X0361837Y0131695D01*
X0361680Y0131707D01*
X0361522Y0131723D01*
X0361365Y0131743D01*
X0361209Y0131767D01*
X0361053Y0131795D01*
X0360898Y0131826D01*
X0360743Y0131862D01*
X0360590Y0131901D01*
X0360438Y0131944D01*
X0360287Y0131991D01*
X0360137Y0132042D01*
X0359988Y0132097D01*
X0359841Y0132155D01*
X0359695Y0132217D01*
X0359551Y0132282D01*
X0359409Y0132352D01*
X0359268Y0132424D01*
X0359129Y0132501D01*
X0358993Y0132580D01*
X0358858Y0132664D01*
X0358725Y0132750D01*
X0358595Y0132840D01*
X0358467Y0132933D01*
X0358341Y0133029D01*
X0358218Y0133129D01*
X0358097Y0133231D01*
X0357979Y0133336D01*
X0357864Y0133445D01*
X0357751Y0133556D01*
X0357641Y0133670D01*
X0357534Y0133787D01*
X0357430Y0133906D01*
X0357329Y0134028D01*
X0357232Y0134153D01*
X0357137Y0134280D01*
X0357046Y0134409D01*
X0356957Y0134540D01*
X0356873Y0134674D01*
X0356791Y0134810D01*
X0356713Y0134947D01*
X0356639Y0135087D01*
X0356568Y0135229D01*
X0356500Y0135372D01*
X0356436Y0135517D01*
X0356376Y0135663D01*
X0356320Y0135811D01*
X0356267Y0135960D01*
X0356218Y0136111D01*
X0356173Y0136263D01*
X0356132Y0136416D01*
X0356094Y0136569D01*
X0356061Y0136724D01*
X0356031Y0136880D01*
X0356005Y0137036D01*
X0355984Y0137193D01*
X0355966Y0137350D01*
X0355952Y0137508D01*
X0355942Y0137666D01*
X0355936Y0137824D01*
X0355934Y0137982D01*
X0355934Y0092982D02*
X0355936Y0093140D01*
X0355942Y0093298D01*
X0355952Y0093456D01*
X0355966Y0093614D01*
X0355984Y0093771D01*
X0356005Y0093928D01*
X0356031Y0094084D01*
X0356061Y0094240D01*
X0356094Y0094395D01*
X0356132Y0094548D01*
X0356173Y0094701D01*
X0356218Y0094853D01*
X0356267Y0095004D01*
X0356320Y0095153D01*
X0356376Y0095301D01*
X0356436Y0095447D01*
X0356500Y0095592D01*
X0356568Y0095735D01*
X0356639Y0095877D01*
X0356713Y0096017D01*
X0356791Y0096154D01*
X0356873Y0096290D01*
X0356957Y0096424D01*
X0357046Y0096555D01*
X0357137Y0096684D01*
X0357232Y0096811D01*
X0357329Y0096936D01*
X0357430Y0097058D01*
X0357534Y0097177D01*
X0357641Y0097294D01*
X0357751Y0097408D01*
X0357864Y0097519D01*
X0357979Y0097628D01*
X0358097Y0097733D01*
X0358218Y0097835D01*
X0358341Y0097935D01*
X0358467Y0098031D01*
X0358595Y0098124D01*
X0358725Y0098214D01*
X0358858Y0098300D01*
X0358993Y0098384D01*
X0359129Y0098463D01*
X0359268Y0098540D01*
X0359409Y0098612D01*
X0359551Y0098682D01*
X0359695Y0098747D01*
X0359841Y0098809D01*
X0359988Y0098867D01*
X0360137Y0098922D01*
X0360287Y0098973D01*
X0360438Y0099020D01*
X0360590Y0099063D01*
X0360743Y0099102D01*
X0360898Y0099138D01*
X0361053Y0099169D01*
X0361209Y0099197D01*
X0361365Y0099221D01*
X0361522Y0099241D01*
X0361680Y0099257D01*
X0361837Y0099269D01*
X0361996Y0099277D01*
X0362154Y0099281D01*
X0362312Y0099281D01*
X0362470Y0099277D01*
X0362629Y0099269D01*
X0362786Y0099257D01*
X0362944Y0099241D01*
X0363101Y0099221D01*
X0363257Y0099197D01*
X0363413Y0099169D01*
X0363568Y0099138D01*
X0363723Y0099102D01*
X0363876Y0099063D01*
X0364028Y0099020D01*
X0364179Y0098973D01*
X0364329Y0098922D01*
X0364478Y0098867D01*
X0364625Y0098809D01*
X0364771Y0098747D01*
X0364915Y0098682D01*
X0365057Y0098612D01*
X0365198Y0098540D01*
X0365337Y0098463D01*
X0365473Y0098384D01*
X0365608Y0098300D01*
X0365741Y0098214D01*
X0365871Y0098124D01*
X0365999Y0098031D01*
X0366125Y0097935D01*
X0366248Y0097835D01*
X0366369Y0097733D01*
X0366487Y0097628D01*
X0366602Y0097519D01*
X0366715Y0097408D01*
X0366825Y0097294D01*
X0366932Y0097177D01*
X0367036Y0097058D01*
X0367137Y0096936D01*
X0367234Y0096811D01*
X0367329Y0096684D01*
X0367420Y0096555D01*
X0367509Y0096424D01*
X0367593Y0096290D01*
X0367675Y0096154D01*
X0367753Y0096017D01*
X0367827Y0095877D01*
X0367898Y0095735D01*
X0367966Y0095592D01*
X0368030Y0095447D01*
X0368090Y0095301D01*
X0368146Y0095153D01*
X0368199Y0095004D01*
X0368248Y0094853D01*
X0368293Y0094701D01*
X0368334Y0094548D01*
X0368372Y0094395D01*
X0368405Y0094240D01*
X0368435Y0094084D01*
X0368461Y0093928D01*
X0368482Y0093771D01*
X0368500Y0093614D01*
X0368514Y0093456D01*
X0368524Y0093298D01*
X0368530Y0093140D01*
X0368532Y0092982D01*
X0368530Y0092824D01*
X0368524Y0092666D01*
X0368514Y0092508D01*
X0368500Y0092350D01*
X0368482Y0092193D01*
X0368461Y0092036D01*
X0368435Y0091880D01*
X0368405Y0091724D01*
X0368372Y0091569D01*
X0368334Y0091416D01*
X0368293Y0091263D01*
X0368248Y0091111D01*
X0368199Y0090960D01*
X0368146Y0090811D01*
X0368090Y0090663D01*
X0368030Y0090517D01*
X0367966Y0090372D01*
X0367898Y0090229D01*
X0367827Y0090087D01*
X0367753Y0089947D01*
X0367675Y0089810D01*
X0367593Y0089674D01*
X0367509Y0089540D01*
X0367420Y0089409D01*
X0367329Y0089280D01*
X0367234Y0089153D01*
X0367137Y0089028D01*
X0367036Y0088906D01*
X0366932Y0088787D01*
X0366825Y0088670D01*
X0366715Y0088556D01*
X0366602Y0088445D01*
X0366487Y0088336D01*
X0366369Y0088231D01*
X0366248Y0088129D01*
X0366125Y0088029D01*
X0365999Y0087933D01*
X0365871Y0087840D01*
X0365741Y0087750D01*
X0365608Y0087664D01*
X0365473Y0087580D01*
X0365337Y0087501D01*
X0365198Y0087424D01*
X0365057Y0087352D01*
X0364915Y0087282D01*
X0364771Y0087217D01*
X0364625Y0087155D01*
X0364478Y0087097D01*
X0364329Y0087042D01*
X0364179Y0086991D01*
X0364028Y0086944D01*
X0363876Y0086901D01*
X0363723Y0086862D01*
X0363568Y0086826D01*
X0363413Y0086795D01*
X0363257Y0086767D01*
X0363101Y0086743D01*
X0362944Y0086723D01*
X0362786Y0086707D01*
X0362629Y0086695D01*
X0362470Y0086687D01*
X0362312Y0086683D01*
X0362154Y0086683D01*
X0361996Y0086687D01*
X0361837Y0086695D01*
X0361680Y0086707D01*
X0361522Y0086723D01*
X0361365Y0086743D01*
X0361209Y0086767D01*
X0361053Y0086795D01*
X0360898Y0086826D01*
X0360743Y0086862D01*
X0360590Y0086901D01*
X0360438Y0086944D01*
X0360287Y0086991D01*
X0360137Y0087042D01*
X0359988Y0087097D01*
X0359841Y0087155D01*
X0359695Y0087217D01*
X0359551Y0087282D01*
X0359409Y0087352D01*
X0359268Y0087424D01*
X0359129Y0087501D01*
X0358993Y0087580D01*
X0358858Y0087664D01*
X0358725Y0087750D01*
X0358595Y0087840D01*
X0358467Y0087933D01*
X0358341Y0088029D01*
X0358218Y0088129D01*
X0358097Y0088231D01*
X0357979Y0088336D01*
X0357864Y0088445D01*
X0357751Y0088556D01*
X0357641Y0088670D01*
X0357534Y0088787D01*
X0357430Y0088906D01*
X0357329Y0089028D01*
X0357232Y0089153D01*
X0357137Y0089280D01*
X0357046Y0089409D01*
X0356957Y0089540D01*
X0356873Y0089674D01*
X0356791Y0089810D01*
X0356713Y0089947D01*
X0356639Y0090087D01*
X0356568Y0090229D01*
X0356500Y0090372D01*
X0356436Y0090517D01*
X0356376Y0090663D01*
X0356320Y0090811D01*
X0356267Y0090960D01*
X0356218Y0091111D01*
X0356173Y0091263D01*
X0356132Y0091416D01*
X0356094Y0091569D01*
X0356061Y0091724D01*
X0356031Y0091880D01*
X0356005Y0092036D01*
X0355984Y0092193D01*
X0355966Y0092350D01*
X0355952Y0092508D01*
X0355942Y0092666D01*
X0355936Y0092824D01*
X0355934Y0092982D01*
X0351599Y0031151D02*
X0351601Y0031312D01*
X0351607Y0031472D01*
X0351617Y0031633D01*
X0351631Y0031793D01*
X0351649Y0031953D01*
X0351670Y0032112D01*
X0351696Y0032271D01*
X0351726Y0032429D01*
X0351759Y0032586D01*
X0351797Y0032743D01*
X0351838Y0032898D01*
X0351883Y0033052D01*
X0351932Y0033205D01*
X0351985Y0033357D01*
X0352041Y0033508D01*
X0352102Y0033657D01*
X0352165Y0033805D01*
X0352233Y0033951D01*
X0352304Y0034095D01*
X0352378Y0034237D01*
X0352456Y0034378D01*
X0352538Y0034516D01*
X0352623Y0034653D01*
X0352711Y0034787D01*
X0352803Y0034919D01*
X0352898Y0035049D01*
X0352996Y0035177D01*
X0353097Y0035302D01*
X0353201Y0035424D01*
X0353308Y0035544D01*
X0353418Y0035661D01*
X0353531Y0035776D01*
X0353647Y0035887D01*
X0353766Y0035996D01*
X0353887Y0036101D01*
X0354011Y0036204D01*
X0354137Y0036304D01*
X0354265Y0036400D01*
X0354396Y0036493D01*
X0354530Y0036583D01*
X0354665Y0036670D01*
X0354803Y0036753D01*
X0354942Y0036833D01*
X0355084Y0036909D01*
X0355227Y0036982D01*
X0355372Y0037051D01*
X0355519Y0037117D01*
X0355667Y0037179D01*
X0355817Y0037237D01*
X0355968Y0037292D01*
X0356121Y0037343D01*
X0356275Y0037390D01*
X0356430Y0037433D01*
X0356586Y0037472D01*
X0356742Y0037508D01*
X0356900Y0037539D01*
X0357058Y0037567D01*
X0357217Y0037591D01*
X0357377Y0037611D01*
X0357537Y0037627D01*
X0357697Y0037639D01*
X0357858Y0037647D01*
X0358019Y0037651D01*
X0358179Y0037651D01*
X0358340Y0037647D01*
X0358501Y0037639D01*
X0358661Y0037627D01*
X0358821Y0037611D01*
X0358981Y0037591D01*
X0359140Y0037567D01*
X0359298Y0037539D01*
X0359456Y0037508D01*
X0359612Y0037472D01*
X0359768Y0037433D01*
X0359923Y0037390D01*
X0360077Y0037343D01*
X0360230Y0037292D01*
X0360381Y0037237D01*
X0360531Y0037179D01*
X0360679Y0037117D01*
X0360826Y0037051D01*
X0360971Y0036982D01*
X0361114Y0036909D01*
X0361256Y0036833D01*
X0361395Y0036753D01*
X0361533Y0036670D01*
X0361668Y0036583D01*
X0361802Y0036493D01*
X0361933Y0036400D01*
X0362061Y0036304D01*
X0362187Y0036204D01*
X0362311Y0036101D01*
X0362432Y0035996D01*
X0362551Y0035887D01*
X0362667Y0035776D01*
X0362780Y0035661D01*
X0362890Y0035544D01*
X0362997Y0035424D01*
X0363101Y0035302D01*
X0363202Y0035177D01*
X0363300Y0035049D01*
X0363395Y0034919D01*
X0363487Y0034787D01*
X0363575Y0034653D01*
X0363660Y0034516D01*
X0363742Y0034378D01*
X0363820Y0034237D01*
X0363894Y0034095D01*
X0363965Y0033951D01*
X0364033Y0033805D01*
X0364096Y0033657D01*
X0364157Y0033508D01*
X0364213Y0033357D01*
X0364266Y0033205D01*
X0364315Y0033052D01*
X0364360Y0032898D01*
X0364401Y0032743D01*
X0364439Y0032586D01*
X0364472Y0032429D01*
X0364502Y0032271D01*
X0364528Y0032112D01*
X0364549Y0031953D01*
X0364567Y0031793D01*
X0364581Y0031633D01*
X0364591Y0031472D01*
X0364597Y0031312D01*
X0364599Y0031151D01*
X0364597Y0030990D01*
X0364591Y0030830D01*
X0364581Y0030669D01*
X0364567Y0030509D01*
X0364549Y0030349D01*
X0364528Y0030190D01*
X0364502Y0030031D01*
X0364472Y0029873D01*
X0364439Y0029716D01*
X0364401Y0029559D01*
X0364360Y0029404D01*
X0364315Y0029250D01*
X0364266Y0029097D01*
X0364213Y0028945D01*
X0364157Y0028794D01*
X0364096Y0028645D01*
X0364033Y0028497D01*
X0363965Y0028351D01*
X0363894Y0028207D01*
X0363820Y0028065D01*
X0363742Y0027924D01*
X0363660Y0027786D01*
X0363575Y0027649D01*
X0363487Y0027515D01*
X0363395Y0027383D01*
X0363300Y0027253D01*
X0363202Y0027125D01*
X0363101Y0027000D01*
X0362997Y0026878D01*
X0362890Y0026758D01*
X0362780Y0026641D01*
X0362667Y0026526D01*
X0362551Y0026415D01*
X0362432Y0026306D01*
X0362311Y0026201D01*
X0362187Y0026098D01*
X0362061Y0025998D01*
X0361933Y0025902D01*
X0361802Y0025809D01*
X0361668Y0025719D01*
X0361533Y0025632D01*
X0361395Y0025549D01*
X0361256Y0025469D01*
X0361114Y0025393D01*
X0360971Y0025320D01*
X0360826Y0025251D01*
X0360679Y0025185D01*
X0360531Y0025123D01*
X0360381Y0025065D01*
X0360230Y0025010D01*
X0360077Y0024959D01*
X0359923Y0024912D01*
X0359768Y0024869D01*
X0359612Y0024830D01*
X0359456Y0024794D01*
X0359298Y0024763D01*
X0359140Y0024735D01*
X0358981Y0024711D01*
X0358821Y0024691D01*
X0358661Y0024675D01*
X0358501Y0024663D01*
X0358340Y0024655D01*
X0358179Y0024651D01*
X0358019Y0024651D01*
X0357858Y0024655D01*
X0357697Y0024663D01*
X0357537Y0024675D01*
X0357377Y0024691D01*
X0357217Y0024711D01*
X0357058Y0024735D01*
X0356900Y0024763D01*
X0356742Y0024794D01*
X0356586Y0024830D01*
X0356430Y0024869D01*
X0356275Y0024912D01*
X0356121Y0024959D01*
X0355968Y0025010D01*
X0355817Y0025065D01*
X0355667Y0025123D01*
X0355519Y0025185D01*
X0355372Y0025251D01*
X0355227Y0025320D01*
X0355084Y0025393D01*
X0354942Y0025469D01*
X0354803Y0025549D01*
X0354665Y0025632D01*
X0354530Y0025719D01*
X0354396Y0025809D01*
X0354265Y0025902D01*
X0354137Y0025998D01*
X0354011Y0026098D01*
X0353887Y0026201D01*
X0353766Y0026306D01*
X0353647Y0026415D01*
X0353531Y0026526D01*
X0353418Y0026641D01*
X0353308Y0026758D01*
X0353201Y0026878D01*
X0353097Y0027000D01*
X0352996Y0027125D01*
X0352898Y0027253D01*
X0352803Y0027383D01*
X0352711Y0027515D01*
X0352623Y0027649D01*
X0352538Y0027786D01*
X0352456Y0027924D01*
X0352378Y0028065D01*
X0352304Y0028207D01*
X0352233Y0028351D01*
X0352165Y0028497D01*
X0352102Y0028645D01*
X0352041Y0028794D01*
X0351985Y0028945D01*
X0351932Y0029097D01*
X0351883Y0029250D01*
X0351838Y0029404D01*
X0351797Y0029559D01*
X0351759Y0029716D01*
X0351726Y0029873D01*
X0351696Y0030031D01*
X0351670Y0030190D01*
X0351649Y0030349D01*
X0351631Y0030509D01*
X0351617Y0030669D01*
X0351607Y0030830D01*
X0351601Y0030990D01*
X0351599Y0031151D01*
D11*
X0324359Y0073238D03*
X0317666Y0073238D03*
X0187076Y0105009D03*
X0180383Y0105009D03*
X0170894Y0104143D03*
X0164202Y0104143D03*
X0164162Y0113198D03*
X0158099Y0113238D03*
X0151406Y0113238D03*
X0170855Y0113198D03*
X0180343Y0114064D03*
X0187036Y0114064D03*
X0166564Y0156741D03*
X0159871Y0156741D03*
X0095698Y0161269D03*
X0089005Y0161269D03*
X0089005Y0169734D03*
X0095698Y0169734D03*
X0095501Y0183907D03*
X0088808Y0183907D03*
X0089005Y0194143D03*
X0095698Y0194143D03*
X0081131Y0198474D03*
X0074438Y0198474D03*
X0074438Y0206545D03*
X0081131Y0206545D03*
X0082312Y0215206D03*
X0089005Y0215206D03*
X0089005Y0224261D03*
X0095698Y0224261D03*
X0095698Y0232726D03*
X0089005Y0232726D03*
X0089005Y0245521D03*
X0095698Y0245521D03*
X0095698Y0255954D03*
X0089005Y0255954D03*
X0080934Y0261466D03*
X0074241Y0261466D03*
X0074241Y0269537D03*
X0080934Y0269537D03*
X0052391Y0262844D03*
X0045698Y0262844D03*
X0048060Y0251033D03*
X0041367Y0251033D03*
X0041367Y0239222D03*
X0048060Y0239222D03*
X0045698Y0227411D03*
X0052391Y0227411D03*
X0052391Y0215600D03*
X0045698Y0215600D03*
X0063414Y0215206D03*
X0070107Y0215206D03*
X0052391Y0200639D03*
X0045698Y0200639D03*
X0047863Y0187253D03*
X0041170Y0187253D03*
X0041170Y0175442D03*
X0047863Y0175442D03*
X0045698Y0163631D03*
X0052391Y0163631D03*
X0052391Y0151820D03*
X0045698Y0151820D03*
X0045698Y0136860D03*
X0052391Y0136860D03*
X0048060Y0124064D03*
X0041367Y0124064D03*
X0041367Y0112844D03*
X0048060Y0112844D03*
X0045698Y0101427D03*
X0052391Y0101427D03*
X0052391Y0089615D03*
X0045698Y0089615D03*
X0063414Y0089615D03*
X0070107Y0089615D03*
X0074438Y0080560D03*
X0081131Y0080560D03*
X0081131Y0072686D03*
X0074438Y0072686D03*
X0089005Y0069340D03*
X0095698Y0069340D03*
X0095304Y0058513D03*
X0088611Y0058513D03*
X0089005Y0045324D03*
X0095698Y0045324D03*
X0095698Y0035482D03*
X0089005Y0035482D03*
X0089005Y0026230D03*
X0082312Y0026230D03*
X0070107Y0026230D03*
X0063414Y0026230D03*
X0052391Y0026230D03*
X0045698Y0026230D03*
X0045698Y0038041D03*
X0052391Y0038041D03*
X0048454Y0050049D03*
X0041761Y0050049D03*
X0041761Y0061072D03*
X0048454Y0061072D03*
X0045894Y0073474D03*
X0052587Y0073474D03*
X0082312Y0089615D03*
X0089005Y0089615D03*
X0089005Y0098474D03*
X0095698Y0098474D03*
X0095698Y0107135D03*
X0089005Y0107135D03*
X0089202Y0119734D03*
X0095894Y0119734D03*
X0095894Y0129576D03*
X0089202Y0129576D03*
X0081131Y0135482D03*
X0074438Y0135482D03*
X0074438Y0143356D03*
X0081131Y0143356D03*
X0082312Y0151820D03*
X0089005Y0151820D03*
X0070107Y0151820D03*
X0063414Y0151820D03*
X0129556Y0083907D03*
X0136249Y0083907D03*
X0136249Y0072686D03*
X0129556Y0072686D03*
X0319477Y0190521D03*
X0326170Y0190521D03*
D12*
X0243670Y0289694D03*
X0230481Y0289694D03*
D13*
X0152706Y0263218D03*
X0152706Y0250029D03*
X0127509Y0249320D03*
X0127509Y0262509D03*
D14*
X0337233Y0213100D03*
X0337233Y0097982D03*
D15*
X0327233Y0102982D03*
X0327233Y0112982D03*
X0327233Y0122982D03*
X0337233Y0127982D03*
X0337233Y0117982D03*
X0337233Y0107982D03*
X0327233Y0132982D03*
X0327233Y0218100D03*
X0337233Y0223100D03*
X0337233Y0233100D03*
X0337233Y0243100D03*
X0327233Y0248100D03*
X0327233Y0238100D03*
X0327233Y0228100D03*
D16*
X0180544Y0145007D03*
X0178044Y0145007D03*
X0175444Y0145007D03*
X0172844Y0145007D03*
X0170344Y0145007D03*
X0167744Y0145007D03*
X0165244Y0145007D03*
X0162644Y0145007D03*
X0160044Y0145007D03*
X0157544Y0145007D03*
X0157544Y0122807D03*
X0160044Y0122807D03*
X0162644Y0122807D03*
X0165244Y0122807D03*
X0167744Y0122807D03*
X0170344Y0122807D03*
X0172844Y0122807D03*
X0175444Y0122807D03*
X0178044Y0122807D03*
X0180544Y0122807D03*
D17*
X0319492Y0163375D03*
X0319492Y0168375D03*
X0319492Y0173375D03*
X0319492Y0178375D03*
X0340092Y0178375D03*
X0340092Y0173375D03*
X0340092Y0168375D03*
X0340092Y0163375D03*
X0338320Y0062234D03*
X0338320Y0057234D03*
X0338320Y0052234D03*
X0338320Y0047234D03*
X0317720Y0047234D03*
X0317720Y0052234D03*
X0317720Y0057234D03*
X0317720Y0062234D03*
D18*
X0178572Y0154773D03*
X0173572Y0154773D03*
D19*
X0015973Y0157726D03*
X0015973Y0130167D03*
X0015973Y0102608D03*
X0015973Y0075049D03*
X0147666Y0026427D03*
X0175225Y0026427D03*
X0015973Y0185285D03*
X0015973Y0212844D03*
X0015973Y0240403D03*
X0015973Y0267962D03*
D20*
X0015973Y0254182D03*
X0015973Y0226623D03*
X0015973Y0199064D03*
X0015973Y0171505D03*
X0015973Y0143946D03*
X0015973Y0116387D03*
X0015973Y0088828D03*
X0015973Y0061269D03*
X0161446Y0026427D03*
X0189005Y0026427D03*
D21*
X0223375Y0030167D03*
X0223375Y0040167D03*
X0223375Y0050167D03*
X0223375Y0060167D03*
X0223375Y0070167D03*
X0223375Y0080167D03*
X0223375Y0090167D03*
X0223375Y0100167D03*
X0223375Y0110167D03*
X0223375Y0120167D03*
X0223375Y0130167D03*
X0223375Y0140167D03*
X0223375Y0150167D03*
X0223375Y0160167D03*
X0223375Y0170167D03*
X0223375Y0180167D03*
X0223375Y0190167D03*
X0223375Y0200167D03*
X0223375Y0210167D03*
X0223375Y0220167D03*
X0223375Y0230167D03*
X0223375Y0240167D03*
X0223375Y0250167D03*
X0283375Y0250167D03*
X0283375Y0240167D03*
X0283375Y0230167D03*
X0283375Y0220167D03*
X0283375Y0210167D03*
X0283375Y0200167D03*
X0283375Y0190167D03*
X0283375Y0180167D03*
X0283375Y0170167D03*
X0283375Y0160167D03*
X0283375Y0150167D03*
X0283375Y0140167D03*
X0283375Y0130167D03*
X0283375Y0120167D03*
X0283375Y0110167D03*
X0283375Y0100167D03*
X0283375Y0090167D03*
X0283375Y0080167D03*
X0283375Y0070167D03*
X0283375Y0060167D03*
X0283375Y0050167D03*
X0283375Y0040167D03*
X0283375Y0030167D03*
X0283375Y0020167D03*
X0223375Y0020167D03*
D22*
X0202666Y0283001D03*
X0192666Y0283001D03*
X0182666Y0283001D03*
X0162666Y0283001D03*
X0152666Y0283001D03*
X0142666Y0283001D03*
X0132666Y0283001D03*
D23*
X0080166Y0250049D03*
X0075166Y0250049D03*
X0070166Y0250049D03*
X0065166Y0250049D03*
X0065166Y0229576D03*
X0070166Y0229576D03*
X0075166Y0229576D03*
X0080166Y0229576D03*
X0080166Y0187056D03*
X0075166Y0187056D03*
X0070166Y0187056D03*
X0065166Y0187056D03*
X0065166Y0166584D03*
X0070166Y0166584D03*
X0075166Y0166584D03*
X0080166Y0166584D03*
X0080166Y0124064D03*
X0075166Y0124064D03*
X0070166Y0124064D03*
X0065166Y0124064D03*
X0065166Y0103592D03*
X0070166Y0103592D03*
X0075166Y0103592D03*
X0080166Y0103592D03*
X0080166Y0061072D03*
X0075166Y0061072D03*
X0070166Y0061072D03*
X0065166Y0061072D03*
X0065166Y0040600D03*
X0070166Y0040600D03*
X0075166Y0040600D03*
X0080166Y0040600D03*
D24*
X0108099Y0042175D03*
X0108099Y0035482D03*
X0108099Y0058316D03*
X0108099Y0065009D03*
X0108099Y0098474D03*
X0108099Y0105167D03*
X0108099Y0118159D03*
X0108099Y0124852D03*
X0108099Y0161269D03*
X0108099Y0167962D03*
X0108099Y0182726D03*
X0108099Y0189419D03*
X0145894Y0184694D03*
X0145894Y0178001D03*
X0157115Y0178001D03*
X0157115Y0184694D03*
X0179950Y0172489D03*
X0179950Y0165797D03*
X0210461Y0174655D03*
X0210461Y0181348D03*
X0210461Y0129379D03*
X0210461Y0122686D03*
X0293532Y0217962D03*
X0293532Y0224655D03*
X0302194Y0228001D03*
X0302194Y0234694D03*
X0218926Y0282923D03*
X0218926Y0289615D03*
X0162627Y0256741D03*
X0162627Y0250049D03*
X0139202Y0249261D03*
X0139202Y0255954D03*
X0108099Y0252411D03*
X0108099Y0245718D03*
X0108099Y0230954D03*
X0108099Y0224261D03*
X0063414Y0206545D03*
X0063414Y0199852D03*
X0063414Y0143552D03*
X0063414Y0136860D03*
X0063414Y0080560D03*
X0063414Y0073867D03*
X0062824Y0262844D03*
X0062824Y0269537D03*
D25*
X0166564Y0184104D03*
X0166564Y0169143D03*
X0156328Y0103198D03*
X0141367Y0103198D03*
D26*
X0158099Y0113238D02*
X0158099Y0116584D01*
X0158887Y0117371D01*
X0166564Y0117371D01*
X0167744Y0118552D01*
X0167744Y0122807D01*
X0165244Y0122807D02*
X0165244Y0131093D01*
X0162430Y0134104D01*
X0120107Y0134104D01*
X0126209Y0130757D02*
X0160068Y0130757D01*
X0162644Y0127787D01*
X0162644Y0122807D01*
X0160044Y0122807D02*
X0160044Y0126253D01*
X0158887Y0127608D01*
X0153769Y0127608D01*
X0151800Y0125639D01*
X0108887Y0125639D01*
X0108099Y0124852D01*
X0129950Y0136860D02*
X0161643Y0136860D01*
X0165244Y0139871D01*
X0165244Y0145007D01*
X0167744Y0145007D02*
X0167745Y0145008D01*
X0167745Y0152017D01*
X0166564Y0153198D01*
X0166564Y0156741D01*
X0170344Y0158356D02*
X0179950Y0165797D01*
X0179950Y0172489D02*
X0179950Y0182923D01*
X0198650Y0168356D02*
X0198847Y0168159D01*
X0194123Y0165403D02*
X0178044Y0149324D01*
X0178044Y0147749D01*
X0180544Y0145007D02*
X0180620Y0144930D01*
X0172863Y0145007D02*
X0172844Y0145007D01*
X0170344Y0145007D02*
X0170344Y0158356D01*
X0162644Y0145007D02*
X0162644Y0140617D01*
X0161643Y0139812D01*
X0133099Y0139812D01*
X0164162Y0113198D02*
X0164162Y0108671D01*
X0164005Y0108513D01*
X0164005Y0104340D01*
X0164202Y0104143D01*
X0170855Y0104182D02*
X0170894Y0104143D01*
X0170855Y0104182D02*
X0170855Y0113198D01*
X0170344Y0113709D01*
X0170344Y0122807D01*
X0172844Y0122807D02*
X0172844Y0119162D01*
X0175422Y0116584D01*
X0177824Y0116584D01*
X0180343Y0114064D01*
X0180383Y0109694D02*
X0180383Y0105009D01*
X0180343Y0105049D01*
X0180544Y0122807D02*
X0180620Y0122883D01*
X0178044Y0122807D02*
X0178044Y0125899D01*
X0181131Y0128986D01*
X0187233Y0128986D01*
X0175444Y0126842D02*
X0175444Y0122807D01*
X0175444Y0126842D02*
X0198847Y0150245D01*
D27*
X0210461Y0137450D02*
X0210461Y0129379D01*
X0210461Y0122883D02*
X0210461Y0122686D01*
X0210461Y0137450D02*
X0223375Y0150167D01*
X0210461Y0181348D02*
X0219280Y0190167D01*
X0223375Y0190167D01*
X0166564Y0192962D02*
X0166564Y0184104D01*
X0157115Y0184694D02*
X0157115Y0192962D01*
X0145894Y0192962D02*
X0145894Y0184694D01*
X0145894Y0178001D02*
X0145894Y0170324D01*
X0145698Y0170127D01*
X0157115Y0169930D02*
X0157115Y0178001D01*
X0166564Y0169143D02*
X0166564Y0156741D01*
X0158099Y0113238D02*
X0158099Y0104970D01*
X0156328Y0103198D01*
X0129595Y0083946D02*
X0129556Y0083907D01*
X0129556Y0072686D01*
X0129556Y0064419D01*
X0129359Y0064222D01*
X0108099Y0065009D02*
X0103769Y0069340D01*
X0095698Y0069340D01*
X0089005Y0069340D02*
X0085658Y0072686D01*
X0081131Y0072686D01*
X0080166Y0071722D01*
X0080166Y0061072D01*
X0075166Y0061072D02*
X0075166Y0071958D01*
X0074438Y0072686D01*
X0074438Y0080560D01*
X0081131Y0080560D02*
X0089989Y0080560D01*
X0089005Y0089615D02*
X0089005Y0098474D01*
X0085461Y0103592D02*
X0089005Y0107135D01*
X0087824Y0108316D01*
X0087824Y0113631D01*
X0087824Y0118356D01*
X0089202Y0119734D01*
X0095894Y0119734D02*
X0095894Y0118946D01*
X0102391Y0112253D01*
X0098257Y0107135D01*
X0095698Y0107135D01*
X0102391Y0112253D02*
X0108099Y0106741D01*
X0108099Y0105167D01*
X0108099Y0098474D02*
X0095698Y0098474D01*
X0085461Y0103592D02*
X0080166Y0103592D01*
X0070166Y0103592D02*
X0070166Y0089675D01*
X0070107Y0089615D01*
X0082312Y0089615D01*
X0065166Y0103592D02*
X0054556Y0103592D01*
X0052391Y0101427D01*
X0052391Y0089615D01*
X0045698Y0089615D02*
X0039005Y0089615D01*
X0052981Y0073867D02*
X0052587Y0073474D01*
X0052981Y0073867D02*
X0063414Y0073867D01*
X0070166Y0066525D01*
X0070166Y0061072D01*
X0065166Y0061072D02*
X0048454Y0061072D01*
X0048454Y0050049D01*
X0057115Y0050049D01*
X0054950Y0040600D02*
X0052391Y0038041D01*
X0052391Y0026230D01*
X0045698Y0026230D02*
X0039398Y0026230D01*
X0054950Y0040600D02*
X0065166Y0040600D01*
X0070166Y0040600D02*
X0070166Y0026289D01*
X0070107Y0026230D01*
X0082312Y0026230D01*
X0089005Y0026230D02*
X0089005Y0035482D01*
X0084280Y0040600D02*
X0089005Y0045324D01*
X0087430Y0046899D01*
X0087430Y0052017D01*
X0087430Y0057332D01*
X0088611Y0058513D01*
X0095304Y0058513D02*
X0102587Y0051230D01*
X0096682Y0045324D01*
X0095698Y0045324D01*
X0102587Y0051230D02*
X0108099Y0045718D01*
X0108099Y0042175D01*
X0108099Y0035482D02*
X0095698Y0035482D01*
X0084280Y0040600D02*
X0080166Y0040600D01*
X0063414Y0029379D02*
X0063414Y0026230D01*
X0063414Y0029379D02*
X0059477Y0033316D01*
X0041761Y0050049D02*
X0040580Y0051033D01*
X0040580Y0055364D01*
X0040580Y0059891D01*
X0041761Y0061072D01*
X0063414Y0080560D02*
X0063414Y0089615D01*
X0063414Y0092568D01*
X0059871Y0096112D01*
X0056131Y0112844D02*
X0048060Y0112844D01*
X0048060Y0124064D01*
X0065166Y0124064D01*
X0070166Y0124064D02*
X0070166Y0129517D01*
X0063414Y0136860D01*
X0052391Y0136860D01*
X0063414Y0143552D02*
X0063414Y0151820D01*
X0063414Y0154773D01*
X0059674Y0158513D01*
X0052391Y0163631D02*
X0055343Y0166584D01*
X0065166Y0166584D01*
X0070166Y0166584D02*
X0070166Y0151879D01*
X0070107Y0151820D01*
X0082312Y0151820D01*
X0089005Y0151820D02*
X0089005Y0159301D01*
X0089005Y0161269D01*
X0085855Y0166584D02*
X0080166Y0166584D01*
X0085855Y0166584D02*
X0089005Y0169734D01*
X0088808Y0169930D01*
X0088808Y0177017D01*
X0088808Y0183907D01*
X0095501Y0183907D02*
X0095501Y0182726D01*
X0102587Y0175639D01*
X0096682Y0169734D01*
X0095698Y0169734D01*
X0102587Y0175639D02*
X0108099Y0170127D01*
X0108099Y0167962D01*
X0102587Y0175639D02*
X0108099Y0181151D01*
X0108099Y0182726D01*
X0108099Y0189419D02*
X0103375Y0194143D01*
X0095698Y0194143D01*
X0089005Y0194143D02*
X0085461Y0194143D01*
X0081131Y0198474D01*
X0080166Y0196919D01*
X0080166Y0187056D01*
X0075166Y0187056D02*
X0075166Y0198336D01*
X0074438Y0198474D01*
X0074438Y0206545D01*
X0081131Y0206545D02*
X0089005Y0206545D01*
X0089005Y0215206D02*
X0089005Y0224261D01*
X0085855Y0229576D02*
X0080166Y0229576D01*
X0085855Y0229576D02*
X0089005Y0232726D01*
X0089005Y0239222D01*
X0089005Y0245521D01*
X0095698Y0245521D02*
X0096091Y0245521D01*
X0102981Y0238631D01*
X0108099Y0243749D01*
X0108099Y0245718D01*
X0108099Y0252411D02*
X0104556Y0255954D01*
X0095698Y0255954D01*
X0089005Y0255954D02*
X0086446Y0255954D01*
X0080934Y0261466D01*
X0080166Y0260895D01*
X0080166Y0250049D01*
X0075166Y0250049D02*
X0075166Y0260344D01*
X0074241Y0261466D01*
X0074241Y0269537D01*
X0080934Y0269537D02*
X0089005Y0269537D01*
X0089202Y0269734D01*
X0070166Y0255501D02*
X0062824Y0262844D01*
X0052391Y0262844D01*
X0045698Y0262844D02*
X0024635Y0262844D01*
X0015973Y0254182D01*
X0037627Y0247293D02*
X0037627Y0245127D01*
X0037627Y0242962D01*
X0041367Y0239222D01*
X0040580Y0239222D01*
X0048060Y0239222D02*
X0049044Y0240206D01*
X0056918Y0240206D01*
X0049044Y0240206D02*
X0049044Y0250049D01*
X0048060Y0251033D01*
X0049044Y0250049D02*
X0065166Y0250049D01*
X0070166Y0250049D02*
X0070166Y0255501D01*
X0062824Y0269537D02*
X0062824Y0275442D01*
X0041367Y0251033D02*
X0037627Y0247293D01*
X0040973Y0251033D02*
X0041367Y0251033D01*
X0054556Y0229576D02*
X0052391Y0227411D01*
X0052391Y0215600D01*
X0045698Y0215600D02*
X0039202Y0215600D01*
X0045698Y0227411D02*
X0016761Y0227411D01*
X0015973Y0226623D01*
X0052391Y0200639D02*
X0062036Y0200639D01*
X0063414Y0199852D01*
X0070166Y0192509D01*
X0070166Y0187056D01*
X0065166Y0187056D02*
X0048060Y0187056D01*
X0047863Y0187253D01*
X0047863Y0175442D01*
X0056131Y0175442D01*
X0041170Y0175442D02*
X0038217Y0178395D01*
X0038217Y0181348D01*
X0038217Y0184301D01*
X0041170Y0187253D01*
X0063414Y0206545D02*
X0063414Y0215206D01*
X0063414Y0217962D01*
X0059477Y0221899D01*
X0054556Y0229576D02*
X0065166Y0229576D01*
X0070166Y0229576D02*
X0070166Y0215265D01*
X0070107Y0215206D01*
X0082312Y0215206D01*
X0095698Y0224261D02*
X0108099Y0224261D01*
X0108099Y0230954D02*
X0108099Y0233513D01*
X0102981Y0238631D01*
X0097076Y0232726D01*
X0095698Y0232726D01*
X0127568Y0242982D02*
X0127587Y0242962D01*
X0127568Y0242982D02*
X0127568Y0249261D01*
X0127509Y0262509D02*
X0137489Y0272489D01*
X0149831Y0272489D01*
X0152666Y0275324D01*
X0152666Y0283001D01*
X0166367Y0293159D02*
X0171682Y0287844D01*
X0171682Y0272489D01*
X0169910Y0270718D01*
X0160206Y0270718D01*
X0152706Y0263218D01*
X0132666Y0283001D02*
X0132666Y0288789D01*
X0137036Y0293159D01*
X0166367Y0293159D01*
X0218926Y0282923D02*
X0218926Y0275245D01*
X0243670Y0289694D02*
X0251406Y0289615D01*
X0108099Y0161269D02*
X0095698Y0161269D01*
X0088217Y0143356D02*
X0081131Y0143356D01*
X0074438Y0143356D02*
X0074438Y0135482D01*
X0075166Y0134753D01*
X0075166Y0124064D01*
X0080166Y0124064D02*
X0080166Y0134517D01*
X0081131Y0135482D01*
X0083296Y0135482D01*
X0089202Y0129576D01*
X0095894Y0129576D02*
X0103375Y0129576D01*
X0108099Y0124852D01*
X0108099Y0118159D02*
X0108099Y0116978D01*
X0102391Y0112253D01*
X0052391Y0151820D02*
X0052391Y0163631D01*
X0045698Y0151820D02*
X0039005Y0151820D01*
X0041367Y0124064D02*
X0038808Y0121505D01*
X0038808Y0118552D01*
X0038808Y0115600D01*
X0041367Y0112844D01*
X0108099Y0058316D02*
X0108099Y0056741D01*
X0102587Y0051230D01*
X0161446Y0035088D02*
X0161446Y0026427D01*
X0161446Y0035088D02*
X0170107Y0043749D01*
X0206957Y0043749D01*
X0223375Y0060167D01*
X0223375Y0050167D02*
X0199635Y0026427D01*
X0189005Y0026427D01*
D28*
X0120107Y0044537D02*
X0111052Y0035482D01*
X0108099Y0035482D01*
X0089005Y0035482D02*
X0087036Y0033513D01*
X0076209Y0033513D01*
X0075166Y0034556D01*
X0075166Y0040600D01*
X0045698Y0038041D02*
X0029162Y0054576D01*
X0029162Y0164419D01*
X0022076Y0171505D01*
X0015973Y0171505D01*
X0033099Y0185482D02*
X0019517Y0199064D01*
X0015973Y0199064D01*
X0033099Y0185482D02*
X0033099Y0086269D01*
X0045894Y0073474D01*
X0022863Y0067568D02*
X0016564Y0061269D01*
X0015973Y0061269D01*
X0016170Y0088828D02*
X0015973Y0088828D01*
X0016170Y0088828D02*
X0023060Y0095718D01*
X0039005Y0101230D02*
X0045501Y0101230D01*
X0045698Y0101427D01*
X0075166Y0103592D02*
X0075166Y0097549D01*
X0076209Y0096505D01*
X0087036Y0096505D01*
X0089005Y0098474D01*
X0108099Y0098474D02*
X0120107Y0098474D01*
X0124044Y0102411D01*
X0124044Y0114419D01*
X0132432Y0122807D01*
X0157544Y0122807D01*
X0180620Y0122883D02*
X0210461Y0122883D01*
X0186446Y0144930D02*
X0180620Y0144930D01*
X0186446Y0144930D02*
X0210461Y0168946D01*
X0210461Y0174655D01*
X0198650Y0168356D02*
X0198650Y0253986D01*
X0204359Y0259694D01*
X0287233Y0259694D01*
X0293532Y0253395D01*
X0293532Y0224655D01*
X0302194Y0234694D02*
X0302194Y0256938D01*
X0296485Y0262647D01*
X0200422Y0262647D01*
X0194123Y0256938D01*
X0194123Y0165403D01*
X0160044Y0149285D02*
X0160044Y0145007D01*
X0157544Y0145007D02*
X0139519Y0145007D01*
X0123454Y0161072D01*
X0108296Y0161072D01*
X0108099Y0161269D01*
X0119320Y0147489D02*
X0129950Y0136860D01*
X0133099Y0139812D02*
X0123454Y0149655D01*
X0120107Y0134104D02*
X0118335Y0132923D01*
X0147076Y0150442D02*
X0108099Y0189419D01*
X0123454Y0183316D02*
X0123454Y0208907D01*
X0108099Y0224261D01*
X0119123Y0238828D02*
X0119123Y0241387D01*
X0108099Y0252411D01*
X0075166Y0229576D02*
X0075166Y0224123D01*
X0076209Y0223080D01*
X0087824Y0223080D01*
X0089005Y0224261D01*
X0045698Y0200639D02*
X0039202Y0200639D01*
X0075166Y0166584D02*
X0075166Y0159556D01*
X0075422Y0159301D01*
X0089005Y0159301D01*
X0045698Y0163631D02*
X0045501Y0163434D01*
X0039989Y0163434D01*
X0023454Y0152214D02*
X0015973Y0144734D01*
X0015973Y0143946D01*
X0024044Y0124852D02*
X0015973Y0116781D01*
X0015973Y0116387D01*
X0040776Y0136663D02*
X0045501Y0136663D01*
X0045698Y0136860D01*
X0115580Y0073867D02*
X0108099Y0066387D01*
X0108099Y0065009D01*
X0147076Y0150442D02*
X0158887Y0150442D01*
X0160044Y0149285D01*
D29*
X0150422Y0156741D03*
X0145698Y0170127D03*
X0157115Y0169930D03*
X0179950Y0182923D03*
X0166564Y0192962D03*
X0157115Y0192962D03*
X0145894Y0192962D03*
X0123454Y0183316D03*
X0102587Y0175639D03*
X0088808Y0177017D03*
X0059674Y0158513D03*
X0056131Y0175442D03*
X0038217Y0181348D03*
X0039989Y0163434D03*
X0039005Y0151820D03*
X0040776Y0136663D03*
X0024044Y0124852D03*
X0038808Y0118552D03*
X0056131Y0112844D03*
X0039005Y0101230D03*
X0039005Y0089615D03*
X0023060Y0095718D03*
X0022863Y0067568D03*
X0040580Y0055364D03*
X0057115Y0050049D03*
X0059477Y0033316D03*
X0039398Y0026230D03*
X0087430Y0052017D03*
X0102587Y0051230D03*
X0120107Y0044537D03*
X0129359Y0064222D03*
X0115580Y0073867D03*
X0089989Y0080560D03*
X0059871Y0096112D03*
X0087824Y0113631D03*
X0102391Y0112253D03*
X0126209Y0130757D03*
X0118335Y0132923D03*
X0119320Y0147489D03*
X0123454Y0149655D03*
X0088217Y0143356D03*
X0130540Y0103198D03*
X0142548Y0113434D03*
X0164005Y0108513D03*
X0187233Y0128986D03*
X0195698Y0114025D03*
X0193729Y0104970D03*
X0193926Y0097489D03*
X0214792Y0109694D03*
X0198847Y0150245D03*
X0198847Y0168159D03*
X0152587Y0233907D03*
X0127587Y0242962D03*
X0119123Y0238828D03*
X0102981Y0238631D03*
X0089005Y0239222D03*
X0056918Y0240206D03*
X0059477Y0221899D03*
X0039202Y0215600D03*
X0039202Y0200639D03*
X0089005Y0206545D03*
X0037627Y0245127D03*
X0062824Y0275442D03*
X0089202Y0269734D03*
X0139202Y0262844D03*
X0162627Y0263041D03*
X0218926Y0275245D03*
X0251406Y0289615D03*
X0342351Y0196505D03*
X0331918Y0190600D03*
X0310658Y0190403D03*
X0310461Y0173277D03*
X0310461Y0163041D03*
X0319517Y0154576D03*
X0343335Y0083119D03*
X0331721Y0073277D03*
X0310855Y0073080D03*
X0302587Y0064615D03*
X0302784Y0052017D03*
X0317745Y0039812D03*
X0209280Y0020127D03*
X0142745Y0072686D03*
X0142548Y0083907D03*
X0023454Y0152214D03*
D30*
X0130540Y0103198D02*
X0141367Y0103198D01*
X0142548Y0113434D02*
X0151406Y0113238D01*
X0170894Y0104143D02*
X0170894Y0099655D01*
X0189005Y0099655D01*
X0193926Y0097489D01*
X0193729Y0104970D02*
X0192902Y0105009D01*
X0187076Y0105009D01*
X0180343Y0105049D02*
X0180343Y0114064D01*
X0180383Y0109694D02*
X0212233Y0109694D01*
X0212430Y0109694D01*
X0214792Y0109694D01*
X0195698Y0114025D02*
X0194556Y0114064D01*
X0187036Y0114064D01*
X0142548Y0083907D02*
X0136249Y0083907D01*
X0136249Y0072686D02*
X0142745Y0072686D01*
X0209280Y0020127D02*
X0214123Y0020127D01*
X0223375Y0020167D01*
X0293139Y0057234D02*
X0317720Y0057234D01*
X0317720Y0062234D02*
X0317720Y0073238D01*
X0317666Y0073238D01*
X0317666Y0073080D01*
X0310855Y0073080D01*
X0302587Y0064615D02*
X0302587Y0110049D01*
X0283375Y0110167D01*
X0283375Y0120167D02*
X0310265Y0120285D01*
X0310461Y0163041D01*
X0303749Y0168375D02*
X0319492Y0168375D01*
X0319492Y0173277D02*
X0319492Y0173375D01*
X0319492Y0173277D02*
X0310461Y0173277D01*
X0303749Y0168375D02*
X0303375Y0168356D01*
X0303375Y0130088D01*
X0283375Y0130167D01*
X0283375Y0140167D02*
X0298257Y0140167D01*
X0298257Y0206545D01*
X0302194Y0211072D01*
X0302194Y0228001D01*
X0293532Y0217962D02*
X0293532Y0150167D01*
X0283375Y0150167D01*
X0319517Y0154576D02*
X0319517Y0163375D01*
X0319492Y0163375D01*
X0319477Y0178375D02*
X0319477Y0190521D01*
X0310776Y0190521D01*
X0310658Y0190403D01*
X0319477Y0178375D02*
X0319492Y0178375D01*
X0326170Y0190521D02*
X0331839Y0190521D01*
X0331918Y0190600D01*
X0337233Y0189025D02*
X0337233Y0213100D01*
X0337233Y0223100D02*
X0337233Y0223277D01*
X0347272Y0223277D01*
X0347272Y0199852D01*
X0356918Y0191781D01*
X0356918Y0168375D01*
X0340092Y0168375D01*
X0340092Y0173375D02*
X0351997Y0173375D01*
X0351997Y0188631D01*
X0342351Y0196505D01*
X0352194Y0203789D02*
X0352194Y0249458D01*
X0346288Y0255364D01*
X0318729Y0255364D01*
X0318729Y0236466D01*
X0326643Y0228552D01*
X0327233Y0228100D01*
X0352194Y0203789D02*
X0362430Y0195915D01*
X0362430Y0163375D01*
X0340092Y0163375D01*
X0340092Y0178375D02*
X0346288Y0178375D01*
X0346288Y0182529D01*
X0337233Y0189025D01*
X0347469Y0140009D02*
X0319320Y0140009D01*
X0318926Y0139615D01*
X0318926Y0121289D01*
X0327233Y0112982D01*
X0337233Y0107982D02*
X0337371Y0108119D01*
X0339792Y0108119D01*
X0345501Y0102411D01*
X0345501Y0090797D01*
X0357706Y0073277D01*
X0357706Y0052234D01*
X0338320Y0052234D01*
X0338320Y0057234D02*
X0351406Y0057234D01*
X0351406Y0071308D01*
X0343335Y0083119D01*
X0337233Y0079182D02*
X0337233Y0097982D01*
X0350225Y0093552D02*
X0350225Y0137253D01*
X0347469Y0140009D01*
X0293139Y0100245D02*
X0293139Y0057234D01*
X0302784Y0052234D02*
X0317720Y0052234D01*
X0317720Y0047234D02*
X0317720Y0039812D01*
X0317745Y0039812D01*
X0302784Y0052017D02*
X0302784Y0052234D01*
X0324359Y0073238D02*
X0324359Y0073277D01*
X0331721Y0073277D01*
X0337233Y0079182D02*
X0344713Y0068946D01*
X0344713Y0062234D01*
X0338320Y0062234D01*
X0338320Y0047234D02*
X0363414Y0047234D01*
X0363414Y0074655D01*
X0350225Y0093552D01*
X0293139Y0100245D02*
X0283375Y0100167D01*
X0159871Y0156741D02*
X0150422Y0156741D01*
X0152587Y0233907D02*
X0152587Y0249911D01*
X0152706Y0250029D01*
X0152725Y0250049D01*
X0162627Y0250049D01*
X0162627Y0256741D02*
X0162627Y0263041D01*
X0139202Y0262844D02*
X0139202Y0255954D01*
X0139202Y0249261D02*
X0127568Y0249261D01*
X0127509Y0249320D01*
X0127509Y0262509D02*
X0127666Y0262667D01*
X0192666Y0283001D02*
X0199280Y0289615D01*
X0218926Y0289615D01*
X0219005Y0289694D01*
X0230481Y0289694D01*
D31*
X0178572Y0154773D02*
X0175444Y0149677D01*
X0175444Y0145007D01*
X0172844Y0145007D02*
X0172844Y0151289D01*
X0173572Y0154773D01*
D32*
X0178572Y0154773D01*
M02*
